<svg xmlns="http://www.w3.org/2000/svg" xmlns:svg="http://www.w3.org/2000/svg" xmlns:xlink="http://www.w3.org/1999/xlink" id="svg2" width="48" height="48" enable-background="new" version="1.1" viewBox="0 0 48 48"><title id="title4675">Template icons dark</title><metadata id="metadata24"/><defs id="defs22"><linearGradient id="linearGradient958"><stop id="stop954" offset="0" stop-color="#24303f" stop-opacity="1"/><stop id="stop956" offset="1" stop-color="#293748" stop-opacity="1"/></linearGradient><linearGradient id="linearGradient938"><stop id="stop934" offset="0" stop-color="#5a41e2" stop-opacity="1"/><stop id="stop936" offset="1" stop-color="#4c9ce0" stop-opacity=".945"/></linearGradient><linearGradient id="linearGradient4821" x1="23.84" x2="23.84" y1="8.16" y2="39.84" gradientTransform="matrix(2.5087172,0,0,2.5087172,99.790791,99.790792)" gradientUnits="userSpaceOnUse" xlink:href="#linearGradient4819"/><linearGradient id="linearGradient4819"><stop id="stop4815" offset="0" stop-color="#fffefe" stop-opacity="1"/><stop id="stop4817" offset="1" stop-color="#fff" stop-opacity=".855"/></linearGradient><linearGradient id="linearGradient940" x1="120.756" x2="199.496" y1="120" y2="200" gradientUnits="userSpaceOnUse" xlink:href="#linearGradient938"/><linearGradient id="linearGradient960" x1="171.402" x2="171.402" y1="199.004" y2="116" gradientUnits="userSpaceOnUse" xlink:href="#linearGradient958"/><linearGradient id="linearGradient960-7" x1="171.402" x2="171.402" y1="199.004" y2="116" gradientTransform="matrix(1.3333322,0,0,1.3333322,58.666859,58.666844)" gradientUnits="userSpaceOnUse" xlink:href="#linearGradient958"/><linearGradient id="linearGradient960-0" x1="171.402" x2="171.402" y1="199.004" y2="116" gradientTransform="matrix(0.70454606,0,0,0.70454606,-32.727383,-32.727368)" gradientUnits="userSpaceOnUse" xlink:href="#linearGradient958"/><linearGradient id="linearGradient960-79" x1="171.402" x2="171.402" y1="199.004" y2="116" gradientTransform="matrix(0.52272771,0,0,0.52272771,-59.636454,-59.636434)" gradientUnits="userSpaceOnUse" xlink:href="#linearGradient958"/><linearGradient id="linearGradient960-73" x1="171.402" x2="171.402" y1="199.004" y2="116" gradientTransform="matrix(0.34090924,0,0,0.34090924,-70.545506,-70.545479)" gradientUnits="userSpaceOnUse" xlink:href="#linearGradient958"/><linearGradient id="linearGradient960-5" x1="171.402" x2="171.402" y1="199.004" y2="116" gradientTransform="matrix(0.2727275,0,0,0.2727275,-87.636429,-87.636401)" gradientUnits="userSpaceOnUse" xlink:href="#linearGradient958"/><linearGradient id="linearGradient960-4" x1="171.402" x2="171.402" y1="199.004" y2="116" gradientTransform="matrix(0.18181834,0,0,0.18181834,-93.090925,-93.090933)" gradientUnits="userSpaceOnUse" xlink:href="#linearGradient958"/></defs><g id="layer1" display="inline"><g id="layer5" display="none"><rect id="frame_16" width="16" height="16" x="-72" y="-72" fill="#000" fill-opacity="1" fill-rule="nonzero" stroke="#ff24f7" stroke-dasharray="none" stroke-dashoffset="0" stroke-linecap="square" stroke-linejoin="miter" stroke-miterlimit="4" stroke-opacity=".995" stroke-width="0" marker-end="none" marker-mid="none" marker-start="none" clip-rule="nonzero" color="#000" color-interpolation="sRGB" color-interpolation-filters="linearRGB" color-rendering="auto" display="block" enable-background="accumulate" image-rendering="auto" opacity="1" overflow="visible" paint-order="normal" shape-rendering="auto" text-rendering="auto" vector-effect="none" visibility="visible" style="isolation:auto;mix-blend-mode:normal;solid-color:#000;solid-opacity:1;marker:none"/><text id="txt_16" x="-69.279" y="-61.088" fill="#fff" fill-opacity="1" stroke="none" stroke-linecap="butt" stroke-linejoin="miter" stroke-opacity="1" stroke-width=".072" display="inline" font-family="sans-serif" font-size="8" letter-spacing="0" opacity="1" word-spacing="0" xml:space="preserve" style="line-height:1000%"><tspan id="tspan4768-6" x="-69.279" y="-61.088" fill="#fff" fill-opacity="1" stroke="none" stroke-width=".072" font-size="8">16</tspan></text></g><g id="layer6" display="inline"><rect id="rect942-9" width="16" height="16" x="-72" y="-72" fill="url(#linearGradient960-4)" fill-opacity="1" fill-rule="nonzero" stroke="none" stroke-dasharray="none" stroke-dashoffset="0" stroke-linecap="butt" stroke-linejoin="miter" stroke-miterlimit="4" stroke-opacity=".104" stroke-width=".09" marker-end="none" marker-mid="none" marker-start="none" clip-rule="nonzero" color="#000" color-interpolation="sRGB" color-interpolation-filters="linearRGB" color-rendering="auto" display="block" enable-background="accumulate" image-rendering="auto" opacity="1" overflow="visible" paint-order="fill markers stroke" ry="2.208" shape-rendering="auto" text-rendering="auto" vector-effect="none" visibility="visible" style="isolation:auto;mix-blend-mode:normal;solid-color:#000;solid-opacity:1;marker:none"/><path id="path965-6-2-8-6" fill="#ff9802" fill-opacity=".984" fill-rule="evenodd" stroke-width=".547" d="m -59.310708,-59.813916 c -1.502842,0.805014 -3.136392,1.192757 -4.622825,1.192757 -2.20231,0 -4.335163,-0.761813 -6.060042,-2.026758 -0.151486,-0.110475 -0.26305,0.08422 -0.137267,0.227506 1.599639,1.818941 3.711167,2.912713 6.057305,2.912713 1.674017,0 3.617105,-0.66392 4.958068,-1.91082 0.222036,-0.206176 0.03172,-0.516806 -0.195239,-0.395398 z m 0.366413,1.211898 c -0.04976,0.124144 0.05688,0.175003 0.169536,0.0804 0.73228,-0.61251 0.9215,-1.895505 0.771654,-2.080352 -0.148754,-0.183753 -1.428466,-0.342349 -2.209417,0.206176 -0.120315,0.08422 -0.09953,0.200706 0.0339,0.184302 0.440244,-0.0525 1.419169,-0.170629 1.593079,0.05359 0.174455,0.224225 -0.194145,1.145179 -0.358759,1.555892 z" clip-rule="evenodd" display="inline"/><path id="path976-2-2-9-1" fill="#fff" fill-opacity=".984" fill-rule="evenodd" stroke-width=".452" d="m -63.166715,-65.215676 c 0,0.55661 0.01311,1.019248 -0.267012,1.513962 -0.226799,0.402547 -0.587782,0.649679 -0.98762,0.649679 -0.548477,0 -0.868349,-0.417457 -0.868349,-1.035511 0,-1.21623 1.091085,-1.43761 2.123432,-1.43761 v 0.30948 z m 1.439416,3.48107 c -0.09443,0.08539 -0.23132,0.09081 -0.336588,0.03344 -0.475288,-0.393964 -0.559321,-0.576489 -0.819553,-0.951479 -0.783411,0.79832 -1.338215,1.037772 -2.353393,1.037772 -1.201775,0 -2.137439,-0.741395 -2.137439,-2.225088 0,-1.15885 0.628446,-1.946778 1.522544,-2.333061 0.774829,-0.340654 1.856874,-0.40255 2.684561,-0.494714 v -0.185239 c 0,-0.340201 0.0271,-0.741845 -0.173038,-1.036415 -0.173939,-0.26159 -0.507815,-0.370472 -0.801932,-0.370472 -0.544411,0 -1.028737,0.27921 -1.147559,0.857054 -0.02439,0.12876 -0.117917,0.256167 -0.248034,0.262944 l -1.38294,-0.150449 c -0.117015,-0.02531 -0.247583,-0.120176 -0.213248,-0.298184 0.318063,-1.678866 1.834285,-2.185779 3.192376,-2.185779 0.694408,0 1.602514,0.185235 2.149635,0.711124 0.694858,0.648775 0.628899,1.514414 0.628899,2.456857 v 2.224181 c 0,0.669105 0.278303,0.962321 0.538537,1.323302 0.09217,0.129667 0.111593,0.284633 -0.0046,0.379057 -0.292311,0.24442 -0.810519,0.694407 -1.094697,0.948315 z" clip-rule="evenodd" display="inline"/></g></g><g id="layer2" display="inline"><g id="layer7" display="none"><rect id="frame_24" width="24" height="24" x="-56" y="-56" fill="#000" fill-opacity=".995" fill-rule="nonzero" stroke="#ff24f7" stroke-dasharray="none" stroke-dashoffset="0" stroke-linecap="square" stroke-linejoin="miter" stroke-miterlimit="4" stroke-opacity=".995" stroke-width="0" marker-end="none" marker-mid="none" marker-start="none" clip-rule="nonzero" color="#000" color-interpolation="sRGB" color-interpolation-filters="linearRGB" color-rendering="auto" display="block" enable-background="accumulate" image-rendering="auto" opacity="1" overflow="visible" paint-order="normal" shape-rendering="auto" text-rendering="auto" vector-effect="none" visibility="visible" style="isolation:auto;mix-blend-mode:normal;solid-color:#000;solid-opacity:1;marker:none"/><text id="txt_24" x="-50.88" y="-40.042" fill="#fff" fill-opacity="1" stroke="none" stroke-linecap="butt" stroke-linejoin="miter" stroke-opacity="1" stroke-width=".112" display="inline" font-family="sans-serif" font-size="10.667" letter-spacing="0" opacity="1" word-spacing="0" xml:space="preserve" style="line-height:1000%"><tspan id="tspan4835-2-5" x="-50.88" y="-40.042" fill="#fff" fill-opacity="1" stroke="none" stroke-width=".112" font-size="10.667">24</tspan></text></g><g id="layer8" display="inline"><rect id="rect942-06" width="24" height="24" x="-56" y="-56" fill="url(#linearGradient960-5)" fill-opacity="1" fill-rule="nonzero" stroke="none" stroke-dasharray="none" stroke-dashoffset="0" stroke-linecap="butt" stroke-linejoin="miter" stroke-miterlimit="4" stroke-opacity=".104" stroke-width=".135" marker-end="none" marker-mid="none" marker-start="none" clip-rule="nonzero" color="#000" color-interpolation="sRGB" color-interpolation-filters="linearRGB" color-rendering="auto" display="block" enable-background="accumulate" image-rendering="auto" opacity="1" overflow="visible" paint-order="fill markers stroke" ry="3.313" shape-rendering="auto" text-rendering="auto" vector-effect="none" visibility="visible" style="isolation:auto;mix-blend-mode:normal;solid-color:#000;solid-opacity:1;marker:none"/><path id="path965-6-2-8-7" fill="#ff9802" fill-opacity=".984" fill-rule="evenodd" stroke-width=".64" d="m -38.429341,-39.018302 c -1.758922,0.942187 -3.670825,1.396 -5.410543,1.396 -2.577578,0 -5.073864,-0.891623 -7.092657,-2.372112 -0.1773,-0.129297 -0.307873,0.09857 -0.160658,0.266273 1.872214,2.128883 4.34354,3.409031 7.089455,3.409031 1.959266,0 4.23345,-0.777051 5.802911,-2.236419 0.25987,-0.241307 0.03712,-0.604867 -0.228508,-0.462773 z m 0.42885,1.418403 c -0.05824,0.145297 0.06657,0.204822 0.198424,0.09409 0.857058,-0.716881 1.07852,-2.218494 0.903142,-2.434839 -0.174101,-0.215064 -1.671873,-0.400685 -2.585896,0.241307 -0.140817,0.09857 -0.116496,0.234907 0.03968,0.215707 0.51526,-0.06145 1.660991,-0.199703 1.864535,0.06272 0.204182,0.262432 -0.227227,1.340315 -0.419889,1.821012 z" clip-rule="evenodd" display="inline"/><path id="path976-2-2-9-3" fill="#fff" fill-opacity=".984" fill-rule="evenodd" stroke-width=".64" d="m -42.746637,-45.222536 c 0,0.78857 0.01857,1.444008 -0.378286,2.144888 -0.321315,0.570304 -0.832735,0.920425 -1.399201,0.920425 -0.777048,0 -1.230222,-0.591428 -1.230222,-1.467049 0,-1.723078 1.545782,-2.036715 3.008349,-2.036715 v 0.438451 z m 2.039276,4.931765 c -0.133778,0.120975 -0.327721,0.128658 -0.476859,0.04737 -0.673357,-0.558144 -0.792411,-0.816734 -1.161091,-1.347996 -1.109888,1.131009 -1.895899,1.470249 -3.334143,1.470249 -1.702599,0 -3.02819,-1.050362 -3.02819,-3.152365 0,-1.641787 0.890342,-2.758075 2.157047,-3.305337 1.097728,-0.482617 2.630703,-0.570307 3.803318,-0.70088 v -0.262431 c 0,-0.481976 0.0384,-1.051001 -0.245148,-1.468329 -0.246427,-0.370604 -0.719442,-0.524862 -1.136129,-0.524862 -0.771289,0 -1.45745,0.395566 -1.62579,1.21422 -0.03456,0.182421 -0.167056,0.362922 -0.3514,0.372524 l -1.959265,-0.213146 c -0.165777,-0.03584 -0.35076,-0.170259 -0.302115,-0.422449 0.450612,-2.378514 2.5987,-3.096676 4.522761,-3.096676 0.983794,0 2.270343,0.262429 3.045471,1.007475 0.984431,0.919146 0.890984,2.145529 0.890984,3.480722 v 3.151083 c 0,0.947948 0.394283,1.363358 0.762967,1.874775 0.130576,0.183702 0.158097,0.403247 -0.0064,0.537023 -0.414129,0.346279 -1.148293,0.983791 -1.550899,1.343513 z" clip-rule="evenodd" display="inline"/></g></g><g id="g7816" display="inline"><g id="g7802" display="none"><rect id="rect7792" width="32" height="32" x="-32" y="-32" fill="#000" fill-opacity="1" fill-rule="nonzero" stroke="#ff24f7" stroke-dasharray="none" stroke-dashoffset="0" stroke-linecap="square" stroke-linejoin="miter" stroke-miterlimit="4" stroke-opacity=".995" stroke-width="0" marker-end="none" marker-mid="none" marker-start="none" clip-rule="nonzero" color="#000" color-interpolation="sRGB" color-interpolation-filters="linearRGB" color-rendering="auto" display="block" enable-background="accumulate" image-rendering="auto" opacity="1" overflow="visible" paint-order="normal" shape-rendering="auto" text-rendering="auto" vector-effect="none" visibility="visible" style="isolation:auto;mix-blend-mode:normal;solid-color:#000;solid-opacity:1;marker:none"/><text id="text7796" x="-23.799" y="-11.47" fill="#fff" fill-opacity="1" stroke="none" stroke-linecap="butt" stroke-linejoin="miter" stroke-opacity="1" stroke-width=".074" display="inline" font-family="sans-serif" font-size="12.444" letter-spacing="0" opacity="1" word-spacing="0" xml:space="preserve" style="line-height:1000%"><tspan id="tspan7794" x="-23.799" y="-11.47" fill="#fff" fill-opacity="1" stroke="none" stroke-width=".074" font-size="12.444">32</tspan></text></g><g id="g7814" display="inline"><rect marker-start="none" style="isolation:auto;mix-blend-mode:normal;solid-color:#000;solid-opacity:1;marker:none" id="rect974-29" width="32" height="32" x="-32" y="-32" fill="#000" fill-opacity=".126" fill-rule="nonzero" stroke="none" stroke-dasharray="none" stroke-dashoffset="0" stroke-linecap="butt" stroke-linejoin="miter" stroke-miterlimit="4" stroke-opacity=".104" stroke-width=".18" marker-end="none" marker-mid="none" clip-rule="nonzero" color="#000" color-interpolation="sRGB" color-interpolation-filters="linearRGB" color-rendering="auto" display="block" enable-background="accumulate" image-rendering="auto" opacity="1" overflow="visible" paint-order="fill markers stroke" ry="4.417" shape-rendering="auto" text-rendering="auto" vector-effect="none" visibility="visible"/><rect id="rect942-31" width="30" height="30" x="-31" y="-31" fill="url(#linearGradient960-73)" fill-opacity="1" fill-rule="nonzero" stroke="none" stroke-dasharray="none" stroke-dashoffset="0" stroke-linecap="butt" stroke-linejoin="miter" stroke-miterlimit="4" stroke-opacity=".104" stroke-width=".169" marker-end="none" marker-mid="none" marker-start="none" clip-rule="nonzero" color="#000" color-interpolation="sRGB" color-interpolation-filters="linearRGB" color-rendering="auto" display="block" enable-background="accumulate" image-rendering="auto" opacity="1" overflow="visible" paint-order="fill markers stroke" ry="4.141" shape-rendering="auto" text-rendering="auto" vector-effect="none" visibility="visible" style="isolation:auto;mix-blend-mode:normal;solid-color:#000;solid-opacity:1;marker:none"/><path clip-rule="nonzero" style="isolation:auto;mix-blend-mode:normal;solid-color:#000;solid-opacity:1;marker:none" id="rect969-8" fill="#f2f2f8" fill-opacity=".052" fill-rule="nonzero" stroke="none" stroke-dasharray="none" stroke-dashoffset="0" stroke-linecap="butt" stroke-linejoin="miter" stroke-miterlimit="4" stroke-opacity=".104" stroke-width=".66" marker-end="none" marker-mid="none" marker-start="none" d="m -31.000036,-5.4817495 v 0.3409093 c 0,2.2939135 1.846934,4.14084739 4.140848,4.14084739 h 21.718319 c 2.2939136,0 4.1408474,-1.84693389 4.1408474,-4.14084739 v -0.3409093 c 0,2.2939136 -1.8469338,3.4930628 -4.1408474,3.4930628 h -21.718319 c -2.293914,0 -4.140848,-1.1991492 -4.140848,-3.4930628 z" color="#000" color-interpolation="sRGB" color-interpolation-filters="linearRGB" color-rendering="auto" display="block" enable-background="accumulate" image-rendering="auto" opacity="1" overflow="visible" paint-order="fill markers stroke" shape-rendering="auto" text-rendering="auto" vector-effect="none" visibility="visible"/><path id="path965-6-2-8" fill="#ff9802" fill-opacity=".984" fill-rule="evenodd" stroke-width=".835" d="m -8.7339435,-9.5021628 c -2.2942355,1.2289341 -4.7880105,1.8208603 -7.0571985,1.8208603 -3.362044,0 -6.618054,-1.1629808 -9.251251,-3.0940455 -0.23126,-0.168647 -0.401572,0.12857 -0.209553,0.347311 2.442007,2.7767925 5.665462,4.4465433 9.247075,4.4465433 2.555553,0 5.521867,-1.0135399 7.568981,-2.9170549 0.3389585,-0.3147471 0.048421,-0.7889545 -0.2980535,-0.6036142 z m 0.5593671,1.850082 c -0.075972,0.1895176 0.086828,0.267159 0.2588125,0.1227249 1.1178979,-0.9350591 1.4067608,-2.8936761 1.1780063,-3.1758641 -0.2270864,-0.280516 -2.1806939,-0.52263 -3.3728924,0.314747 -0.183673,0.128574 -0.15195,0.3064 0.05176,0.281356 0.6720754,-0.08015 2.1665005,-0.260481 2.4319914,0.08181 0.2663233,0.3423005 -0.2963807,1.7482285 -0.547679,2.3752217 z" clip-rule="evenodd" display="inline"/><path id="path976-2-2-9" fill="#fff" fill-opacity=".984" fill-rule="evenodd" stroke-width=".835" d="m -14.365174,-17.594607 c 0,1.028565 0.02422,1.88348 -0.493414,2.797667 -0.419105,0.743872 -1.086171,1.20055 -1.825037,1.20055 -1.013536,0 -1.60463,-0.771425 -1.60463,-1.913534 0,-2.247484 2.016228,-2.656574 3.923916,-2.656574 v 0.57189 z m 2.659914,6.432709 c -0.174493,0.157792 -0.42746,0.167814 -0.621987,0.06179 -0.878288,-0.72801 -1.033575,-1.065301 -1.51446,-1.758248 -1.447674,1.475223 -2.472902,1.917708 -4.348864,1.917708 -2.220771,0 -3.949796,-1.370032 -3.949796,-4.111762 0,-2.141453 1.161311,-3.597474 2.813528,-4.311291 1.431813,-0.629498 3.431336,-0.743875 4.960828,-0.914187 v -0.3423 c 0,-0.628662 0.05009,-1.370865 -0.319757,-1.915203 -0.321425,-0.483395 -0.938399,-0.6846 -1.481901,-0.6846 -1.006025,0 -1.901014,0.515953 -2.120586,1.583758 -0.04508,0.237939 -0.217899,0.473375 -0.458346,0.485899 l -2.555552,-0.278015 c -0.21623,-0.04675 -0.457511,-0.222076 -0.394061,-0.551019 0.587752,-3.102396 3.389593,-4.039124 5.899227,-4.039124 1.283204,0 2.961305,0.342297 3.972336,1.314091 1.284036,1.198881 1.162148,2.798504 1.162148,4.540053 v 4.11009 c 0,1.236449 0.514281,1.778286 0.9951702,2.445348 0.1703154,0.239611 0.2062119,0.525972 -0.00833,0.700462 -0.5401652,0.451667 -1.4977662,1.2832 -2.0229022,1.752401 z" clip-rule="evenodd" display="inline"/></g></g><g id="layer3" display="inline"><g id="layer9" display="none"><rect id="frame_48" width="48" height="48" x="0" y="0" fill="#000" fill-opacity="1" fill-rule="nonzero" stroke="#ff24f7" stroke-dasharray="none" stroke-dashoffset="0" stroke-linecap="square" stroke-linejoin="miter" stroke-miterlimit="4" stroke-opacity=".995" stroke-width="0" marker-end="none" marker-mid="none" marker-start="none" clip-rule="nonzero" color="#000" color-interpolation="sRGB" color-interpolation-filters="linearRGB" color-rendering="auto" display="block" enable-background="accumulate" image-rendering="auto" opacity="1" overflow="visible" paint-order="normal" shape-rendering="auto" text-rendering="auto" vector-effect="none" visibility="visible" style="isolation:auto;mix-blend-mode:normal;solid-color:#000;solid-opacity:1;marker:none"/><text id="txt_48" x="12.301" y="30.795" fill="#fff" fill-opacity="1" stroke="none" stroke-linecap="butt" stroke-linejoin="miter" stroke-opacity="1" stroke-width=".112" display="inline" font-family="sans-serif" font-size="18.667" letter-spacing="0" opacity="1" word-spacing="0" xml:space="preserve" style="line-height:1000%"><tspan id="tspan5049-1" x="12.301" y="30.795" fill="#fff" fill-opacity="1" stroke="none" stroke-width=".112" font-size="18.667">48</tspan></text><text id="txt_scalable_32-64" x="25.824" y="45.962" fill="#fff" fill-opacity=".448" stroke="none" stroke-linecap="butt" stroke-linejoin="miter" stroke-opacity="1" stroke-width=".059" display="inline" font-family="sans-serif" font-size="2.667" letter-spacing="0" opacity="1" word-spacing="0" xml:space="preserve" style="line-height:1000%"><tspan id="tspan5049-1-6" x="25.824" y="45.962" fill="#fff" fill-opacity=".448" stroke="none" stroke-width=".059" font-size="2.667">Scalable:32-64</tspan></text></g><g id="layer10" display="inline"><rect marker-start="none" style="isolation:auto;mix-blend-mode:normal;solid-color:#000;solid-opacity:1;marker:none" id="rect974-2" width="48" height="48" x="0" y="0" fill="#000" fill-opacity=".126" fill-rule="nonzero" stroke="none" stroke-dasharray="none" stroke-dashoffset="0" stroke-linecap="butt" stroke-linejoin="miter" stroke-miterlimit="4" stroke-opacity=".104" stroke-width=".27" marker-end="none" marker-mid="none" clip-rule="nonzero" color="#000" color-interpolation="sRGB" color-interpolation-filters="linearRGB" color-rendering="auto" display="block" enable-background="accumulate" image-rendering="auto" opacity="1" overflow="visible" paint-order="fill markers stroke" ry="6.625" shape-rendering="auto" text-rendering="auto" vector-effect="none" visibility="visible"/><rect id="rect942-3" width="46" height="46" x="1" y="1" fill="url(#linearGradient960-79)" fill-opacity="1" fill-rule="nonzero" stroke="none" stroke-dasharray="none" stroke-dashoffset="0" stroke-linecap="butt" stroke-linejoin="miter" stroke-miterlimit="4" stroke-opacity=".104" stroke-width=".259" marker-end="none" marker-mid="none" marker-start="none" clip-rule="nonzero" color="#000" color-interpolation="sRGB" color-interpolation-filters="linearRGB" color-rendering="auto" display="block" enable-background="accumulate" image-rendering="auto" opacity="1" overflow="visible" paint-order="fill markers stroke" ry="6.349" shape-rendering="auto" text-rendering="auto" vector-effect="none" visibility="visible" style="isolation:auto;mix-blend-mode:normal;solid-color:#000;solid-opacity:1;marker:none"/><path clip-rule="nonzero" style="isolation:auto;mix-blend-mode:normal;solid-color:#000;solid-opacity:1;marker:none" id="rect969-22" fill="#f2f2f8" fill-opacity=".052" fill-rule="nonzero" stroke="none" stroke-dasharray="none" stroke-dashoffset="0" stroke-linecap="butt" stroke-linejoin="miter" stroke-miterlimit="4" stroke-opacity=".104" stroke-width=".66" marker-end="none" marker-mid="none" marker-start="none" d="m 0.99995651,40.068217 v 0.522728 c 0,3.517335 2.83196659,6.349302 6.34930239,6.349302 H 40.650698 C 44.168034,46.940247 47,44.10828 47,40.590945 V 40.068217 C 47,43.585552 44.168034,46.0065 40.650698,46.0065 H 7.3492589 c -3.5173358,0 -6.34930239,-2.420948 -6.34930239,-5.938283 z" color="#000" color-interpolation="sRGB" color-interpolation-filters="linearRGB" color-rendering="auto" display="block" enable-background="accumulate" image-rendering="auto" opacity="1" overflow="visible" paint-order="fill markers stroke" shape-rendering="auto" text-rendering="auto" vector-effect="none" visibility="visible"/><path id="path965-6-2" fill="#ff9802" fill-opacity=".984" fill-rule="evenodd" stroke-width="1.42" d="m 36.361831,35.054823 c -3.903202,2.090796 -8.145883,3.097845 -12.00647,3.097845 -5.719875,0 -11.259352,-1.978589 -15.7392332,-5.263925 -0.3934442,-0.286921 -0.6831977,0.218737 -0.3565138,0.590881 4.154608,4.724181 9.638699,7.564942 15.732127,7.564942 4.347783,0 9.394398,-1.724344 12.877171,-4.96281 0.576673,-0.535482 0.08238,-1.342255 -0.507081,-1.026933 z m 0.951656,3.14756 c -0.129253,0.322428 0.147722,0.45452 0.44032,0.208792 1.901889,-1.590823 2.393334,-4.923035 2.004152,-5.403124 -0.386344,-0.477244 -3.710033,-0.889156 -5.738331,0.535482 -0.312483,0.218743 -0.258513,0.521281 0.08806,0.478673 1.143408,-0.13636 3.685886,-0.443159 4.137568,0.139193 0.453098,0.582358 -0.504235,2.974275 -0.931771,4.040984 z" clip-rule="evenodd" display="inline"/><path id="path976-2-2" fill="#fff" fill-opacity=".984" fill-rule="evenodd" stroke-width="1.42" d="m 26.78137,21.287078 c 0,1.749907 0.0412,3.204381 -0.839448,4.759696 -0.713028,1.265555 -1.847913,2.042504 -3.104951,2.042504 -1.724338,0 -2.72997,-1.312431 -2.72997,-3.255512 0,-3.823663 3.430225,-4.51965 6.675791,-4.51965 v 0.972962 z m 4.525335,10.944024 c -0.296866,0.268452 -0.727241,0.285503 -1.058192,0.105113 -1.494238,-1.23857 -1.758429,-1.812405 -2.576564,-2.991321 -2.46294,2.509809 -4.207168,3.262612 -7.398758,3.262612 -3.778216,0 -6.719822,-2.330847 -6.719822,-6.995374 0,-3.643273 1.97575,-6.120413 4.78668,-7.334837 2.435955,-1.07097 5.83776,-1.265561 8.439899,-1.555314 v -0.582358 c 0,-1.069548 0.08522,-2.332264 -0.544006,-3.258351 -0.546843,-0.822403 -1.596506,-1.164716 -2.521171,-1.164716 -1.711558,0 -3.23421,0.877795 -3.60777,2.694462 -0.0767,0.404806 -0.370714,0.805356 -0.779788,0.826663 L 14.97943,14.764693 c -0.367875,-0.07954 -0.778366,-0.377821 -0.670419,-0.937455 0.999948,-5.2781319 5.766743,-6.8717935 10.036404,-6.8717935 2.183126,0 5.038093,0.5823517 6.75817,2.2356734 2.184541,2.0396651 1.977172,4.7611181 1.977172,7.7240311 v 6.99253 c 0,2.103581 0.87495,3.025412 1.693091,4.160292 0.289759,0.407651 0.35083,0.894841 -0.01417,1.191701 -0.918987,0.768425 -2.548162,2.183119 -3.441581,2.981375 z" clip-rule="evenodd" display="inline"/></g></g><g id="g7907" display="inline"><g id="g7843" display="none"><rect id="rect7837" width="64" height="64" x="48" y="48" fill="#000" fill-opacity="1" fill-rule="nonzero" stroke="#ff24f7" stroke-dasharray="none" stroke-dashoffset="0" stroke-linecap="square" stroke-linejoin="miter" stroke-miterlimit="4" stroke-opacity=".995" stroke-width="0" marker-end="none" marker-mid="none" marker-start="none" clip-rule="nonzero" color="#000" color-interpolation="sRGB" color-interpolation-filters="linearRGB" color-rendering="auto" display="inline" enable-background="accumulate" image-rendering="auto" opacity="1" overflow="visible" paint-order="normal" shape-rendering="auto" text-rendering="auto" vector-effect="none" visibility="visible" style="isolation:auto;mix-blend-mode:normal;solid-color:#000;solid-opacity:1;marker:none"/><text id="text7841" x="69.816" y="85.824" fill="#fff" fill-opacity="1" stroke="none" stroke-linecap="butt" stroke-linejoin="miter" stroke-opacity="1" stroke-width=".033" display="inline" font-family="sans-serif" font-size="16" letter-spacing="0" opacity="1" word-spacing="0" xml:space="preserve" style="line-height:0%"><tspan id="tspan7839" x="69.816" y="85.824" fill="#fff" fill-opacity="1" stroke="none" stroke-width=".033" font-size="16" style="line-height:0%">64</tspan></text></g><g id="g7905" display="inline"><rect marker-start="none" style="isolation:auto;mix-blend-mode:normal;solid-color:#000;solid-opacity:1;marker:none" id="rect974-6" width="64" height="64" x="48" y="48" fill="#000" fill-opacity=".126" fill-rule="nonzero" stroke="none" stroke-dasharray="none" stroke-dashoffset="0" stroke-linecap="butt" stroke-linejoin="miter" stroke-miterlimit="4" stroke-opacity=".104" stroke-width=".36" marker-end="none" marker-mid="none" clip-rule="nonzero" color="#000" color-interpolation="sRGB" color-interpolation-filters="linearRGB" color-rendering="auto" display="block" enable-background="accumulate" image-rendering="auto" opacity="1" overflow="visible" paint-order="fill markers stroke" ry="8.833" shape-rendering="auto" text-rendering="auto" vector-effect="none" visibility="visible"/><rect id="rect942-0" width="62" height="62" x="49" y="49" fill="url(#linearGradient960-0)" fill-opacity="1" fill-rule="nonzero" stroke="none" stroke-dasharray="none" stroke-dashoffset="0" stroke-linecap="butt" stroke-linejoin="miter" stroke-miterlimit="4" stroke-opacity=".104" stroke-width=".349" marker-end="none" marker-mid="none" marker-start="none" clip-rule="nonzero" color="#000" color-interpolation="sRGB" color-interpolation-filters="linearRGB" color-rendering="auto" display="block" enable-background="accumulate" image-rendering="auto" opacity="1" overflow="visible" paint-order="fill markers stroke" ry="8.557" shape-rendering="auto" text-rendering="auto" vector-effect="none" visibility="visible" style="isolation:auto;mix-blend-mode:normal;solid-color:#000;solid-opacity:1;marker:none"/><path clip-rule="nonzero" style="isolation:auto;mix-blend-mode:normal;solid-color:#000;solid-opacity:1;marker:none" id="rect969-1" fill="#f2f2f8" fill-opacity=".052" fill-rule="nonzero" stroke="none" stroke-dasharray="none" stroke-dashoffset="0" stroke-linecap="butt" stroke-linejoin="miter" stroke-miterlimit="4" stroke-opacity=".104" stroke-width=".66" marker-end="none" marker-mid="none" marker-start="none" d="m 49.021836,101.74088 v 0.70202 c 0,4.72378 3.871106,8.5271 8.59861,8.5271 h 44.759084 c 4.7275,0 8.631,-3.80332 8.631,-8.5271 v -0.70202 c 0,4.72378 -3.9035,8.30038 -8.631,8.30038 H 57.620446 c -4.727504,0 -8.59861,-3.5766 -8.59861,-8.30038 z" color="#000" color-interpolation="sRGB" color-interpolation-filters="linearRGB" color-rendering="auto" display="block" enable-background="accumulate" image-rendering="auto" opacity="1" overflow="visible" paint-order="fill markers stroke" shape-rendering="auto" text-rendering="auto" vector-effect="none" visibility="visible"/><path id="path965-6-5" fill="#ff9802" fill-opacity=".984" fill-rule="evenodd" stroke-width="1.853" d="m 96.124073,94.41927 c -5.091113,2.727114 -10.625022,4.04065 -15.660549,4.04065 -7.460672,0 -14.686046,-2.580757 -20.529344,-6.865959 -0.513186,-0.374243 -0.891124,0.285308 -0.465016,0.77071 5.41903,6.161949 12.572161,9.867269 20.520075,9.867269 5.670997,0 12.253511,-2.24913 16.796241,-6.473198 0.752179,-0.698452 0.107448,-1.75076 -0.661407,-1.339472 z m 1.241285,4.105495 c -0.168591,0.420557 0.19268,0.59285 0.574328,0.272336 2.480714,-2.074977 3.121724,-6.421321 2.614104,-7.047522 -0.50393,-0.62249 -4.839157,-1.159764 -7.484754,0.698452 -0.407585,0.285316 -0.337189,0.679929 0.114862,0.624353 1.491396,-0.17786 4.807661,-0.578031 5.396808,0.181555 0.590996,0.759594 -0.657695,3.879473 -1.215348,5.270826 z" clip-rule="evenodd" display="inline"/><path id="path976-2-9" fill="#fff" fill-opacity=".984" fill-rule="evenodd" stroke-width="1.853" d="m 83.627871,76.46142 c 0,2.282477 0.05374,4.179609 -1.094928,6.208272 -0.930032,1.650717 -2.410311,2.664124 -4.049919,2.664124 -2.249126,0 -3.560814,-1.711859 -3.560814,-4.246301 0,-4.987365 4.474186,-5.895171 8.707516,-5.895171 v 1.269076 z m 5.902584,14.274752 c -0.387214,0.350153 -0.94857,0.372394 -1.380243,0.137103 -1.948998,-1.615519 -2.293593,-2.363996 -3.360721,-3.901706 -3.212516,3.27365 -5.487587,4.255563 -9.650513,4.255563 -4.928085,0 -8.764947,-3.040222 -8.764947,-9.124362 0,-4.752074 2.577054,-7.983112 6.243469,-9.567137 3.177319,-1.396911 7.614436,-1.650725 11.008515,-2.028662 v -0.759594 c 0,-1.395056 0.11116,-3.04207 -0.709568,-4.250005 -0.713272,-1.072694 -2.082391,-1.519187 -3.28847,-1.519187 -2.232459,0 -4.218518,1.144945 -4.705767,3.5145 -0.100043,0.528005 -0.483539,1.05046 -1.01711,1.078252 l -5.670997,-0.616939 c -0.479836,-0.103754 -1.015255,-0.492808 -0.874456,-1.222762 1.304274,-6.88449 7.521807,-8.96317 13.090905,-8.96317 2.847543,0 6.571397,0.759586 8.814965,2.916083 2.84939,2.660422 2.578909,6.210127 2.578909,10.07478 v 9.120651 c 0,2.74379 1.141235,3.946173 2.20837,5.426445 0.377946,0.531716 0.457603,1.167178 -0.01848,1.554385 -1.198673,1.00229 -3.323675,2.847535 -4.488998,3.888734 z" clip-rule="evenodd" display="inline"/></g></g><g id="g8840" display="inline"><g id="g8776" display="none"><rect id="rect_96" width="96" height="96" x="112" y="112" fill="#000" fill-opacity="1" fill-rule="nonzero" stroke="#ff24f7" stroke-dasharray="none" stroke-dashoffset="0" stroke-linecap="square" stroke-linejoin="miter" stroke-miterlimit="4" stroke-opacity=".995" stroke-width="0" marker-end="none" marker-mid="none" marker-start="none" clip-rule="nonzero" color="#000" color-interpolation="sRGB" color-interpolation-filters="linearRGB" color-rendering="auto" display="inline" enable-background="accumulate" image-rendering="auto" opacity="1" overflow="visible" paint-order="normal" shape-rendering="auto" text-rendering="auto" vector-effect="none" visibility="visible" style="isolation:auto;mix-blend-mode:normal;solid-color:#000;solid-opacity:1;marker:none"/><text id="text_96" x="144.725" y="168.736" fill="#fff" fill-opacity="1" stroke="none" stroke-linecap="butt" stroke-linejoin="miter" stroke-opacity="1" stroke-width=".049" display="inline" font-family="sans-serif" font-size="24" letter-spacing="0" opacity="1" word-spacing="0" xml:space="preserve" style="line-height:0%"><tspan style="line-height:0%" id="tspan8768" x="144.725" y="168.736" fill="#fff" fill-opacity="1" stroke="none" stroke-width=".049" font-size="24">96</tspan></text></g><g id="g8838" display="inline"><rect marker-start="none" style="isolation:auto;mix-blend-mode:normal;solid-color:#000;solid-opacity:1;marker:none" id="rect974" width="90" height="90" x="115" y="115" fill="#000" fill-opacity=".126" fill-rule="nonzero" stroke="none" stroke-dasharray="none" stroke-dashoffset="0" stroke-linecap="butt" stroke-linejoin="miter" stroke-miterlimit="4" stroke-opacity=".104" stroke-width=".506" marker-end="none" marker-mid="none" clip-rule="nonzero" color="#000" color-interpolation="sRGB" color-interpolation-filters="linearRGB" color-rendering="auto" display="block" enable-background="accumulate" image-rendering="auto" opacity="1" overflow="visible" paint-order="fill markers stroke" ry="12.422" shape-rendering="auto" text-rendering="auto" vector-effect="none" visibility="visible"/><rect id="rect942" width="88" height="88" x="116" y="116" fill="url(#linearGradient960)" fill-opacity="1" fill-rule="nonzero" stroke="none" stroke-dasharray="none" stroke-dashoffset="0" stroke-linecap="butt" stroke-linejoin="miter" stroke-miterlimit="4" stroke-opacity=".104" stroke-width=".495" marker-end="none" marker-mid="none" marker-start="none" clip-rule="nonzero" color="#000" color-interpolation="sRGB" color-interpolation-filters="linearRGB" color-rendering="auto" display="block" enable-background="accumulate" image-rendering="auto" opacity="1" overflow="visible" paint-order="fill markers stroke" ry="12.146" shape-rendering="auto" text-rendering="auto" vector-effect="none" visibility="visible" style="isolation:auto;mix-blend-mode:normal;solid-color:#000;solid-opacity:1;marker:none"/><path clip-rule="nonzero" style="isolation:auto;mix-blend-mode:normal;solid-color:#000;solid-opacity:1;marker:none" id="rect969" fill="#f2f2f8" fill-opacity=".052" fill-rule="nonzero" stroke="none" stroke-dasharray="none" stroke-dashoffset="0" stroke-linecap="butt" stroke-linejoin="miter" stroke-miterlimit="4" stroke-opacity=".104" stroke-width=".66" marker-end="none" marker-mid="none" marker-start="none" d="m 116,190.85352 v 1 C 116,198.58233 121.41767,204 128.14648,204 h 63.70704 C 198.58233,204 204,198.58233 204,191.85352 v -1 C 204,197.58233 198.58233,203 191.85352,203 H 128.14648 C 121.41767,203 116,197.58233 116,190.85352 Z" color="#000" color-interpolation="sRGB" color-interpolation-filters="linearRGB" color-rendering="auto" display="block" enable-background="accumulate" image-rendering="auto" opacity="1" overflow="visible" paint-order="fill markers stroke" shape-rendering="auto" text-rendering="auto" vector-effect="none" visibility="visible"/><path id="path965-6" fill="#ff9802" fill-opacity=".984" fill-rule="evenodd" stroke-width="2.417" d="m 181.03132,178.80766 c -6.64055,3.55709 -13.85866,5.27039 -20.42671,5.27039 -9.73127,0 -19.15563,-3.36619 -26.77729,-8.95556 -0.66937,-0.48814 -1.16233,0.37214 -0.60654,1.00527 7.06827,8.03729 16.3984,12.8703 26.7652,12.8703 7.39692,0 15.98277,-2.93364 21.90804,-8.44327 0.9811,-0.91102 0.14015,-2.28359 -0.8627,-1.74713 z m 1.61906,5.35497 c -0.2199,0.54855 0.25132,0.77328 0.74912,0.35522 3.2357,-2.70648 4.0718,-8.3756 3.40968,-9.19238 -0.65729,-0.81194 -6.31191,-1.51273 -9.76267,0.91102 -0.53163,0.37215 -0.43981,0.88686 0.14982,0.81437 1.94529,-0.23199 6.27083,-0.75395 7.03928,0.23681 0.77086,0.99077 -0.85786,5.06016 -1.58523,6.87496 z" clip-rule="evenodd" display="inline"/><path id="path976-2" fill="#fff" fill-opacity=".984" fill-rule="evenodd" stroke-width="2.417" d="m 164.732,155.38448 c 0,2.97713 0.0701,5.45164 -1.42816,8.09771 -1.21308,2.1531 -3.14387,3.47493 -5.28248,3.47493 -2.93363,0 -4.64452,-2.23285 -4.64452,-5.53863 0,-6.50523 5.83587,-7.68932 11.35758,-7.68932 v 1.65531 z m 7.69899,18.61916 c -0.50506,0.45672 -1.23726,0.48573 -1.80031,0.17883 -2.54216,-2.10719 -2.99163,-3.08346 -4.38353,-5.08916 -4.19022,4.26996 -7.15769,5.55071 -12.58757,5.55071 -6.42791,0 -11.43249,-3.96549 -11.43249,-11.90129 0,-6.19833 3.36136,-10.41271 8.14362,-12.47882 4.14431,-1.82205 9.93183,-2.15311 14.35887,-2.64607 v -0.99077 c 0,-1.81963 0.14499,-3.9679 -0.92552,-5.54346 -0.93035,-1.39916 -2.71615,-1.98154 -4.28929,-1.98154 -2.91189,0 -5.50239,1.4934 -6.13793,4.58411 -0.13049,0.6887 -0.6307,1.37016 -1.32666,1.40641 l -7.39692,-0.8047 c -0.62587,-0.13533 -1.32424,-0.64279 -1.14059,-1.5949 1.70122,-8.97973 9.81101,-11.69104 17.07502,-11.69104 3.71417,0 8.57135,0.99076 11.49773,3.80357 3.71658,3.4701 3.36378,8.10013 3.36378,13.14096 v 11.89645 c 0,3.57884 1.48856,5.14716 2.88047,7.07794 0.49297,0.69354 0.59687,1.5224 -0.0241,2.02745 -1.56348,1.30733 -4.33521,3.71416 -5.85519,5.07224 z" clip-rule="evenodd" display="inline"/></g></g><g id="layer4" display="inline"><g id="layer11" display="none"><rect id="frame_128" width="128" height="128" x="207.811" y="208.189" fill="#000" fill-opacity="1" fill-rule="nonzero" stroke="#ff24f7" stroke-dasharray="none" stroke-dashoffset="0" stroke-linecap="square" stroke-linejoin="miter" stroke-miterlimit="4" stroke-opacity=".995" stroke-width="0" marker-end="none" marker-mid="none" marker-start="none" clip-rule="nonzero" color="#000" color-interpolation="sRGB" color-interpolation-filters="linearRGB" color-rendering="auto" display="inline" enable-background="accumulate" image-rendering="auto" opacity="1" overflow="visible" paint-order="normal" shape-rendering="auto" text-rendering="auto" vector-effect="none" visibility="visible" style="isolation:auto;mix-blend-mode:normal;solid-color:#000;solid-opacity:1;marker:none"/><text id="txt_128" x="236.175" y="283.345" fill="#fff" fill-opacity="1" stroke="none" stroke-linecap="butt" stroke-linejoin="miter" stroke-opacity="1" stroke-width=".079" display="inline" font-family="sans-serif" font-size="38.465" letter-spacing="0" opacity="1" word-spacing="0" xml:space="preserve" style="line-height:0%"><tspan id="tspan5069-6" x="236.175" y="283.345" fill="#fff" fill-opacity="1" stroke="none" stroke-width=".079" font-size="38.465" style="line-height:0%">128</tspan></text><text id="txt_scalable_64_512" x="265.978" y="330.133" fill="#fff" fill-opacity=".422" stroke="none" stroke-linecap="butt" stroke-linejoin="miter" stroke-opacity="1" stroke-width=".164" display="inline" font-family="sans-serif" font-size="7.432" letter-spacing="0" opacity="1" word-spacing="0" xml:space="preserve" style="line-height:1000%"><tspan id="tspan5049-1-6-6" x="265.978" y="330.133" fill="#fff" fill-opacity=".422" stroke="none" stroke-width=".164" font-size="8.09">Scalable:96-512</tspan></text></g><g id="layer12" display="inline"><rect marker-start="none" style="isolation:auto;mix-blend-mode:normal;solid-color:#000;solid-opacity:1;marker:none" id="rect974-5" width="120" height="120" x="212" y="212" fill="#000" fill-opacity=".078" fill-rule="nonzero" stroke="none" stroke-dasharray="none" stroke-dashoffset="0" stroke-linecap="butt" stroke-linejoin="miter" stroke-miterlimit="4" stroke-opacity=".104" stroke-width=".675" marker-end="none" marker-mid="none" clip-rule="nonzero" color="#000" color-interpolation="sRGB" color-interpolation-filters="linearRGB" color-rendering="auto" display="block" enable-background="accumulate" image-rendering="auto" opacity="1" overflow="visible" paint-order="fill markers stroke" ry="16.563" shape-rendering="auto" text-rendering="auto" vector-effect="none" visibility="visible"/><rect id="rect942-6" width="117.333" height="117.333" x="213.333" y="213.333" fill="url(#linearGradient960-7)" fill-opacity="1" fill-rule="nonzero" stroke="none" stroke-dasharray="none" stroke-dashoffset="0" stroke-linecap="butt" stroke-linejoin="miter" stroke-miterlimit="4" stroke-opacity=".104" stroke-width=".66" marker-end="none" marker-mid="none" marker-start="none" clip-rule="nonzero" color="#000" color-interpolation="sRGB" color-interpolation-filters="linearRGB" color-rendering="auto" display="block" enable-background="accumulate" image-rendering="auto" opacity="1" overflow="visible" paint-order="fill markers stroke" ry="16.194" shape-rendering="auto" text-rendering="auto" vector-effect="none" visibility="visible" style="isolation:auto;mix-blend-mode:normal;solid-color:#000;solid-opacity:1;marker:none"/><path clip-rule="nonzero" style="isolation:auto;mix-blend-mode:normal;solid-color:#000;solid-opacity:1;marker:none" id="rect969-2" fill="#f2f2f8" fill-opacity=".052" fill-rule="nonzero" stroke="none" stroke-dasharray="none" stroke-dashoffset="0" stroke-linecap="butt" stroke-linejoin="miter" stroke-miterlimit="4" stroke-opacity=".104" stroke-width=".66" marker-end="none" marker-mid="none" marker-start="none" d="m 213.3334,313.13799 v 1.33333 c 0,8.97174 7.22355,16.19529 16.19529,16.19529 h 84.94265 c 8.97174,0 16.19529,-7.22355 16.19529,-16.19529 v -1.33333 c 0,8.97174 -7.22355,16.19529 -16.19529,16.19529 h -84.94265 c -8.97174,0 -16.19529,-7.22355 -16.19529,-16.19529 z" color="#000" color-interpolation="sRGB" color-interpolation-filters="linearRGB" color-rendering="auto" display="block" enable-background="accumulate" image-rendering="auto" opacity="1" overflow="visible" paint-order="fill markers stroke" shape-rendering="auto" text-rendering="auto" vector-effect="none" visibility="visible"/><path id="path965" fill="#ff9802" fill-opacity=".984" fill-rule="evenodd" stroke-width="3.152" d="m 299.43205,296.53162 c -8.66155,4.63967 -18.07643,6.8744 -26.64342,6.8744 -12.6929,0 -24.9855,-4.39067 -34.92675,-11.68112 -0.87309,-0.6367 -1.51608,0.4854 -0.79114,1.31121 9.21945,10.48338 21.38913,16.78728 34.91099,16.78728 9.64811,0 20.84699,-3.82647 28.57557,-11.01291 1.27969,-1.18829 0.18281,-2.97859 -1.12525,-2.27886 z m 2.11181,6.98472 c -0.28683,0.71549 0.3278,1.00862 0.9771,0.46333 4.22046,-3.53018 5.31103,-10.92465 4.4474,-11.99001 -0.85733,-1.05905 -8.23289,-1.97312 -12.73387,1.18828 -0.69343,0.48541 -0.57366,1.15677 0.19542,1.06221 2.53732,-0.30259 8.17931,-0.98341 9.18163,0.30889 1.00547,1.2923 -1.11895,6.60018 -2.06768,8.9673 z" clip-rule="evenodd"/><path id="path976" fill="#fff" fill-opacity=".984" fill-rule="evenodd" stroke-width="3.152" d="m 278.17216,265.97978 c 0,3.8832 0.0914,7.1108 -1.86281,10.56218 -1.58227,2.80839 -4.10068,4.5325 -6.89016,4.5325 -3.82646,0 -6.05804,-2.9124 -6.05804,-7.22427 0,-8.48504 7.61196,-10.0295 14.81416,-10.0295 v 2.15909 z m 10.04211,24.28576 c -0.65876,0.59572 -1.6138,0.63355 -2.34821,0.23325 -3.31585,-2.7485 -3.90211,-4.02189 -5.71763,-6.63801 -5.46548,5.5695 -9.33607,7.24003 -16.4185,7.24003 -8.38419,0 -14.91187,-5.17235 -14.91187,-15.52335 0,-8.08475 4.38436,-13.58174 10.62206,-16.27666 5.4056,-2.37657 12.95451,-2.80839 18.72888,-3.45138 v -1.2923 c 0,-2.37342 0.18912,-5.1755 -1.20719,-7.23057 -1.2135,-1.82498 -3.54279,-2.5846 -5.59471,-2.5846 -3.7981,0 -7.17699,1.9479 -8.00595,5.97924 -0.17021,0.89831 -0.82266,1.78716 -1.73042,1.83444 l -9.64812,-1.0496 c -0.81635,-0.17651 -1.72726,-0.83842 -1.48772,-2.08029 2.21898,-11.71264 12.79692,-15.24912 22.27167,-15.24912 4.84455,0 11.17997,1.29229 14.99698,4.96116 4.84769,4.5262 4.38751,10.56534 4.38751,17.1403 v 15.51704 c 0,4.66804 1.9416,6.71366 3.75712,9.23206 0.643,0.90461 0.77853,1.98573 -0.0315,2.64449 -2.03931,1.7052 -5.65459,4.84454 -7.63717,6.61594 z" clip-rule="evenodd"/></g></g></svg>