<svg xmlns="http://www.w3.org/2000/svg" xmlns:svg="http://www.w3.org/2000/svg" xmlns:xlink="http://www.w3.org/1999/xlink" id="svg2" width="48" height="48" enable-background="new" version="1.1" viewBox="0 0 48 48"><title id="title4675">Template icons dark</title><metadata id="metadata24"/><defs id="defs22"><linearGradient id="linearGradient8856-9" x1="213.205" x2="213.205" y1="166" y2="261.881" gradientTransform="matrix(0.0851244,0,0,0.0851244,-58.753023,-59.09931)" gradientUnits="userSpaceOnUse" xlink:href="#linearGradient8666"/><linearGradient id="linearGradient8666"><stop id="stop8662" offset="0" stop-color="#fbfbfb" stop-opacity="1"/><stop id="stop8664" offset="1" stop-color="#cfcfcf" stop-opacity="1"/></linearGradient><linearGradient id="linearGradient8858-4" x1="2.133" x2="45.917" y1="1.425" y2="45.208" gradientTransform="matrix(0.49771961,0,0,0.49771961,-55.728848,-55.747898)" gradientUnits="userSpaceOnUse" xlink:href="#linearGradient8633"/><linearGradient id="linearGradient8633"><stop id="stop8629" offset="0" stop-color="#ff8545" stop-opacity="1"/><stop id="stop8672" offset=".525" stop-color="#f47200" stop-opacity="1"/><stop id="stop8631" offset="1" stop-color="#ffa04d" stop-opacity="1"/></linearGradient><filter id="filter8868-6" width="1.024" height="1.024" x="-.012" y="-.012" color-interpolation-filters="sRGB"><feGaussianBlur id="feGaussianBlur8870-8" stdDeviation="1.246"/></filter><linearGradient id="linearGradient8858-9" x1="2.133" x2="45.917" y1="1.425" y2="45.208" gradientTransform="matrix(1.0443701,0,0,1.0443701,-1.0115932,-0.51698865)" gradientUnits="userSpaceOnUse" xlink:href="#linearGradient8633"/><linearGradient id="linearGradient8856-4" x1="213.205" x2="213.205" y1="166" y2="261.881" gradientTransform="matrix(0.17861737,0,0,0.17861737,-7.3572502,-7.5492915)" gradientUnits="userSpaceOnUse" xlink:href="#linearGradient8666"/><linearGradient id="linearGradient8784-0" x1="214" x2="214" y1="191.323" y2="237.518" gradientTransform="matrix(0.18867359,0,0,0.18867359,-9.501418,-9.6916253)" gradientUnits="userSpaceOnUse" xlink:href="#linearGradient8782"/><linearGradient id="linearGradient8782"><stop id="stop8778" offset="0" stop-color="#2c60d3" stop-opacity=".609"/><stop id="stop8780" offset="1" stop-color="#2c60d3" stop-opacity="0"/></linearGradient><linearGradient id="linearGradient8809-7" x1="164.302" x2="230" y1="206.353" y2="226.22" gradientTransform="matrix(0.17861737,0,0,0.17861737,-7.3266944,-7.4270692)" gradientUnits="userSpaceOnUse" xlink:href="#linearGradient8807"/><linearGradient id="linearGradient8807"><stop id="stop8803" offset="0" stop-color="#000" stop-opacity=".289"/><stop id="stop8805" offset="1" stop-color="#c1c1c1" stop-opacity="0"/></linearGradient><linearGradient id="linearGradient8813-2" x1="164.302" x2="230" y1="206.353" y2="226.22" gradientTransform="matrix(-0.12630154,-0.12630154,0.12630154,-0.12630154,30.59004,84.501919)" gradientUnits="userSpaceOnUse" xlink:href="#linearGradient8807"/><linearGradient id="linearGradient8817-7" x1="164.302" x2="230" y1="206.353" y2="226.22" gradientTransform="matrix(-0.12630154,0.12630154,-0.12630154,-0.12630154,84.594033,30.596683)" gradientUnits="userSpaceOnUse" xlink:href="#linearGradient8807"/><linearGradient id="linearGradient8884-2" x1="153.638" x2="250.772" y1="72" y2="141.165" gradientTransform="matrix(0.18280347,0,0,0.18280347,-7.8761359,-8.0701603)" gradientUnits="userSpaceOnUse" xlink:href="#linearGradient8930"/><linearGradient id="linearGradient8930"><stop id="stop8926" offset="0" stop-color="#da6607" stop-opacity=".355"/><stop id="stop8928" offset="1" stop-color="#fff" stop-opacity=".243"/></linearGradient><linearGradient id="linearGradient8973-1" x1="196" x2="156.079" y1="124.126" y2="62" gradientTransform="matrix(0.17226839,0,0,0.17226839,-6.0388642,-6.220389)" gradientUnits="userSpaceOnUse" xlink:href="#linearGradient8971"/><linearGradient id="linearGradient8971"><stop id="stop8967" offset="0" stop-color="#763704" stop-opacity="1"/><stop id="stop8969" offset="1" stop-color="#763704" stop-opacity="0"/></linearGradient><linearGradient id="linearGradient8977-1" x1="196" x2="156.079" y1="124.126" y2="62" gradientTransform="matrix(0.12181216,-0.12181216,0.12181216,0.12181216,-21.499412,30.416447)" gradientUnits="userSpaceOnUse" xlink:href="#linearGradient8971"/><linearGradient id="linearGradient8981-5" x1="196" x2="156.079" y1="124.126" y2="62" gradientTransform="matrix(0,-0.17226839,0.17226839,0,-6.0223935,66.782322)" gradientUnits="userSpaceOnUse" xlink:href="#linearGradient8971"/><linearGradient id="linearGradient8858-4-5" x1="2.133" x2="45.917" y1="1.425" y2="45.208" gradientTransform="matrix(0.69227462,0,0,0.69227462,-32.429545,-33.818398)" gradientUnits="userSpaceOnUse" xlink:href="#linearGradient8633"/><linearGradient id="linearGradient8856-9-1" x1="213.205" x2="213.205" y1="166" y2="261.881" gradientTransform="matrix(0.11839891,0,0,0.11839891,-36.635848,-38.479853)" gradientUnits="userSpaceOnUse" xlink:href="#linearGradient8666"/><filter id="filter8868-6-3" width="1.024" height="1.024" x="-.012" y="-.012" color-interpolation-filters="sRGB"><feGaussianBlur id="feGaussianBlur8870-8-6" stdDeviation="1.246"/></filter><linearGradient id="linearGradient8858-9-0" x1="2.133" x2="45.917" y1="1.425" y2="45.208" gradientTransform="matrix(1.3924931,0,0,1.3924931,46.454761,47.434085)" gradientUnits="userSpaceOnUse" xlink:href="#linearGradient8633"/><linearGradient id="linearGradient8856-4-1" x1="213.205" x2="213.205" y1="166" y2="261.881" gradientTransform="matrix(0.23815643,0,0,0.23815643,37.993887,38.057684)" gradientUnits="userSpaceOnUse" xlink:href="#linearGradient8666"/><linearGradient id="linearGradient8784-0-9" x1="214" x2="214" y1="191.323" y2="237.518" gradientTransform="matrix(0.25156472,0,0,0.25156472,35.134997,35.201239)" gradientUnits="userSpaceOnUse" xlink:href="#linearGradient8782"/><linearGradient id="linearGradient8809-7-2" x1="164.302" x2="230" y1="206.353" y2="226.22" gradientTransform="matrix(0.23815643,0,0,0.23815643,38.034629,38.220646)" gradientUnits="userSpaceOnUse" xlink:href="#linearGradient8807"/><linearGradient id="linearGradient8813-2-5" x1="164.302" x2="230" y1="206.353" y2="226.22" gradientTransform="matrix(-0.16840201,-0.16840201,0.16840201,-0.16840201,88.590261,160.7926)" gradientUnits="userSpaceOnUse" xlink:href="#linearGradient8807"/><linearGradient id="linearGradient8817-7-9" x1="164.302" x2="230" y1="206.353" y2="226.22" gradientTransform="matrix(-0.16840201,0.16840201,-0.16840201,-0.16840201,160.59557,88.91897)" gradientUnits="userSpaceOnUse" xlink:href="#linearGradient8807"/><linearGradient id="linearGradient8884-2-2" x1="153.638" x2="250.772" y1="72" y2="141.165" gradientTransform="matrix(0.2437379,0,0,0.2437379,37.302041,37.363192)" gradientUnits="userSpaceOnUse" xlink:href="#linearGradient8930"/><linearGradient id="linearGradient8973-1-9" x1="196" x2="156.079" y1="124.126" y2="62" gradientTransform="matrix(0.22969113,0,0,0.22969113,39.751735,39.829553)" gradientUnits="userSpaceOnUse" xlink:href="#linearGradient8971"/><linearGradient id="linearGradient8977-1-6" x1="196" x2="156.079" y1="124.126" y2="62" gradientTransform="matrix(0.16241617,-0.16241617,0.16241617,0.16241617,19.137676,88.678655)" gradientUnits="userSpaceOnUse" xlink:href="#linearGradient8971"/><linearGradient id="linearGradient8981-5-1" x1="196" x2="156.079" y1="124.126" y2="62" gradientTransform="matrix(0,-0.22969113,0.22969113,0,39.773696,137.16648)" gradientUnits="userSpaceOnUse" xlink:href="#linearGradient8971"/><filter id="filter8868-6-3-1" width="1.024" height="1.024" x="-.012" y="-.012" color-interpolation-filters="sRGB"><feGaussianBlur id="feGaussianBlur8870-8-6-5" stdDeviation="1.246"/></filter><linearGradient id="linearGradient8858-9-0-5" x1="2.133" x2="45.917" y1="1.425" y2="45.208" gradientTransform="matrix(2.0887397,0,0,2.0887397,109.9948,110.85959)" gradientUnits="userSpaceOnUse" xlink:href="#linearGradient8633"/><linearGradient id="linearGradient8856-4-1-5" x1="213.205" x2="213.205" y1="166" y2="261.881" gradientTransform="matrix(0.35723465,0,0,0.35723465,97.303485,96.794988)" gradientUnits="userSpaceOnUse" xlink:href="#linearGradient8666"/><linearGradient id="linearGradient8784-0-9-3" x1="214" x2="214" y1="191.323" y2="237.518" gradientTransform="matrix(0.37734708,0,0,0.37734708,93.01515,92.510328)" gradientUnits="userSpaceOnUse" xlink:href="#linearGradient8782"/><linearGradient id="linearGradient8809-7-2-5" x1="164.302" x2="230" y1="206.353" y2="226.22" gradientTransform="matrix(0.35723465,0,0,0.35723465,97.364595,97.039428)" gradientUnits="userSpaceOnUse" xlink:href="#linearGradient8807"/><linearGradient id="linearGradient8813-2-5-4" x1="164.302" x2="230" y1="206.353" y2="226.22" gradientTransform="matrix(-0.25260302,-0.25260302,0.25260302,-0.25260302,173.19805,280.89737)" gradientUnits="userSpaceOnUse" xlink:href="#linearGradient8807"/><linearGradient id="linearGradient8817-7-9-7" x1="164.302" x2="230" y1="206.353" y2="226.22" gradientTransform="matrix(-0.25260302,0.25260302,-0.25260302,-0.25260302,281.206,173.08692)" gradientUnits="userSpaceOnUse" xlink:href="#linearGradient8807"/><linearGradient id="linearGradient8884-2-2-4" x1="153.638" x2="250.772" y1="72" y2="141.165" gradientTransform="matrix(0.36560685,0,0,0.36560685,96.265725,95.753253)" gradientUnits="userSpaceOnUse" xlink:href="#linearGradient8930"/><linearGradient id="linearGradient8973-1-9-0" x1="196" x2="156.079" y1="124.126" y2="62" gradientTransform="matrix(0.3445367,0,0,0.3445367,99.94026,99.45279)" gradientUnits="userSpaceOnUse" xlink:href="#linearGradient8971"/><linearGradient id="linearGradient8977-1-6-6" x1="196" x2="156.079" y1="124.126" y2="62" gradientTransform="matrix(0.24362425,-0.24362425,0.24362425,0.24362425,69.019172,172.72644)" gradientUnits="userSpaceOnUse" xlink:href="#linearGradient8971"/><linearGradient id="linearGradient8981-5-1-8" x1="196" x2="156.079" y1="124.126" y2="62" gradientTransform="matrix(0,-0.3445367,0.3445367,0,99.9732,245.45819)" gradientUnits="userSpaceOnUse" xlink:href="#linearGradient8971"/><filter id="filter8868-6-3-7" width="1.024" height="1.024" x="-.012" y="-.012" color-interpolation-filters="sRGB"><feGaussianBlur id="feGaussianBlur8870-8-6-1" stdDeviation="1.246"/></filter><linearGradient id="linearGradient8858-9-0-7" x1="2.133" x2="45.917" y1="1.425" y2="45.208" gradientTransform="matrix(2.7849862,0,0,2.7849862,204.97078,206.15322)" gradientUnits="userSpaceOnUse" xlink:href="#linearGradient8633"/><linearGradient id="linearGradient8856-4-1-2" x1="213.205" x2="213.205" y1="166" y2="261.881" gradientTransform="matrix(0.47631286,0,0,0.47631286,188.04904,187.4004)" gradientUnits="userSpaceOnUse" xlink:href="#linearGradient8666"/><linearGradient id="linearGradient8784-0-9-0" x1="214" x2="214" y1="191.323" y2="237.518" gradientTransform="matrix(0.50312944,0,0,0.50312944,182.33126,181.68752)" gradientUnits="userSpaceOnUse" xlink:href="#linearGradient8782"/><linearGradient id="linearGradient8809-7-2-59" x1="164.302" x2="230" y1="206.353" y2="226.22" gradientTransform="matrix(0.47631286,0,0,0.47631286,188.13052,187.72634)" gradientUnits="userSpaceOnUse" xlink:href="#linearGradient8807"/><linearGradient id="linearGradient8813-2-5-0" x1="164.302" x2="230" y1="206.353" y2="226.22" gradientTransform="matrix(-0.33680402,-0.33680402,0.33680402,-0.33680402,289.24178,432.87024)" gradientUnits="userSpaceOnUse" xlink:href="#linearGradient8807"/><linearGradient id="linearGradient8817-7-9-9" x1="164.302" x2="230" y1="206.353" y2="226.22" gradientTransform="matrix(-0.33680402,0.33680402,-0.33680402,-0.33680402,433.2524,289.12298)" gradientUnits="userSpaceOnUse" xlink:href="#linearGradient8807"/><linearGradient id="linearGradient8884-2-2-1" x1="153.638" x2="250.772" y1="72" y2="141.165" gradientTransform="matrix(0.4874758,0,0,0.4874758,186.66534,186.01142)" gradientUnits="userSpaceOnUse" xlink:href="#linearGradient8930"/><linearGradient id="linearGradient8973-1-9-1" x1="196" x2="156.079" y1="124.126" y2="62" gradientTransform="matrix(0.45938226,0,0,0.45938226,191.56472,190.94414)" gradientUnits="userSpaceOnUse" xlink:href="#linearGradient8971"/><linearGradient id="linearGradient8977-1-6-9" x1="196" x2="156.079" y1="124.126" y2="62" gradientTransform="matrix(0.32483234,-0.32483234,0.32483234,0.32483234,150.33662,288.64236)" gradientUnits="userSpaceOnUse" xlink:href="#linearGradient8971"/><linearGradient id="linearGradient8981-5-1-7" x1="196" x2="156.079" y1="124.126" y2="62" gradientTransform="matrix(0,-0.45938226,0.45938226,0,191.60866,385.618)" gradientUnits="userSpaceOnUse" xlink:href="#linearGradient8971"/></defs><g id="layer1" display="inline"><g id="layer5" display="none"><rect id="frame_16" width="16" height="16" x="-72" y="-72" fill="#000" fill-opacity="1" fill-rule="nonzero" stroke="#ff24f7" stroke-dasharray="none" stroke-dashoffset="0" stroke-linecap="square" stroke-linejoin="miter" stroke-miterlimit="4" stroke-opacity=".995" stroke-width="0" marker-end="none" marker-mid="none" marker-start="none" clip-rule="nonzero" color="#000" color-interpolation="sRGB" color-interpolation-filters="linearRGB" color-rendering="auto" display="block" enable-background="accumulate" image-rendering="auto" opacity="1" overflow="visible" paint-order="normal" shape-rendering="auto" text-rendering="auto" vector-effect="none" visibility="visible" style="isolation:auto;mix-blend-mode:normal;solid-color:#000;solid-opacity:1;marker:none"/><text id="txt_16" x="-69.279" y="-61.088" fill="#fff" fill-opacity="1" stroke="none" stroke-linecap="butt" stroke-linejoin="miter" stroke-opacity="1" stroke-width=".072" display="inline" font-family="sans-serif" font-size="8" letter-spacing="0" opacity="1" word-spacing="0" xml:space="preserve" style="line-height:1000%"><tspan id="tspan4768-6" x="-69.279" y="-61.088" fill="#fff" fill-opacity="1" stroke="none" stroke-width=".072" font-size="8">16</tspan></text></g><g id="layer6" display="inline"><path id="circle4567-3-0-5" fill="#ff7a3d" fill-opacity="1" stroke="none" stroke-dasharray="none" stroke-linecap="round" stroke-linejoin="round" stroke-miterlimit="4" stroke-opacity=".979" stroke-width=".03" d="m -64.574869,-70.979749 c -0.246686,0 -0.493391,0.09449 -0.682414,0.28351 -0.378043,0.378049 -0.378043,0.986779 0,1.364826 l 2.681088,2.681087 h -6.989581 c -0.534639,0 -0.965,0.430362 -0.965,0.964998 0,0.534633 0.430361,0.964996 0.965,0.964996 1.004788,-0.0029 2.429799,-0.0032 3.794429,-0.0029 l -4.94512,4.945118 c -0.378045,0.378044 -0.378043,0.986783 0,1.364826 0.378046,0.378044 0.986781,0.378044 1.364825,0 0.725843,-0.729966 1.765531,-1.770137 2.751502,-2.755549 0.327737,2.386776 2.36575,4.166097 4.774923,4.16882 2.664891,-8e-6 4.825208,-2.160327 4.825217,-4.825217 -0.0013,-1.392461 -0.604153,-2.716461 -1.653537,-3.631746 -0.357242,-0.356306 -3.565801,-3.55664 -5.239036,-5.239383 -0.189022,-0.189023 -0.435613,-0.283509 -0.682296,-0.283509 z m 2.806375,7.391971 c 0.961358,9e-6 1.74069,0.779343 1.740699,1.7407 -9e-6,0.961358 -0.779341,1.740692 -1.740699,1.740698 -0.961358,-6e-6 -1.740687,-0.77934 -1.740698,-1.740698 1.1e-5,-0.961357 0.77934,-1.740691 1.740698,-1.7407 z" display="inline" enable-background="new" opacity="1"/><circle marker-start="none" style="isolation:auto;mix-blend-mode:normal;solid-color:#000;solid-opacity:1;marker:none" id="path8092" cx="-61.782" cy="-61.848" r="2.22" fill="none" fill-opacity=".973" fill-rule="nonzero" stroke="#fff" stroke-dasharray="none" stroke-dashoffset="0" stroke-linecap="butt" stroke-linejoin="miter" stroke-miterlimit="4" stroke-opacity=".99" stroke-width="1" marker-end="none" marker-mid="none" clip-rule="nonzero" color="#000" color-interpolation="sRGB" color-interpolation-filters="linearRGB" color-rendering="auto" display="block" enable-background="accumulate" image-rendering="auto" opacity="1" overflow="visible" paint-order="fill markers stroke" shape-rendering="auto" text-rendering="auto" vector-effect="none" visibility="visible"/></g></g><g id="layer2" display="inline"><g id="layer7" display="none"><rect id="frame_24" width="24" height="24" x="-56" y="-56" fill="#000" fill-opacity=".995" fill-rule="nonzero" stroke="#ff24f7" stroke-dasharray="none" stroke-dashoffset="0" stroke-linecap="square" stroke-linejoin="miter" stroke-miterlimit="4" stroke-opacity=".995" stroke-width="0" marker-end="none" marker-mid="none" marker-start="none" clip-rule="nonzero" color="#000" color-interpolation="sRGB" color-interpolation-filters="linearRGB" color-rendering="auto" display="block" enable-background="accumulate" image-rendering="auto" opacity="1" overflow="visible" paint-order="normal" shape-rendering="auto" text-rendering="auto" vector-effect="none" visibility="visible" style="isolation:auto;mix-blend-mode:normal;solid-color:#000;solid-opacity:1;marker:none"/><text id="txt_24" x="-50.88" y="-40.042" fill="#fff" fill-opacity="1" stroke="none" stroke-linecap="butt" stroke-linejoin="miter" stroke-opacity="1" stroke-width=".112" display="inline" font-family="sans-serif" font-size="10.667" letter-spacing="0" opacity="1" word-spacing="0" xml:space="preserve" style="line-height:1000%"><tspan id="tspan4835-2-5" x="-50.88" y="-40.042" fill="#fff" fill-opacity="1" stroke="none" stroke-width=".112" font-size="10.667">24</tspan></text></g><g id="layer8" display="inline"><path id="circle4567-3-0" fill="url(#linearGradient8858-4)" fill-opacity="1" stroke="none" stroke-dasharray="none" stroke-linecap="round" stroke-linejoin="round" stroke-miterlimit="4" stroke-opacity="1" stroke-width=".043" d="m -44.633678,-54.101909 c -0.354715,0 -0.709458,0.135871 -0.981258,0.407666 -0.543598,0.543605 -0.543598,1.418913 0,1.962517 l 3.855204,3.855204 h -10.050496 c -0.76877,0 -1.387596,0.618827 -1.387596,1.387593 0,0.768763 0.618826,1.387593 1.387596,1.387593 1.44481,-0.0041 3.493871,-0.0046 5.456106,-0.0041 l -7.110713,7.110711 c -0.543603,0.543599 -0.5436,1.418917 0,1.962517 0.543601,0.543599 1.418918,0.543599 1.962515,0 1.04371,-1.049635 2.538703,-2.545325 3.956456,-3.962273 0.471261,3.432006 3.401772,5.990535 6.865982,5.994452 3.831914,-1.2e-5 6.938289,-3.106389 6.938302,-6.938303 -0.0019,-2.002255 -0.868728,-3.906069 -2.377664,-5.222179 -0.513686,-0.512342 -5.127355,-5.114182 -7.533341,-7.533843 -0.271801,-0.271799 -0.626378,-0.407664 -0.981093,-0.407664 z m 4.03536,11.51274 c 0.894343,8e-6 1.619351,0.725015 1.619359,1.619359 -8e-6,0.894342 -0.725016,1.61935 -1.619359,1.619358 -0.894344,-8e-6 -1.61935,-0.725016 -1.619358,-1.619358 8e-6,-0.894344 0.725014,-1.619351 1.619358,-1.619359 z" display="inline" enable-background="new" opacity="1"/><path id="circle4575-7-04" fill="url(#linearGradient8856-9)" fill-opacity="1" stroke="none" stroke-dasharray="none" stroke-linecap="round" stroke-linejoin="round" stroke-miterlimit="4" stroke-opacity="1" stroke-width=".043" d="m -40.604068,-45.132756 a 4.162995,4.162995 0 0 0 -4.16295,4.162946 4.162995,4.162995 0 0 0 4.16295,4.162949 4.162995,4.162995 0 0 0 4.162949,-4.162949 4.162995,4.162995 0 0 0 -4.162949,-4.162946 z m 0,2.534776 a 1.6281448,1.6281448 0 0 1 1.628169,1.62817 1.6281448,1.6281448 0 0 1 -1.628169,1.628171 1.6281448,1.6281448 0 0 1 -1.62817,-1.628171 1.6281448,1.6281448 0 0 1 1.62817,-1.62817 z" display="inline" enable-background="new" opacity="1"/></g></g><g id="g7816" display="inline"><g id="g7802" display="none"><rect id="rect7792" width="32" height="32" x="-32" y="-32" fill="#000" fill-opacity="1" fill-rule="nonzero" stroke="#ff24f7" stroke-dasharray="none" stroke-dashoffset="0" stroke-linecap="square" stroke-linejoin="miter" stroke-miterlimit="4" stroke-opacity=".995" stroke-width="0" marker-end="none" marker-mid="none" marker-start="none" clip-rule="nonzero" color="#000" color-interpolation="sRGB" color-interpolation-filters="linearRGB" color-rendering="auto" display="block" enable-background="accumulate" image-rendering="auto" opacity="1" overflow="visible" paint-order="normal" shape-rendering="auto" text-rendering="auto" vector-effect="none" visibility="visible" style="isolation:auto;mix-blend-mode:normal;solid-color:#000;solid-opacity:1;marker:none"/><text id="text7796" x="-23.799" y="-11.47" fill="#fff" fill-opacity="1" stroke="none" stroke-linecap="butt" stroke-linejoin="miter" stroke-opacity="1" stroke-width=".074" display="inline" font-family="sans-serif" font-size="12.444" letter-spacing="0" opacity="1" word-spacing="0" xml:space="preserve" style="line-height:1000%"><tspan id="tspan7794" x="-23.799" y="-11.47" fill="#fff" fill-opacity="1" stroke="none" stroke-width=".074" font-size="12.444">32</tspan></text></g><g id="g7814" display="inline"><path id="circle4567-3-0-0" fill="url(#linearGradient8858-4-5)" fill-opacity="1" stroke="none" stroke-dasharray="none" stroke-linecap="round" stroke-linejoin="round" stroke-miterlimit="4" stroke-opacity="1" stroke-width=".06" d="m -16.997351,-31.529002 c -0.493372,0 -0.986781,0.188981 -1.364824,0.56702 -0.756088,0.756097 -0.756088,1.973555 0,2.72965 L -13,-22.870157 h -13.979163 c -1.069275,0 -1.929996,0.860722 -1.929996,1.929993 0,1.069267 0.860721,1.929993 1.929996,1.929993 2.009576,-0.0057 4.8596,-0.0065 7.588858,-0.0057 l -9.890239,9.8902361 c -0.756093,0.7560881 -0.756088,1.9735616 0,2.7296508 0.756092,0.756088 1.973563,0.756088 2.72965,0 1.451687,-1.4599296 3.531062,-3.5402738 5.503003,-5.5110949 0.655475,4.7735504 4.731501,8.3321898 9.549845,8.3376379 5.3297817,-1.67e-5 9.6504161,-4.3206538 9.6504342,-9.6504349 -0.00265,-2.784921 -1.2083074,-5.432921 -3.3070756,-7.26349 -0.714482,-0.712614 -7.1316006,-7.113279 -10.4780696,-10.478767 -0.378046,-0.378043 -0.871224,-0.567018 -1.364594,-0.567018 z m 5.612753,16.012987 c 1.243936,10e-6 2.2523426,1.008416 2.2523536,2.252354 -1.1e-5,1.243932 -1.0084176,2.252342 -2.2523536,2.252353 -1.243938,-1.1e-5 -2.252343,-1.008421 -2.252354,-2.252353 1.1e-5,-1.243938 1.008416,-2.252344 2.252354,-2.252354 z" display="inline" enable-background="new" opacity="1"/><path id="circle4575-7-04-9" fill="url(#linearGradient8856-9-1)" fill-opacity="1" stroke="none" stroke-dasharray="none" stroke-linecap="round" stroke-linejoin="round" stroke-miterlimit="4" stroke-opacity="1" stroke-width=".06" d="m -11.392596,-19.053872 a 5.7902794,5.7902794 0 0 0 -5.790217,5.790211 5.7902794,5.7902794 0 0 0 5.790217,5.790214 5.7902794,5.7902794 0 0 0 5.7902151,-5.790214 5.7902794,5.7902794 0 0 0 -5.7902151,-5.790211 z m 0,3.5256 a 2.2645748,2.2645748 0 0 1 2.2646082,2.264611 2.2645748,2.2645748 0 0 1 -2.2646082,2.26461 2.2645748,2.2645748 0 0 1 -2.26461,-2.26461 2.2645748,2.2645748 0 0 1 2.26461,-2.264611 z" display="inline" enable-background="new" opacity="1"/></g></g><g id="layer3" display="inline"><g id="layer9" display="none"><rect id="frame_48" width="48" height="48" x="0" y="0" fill="#000" fill-opacity="1" fill-rule="nonzero" stroke="#ff24f7" stroke-dasharray="none" stroke-dashoffset="0" stroke-linecap="square" stroke-linejoin="miter" stroke-miterlimit="4" stroke-opacity=".995" stroke-width="0" marker-end="none" marker-mid="none" marker-start="none" clip-rule="nonzero" color="#000" color-interpolation="sRGB" color-interpolation-filters="linearRGB" color-rendering="auto" display="block" enable-background="accumulate" image-rendering="auto" opacity="1" overflow="visible" paint-order="normal" shape-rendering="auto" text-rendering="auto" vector-effect="none" visibility="visible" style="isolation:auto;mix-blend-mode:normal;solid-color:#000;solid-opacity:1;marker:none"/><text id="txt_48" x="12.301" y="30.795" fill="#fff" fill-opacity="1" stroke="none" stroke-linecap="butt" stroke-linejoin="miter" stroke-opacity="1" stroke-width=".112" display="inline" font-family="sans-serif" font-size="18.667" letter-spacing="0" opacity="1" word-spacing="0" xml:space="preserve" style="line-height:1000%"><tspan id="tspan5049-1" x="12.301" y="30.795" fill="#fff" fill-opacity="1" stroke="none" stroke-width=".112" font-size="18.667">48</tspan></text><text id="txt_scalable_32-64" x="25.824" y="45.962" fill="#fff" fill-opacity=".448" stroke="none" stroke-linecap="butt" stroke-linejoin="miter" stroke-opacity="1" stroke-width=".059" display="inline" font-family="sans-serif" font-size="2.667" letter-spacing="0" opacity="1" word-spacing="0" xml:space="preserve" style="line-height:1000%"><tspan id="tspan5049-1-6" x="25.824" y="45.962" fill="#fff" fill-opacity=".448" stroke="none" stroke-width=".059" font-size="2.667">Scalable:32-64</tspan></text></g><g id="layer10" display="inline"><path id="path8866-9" fill="#000" fill-opacity=".203" stroke="none" stroke-dasharray="none" stroke-linecap="round" stroke-linejoin="round" stroke-miterlimit="4" stroke-opacity="1" stroke-width=".537" d="m 164.15165,51.022459 c -4.39592,0 -8.79217,1.683765 -12.16054,5.052123 -6.7367,6.736779 -6.7367,17.584297 0,24.321065 L 199.76788,128.1724 H 75.214104 c -9.527177,0 -17.196172,7.66901 -17.196172,17.19617 0,9.52712 7.668995,17.19618 17.196172,17.19618 17.90524,-0.0494 43.298866,-0.0556 67.616436,-0.0495 l -88.121625,88.12161 c -6.736779,6.73671 -6.736716,17.58434 0,24.32108 6.736716,6.73671 17.584353,6.73671 24.321066,0 12.934463,-13.00792 31.461609,-31.5437 49.031539,-49.10366 5.84024,42.53217 42.15746,74.2395 85.08871,74.28803 47.48813,-1.4e-4 85.98482,-38.49685 85.98498,-85.98497 -0.0238,-24.81357 -10.76598,-48.40712 -29.46592,-64.71742 -6.36599,-6.34936 -63.54227,-63.379025 -93.35917,-93.365366 -3.36835,-3.368359 -7.76256,-5.052123 -12.15847,-5.052123 z m 50.00939,142.675061 c 11.08341,1.1e-4 20.06828,8.98497 20.06838,20.06839 -1e-4,11.0834 -8.98497,20.06827 -20.06838,20.06837 -11.08342,-1e-4 -20.06828,-8.98497 -20.06838,-20.06837 1e-4,-11.08342 8.98496,-20.06828 20.06838,-20.06839 z" display="inline" enable-background="new" filter="url(#filter8868-6)" opacity="1" transform="matrix(0.17226838,0,0,0.17226838,-6.0388629,-6.2203881)"/><path id="circle4567-3-4" fill="url(#linearGradient8858-9)" fill-opacity="1" stroke="none" stroke-dasharray="none" stroke-linecap="round" stroke-linejoin="round" stroke-miterlimit="4" stroke-opacity="1" stroke-width=".091" d="m 22.269516,2.9368045 c -0.744303,0 -1.488663,0.2850899 -2.058985,0.8554099 -1.140637,1.1406504 -1.140637,2.9773187 0,4.1179674 l 8.089415,8.0894092 H 7.2108815 c -1.6131119,0 -2.9116023,1.298493 -2.9116023,2.911602 0,1.613103 1.2984904,2.911603 2.9116023,2.911603 3.0316615,-0.0084 7.3312325,-0.0094 11.4486105,-0.0084 L 3.7390068,36.734902 c -1.1406507,1.140639 -1.1406401,2.977327 0,4.117969 1.1406399,1.140639 2.9773286,1.140639 4.117967,0 2.1900242,-2.202459 5.3269862,-5.340882 8.3018732,-8.314078 0.988852,7.201414 7.137971,12.570001 14.406956,12.578219 8.040544,-2.5e-5 14.558685,-6.518167 14.558712,-14.558709 -0.004,-4.201356 -1.822863,-8.196145 -4.989079,-10.957753 C 39.057565,18.525496 29.376657,8.8694127 24.328151,3.7922181 23.757832,3.2218978 23.013817,2.9368081 22.269516,2.9368081 Z M 30.736951,27.0941 c 1.87661,1.9e-5 3.3979,1.521306 3.397916,3.397917 -1.6e-5,1.876608 -1.521306,3.397899 -3.397916,3.397916 -1.876611,-1.7e-5 -3.397899,-1.521308 -3.397915,-3.397916 1.6e-5,-1.876611 1.521304,-3.397898 3.397915,-3.397917 z" display="inline" enable-background="new" opacity="1"/><path id="path8852-9" fill="#000" fill-opacity=".099" stroke="none" stroke-dasharray="none" stroke-linecap="round" stroke-linejoin="round" stroke-miterlimit="4" stroke-opacity="1" stroke-width=".117" d="M 30.724887,19.318051 A 11.18521,11.18521 0 0 0 19.539801,30.503134 11.18521,11.18521 0 0 0 30.724887,41.68822 11.18521,11.18521 0 0 0 41.909969,30.503134 11.18521,11.18521 0 0 0 30.724887,19.318051 Z m 0,6.810488 a 4.3745291,4.3745291 0 0 1 4.374594,4.374595 4.3745291,4.3745291 0 0 1 -4.374594,4.374602 4.3745291,4.3745291 0 0 1 -4.3746,-4.374602 4.3745291,4.3745291 0 0 1 4.3746,-4.374595 z" display="inline" enable-background="new" opacity="1"/><path id="circle4575-7-0" fill="url(#linearGradient8856-4)" fill-opacity="1" stroke="none" stroke-dasharray="none" stroke-linecap="round" stroke-linejoin="round" stroke-miterlimit="4" stroke-opacity="1" stroke-width=".091" d="m 30.724887,21.756863 a 8.7352549,8.7352549 0 0 0 -8.73516,8.735154 8.7352549,8.7352549 0 0 0 8.73516,8.735158 8.7352549,8.7352549 0 0 0 8.735156,-8.735158 8.7352549,8.7352549 0 0 0 -8.735156,-8.735154 z m 0,5.318748 a 3.4163529,3.4163529 0 0 1 3.416402,3.416406 3.4163529,3.4163529 0 0 1 -3.416402,3.416407 3.4163529,3.4163529 0 0 1 -3.416408,-3.416407 3.4163529,3.4163529 0 0 1 3.416408,-3.416406 z" display="inline" enable-background="new" opacity="1"/><path id="path4672-5-9" fill="#f5eece" fill-opacity=".672" stroke="none" stroke-dasharray="none" stroke-linecap="round" stroke-linejoin="round" stroke-miterlimit="4" stroke-opacity="1" stroke-width=".091" d="m 22.214142,3.0521183 c -0.744288,0 -1.488551,0.2852178 -2.058867,0.8555374 -0.593569,0.5935677 -0.877607,1.3755504 -0.85341,2.1498682 0.02235,-0.7136609 0.306335,-1.4208141 0.85341,-1.9678867 0.570316,-0.5703195 1.314579,-0.8555374 2.058867,-0.8555374 0.744306,0 1.488564,0.2852179 2.058883,0.8555374 C 29.32152,9.1668317 39.002214,18.822889 40.080076,19.89794 a 14.558759,14.558759 0 0 1 4.985383,10.883173 14.558759,14.558759 0 0 0 0.0042,-0.107526 14.558759,14.558759 0 0 0 -4.98911,-10.957633 C 39.00262,18.640894 29.321927,8.984851 24.273428,3.9076557 23.703111,3.3373361 22.958851,3.0521183 22.214551,3.0521183 Z M 7.1558185,16.114833 c -1.6131147,0 -2.9117571,1.298633 -2.9117571,2.911746 0,0.03049 0.00105,0.06067 0.00208,0.09097 0.047833,-1.570586 1.3268406,-2.82076 2.9094459,-2.82076 H 28.244466 L 28.062484,16.114806 Z M 18.422327,22.111962 3.6838928,36.850394 c -0.5935679,0.593566 -0.8776052,1.375549 -0.8534073,2.149875 0.02235,-0.71367 0.3063349,-1.420811 0.8534073,-1.967893 L 18.604311,22.111962 c -0.0611,-9e-6 -0.120801,2e-5 -0.181984,0 z" display="inline" enable-background="new" opacity=".884"/><path id="path4677-2-1" fill="#000" fill-opacity=".552" stroke="none" stroke-dasharray="none" stroke-linecap="round" stroke-linejoin="round" stroke-miterlimit="4" stroke-opacity="1" stroke-width=".091" d="m 19.395833,5.8467749 c -0.02423,0.7743175 0.259838,1.5563 0.853407,2.1498683 l 7.907437,7.9074338 h 0.181991 L 20.24924,7.8146599 C 19.702166,7.2675891 19.41814,6.5604355 19.395833,5.8467749 Z M 4.3403489,18.90682 c -9.14e-4,0.03028 -0.00208,0.06046 -0.00208,0.09097 0,1.613112 1.2986437,2.911752 2.9117563,2.911752 2.9866688,-0.0084 7.2052268,-0.0094 11.2665068,-0.0084 l 0.181983,-0.181983 c -4.117375,-9.13e-4 -8.41683,-1.72e-4 -11.4484898,0.0084 -1.5826061,0 -2.861595,-1.250175 -2.9094481,-2.82076 z M 45.159428,30.570352 A 14.558759,14.558759 0 0 1 30.604409,45.021592 14.558759,14.558759 0 0 1 16.197596,32.443515 c -2.974892,2.973194 -6.111948,6.111423 -8.3019715,8.313884 -1.1406397,1.140641 -2.9771122,1.140641 -4.1177522,0 C 3.2308,40.210327 2.9467624,39.503173 2.9244655,38.789513 c -0.024228,0.774316 0.2598389,1.5563 0.8534068,2.149866 1.14064,1.140641 2.9771125,1.140641 4.1177522,0 2.1900235,-2.202462 5.3270795,-5.34069 8.3019715,-8.313873 a 14.558759,14.558759 0 0 0 14.406813,12.578069 14.558759,14.558759 0 0 0 14.558759,-14.558761 14.558759,14.558759 0 0 0 -0.0042,-0.07446 z" display="inline" enable-background="new" opacity="1"/><path id="circle8657-7" fill="#000" fill-opacity=".573" stroke="none" stroke-dasharray="none" stroke-linecap="round" stroke-linejoin="round" stroke-miterlimit="4" stroke-opacity="1" stroke-width=".091" d="m 30.724887,21.756863 a 8.7352549,8.7352549 0 0 0 -8.73516,8.735154 8.7352549,8.7352549 0 0 0 0.0074,0.20862 8.7352549,8.7352549 0 0 1 8.727831,-8.58654 8.7352549,8.7352549 0 0 1 8.727827,8.525139 8.7352549,8.7352549 0 0 0 0.0074,-0.147219 8.7352549,8.7352549 0 0 0 -8.735157,-8.735154 z" display="inline" enable-background="new" opacity="1"/><path id="path8670-7" fill="#f4f4f4" fill-opacity="1" stroke="none" stroke-dasharray="none" stroke-linecap="round" stroke-linejoin="round" stroke-miterlimit="4" stroke-opacity="1" stroke-width=".091" d="m 30.684035,39.268144 a 8.7352549,8.7352549 0 0 0 8.735158,-8.735152 8.7352549,8.7352549 0 0 0 -0.0074,-0.208622 8.7352549,8.7352549 0 0 1 -8.727829,8.586542 8.7352549,8.7352549 0 0 1 -8.727831,-8.52514 8.7352549,8.7352549 0 0 0 -0.0074,0.14722 8.7352549,8.7352549 0 0 0 8.73516,8.735152 z" display="inline" enable-background="new" opacity="1"/><circle marker-start="none" style="isolation:auto;mix-blend-mode:normal;solid-color:#000;solid-opacity:1;marker:none" id="path8776-1" cx="30.727" cy="30.502" r="4.472" fill="url(#linearGradient8784-0)" fill-opacity="1" fill-rule="nonzero" stroke="none" stroke-dasharray="none" stroke-dashoffset="0" stroke-linecap="butt" stroke-linejoin="miter" stroke-miterlimit="4" stroke-opacity=".203" stroke-width=".377" marker-end="none" marker-mid="none" clip-rule="nonzero" color="#000" color-interpolation="sRGB" color-interpolation-filters="linearRGB" color-rendering="auto" display="block" enable-background="accumulate" image-rendering="auto" opacity="1" overflow="visible" paint-order="fill markers stroke" shape-rendering="auto" text-rendering="auto" vector-effect="none" visibility="visible"/><path id="path8794-1" fill="url(#linearGradient8809-7)" fill-opacity="1" stroke="none" stroke-dasharray="none" stroke-linecap="round" stroke-linejoin="round" stroke-miterlimit="4" stroke-opacity="1" stroke-width=".091" d="m 30.755596,22.061887 a 8.7352549,8.7352549 0 0 0 -8.735156,8.735159 8.7352549,8.7352549 0 0 0 0.656905,3.311747 l 5.315963,-5.31596 a 3.4163529,3.4163529 0 0 1 2.762288,-1.412196 3.4163529,3.4163529 0 0 1 3.416407,3.416409 3.4163529,3.4163529 0 0 1 -0.840062,2.24039 l 3.762827,3.762827 a 8.7352549,8.7352549 0 0 0 2.395984,-6.003217 8.7352549,8.7352549 0 0 0 -8.735156,-8.735159 z" display="inline" enable-background="new" opacity="1"/><path id="path8811-5" fill="url(#linearGradient8813-2)" fill-opacity="1" stroke="none" stroke-dasharray="none" stroke-linecap="round" stroke-linejoin="round" stroke-miterlimit="4" stroke-opacity="1" stroke-width=".091" d="m 24.513636,36.721839 a 8.7352549,8.7352549 0 0 0 12.353375,0 8.7352549,8.7352549 0 0 0 1.877258,-2.806263 h -7.517902 a 3.4163529,3.4163529 0 0 1 -2.951805,-0.954661 3.4163529,3.4163529 0 0 1 0,-4.831527 3.4163529,3.4163529 0 0 1 2.178207,-0.990184 v -5.321442 a 8.7352549,8.7352549 0 0 0 -5.939133,2.550698 8.7352549,8.7352549 0 0 0 0,12.353379 z" display="inline" enable-background="new" opacity="1"/><path id="path8815-9" fill="url(#linearGradient8817-7)" fill-opacity="1" stroke="none" stroke-dasharray="none" stroke-linecap="round" stroke-linejoin="round" stroke-miterlimit="4" stroke-opacity="1" stroke-width=".091" d="m 36.813958,36.67308 a 8.7352549,8.7352549 0 0 0 0,-12.353373 8.7352549,8.7352549 0 0 0 -2.806261,-1.87726 v 7.517903 a 3.4163529,3.4163529 0 0 1 -0.954662,2.951807 3.4163529,3.4163529 0 0 1 -4.83153,0 3.4163529,3.4163529 0 0 1 -0.990183,-2.178207 H 21.90988 a 8.7352549,8.7352549 0 0 0 2.550701,5.93913 8.7352549,8.7352549 0 0 0 12.353377,0 z" display="inline" enable-background="new" opacity="1"/><path id="circle8736-7" fill="#000" fill-opacity=".484" stroke="none" stroke-dasharray="none" stroke-linecap="round" stroke-linejoin="round" stroke-miterlimit="4" stroke-opacity=".203" stroke-width=".366" d="M 30.724887,19.318051 A 11.164451,11.164451 0 0 0 19.560405,30.48253 11.164451,11.164451 0 0 0 19.570515,30.766417 11.164451,11.164451 0 0 1 30.724879,19.803629 11.164451,11.164451 0 0 1 41.879239,30.683591 11.164451,11.164451 0 0 0 41.889349,30.48253 11.164451,11.164451 0 0 0 30.724872,19.318051 Z" display="inline" enable-background="new" opacity="1"/><path id="path8850-7" fill="#fff" fill-opacity=".38" stroke="none" stroke-dasharray="none" stroke-linecap="round" stroke-linejoin="round" stroke-miterlimit="4" stroke-opacity=".203" stroke-width=".366" d="M 30.686589,42.021768 A 11.14649,11.14649 0 0 0 41.833105,30.87525 11.14649,11.14649 0 0 0 41.822992,30.591819 11.14649,11.14649 0 0 1 30.686573,41.53697 11.14649,11.14649 0 0 1 19.550157,30.674513 11.14649,11.14649 0 0 0 19.540047,30.87525 11.14649,11.14649 0 0 0 30.686566,42.021768 Z" display="inline" enable-background="new" opacity="1"/><circle id="circle8860-6" cx="30.727" cy="30.502" r="7.085" fill="none" fill-opacity="1" fill-rule="nonzero" stroke="#f4f4f4" stroke-dasharray="none" stroke-dashoffset="0" stroke-linecap="butt" stroke-linejoin="miter" stroke-miterlimit="4" stroke-opacity="1" stroke-width=".098" marker-end="none" marker-mid="none" marker-start="none" clip-rule="nonzero" color="#000" color-interpolation="sRGB" color-interpolation-filters="linearRGB" color-rendering="auto" display="block" enable-background="accumulate" image-rendering="auto" opacity="1" overflow="visible" paint-order="fill markers stroke" shape-rendering="auto" text-rendering="auto" vector-effect="none" visibility="visible" style="isolation:auto;mix-blend-mode:normal;solid-color:#000;solid-opacity:1;marker:none"/><circle marker-start="none" style="isolation:auto;mix-blend-mode:normal;solid-color:#000;solid-opacity:1;marker:none" id="circle8864-7" cx="30.727" cy="30.502" r="5.817" fill="none" fill-opacity="1" fill-rule="nonzero" stroke="#f4f4f4" stroke-dasharray="none" stroke-dashoffset="0" stroke-linecap="butt" stroke-linejoin="miter" stroke-miterlimit="4" stroke-opacity="1" stroke-width=".081" marker-end="none" marker-mid="none" clip-rule="nonzero" color="#000" color-interpolation="sRGB" color-interpolation-filters="linearRGB" color-rendering="auto" display="block" enable-background="accumulate" image-rendering="auto" opacity="1" overflow="visible" paint-order="fill markers stroke" shape-rendering="auto" text-rendering="auto" vector-effect="none" visibility="visible"/><path id="path8876-3" fill="url(#linearGradient8884-2)" fill-opacity="1" stroke="none" stroke-dasharray="none" stroke-linecap="round" stroke-linejoin="round" stroke-miterlimit="4" stroke-opacity="1" stroke-width=".097" d="m 22.163442,1.6470402 c -0.789821,0 -1.579702,0.3025246 -2.184902,0.9077224 -1.210393,1.210407 -1.210393,3.1593966 0,4.3698017 l 8.584124,8.5841177 12.55929,3.821175 c 0,0 -11.416734,-11.3874003 -16.773981,-16.7750904 C 23.742776,1.9495684 22.953262,1.6470441 22.163442,1.6470441 Z" display="none" enable-background="new" opacity="1"/><path id="path8965-6" fill="url(#linearGradient8973-1)" fill-opacity="1" stroke="none" stroke-dasharray="none" stroke-linecap="round" stroke-linejoin="round" stroke-miterlimit="4" stroke-opacity="1" stroke-width=".091" d="m 22.269516,2.9368045 c -0.744303,0 -1.488663,0.2850899 -2.058985,0.8554099 -1.140637,1.1406504 -1.140637,2.9773187 0,4.1179674 l 8.089415,8.0894092 -6.03043,-13.0627829 z" display="inline" enable-background="new" opacity="1"/><path id="path8975-5" fill="url(#linearGradient8977-1)" fill-opacity="1" stroke="none" stroke-dasharray="none" stroke-linecap="round" stroke-linejoin="round" stroke-miterlimit="4" stroke-opacity="1" stroke-width=".091" d="m 4.9927459,16.874516 c -0.5263005,0.526304 -0.851054,1.254233 -0.8510558,2.060789 1.06e-5,1.613115 1.2987315,2.911835 2.9118443,2.91184 l 11.4401606,-1e-6 -13.5009456,-4.972625 z" display="inline" enable-background="new" opacity="1"/><path id="path8979-6" fill="url(#linearGradient8981-5)" fill-opacity="1" stroke="none" stroke-dasharray="none" stroke-linecap="round" stroke-linejoin="round" stroke-miterlimit="4" stroke-opacity="1" stroke-width=".091" d="m 3.1348031,38.473942 c 1.2e-6,0.744306 0.2850904,1.488666 0.8554099,2.058987 1.1406514,1.140636 2.9773206,1.140636 4.1179674,-2e-6 L 16.197596,32.443515 3.1348079,38.473942 Z" display="inline" enable-background="new" opacity="1"/></g></g><g id="g7907" display="inline"><g id="g7843" display="none"><rect id="rect7837" width="64" height="64" x="48" y="48" fill="#000" fill-opacity="1" fill-rule="nonzero" stroke="#ff24f7" stroke-dasharray="none" stroke-dashoffset="0" stroke-linecap="square" stroke-linejoin="miter" stroke-miterlimit="4" stroke-opacity=".995" stroke-width="0" marker-end="none" marker-mid="none" marker-start="none" clip-rule="nonzero" color="#000" color-interpolation="sRGB" color-interpolation-filters="linearRGB" color-rendering="auto" display="inline" enable-background="accumulate" image-rendering="auto" opacity="1" overflow="visible" paint-order="normal" shape-rendering="auto" text-rendering="auto" vector-effect="none" visibility="visible" style="isolation:auto;mix-blend-mode:normal;solid-color:#000;solid-opacity:1;marker:none"/><text id="text7841" x="69.816" y="85.824" fill="#fff" fill-opacity="1" stroke="none" stroke-linecap="butt" stroke-linejoin="miter" stroke-opacity="1" stroke-width=".033" display="inline" font-family="sans-serif" font-size="16" letter-spacing="0" opacity="1" word-spacing="0" xml:space="preserve" style="line-height:0%"><tspan id="tspan7839" x="69.816" y="85.824" fill="#fff" fill-opacity="1" stroke="none" stroke-width=".033" font-size="16" style="line-height:0%">64</tspan></text></g><g id="g7905" display="inline"><path id="path8866-9-2" fill="#000" fill-opacity=".203" stroke="none" stroke-dasharray="none" stroke-linecap="round" stroke-linejoin="round" stroke-miterlimit="4" stroke-opacity="1" stroke-width=".537" d="m 164.15165,51.022459 c -4.39592,0 -8.79217,1.683765 -12.16054,5.052123 -6.7367,6.736779 -6.7367,17.584297 0,24.321065 L 199.76788,128.1724 H 75.214104 c -9.527177,0 -17.196172,7.66901 -17.196172,17.19617 0,9.52712 7.668995,17.19618 17.196172,17.19618 17.90524,-0.0494 43.298866,-0.0556 67.616436,-0.0495 l -88.121625,88.12161 c -6.736779,6.73671 -6.736716,17.58434 0,24.32108 6.736716,6.73671 17.584353,6.73671 24.321066,0 12.934463,-13.00792 31.461609,-31.5437 49.031539,-49.10366 5.84024,42.53217 42.15746,74.2395 85.08871,74.28803 47.48813,-1.4e-4 85.98482,-38.49685 85.98498,-85.98497 -0.0238,-24.81357 -10.76598,-48.40712 -29.46592,-64.71742 -6.36599,-6.34936 -63.54227,-63.379025 -93.35917,-93.365366 -3.36835,-3.368359 -7.76256,-5.052123 -12.15847,-5.052123 z m 50.00939,142.675061 c 11.08341,1.1e-4 20.06828,8.98497 20.06838,20.06839 -1e-4,11.0834 -8.98497,20.06827 -20.06838,20.06837 -11.08342,-1e-4 -20.06828,-8.98497 -20.06838,-20.06837 1e-4,-11.08342 8.98496,-20.06828 20.06838,-20.06839 z" display="inline" enable-background="new" filter="url(#filter8868-6-3)" opacity="1" transform="matrix(0.22969112,0,0,0.22969112,39.751738,39.829554)"/><path id="circle4567-3-4-9" fill="url(#linearGradient8858-9-0)" fill-opacity="1" stroke="none" stroke-dasharray="none" stroke-linecap="round" stroke-linejoin="round" stroke-miterlimit="4" stroke-opacity="1" stroke-width=".121" d="m 77.496232,52.039142 c -0.992403,0 -1.984883,0.38012 -2.745312,1.140546 -1.520849,1.520866 -1.520849,3.969756 0,5.490621 L 85.536804,69.456185 H 57.418059 c -2.150816,0 -3.882135,1.731324 -3.882135,3.882135 0,2.150804 1.731319,3.882137 3.882135,3.882137 4.042213,-0.0112 9.774973,-0.01253 15.264809,-0.0112 L 52.788893,97.10326 c -1.520866,1.520851 -1.520853,3.96977 0,5.49062 1.520853,1.52086 3.969771,1.52086 5.490621,0 2.920032,-2.936608 7.102647,-7.121171 11.069162,-11.085431 1.318469,9.601881 9.517292,16.759991 19.209269,16.770951 10.720723,-2e-5 19.411585,-8.690884 19.411615,-19.411604 -0.005,-5.601806 -2.43048,-10.92819 -6.6521,-14.610333 C 99.880297,72.824058 86.972418,59.949284 80.241078,53.179692 79.480653,52.419266 78.488633,52.039146 77.496232,52.039146 Z M 88.786143,84.24886 c 2.502146,2.6e-5 4.530532,2.028408 4.530553,4.530555 -2.1e-5,2.502143 -2.028407,4.530531 -4.530553,4.530554 -2.502148,-2.3e-5 -4.530531,-2.028411 -4.530552,-4.530554 2.1e-5,-2.502147 2.028404,-4.530529 4.530552,-4.530555 z" display="inline" enable-background="new" opacity="1"/><path id="path8852-9-3" fill="#000" fill-opacity=".099" stroke="none" stroke-dasharray="none" stroke-linecap="round" stroke-linejoin="round" stroke-miterlimit="4" stroke-opacity="1" stroke-width=".155" d="M 88.770057,73.880797 A 14.91361,14.91361 0 0 0 73.856613,88.794238 14.91361,14.91361 0 0 0 88.770057,103.70768 14.91361,14.91361 0 0 0 103.6835,88.794238 14.91361,14.91361 0 0 0 88.770057,73.880797 Z m 0,9.080649 a 5.832704,5.832704 0 0 1 5.832791,5.832792 5.832704,5.832704 0 0 1 -5.832791,5.832801 5.832704,5.832704 0 0 1 -5.832798,-5.832801 5.832704,5.832704 0 0 1 5.832798,-5.832792 z" display="inline" enable-background="new" opacity="1"/><path id="circle4575-7-0-1" fill="url(#linearGradient8856-4-1)" fill-opacity="1" stroke="none" stroke-dasharray="none" stroke-linecap="round" stroke-linejoin="round" stroke-miterlimit="4" stroke-opacity="1" stroke-width=".121" d="M 88.770057,77.132546 A 11.647004,11.647004 0 0 0 77.12318,88.779415 11.647004,11.647004 0 0 0 88.770057,100.42629 11.647004,11.647004 0 0 0 100.41694,88.779415 11.647004,11.647004 0 0 0 88.770057,77.132546 Z m 0,7.091662 a 4.5551361,4.5551361 0 0 1 4.555202,4.555207 4.5551361,4.5551361 0 0 1 -4.555202,4.555208 4.5551361,4.5551361 0 0 1 -4.555209,-4.555208 4.5551361,4.5551361 0 0 1 4.555209,-4.555207 z" display="inline" enable-background="new" opacity="1"/><path id="path4672-5-9-9" fill="#f5eece" fill-opacity=".672" stroke="none" stroke-dasharray="none" stroke-linecap="round" stroke-linejoin="round" stroke-miterlimit="4" stroke-opacity="1" stroke-width=".121" d="m 77.4224,52.192894 c -0.992383,0 -1.984734,0.380289 -2.745155,1.140715 -0.791425,0.791424 -1.170142,1.834066 -1.13788,2.86649 0.0298,-0.951548 0.408447,-1.894418 1.13788,-2.623848 0.760421,-0.760426 1.752772,-1.140716 2.745155,-1.140716 0.992408,0 1.984752,0.38029 2.745177,1.140716 6.731325,6.769591 19.638918,19.644331 21.076073,21.077732 a 19.411674,19.411674 0 0 1 6.64717,14.510893 19.411674,19.411674 0 0 0 0.005,-0.143368 19.411674,19.411674 0 0 0 -6.65215,-14.610173 C 99.807035,72.977922 86.899445,60.103201 80.168114,53.333609 79.407692,52.573183 78.415345,52.192894 77.422946,52.192894 Z M 57.344641,69.609841 c -2.150819,0 -3.882341,1.73151 -3.882341,3.882327 0,0.04065 0.0013,0.08089 0.0028,0.121294 0.06377,-2.094115 1.769119,-3.761013 3.87926,-3.761013 h 28.118497 l -0.242643,-0.242644 z m 15.022007,7.99617 -19.65124,19.651238 c -0.791424,0.791421 -1.17014,1.834065 -1.137876,2.866501 0.0298,-0.951562 0.408447,-1.894416 1.137876,-2.623858 L 72.609293,77.606011 c -0.08147,-1.2e-5 -0.161067,2.7e-5 -0.242645,0 z" display="inline" enable-background="new" opacity=".884"/><path id="path4677-2-1-4" fill="#000" fill-opacity=".552" stroke="none" stroke-dasharray="none" stroke-linecap="round" stroke-linejoin="round" stroke-miterlimit="4" stroke-opacity="1" stroke-width=".121" d="m 73.664656,55.919101 c -0.03231,1.032423 0.34645,2.075066 1.137876,2.86649 l 10.543246,10.543242 h 0.242655 L 74.802532,58.542947 C 74.0731,57.813519 73.694399,56.870648 73.664656,55.919101 Z M 53.590682,73.33249 c -0.0012,0.04037 -0.0028,0.08061 -0.0028,0.121293 0,2.150815 1.731525,3.882335 3.882342,3.882335 3.982223,-0.0112 9.606966,-0.01253 15.022004,-0.0112 l 0.242644,-0.242644 c -5.489832,-0.0012 -11.222437,-2.29e-4 -15.264648,0.0112 -2.110141,0 -3.815459,-1.6669 -3.879263,-3.761012 z M 108.01612,88.883862 A 19.411674,19.411674 0 0 1 88.60942,108.15218 19.411674,19.411674 0 0 1 69.400341,91.381412 c -3.966522,3.964257 -8.149262,8.148562 -11.069292,11.085178 -1.520853,1.52085 -3.969482,1.52085 -5.490335,0 -0.72943,-0.72943 -1.108146,-1.6723 -1.137875,-2.62385 -0.03231,1.03242 0.346452,2.07507 1.137875,2.86649 1.520853,1.52085 3.969482,1.52085 5.490335,0 2.92003,-2.936618 7.10277,-7.120921 11.069292,-11.085164 a 19.411674,19.411674 0 0 0 19.209079,16.770754 19.411674,19.411674 0 0 0 19.41168,-19.411676 19.411674,19.411674 0 0 0 -0.005,-0.09928 z" display="inline" enable-background="new" opacity="1"/><path id="circle8657-7-7" fill="#000" fill-opacity=".573" stroke="none" stroke-dasharray="none" stroke-linecap="round" stroke-linejoin="round" stroke-miterlimit="4" stroke-opacity="1" stroke-width=".121" d="m 88.770057,77.132546 a 11.647004,11.647004 0 0 0 -11.646877,11.646869 11.647004,11.647004 0 0 0 0.0099,0.27816 11.647004,11.647004 0 0 1 11.637105,-11.448717 11.647004,11.647004 0 0 1 11.637105,11.366849 11.647004,11.647004 0 0 0 0.01,-0.196292 11.647004,11.647004 0 0 0 -11.646882,-11.646869 z" display="inline" enable-background="new" opacity="1"/><path id="path8670-7-8" fill="#f4f4f4" fill-opacity="1" stroke="none" stroke-dasharray="none" stroke-linecap="round" stroke-linejoin="round" stroke-miterlimit="4" stroke-opacity="1" stroke-width=".121" d="m 88.715588,100.48092 a 11.647004,11.647004 0 0 0 11.646882,-11.646872 11.647004,11.647004 0 0 0 -0.01,-0.278162 11.647004,11.647004 0 0 1 -11.637107,11.448724 11.647004,11.647004 0 0 1 -11.637105,-11.366855 11.647004,11.647004 0 0 0 -0.0099,0.196293 11.647004,11.647004 0 0 0 11.646877,11.646872 z" display="inline" enable-background="new" opacity="1"/><circle marker-start="none" style="isolation:auto;mix-blend-mode:normal;solid-color:#000;solid-opacity:1;marker:none" id="path8776-1-4" cx="88.773" cy="88.793" r="5.962" fill="url(#linearGradient8784-0-9)" fill-opacity="1" fill-rule="nonzero" stroke="none" stroke-dasharray="none" stroke-dashoffset="0" stroke-linecap="butt" stroke-linejoin="miter" stroke-miterlimit="4" stroke-opacity=".203" stroke-width=".503" marker-end="none" marker-mid="none" clip-rule="nonzero" color="#000" color-interpolation="sRGB" color-interpolation-filters="linearRGB" color-rendering="auto" display="block" enable-background="accumulate" image-rendering="auto" opacity="1" overflow="visible" paint-order="fill markers stroke" shape-rendering="auto" text-rendering="auto" vector-effect="none" visibility="visible"/><path id="path8794-1-5" fill="url(#linearGradient8809-7-2)" fill-opacity="1" stroke="none" stroke-dasharray="none" stroke-linecap="round" stroke-linejoin="round" stroke-miterlimit="4" stroke-opacity="1" stroke-width=".121" d="m 88.811003,77.539245 a 11.647004,11.647004 0 0 0 -11.646872,11.646875 11.647004,11.647004 0 0 0 0.875873,4.415662 l 7.087949,-7.087945 a 4.5551361,4.5551361 0 0 1 3.68305,-1.882928 4.5551361,4.5551361 0 0 1 4.555208,4.555211 4.5551361,4.5551361 0 0 1 -1.120082,2.987186 l 5.017101,5.017102 A 11.647004,11.647004 0 0 0 100.45788,89.18612 11.647004,11.647004 0 0 0 88.811003,77.539245 Z" display="inline" enable-background="new" opacity="1"/><path id="path8811-5-0" fill="url(#linearGradient8813-2-5)" fill-opacity="1" stroke="none" stroke-dasharray="none" stroke-linecap="round" stroke-linejoin="round" stroke-miterlimit="4" stroke-opacity="1" stroke-width=".121" d="m 80.488392,97.085842 a 11.647004,11.647004 0 0 0 16.471162,0 11.647004,11.647004 0 0 0 2.50301,-3.741683 H 89.438697 a 4.5551361,4.5551361 0 0 1 -3.935739,-1.272881 4.5551361,4.5551361 0 0 1 0,-6.442034 4.5551361,4.5551361 0 0 1 2.904276,-1.320245 v -7.095254 a 11.647004,11.647004 0 0 0 -7.918842,3.400929 11.647004,11.647004 0 0 0 0,16.471168 z" display="inline" enable-background="new" opacity="1"/><path id="path8815-9-3" fill="url(#linearGradient8817-7-9)" fill-opacity="1" stroke="none" stroke-dasharray="none" stroke-linecap="round" stroke-linejoin="round" stroke-miterlimit="4" stroke-opacity="1" stroke-width=".121" d="m 96.888817,97.02083 a 11.647004,11.647004 0 0 0 0,-16.47116 11.647004,11.647004 0 0 0 -3.741681,-2.503012 v 10.023868 a 4.5551361,4.5551361 0 0 1 -1.272882,3.935742 4.5551361,4.5551361 0 0 1 -6.442038,0 4.5551361,4.5551361 0 0 1 -1.320244,-2.904276 h -7.095254 a 11.647004,11.647004 0 0 0 3.400934,7.918838 11.647004,11.647004 0 0 0 16.471165,0 z" display="inline" enable-background="new" opacity="1"/><path id="circle8736-7-6" fill="#000" fill-opacity=".484" stroke="none" stroke-dasharray="none" stroke-linecap="round" stroke-linejoin="round" stroke-miterlimit="4" stroke-opacity=".203" stroke-width=".488" d="m 88.770057,73.880797 a 14.885931,14.885931 0 0 0 -14.885972,14.885969 14.885931,14.885931 0 0 0 0.01348,0.378516 14.885931,14.885931 0 0 1 14.872482,-14.617047 14.885931,14.885931 0 0 1 14.872483,14.506612 14.885931,14.885931 0 0 0 0.0135,-0.268081 14.885931,14.885931 0 0 0 -14.885973,-14.885969 z" display="inline" enable-background="new" opacity="1"/><path id="path8850-7-1" fill="#fff" fill-opacity=".38" stroke="none" stroke-dasharray="none" stroke-linecap="round" stroke-linejoin="round" stroke-miterlimit="4" stroke-opacity=".203" stroke-width=".487" d="M 88.718993,104.15241 A 14.861983,14.861983 0 0 0 103.58102,89.290392 14.861983,14.861983 0 0 0 103.56753,88.912484 14.861983,14.861983 0 0 1 88.718972,103.50602 14.861983,14.861983 0 0 1 73.870421,89.022743 14.861983,14.861983 0 0 0 73.856941,89.290392 14.861983,14.861983 0 0 0 88.718963,104.15241 Z" display="inline" enable-background="new" opacity="1"/><circle id="circle8860-6-0" cx="88.773" cy="88.793" r="9.447" fill="none" fill-opacity="1" fill-rule="nonzero" stroke="#f4f4f4" stroke-dasharray="none" stroke-dashoffset="0" stroke-linecap="butt" stroke-linejoin="miter" stroke-miterlimit="4" stroke-opacity="1" stroke-width=".131" marker-end="none" marker-mid="none" marker-start="none" clip-rule="nonzero" color="#000" color-interpolation="sRGB" color-interpolation-filters="linearRGB" color-rendering="auto" display="block" enable-background="accumulate" image-rendering="auto" opacity="1" overflow="visible" paint-order="fill markers stroke" shape-rendering="auto" text-rendering="auto" vector-effect="none" visibility="visible" style="isolation:auto;mix-blend-mode:normal;solid-color:#000;solid-opacity:1;marker:none"/><circle marker-start="none" style="isolation:auto;mix-blend-mode:normal;solid-color:#000;solid-opacity:1;marker:none" id="circle8864-7-6" cx="88.773" cy="88.793" r="7.756" fill="none" fill-opacity="1" fill-rule="nonzero" stroke="#f4f4f4" stroke-dasharray="none" stroke-dashoffset="0" stroke-linecap="butt" stroke-linejoin="miter" stroke-miterlimit="4" stroke-opacity="1" stroke-width=".108" marker-end="none" marker-mid="none" clip-rule="nonzero" color="#000" color-interpolation="sRGB" color-interpolation-filters="linearRGB" color-rendering="auto" display="block" enable-background="accumulate" image-rendering="auto" opacity="1" overflow="visible" paint-order="fill markers stroke" shape-rendering="auto" text-rendering="auto" vector-effect="none" visibility="visible"/><path id="path8876-3-3" fill="url(#linearGradient8884-2-2)" fill-opacity="1" stroke="none" stroke-dasharray="none" stroke-linecap="round" stroke-linejoin="round" stroke-miterlimit="4" stroke-opacity="1" stroke-width=".129" d="m 77.3548,50.319455 c -1.053094,0 -2.106269,0.403367 -2.913202,1.210297 -1.613857,1.613876 -1.613857,4.212527 0,5.826402 l 11.445496,11.445486 16.745726,5.094899 c 0,0 -15.222318,-15.183196 -22.365312,-22.366781 -0.80693,-0.806931 -1.859615,-1.210297 -2.912708,-1.210297 z" display="none" enable-background="new" opacity="1"/><path id="path8965-6-2" fill="url(#linearGradient8973-1-9)" fill-opacity="1" stroke="none" stroke-dasharray="none" stroke-linecap="round" stroke-linejoin="round" stroke-miterlimit="4" stroke-opacity="1" stroke-width=".121" d="m 77.496232,52.039142 c -0.992403,0 -1.984883,0.38012 -2.745312,1.140546 -1.520849,1.520866 -1.520849,3.969756 0,5.490621 L 85.536804,69.456185 77.496232,52.039146 Z" display="inline" enable-background="new" opacity="1"/><path id="path8975-5-0" fill="url(#linearGradient8977-1-6)" fill-opacity="1" stroke="none" stroke-dasharray="none" stroke-linecap="round" stroke-linejoin="round" stroke-miterlimit="4" stroke-opacity="1" stroke-width=".121" d="m 54.460545,70.622752 c -0.701733,0.701738 -1.134739,1.67231 -1.13474,2.747718 1.3e-5,2.150819 1.731641,3.882445 3.882458,3.882452 l 15.253543,-10e-7 -18.001256,-6.630165 z" display="inline" enable-background="new" opacity="1"/><path id="path8979-6-6" fill="url(#linearGradient8981-5-1)" fill-opacity="1" stroke="none" stroke-dasharray="none" stroke-linecap="round" stroke-linejoin="round" stroke-miterlimit="4" stroke-opacity="1" stroke-width=".121" d="m 51.983289,99.421979 c 2e-6,0.992411 0.38012,1.984891 1.140545,2.745321 1.520869,1.52084 3.969761,1.52084 5.490623,-1e-5 L 69.400341,91.381412 51.983295,99.421979 Z" display="inline" enable-background="new" opacity="1"/></g></g><g id="g8840" display="inline"><g id="g8776" display="none"><rect id="rect_96" width="96" height="96" x="112" y="112" fill="#000" fill-opacity="1" fill-rule="nonzero" stroke="#ff24f7" stroke-dasharray="none" stroke-dashoffset="0" stroke-linecap="square" stroke-linejoin="miter" stroke-miterlimit="4" stroke-opacity=".995" stroke-width="0" marker-end="none" marker-mid="none" marker-start="none" clip-rule="nonzero" color="#000" color-interpolation="sRGB" color-interpolation-filters="linearRGB" color-rendering="auto" display="inline" enable-background="accumulate" image-rendering="auto" opacity="1" overflow="visible" paint-order="normal" shape-rendering="auto" text-rendering="auto" vector-effect="none" visibility="visible" style="isolation:auto;mix-blend-mode:normal;solid-color:#000;solid-opacity:1;marker:none"/><text id="text_96" x="144.725" y="168.736" fill="#fff" fill-opacity="1" stroke="none" stroke-linecap="butt" stroke-linejoin="miter" stroke-opacity="1" stroke-width=".049" display="inline" font-family="sans-serif" font-size="24" letter-spacing="0" opacity="1" word-spacing="0" xml:space="preserve" style="line-height:0%"><tspan style="line-height:0%" id="tspan8768" x="144.725" y="168.736" fill="#fff" fill-opacity="1" stroke="none" stroke-width=".049" font-size="24">96</tspan></text></g><g id="g8838" display="inline"><path id="path8866-9-2-8" fill="#000" fill-opacity=".203" stroke="none" stroke-dasharray="none" stroke-linecap="round" stroke-linejoin="round" stroke-miterlimit="4" stroke-opacity="1" stroke-width=".537" d="m 164.15165,51.022459 c -4.39592,0 -8.79217,1.683765 -12.16054,5.052123 -6.7367,6.736779 -6.7367,17.584297 0,24.321065 L 199.76788,128.1724 H 75.214104 c -9.527177,0 -17.196172,7.66901 -17.196172,17.19617 0,9.52712 7.668995,17.19618 17.196172,17.19618 17.90524,-0.0494 43.298866,-0.0556 67.616436,-0.0495 l -88.121625,88.12161 c -6.736779,6.73671 -6.736716,17.58434 0,24.32108 6.736716,6.73671 17.584353,6.73671 24.321066,0 12.934463,-13.00792 31.461609,-31.5437 49.031539,-49.10366 5.84024,42.53217 42.15746,74.2395 85.08871,74.28803 47.48813,-1.4e-4 85.98482,-38.49685 85.98498,-85.98497 -0.0238,-24.81357 -10.76598,-48.40712 -29.46592,-64.71742 -6.36599,-6.34936 -63.54227,-63.379025 -93.35917,-93.365366 -3.36835,-3.368359 -7.76256,-5.052123 -12.15847,-5.052123 z m 50.00939,142.675061 c 11.08341,1.1e-4 20.06828,8.98497 20.06838,20.06839 -1e-4,11.0834 -8.98497,20.06827 -20.06838,20.06837 -11.08342,-1e-4 -20.06828,-8.98497 -20.06838,-20.06837 1e-4,-11.08342 8.98496,-20.06828 20.06838,-20.06839 z" display="inline" enable-background="new" filter="url(#filter8868-6-3-1)" opacity="1" transform="matrix(0.34453668,0,0,0.34453668,99.94026,99.45279)"/><path id="circle4567-3-4-9-4" fill="url(#linearGradient8858-9-0-5)" fill-opacity="1" stroke="none" stroke-dasharray="none" stroke-linecap="round" stroke-linejoin="round" stroke-miterlimit="4" stroke-opacity="1" stroke-width=".182" d="m 156.55701,117.76718 c -1.48861,0 -2.97733,0.57018 -4.11796,1.71081 -2.28128,2.2813 -2.28128,5.95464 0,8.23593 l 16.17882,16.17882 h -42.17813 c -3.22621,0 -5.82319,2.59699 -5.82319,5.82321 0,3.2262 2.59698,5.82319 5.82319,5.82319 6.06333,-0.0168 14.66247,-0.0187 22.89722,-0.0168 L 119.496,185.36336 c -2.2813,2.28127 -2.28127,5.95465 0,8.23593 2.28128,2.28129 5.95466,2.28129 8.23593,0 4.38005,-4.40492 10.65398,-10.68176 16.60374,-16.62815 1.97771,14.40282 14.27594,25.13999 28.81391,25.15643 16.08108,-3e-5 29.11738,-13.03634 29.11743,-29.11742 -0.007,-8.4027 -3.64572,-16.39228 -9.97815,-21.91549 -2.15576,-2.15012 -21.51758,-21.46227 -31.61459,-31.61666 -1.14063,-1.14064 -2.62866,-1.71082 -4.11726,-1.71082 z m 16.93487,48.31458 c 3.75321,3e-5 6.79579,3.0426 6.79582,6.79582 -3e-5,3.75321 -3.04261,6.7958 -6.79582,6.79584 -3.75323,-4e-5 -6.7958,-3.04263 -6.79583,-6.79584 3e-5,-3.75322 3.0426,-6.79579 6.79583,-6.79582 z" display="inline" enable-background="new" opacity="1"/><path id="path8852-9-3-3" fill="#000" fill-opacity=".099" stroke="none" stroke-dasharray="none" stroke-linecap="round" stroke-linejoin="round" stroke-miterlimit="4" stroke-opacity="1" stroke-width=".233" d="m 173.46774,150.52965 a 22.370415,22.370415 0 0 0 -22.37016,22.37016 22.370415,22.370415 0 0 0 22.37016,22.37018 22.370415,22.370415 0 0 0 22.37018,-22.37018 22.370415,22.370415 0 0 0 -22.37018,-22.37016 z m 0,13.62098 a 8.749056,8.749056 0 0 1 8.74919,8.74918 8.749056,8.749056 0 0 1 -8.74919,8.74922 8.749056,8.749056 0 0 1 -8.7492,-8.74922 8.749056,8.749056 0 0 1 8.7492,-8.74918 z" display="inline" enable-background="new" opacity="1"/><path id="circle4575-7-0-1-1" fill="url(#linearGradient8856-4-1-5)" fill-opacity="1" stroke="none" stroke-dasharray="none" stroke-linecap="round" stroke-linejoin="round" stroke-miterlimit="4" stroke-opacity="1" stroke-width=".182" d="m 173.46774,155.40728 a 17.470506,17.470506 0 0 0 -17.4703,17.4703 17.470506,17.470506 0 0 0 17.4703,17.47032 17.470506,17.470506 0 0 0 17.47034,-17.47032 17.470506,17.470506 0 0 0 -17.47034,-17.4703 z m 0,10.63749 a 6.8327042,6.8327042 0 0 1 6.8328,6.83281 6.8327042,6.8327042 0 0 1 -6.8328,6.83282 6.8327042,6.8327042 0 0 1 -6.83281,-6.83282 6.8327042,6.8327042 0 0 1 6.83281,-6.83281 z" display="inline" enable-background="new" opacity="1"/><path id="path4672-5-9-9-4" fill="#f5eece" fill-opacity=".672" stroke="none" stroke-dasharray="none" stroke-linecap="round" stroke-linejoin="round" stroke-miterlimit="4" stroke-opacity="1" stroke-width=".182" d="m 156.44627,117.9978 c -1.48859,0 -2.97711,0.57044 -4.11774,1.71107 -1.18713,1.18714 -1.75521,2.7511 -1.70682,4.29973 0.0447,-1.42731 0.61267,-2.84161 1.70682,-3.93576 1.14063,-1.14064 2.62915,-1.71108 4.11774,-1.71108 1.4886,0 2.97712,0.57044 4.11775,1.71108 10.097,10.15439 29.45838,29.4665 31.61412,31.6166 a 29.117511,29.117511 0 0 1 9.97076,21.76633 29.117511,29.117511 0 0 0 0.007,-0.21505 29.117511,29.117511 0 0 0 -9.97823,-21.91526 c -2.15496,-2.15011 -21.51634,-21.46219 -31.61334,-31.61659 -1.14063,-1.14063 -2.62915,-1.71107 -4.11775,-1.71107 z m -30.11664,26.12543 c -3.22623,0 -5.82351,2.59726 -5.82351,5.82348 0,0.0609 0.002,0.12135 0.005,0.18195 0.0957,-3.14118 2.65366,-5.64152 5.81889,-5.64152 h 42.17773 l -0.36396,-0.36397 z m 22.533,11.99425 -29.47686,29.47686 c -1.18713,1.18713 -1.75521,2.75109 -1.70681,4.29975 0.0447,-1.42735 0.61266,-2.84163 1.70681,-3.93579 l 29.84083,-29.84082 c -0.12225,-1e-5 -0.2416,3e-5 -0.36397,0 z" display="inline" enable-background="new" opacity=".884"/><path id="path4677-2-1-4-9" fill="#000" fill-opacity=".552" stroke="none" stroke-dasharray="none" stroke-linecap="round" stroke-linejoin="round" stroke-miterlimit="4" stroke-opacity="1" stroke-width=".182" d="m 150.80964,123.58712 c -0.0485,1.54863 0.51968,3.11259 1.70682,4.29973 l 15.81486,15.81486 h 0.36399 l -16.17885,-16.17883 c -1.09414,-1.09415 -1.66221,-2.50845 -1.70682,-3.93576 z m -30.11095,26.12008 c -0.002,0.0606 -0.005,0.1209 -0.005,0.18194 0,3.22621 2.59728,5.82349 5.82351,5.82349 5.97333,-0.0168 14.41045,-0.0188 22.533,-0.0168 l 0.36397,-0.36396 c -8.23474,-0.001 -16.83366,-3.4e-4 -22.89697,0.0168 -3.16521,0 -5.72319,-2.50035 -5.81889,-5.64151 z m 81.63816,23.32706 a 29.117511,29.117511 0 0 1 -29.11005,28.90248 29.117511,29.117511 0 0 1 -28.81362,-25.15616 c -5.9498,5.94639 -12.22391,12.22284 -16.60395,16.62777 -2.28128,2.28128 -5.95422,2.28128 -8.2355,0 -1.09414,-1.09414 -1.66222,-2.50845 -1.70682,-3.93577 -0.0484,1.54863 0.51969,3.1126 1.70682,4.29973 2.28128,2.28128 5.95422,2.28128 8.2355,0 4.38004,-4.40493 10.65415,-10.68138 16.60395,-16.62775 a 29.117511,29.117511 0 0 0 28.81362,25.15614 29.117511,29.117511 0 0 0 29.11752,-29.11752 29.117511,29.117511 0 0 0 -0.008,-0.14895 z" display="inline" enable-background="new" opacity="1"/><path id="circle8657-7-7-2" fill="#000" fill-opacity=".573" stroke="none" stroke-dasharray="none" stroke-linecap="round" stroke-linejoin="round" stroke-miterlimit="4" stroke-opacity="1" stroke-width=".182" d="m 173.46774,155.40728 a 17.470506,17.470506 0 0 0 -17.4703,17.4703 17.470506,17.470506 0 0 0 0.015,0.41724 17.470506,17.470506 0 0 1 17.45565,-17.17308 17.470506,17.470506 0 0 1 17.45566,17.05028 17.470506,17.470506 0 0 0 0.015,-0.29444 17.470506,17.470506 0 0 0 -17.47033,-17.4703 z" display="inline" enable-background="new" opacity="1"/><path id="path8670-7-8-0" fill="#f4f4f4" fill-opacity="1" stroke="none" stroke-dasharray="none" stroke-linecap="round" stroke-linejoin="round" stroke-miterlimit="4" stroke-opacity="1" stroke-width=".182" d="m 173.38604,190.42985 a 17.470506,17.470506 0 0 0 17.47033,-17.47032 17.470506,17.470506 0 0 0 -0.015,-0.41724 17.470506,17.470506 0 0 1 -17.45566,17.17309 17.470506,17.470506 0 0 1 -17.45567,-17.05029 17.470506,17.470506 0 0 0 -0.015,0.29444 17.470506,17.470506 0 0 0 17.47032,17.47032 z" display="inline" enable-background="new" opacity="1"/><circle marker-start="none" style="isolation:auto;mix-blend-mode:normal;solid-color:#000;solid-opacity:1;marker:none" id="path8776-1-4-6" cx="173.472" cy="172.899" r="8.943" fill="url(#linearGradient8784-0-9-3)" fill-opacity="1" fill-rule="nonzero" stroke="none" stroke-dasharray="none" stroke-dashoffset="0" stroke-linecap="butt" stroke-linejoin="miter" stroke-miterlimit="4" stroke-opacity=".203" stroke-width=".755" marker-end="none" marker-mid="none" clip-rule="nonzero" color="#000" color-interpolation="sRGB" color-interpolation-filters="linearRGB" color-rendering="auto" display="block" enable-background="accumulate" image-rendering="auto" opacity="1" overflow="visible" paint-order="fill markers stroke" shape-rendering="auto" text-rendering="auto" vector-effect="none" visibility="visible"/><path id="path8794-1-5-8" fill="url(#linearGradient8809-7-2-5)" fill-opacity="1" stroke="none" stroke-dasharray="none" stroke-linecap="round" stroke-linejoin="round" stroke-miterlimit="4" stroke-opacity="1" stroke-width=".182" d="m 173.52917,156.01733 a 17.470506,17.470506 0 0 0 -17.47031,17.47032 17.470506,17.470506 0 0 0 1.31381,6.62349 l 10.63192,-10.63193 a 6.8327042,6.8327042 0 0 1 5.52458,-2.82438 6.8327042,6.8327042 0 0 1 6.83281,6.83282 6.8327042,6.8327042 0 0 1 -1.68013,4.48077 l 7.52566,7.52565 a 17.470506,17.470506 0 0 0 4.79198,-12.00642 17.470506,17.470506 0 0 0 -17.47032,-17.47032 z" display="inline" enable-background="new" opacity="1"/><path id="path8811-5-0-9" fill="url(#linearGradient8813-2-5-4)" fill-opacity="1" stroke="none" stroke-dasharray="none" stroke-linecap="round" stroke-linejoin="round" stroke-miterlimit="4" stroke-opacity="1" stroke-width=".182" d="m 161.04525,185.33723 a 17.470506,17.470506 0 0 0 24.70674,0 17.470506,17.470506 0 0 0 3.75452,-5.61252 H 174.4707 a 6.8327042,6.8327042 0 0 1 -5.90361,-1.90934 6.8327042,6.8327042 0 0 1 0,-9.66304 6.8327042,6.8327042 0 0 1 4.35642,-1.98036 v -10.64289 a 17.470506,17.470506 0 0 0 -11.87826,5.10139 17.470506,17.470506 0 0 0 0,24.70676 z" display="inline" enable-background="new" opacity="1"/><path id="path8815-9-3-2" fill="url(#linearGradient8817-7-9-7)" fill-opacity="1" stroke="none" stroke-dasharray="none" stroke-linecap="round" stroke-linejoin="round" stroke-miterlimit="4" stroke-opacity="1" stroke-width=".182" d="m 185.64588,185.23971 a 17.470506,17.470506 0 0 0 0,-24.70674 17.470506,17.470506 0 0 0 -5.61252,-3.75453 v 15.03581 a 6.8327042,6.8327042 0 0 1 -1.90932,5.90361 6.8327042,6.8327042 0 0 1 -9.66306,0 6.8327042,6.8327042 0 0 1 -1.98036,-4.35641 h -10.64289 a 17.470506,17.470506 0 0 0 5.10141,11.87826 17.470506,17.470506 0 0 0 24.70674,0 z" display="inline" enable-background="new" opacity="1"/><path id="circle8736-7-6-6" fill="#000" fill-opacity=".484" stroke="none" stroke-dasharray="none" stroke-linecap="round" stroke-linejoin="round" stroke-miterlimit="4" stroke-opacity=".203" stroke-width=".732" d="m 173.46774,150.52965 a 22.328897,22.328897 0 0 0 -22.32895,22.32896 22.328897,22.328897 0 0 0 0.0203,0.56778 22.328897,22.328897 0 0 1 22.30872,-21.92558 22.328897,22.328897 0 0 1 22.30873,21.75992 22.328897,22.328897 0 0 0 0.0203,-0.40212 22.328897,22.328897 0 0 0 -22.32897,-22.32896 z" display="inline" enable-background="new" opacity="1"/><path id="path8850-7-1-6" fill="#fff" fill-opacity=".38" stroke="none" stroke-dasharray="none" stroke-linecap="round" stroke-linejoin="round" stroke-miterlimit="4" stroke-opacity=".203" stroke-width=".731" d="m 173.39115,195.93708 a 22.292975,22.292974 0 0 0 22.29305,-22.29303 22.292975,22.292974 0 0 0 -0.0203,-0.56686 22.292975,22.292974 0 0 1 -22.27284,21.89031 22.292975,22.292974 0 0 1 -22.27283,-21.72492 22.292975,22.292974 0 0 0 -0.0203,0.40147 22.292975,22.292974 0 0 0 22.29303,22.29303 z" display="inline" enable-background="new" opacity="1"/><circle id="circle8860-6-0-4" cx="173.472" cy="172.899" r="14.17" fill="none" fill-opacity="1" fill-rule="nonzero" stroke="#f4f4f4" stroke-dasharray="none" stroke-dashoffset="0" stroke-linecap="butt" stroke-linejoin="miter" stroke-miterlimit="4" stroke-opacity="1" stroke-width=".197" marker-end="none" marker-mid="none" marker-start="none" clip-rule="nonzero" color="#000" color-interpolation="sRGB" color-interpolation-filters="linearRGB" color-rendering="auto" display="block" enable-background="accumulate" image-rendering="auto" opacity="1" overflow="visible" paint-order="fill markers stroke" shape-rendering="auto" text-rendering="auto" vector-effect="none" visibility="visible" style="isolation:auto;mix-blend-mode:normal;solid-color:#000;solid-opacity:1;marker:none"/><circle marker-start="none" style="isolation:auto;mix-blend-mode:normal;solid-color:#000;solid-opacity:1;marker:none" id="circle8864-7-6-9" cx="173.472" cy="172.899" r="11.633" fill="none" fill-opacity="1" fill-rule="nonzero" stroke="#f4f4f4" stroke-dasharray="none" stroke-dashoffset="0" stroke-linecap="butt" stroke-linejoin="miter" stroke-miterlimit="4" stroke-opacity="1" stroke-width=".162" marker-end="none" marker-mid="none" clip-rule="nonzero" color="#000" color-interpolation="sRGB" color-interpolation-filters="linearRGB" color-rendering="auto" display="block" enable-background="accumulate" image-rendering="auto" opacity="1" overflow="visible" paint-order="fill markers stroke" shape-rendering="auto" text-rendering="auto" vector-effect="none" visibility="visible"/><path id="path8876-3-3-5" fill="url(#linearGradient8884-2-2-4)" fill-opacity="1" stroke="none" stroke-dasharray="none" stroke-linecap="round" stroke-linejoin="round" stroke-miterlimit="4" stroke-opacity="1" stroke-width=".193" d="m 156.34487,115.18764 c -1.57965,0 -3.15941,0.60506 -4.36982,1.81545 -2.42077,2.42081 -2.42077,6.31878 0,8.7396 l 17.16825,17.16824 25.1186,7.64235 c 0,0 -22.83348,-22.7748 -33.54798,-33.55019 -1.2104,-1.21039 -2.78942,-1.81543 -4.36905,-1.81543 z" display="none" enable-background="new" opacity="1"/><path id="path8965-6-2-0" fill="url(#linearGradient8973-1-9-0)" fill-opacity="1" stroke="none" stroke-dasharray="none" stroke-linecap="round" stroke-linejoin="round" stroke-miterlimit="4" stroke-opacity="1" stroke-width=".182" d="m 156.55701,117.76718 c -1.48861,0 -2.97733,0.57018 -4.11796,1.71081 -2.28128,2.2813 -2.28128,5.95464 0,8.23593 l 16.17882,16.17882 z" display="inline" enable-background="new" opacity="1"/><path id="path8975-5-0-4" fill="url(#linearGradient8977-1-6-6)" fill-opacity="1" stroke="none" stroke-dasharray="none" stroke-linecap="round" stroke-linejoin="round" stroke-miterlimit="4" stroke-opacity="1" stroke-width=".182" d="m 122.00348,145.64259 c -1.0526,1.05261 -1.70211,2.50847 -1.70211,4.12158 10e-6,3.22623 2.59746,5.82366 5.82369,5.82368 h 22.88031 l -27.00188,-9.94526 z" display="inline" enable-background="new" opacity="1"/><path id="path8979-6-6-8" fill="url(#linearGradient8981-5-1-8)" fill-opacity="1" stroke="none" stroke-dasharray="none" stroke-linecap="round" stroke-linejoin="round" stroke-miterlimit="4" stroke-opacity="1" stroke-width=".182" d="m 118.28759,188.84144 c 1e-5,1.48861 0.57018,2.97733 1.71082,4.11798 2.28131,2.28126 5.95464,2.28126 8.23593,-2e-5 l 16.17884,-16.17882 -26.12558,12.06086 z" display="inline" enable-background="new" opacity="1"/></g></g><g id="layer4" display="inline"><g id="layer11" display="none"><rect id="frame_128" width="128" height="128" x="208" y="208" fill="#000" fill-opacity="1" fill-rule="nonzero" stroke="#ff24f7" stroke-dasharray="none" stroke-dashoffset="0" stroke-linecap="square" stroke-linejoin="miter" stroke-miterlimit="4" stroke-opacity=".995" stroke-width="0" marker-end="none" marker-mid="none" marker-start="none" clip-rule="nonzero" color="#000" color-interpolation="sRGB" color-interpolation-filters="linearRGB" color-rendering="auto" display="inline" enable-background="accumulate" image-rendering="auto" opacity="1" overflow="visible" paint-order="normal" shape-rendering="auto" text-rendering="auto" vector-effect="none" visibility="visible" style="isolation:auto;mix-blend-mode:normal;solid-color:#000;solid-opacity:1;marker:none"/><text id="txt_128" x="236.175" y="283.345" fill="#fff" fill-opacity="1" stroke="none" stroke-linecap="butt" stroke-linejoin="miter" stroke-opacity="1" stroke-width=".079" display="inline" font-family="sans-serif" font-size="38.465" letter-spacing="0" opacity="1" word-spacing="0" xml:space="preserve" style="line-height:0%"><tspan id="tspan5069-6" x="236.175" y="283.345" fill="#fff" fill-opacity="1" stroke="none" stroke-width=".079" font-size="38.465" style="line-height:0%">128</tspan></text><text id="txt_scalable_64_512" x="265.978" y="330.133" fill="#fff" fill-opacity=".422" stroke="none" stroke-linecap="butt" stroke-linejoin="miter" stroke-opacity="1" stroke-width=".164" display="inline" font-family="sans-serif" font-size="7.432" letter-spacing="0" opacity="1" word-spacing="0" xml:space="preserve" style="line-height:1000%"><tspan id="tspan5049-1-6-6" x="265.978" y="330.133" fill="#fff" fill-opacity=".422" stroke="none" stroke-width=".164" font-size="8.09">Scalable:96-512</tspan></text></g><g id="layer12" display="inline"><path id="path8866-9-2-7" fill="#000" fill-opacity=".203" stroke="none" stroke-dasharray="none" stroke-linecap="round" stroke-linejoin="round" stroke-miterlimit="4" stroke-opacity="1" stroke-width=".537" d="m 164.15165,51.022459 c -4.39592,0 -8.79217,1.683765 -12.16054,5.052123 -6.7367,6.736779 -6.7367,17.584297 0,24.321065 L 199.76788,128.1724 H 75.214104 c -9.527177,0 -17.196172,7.66901 -17.196172,17.19617 0,9.52712 7.668995,17.19618 17.196172,17.19618 17.90524,-0.0494 43.298866,-0.0556 67.616436,-0.0495 l -88.121625,88.12161 c -6.736779,6.73671 -6.736716,17.58434 0,24.32108 6.736716,6.73671 17.584353,6.73671 24.321066,0 12.934463,-13.00792 31.461609,-31.5437 49.031539,-49.10366 5.84024,42.53217 42.15746,74.2395 85.08871,74.28803 47.48813,-1.4e-4 85.98482,-38.49685 85.98498,-85.98497 -0.0238,-24.81357 -10.76598,-48.40712 -29.46592,-64.71742 -6.36599,-6.34936 -63.54227,-63.379025 -93.35917,-93.365366 -3.36835,-3.368359 -7.76256,-5.052123 -12.15847,-5.052123 z m 50.00939,142.675061 c 11.08341,1.1e-4 20.06828,8.98497 20.06838,20.06839 -1e-4,11.0834 -8.98497,20.06827 -20.06838,20.06837 -11.08342,-1e-4 -20.06828,-8.98497 -20.06838,-20.06837 1e-4,-11.08342 8.98496,-20.06828 20.06838,-20.06839 z" display="inline" enable-background="new" filter="url(#filter8868-6-3-7)" opacity="1" transform="matrix(0.45938224,0,0,0.45938224,191.56474,190.94414)"/><path id="circle4567-3-4-9-6" fill="url(#linearGradient8858-9-0-7)" fill-opacity="1" stroke="none" stroke-dasharray="none" stroke-linecap="round" stroke-linejoin="round" stroke-miterlimit="4" stroke-opacity="1" stroke-width=".243" d="m 267.05372,215.36332 c -1.9848,0 -3.96976,0.76024 -5.49062,2.2811 -3.0417,3.04172 -3.0417,7.9395 0,10.98124 l 21.57176,21.57176 h -56.23748 c -4.30164,0 -7.76428,3.46264 -7.76428,7.76426 0,4.3016 3.46264,7.76428 7.76428,7.76428 8.08442,-0.0224 19.54994,-0.025 30.52962,-0.0224 l -39.78796,39.788 c -3.04172,3.0417 -3.0417,7.93954 0,10.98124 3.04172,3.04172 7.93954,3.04172 10.98124,0 5.84008,-5.87322 14.2053,-14.24234 22.13834,-22.17086 2.63692,19.20376 19.03458,33.51998 38.41852,33.5419 21.44146,-4e-5 38.82318,-17.38176 38.82324,-38.8232 -0.01,-11.20362 -4.86096,-21.85638 -13.3042,-29.22068 -2.87432,-2.8668 -28.69008,-28.61636 -42.15276,-42.15554 -1.52086,-1.52084 -3.5049,-2.28108 -5.4897,-2.28108 z m 22.57982,64.41944 c 5.0043,6e-5 9.06106,4.05682 9.06112,9.06112 -6e-5,5.00428 -4.05682,9.06106 -9.06112,9.0611 -5.0043,-4e-5 -9.06106,-4.05682 -9.0611,-9.0611 4e-5,-5.0043 4.0568,-9.06106 9.0611,-9.06112 z" display="inline" enable-background="new" opacity="1"/><path id="path8852-9-3-7" fill="#000" fill-opacity=".099" stroke="none" stroke-dasharray="none" stroke-linecap="round" stroke-linejoin="round" stroke-miterlimit="4" stroke-opacity="1" stroke-width=".311" d="m 289.60138,259.04664 a 29.82722,29.82722 0 0 0 -29.8269,29.82688 29.82722,29.82722 0 0 0 29.8269,29.82688 29.82722,29.82722 0 0 0 29.82688,-29.82688 29.82722,29.82722 0 0 0 -29.82688,-29.82688 z m 0,18.1613 a 11.665408,11.665408 0 0 1 11.66558,11.66558 11.665408,11.665408 0 0 1 -11.66558,11.6656 11.665408,11.665408 0 0 1 -11.6656,-11.6656 11.665408,11.665408 0 0 1 11.6656,-11.66558 z" display="inline" enable-background="new" opacity="1"/><path id="circle4575-7-0-1-3" fill="url(#linearGradient8856-4-1-2)" fill-opacity="1" stroke="none" stroke-dasharray="none" stroke-linecap="round" stroke-linejoin="round" stroke-miterlimit="4" stroke-opacity="1" stroke-width=".243" d="m 289.60138,265.55014 a 23.294008,23.294008 0 0 0 -23.29376,23.29374 23.294008,23.294008 0 0 0 23.29376,23.29374 23.294008,23.294008 0 0 0 23.29376,-23.29374 23.294008,23.294008 0 0 0 -23.29376,-23.29374 z m 0,14.18332 a 9.1102722,9.1102722 0 0 1 9.1104,9.11042 9.1102722,9.1102722 0 0 1 -9.1104,9.1104 9.1102722,9.1102722 0 0 1 -9.11042,-9.1104 9.1102722,9.1102722 0 0 1 9.11042,-9.11042 z" display="inline" enable-background="new" opacity="1"/><path id="path4672-5-9-9-6" fill="#f5eece" fill-opacity=".672" stroke="none" stroke-dasharray="none" stroke-linecap="round" stroke-linejoin="round" stroke-miterlimit="4" stroke-opacity="1" stroke-width=".243" d="m 266.90606,215.67082 c -1.98476,0 -3.96946,0.76058 -5.49032,2.28144 -1.58284,1.58284 -2.34028,3.66814 -2.27576,5.73298 0.0596,-1.9031 0.8169,-3.78884 2.27576,-5.2477 1.52086,-1.52084 3.50556,-2.28142 5.49032,-2.28142 1.98482,0 3.9695,0.76058 5.49036,2.28142 13.46264,13.53918 39.27782,39.28866 42.15214,42.15546 a 38.823348,38.823348 0 0 1 13.29434,29.0218 38.823348,38.823348 0 0 0 0.01,-0.28674 38.823348,38.823348 0 0 0 -13.3043,-29.22034 c -2.87328,-2.86684 -28.68846,-28.61628 -42.15112,-42.15546 -1.52084,-1.52086 -3.50554,-2.28144 -5.49032,-2.28144 z m -40.15552,34.8339 c -4.30164,0 -7.76468,3.46302 -7.76468,7.76466 0,0.0814 0.002,0.1618 0.006,0.24258 0.1276,-4.18822 3.53824,-7.52202 7.75852,-7.52202 h 56.237 l -0.4853,-0.48528 z m 30.04402,15.99234 -39.30248,39.30248 c -1.58286,1.58284 -2.34028,3.66812 -2.27576,5.733 0.0596,-1.90312 0.8169,-3.78884 2.27576,-5.24772 l 39.78776,-39.78776 c -0.163,-2e-5 -0.32212,6e-5 -0.48528,0 z" display="inline" enable-background="new" opacity=".884"/><path id="path4677-2-1-4-5" fill="#000" fill-opacity=".552" stroke="none" stroke-dasharray="none" stroke-linecap="round" stroke-linejoin="round" stroke-miterlimit="4" stroke-opacity="1" stroke-width=".243" d="m 259.39058,223.12324 c -0.0646,2.06484 0.6929,4.15014 2.27574,5.73298 l 21.0865,21.08648 h 0.4853 l -21.5718,-21.57176 c -1.45886,-1.45886 -2.21626,-3.3446 -2.27574,-5.2477 z m -40.14796,34.82678 c -0.002,0.0808 -0.006,0.1612 -0.006,0.24258 0,4.30164 3.46306,7.76468 7.76468,7.76468 7.96446,-0.0224 19.21394,-0.025 30.04402,-0.0224 l 0.48528,-0.4853 c -10.97966,-0.002 -22.44488,-4.4e-4 -30.5293,0.0224 -4.22028,0 -7.63092,-3.3338 -7.75852,-7.52202 z m 108.85088,31.10274 a 38.823348,38.823348 0 0 1 -38.8134,38.53664 38.823348,38.823348 0 0 1 -38.41816,-33.54154 c -7.93304,7.92852 -16.29852,16.29712 -22.13858,22.17036 -3.0417,3.0417 -7.93896,3.0417 -10.98068,0 -1.45886,-1.45886 -2.21628,-3.3446 -2.27574,-5.2477 -0.0646,2.06484 0.6929,4.15014 2.27574,5.73298 3.04172,3.0417 7.93898,3.0417 10.98068,0 5.84006,-5.87324 14.20554,-14.24184 22.13858,-22.17032 a 38.823348,38.823348 0 0 0 38.41816,33.5415 38.823348,38.823348 0 0 0 38.82336,-38.82336 38.823348,38.823348 0 0 0 -0.01,-0.1986 z" display="inline" enable-background="new" opacity="1"/><path id="circle8657-7-7-6" fill="#000" fill-opacity=".573" stroke="none" stroke-dasharray="none" stroke-linecap="round" stroke-linejoin="round" stroke-miterlimit="4" stroke-opacity="1" stroke-width=".243" d="m 289.60138,265.55014 a 23.294008,23.294008 0 0 0 -23.29376,23.29374 23.294008,23.294008 0 0 0 0.02,0.55632 23.294008,23.294008 0 0 1 23.2742,-22.89744 23.294008,23.294008 0 0 1 23.27422,22.7337 23.294008,23.294008 0 0 0 0.02,-0.39258 23.294008,23.294008 0 0 0 -23.29376,-23.29374 z" display="inline" enable-background="new" opacity="1"/><path id="path8670-7-8-3" fill="#f4f4f4" fill-opacity="1" stroke="none" stroke-dasharray="none" stroke-linecap="round" stroke-linejoin="round" stroke-miterlimit="4" stroke-opacity="1" stroke-width=".243" d="m 289.49244,312.24688 a 23.294008,23.294008 0 0 0 23.29376,-23.29374 23.294008,23.294008 0 0 0 -0.02,-0.55632 23.294008,23.294008 0 0 1 -23.27422,22.89744 23.294008,23.294008 0 0 1 -23.2742,-22.7337 23.294008,23.294008 0 0 0 -0.02,0.39258 23.294008,23.294008 0 0 0 23.29374,23.29374 z" display="inline" enable-background="new" opacity="1"/><circle marker-start="none" style="isolation:auto;mix-blend-mode:normal;solid-color:#000;solid-opacity:1;marker:none" id="path8776-1-4-9" cx="289.607" cy="288.872" r="11.925" fill="url(#linearGradient8784-0-9-0)" fill-opacity="1" fill-rule="nonzero" stroke="none" stroke-dasharray="none" stroke-dashoffset="0" stroke-linecap="butt" stroke-linejoin="miter" stroke-miterlimit="4" stroke-opacity=".203" stroke-width="1.006" marker-end="none" marker-mid="none" clip-rule="nonzero" color="#000" color-interpolation="sRGB" color-interpolation-filters="linearRGB" color-rendering="auto" display="block" enable-background="accumulate" image-rendering="auto" opacity="1" overflow="visible" paint-order="fill markers stroke" shape-rendering="auto" text-rendering="auto" vector-effect="none" visibility="visible"/><path id="path8794-1-5-4" fill="url(#linearGradient8809-7-2-59)" fill-opacity="1" stroke="none" stroke-dasharray="none" stroke-linecap="round" stroke-linejoin="round" stroke-miterlimit="4" stroke-opacity="1" stroke-width=".243" d="m 289.68326,266.36354 a 23.294008,23.294008 0 0 0 -23.29374,23.29374 23.294008,23.294008 0 0 0 1.75174,8.83132 l 14.1759,-14.17588 a 9.1102722,9.1102722 0 0 1 7.3661,-3.76586 9.1102722,9.1102722 0 0 1 9.11042,9.11042 9.1102722,9.1102722 0 0 1 -2.24016,5.97438 l 10.0342,10.0342 a 23.294008,23.294008 0 0 0 6.3893,-16.00858 23.294008,23.294008 0 0 0 -23.29376,-23.29374 z" display="inline" enable-background="new" opacity="1"/><path id="path8811-5-0-8" fill="url(#linearGradient8813-2-5-0)" fill-opacity="1" stroke="none" stroke-dasharray="none" stroke-linecap="round" stroke-linejoin="round" stroke-miterlimit="4" stroke-opacity="1" stroke-width=".243" d="m 273.03804,305.45672 a 23.294008,23.294008 0 0 0 32.94232,0 23.294008,23.294008 0 0 0 5.00602,-7.48336 h -20.04772 a 9.1102722,9.1102722 0 0 1 -7.87148,-2.54576 9.1102722,9.1102722 0 0 1 0,-12.88408 9.1102722,9.1102722 0 0 1 5.80854,-2.64048 v -14.1905 a 23.294008,23.294008 0 0 0 -15.83768,6.80184 23.294008,23.294008 0 0 0 0,32.94234 z" display="inline" enable-background="new" opacity="1"/><path id="path8815-9-3-1" fill="url(#linearGradient8817-7-9-9)" fill-opacity="1" stroke="none" stroke-dasharray="none" stroke-linecap="round" stroke-linejoin="round" stroke-miterlimit="4" stroke-opacity="1" stroke-width=".243" d="m 305.8389,305.3267 a 23.294008,23.294008 0 0 0 0,-32.94232 23.294008,23.294008 0 0 0 -7.48336,-5.00602 v 20.04774 a 9.1102722,9.1102722 0 0 1 -2.54578,7.87148 9.1102722,9.1102722 0 0 1 -12.88406,0 9.1102722,9.1102722 0 0 1 -2.6405,-5.80856 h -14.1905 a 23.294008,23.294008 0 0 0 6.80186,15.83768 23.294008,23.294008 0 0 0 32.94234,0 z" display="inline" enable-background="new" opacity="1"/><path id="circle8736-7-6-2" fill="#000" fill-opacity=".484" stroke="none" stroke-dasharray="none" stroke-linecap="round" stroke-linejoin="round" stroke-miterlimit="4" stroke-opacity=".203" stroke-width=".977" d="m 289.60138,259.04664 a 29.771862,29.771862 0 0 0 -29.77196,29.77194 29.771862,29.771862 0 0 0 0.027,0.75702 29.771862,29.771862 0 0 1 29.74498,-29.23408 29.771862,29.771862 0 0 1 29.74496,29.01322 29.771862,29.771862 0 0 0 0.027,-0.53616 29.771862,29.771862 0 0 0 -29.77194,-29.77194 z" display="inline" enable-background="new" opacity="1"/><path id="path8850-7-1-9" fill="#fff" fill-opacity=".38" stroke="none" stroke-dasharray="none" stroke-linecap="round" stroke-linejoin="round" stroke-miterlimit="4" stroke-opacity=".203" stroke-width=".975" d="m 289.49924,319.58986 a 29.723966,29.723966 0 0 0 29.72406,-29.72404 29.723966,29.723966 0 0 0 -0.027,-0.75582 29.723966,29.723966 0 0 1 -29.69712,29.18708 29.723966,29.723966 0 0 1 -29.6971,-28.96656 29.723966,29.723966 0 0 0 -0.027,0.5353 29.723966,29.723966 0 0 0 29.72404,29.72404 z" display="inline" enable-background="new" opacity="1"/><circle id="circle8860-6-0-3" cx="289.607" cy="288.872" r="18.894" fill="none" fill-opacity="1" fill-rule="nonzero" stroke="#f4f4f4" stroke-dasharray="none" stroke-dashoffset="0" stroke-linecap="butt" stroke-linejoin="miter" stroke-miterlimit="4" stroke-opacity="1" stroke-width=".262" marker-end="none" marker-mid="none" marker-start="none" clip-rule="nonzero" color="#000" color-interpolation="sRGB" color-interpolation-filters="linearRGB" color-rendering="auto" display="block" enable-background="accumulate" image-rendering="auto" opacity="1" overflow="visible" paint-order="fill markers stroke" shape-rendering="auto" text-rendering="auto" vector-effect="none" visibility="visible" style="isolation:auto;mix-blend-mode:normal;solid-color:#000;solid-opacity:1;marker:none"/><circle marker-start="none" style="isolation:auto;mix-blend-mode:normal;solid-color:#000;solid-opacity:1;marker:none" id="circle8864-7-6-90" cx="289.607" cy="288.872" r="15.511" fill="none" fill-opacity="1" fill-rule="nonzero" stroke="#f4f4f4" stroke-dasharray="none" stroke-dashoffset="0" stroke-linecap="butt" stroke-linejoin="miter" stroke-miterlimit="4" stroke-opacity="1" stroke-width=".215" marker-end="none" marker-mid="none" clip-rule="nonzero" color="#000" color-interpolation="sRGB" color-interpolation-filters="linearRGB" color-rendering="auto" display="block" enable-background="accumulate" image-rendering="auto" opacity="1" overflow="visible" paint-order="fill markers stroke" shape-rendering="auto" text-rendering="auto" vector-effect="none" visibility="visible"/><path id="path8876-3-3-8" fill="url(#linearGradient8884-2-2-1)" fill-opacity="1" stroke="none" stroke-dasharray="none" stroke-linecap="round" stroke-linejoin="round" stroke-miterlimit="4" stroke-opacity="1" stroke-width=".257" d="m 266.77086,211.92394 c -2.10618,0 -4.21254,0.80674 -5.8264,2.4206 -3.22772,3.22776 -3.22772,8.42506 0,11.6528 l 22.89098,22.89098 33.49146,10.1898 c 0,0 -30.44464,-30.3664 -44.73062,-44.73356 -1.61386,-1.61386 -3.71924,-2.4206 -5.82542,-2.4206 z" display="none" enable-background="new" opacity="1"/><path id="path8965-6-2-8" fill="url(#linearGradient8973-1-9-1)" fill-opacity="1" stroke="none" stroke-dasharray="none" stroke-linecap="round" stroke-linejoin="round" stroke-miterlimit="4" stroke-opacity="1" stroke-width=".243" d="m 267.05372,215.36332 c -1.9848,0 -3.96976,0.76024 -5.49062,2.2811 -3.0417,3.04172 -3.0417,7.9395 0,10.98124 l 21.57176,21.57176 -16.08114,-34.83408 z" display="inline" enable-background="new" opacity="1"/><path id="path8975-5-0-5" fill="url(#linearGradient8977-1-6-9)" fill-opacity="1" stroke="none" stroke-dasharray="none" stroke-linecap="round" stroke-linejoin="round" stroke-miterlimit="4" stroke-opacity="1" stroke-width=".243" d="m 220.98234,252.53054 c -1.40346,1.40348 -2.26946,3.34462 -2.26948,5.49544 4e-5,4.30164 3.4633,7.7649 7.76492,7.7649 h 30.5071 l -36.00252,-13.26032 z" display="inline" enable-background="new" opacity="1"/><path id="path8979-6-6-0" fill="url(#linearGradient8981-5-1-7)" fill-opacity="1" stroke="none" stroke-dasharray="none" stroke-linecap="round" stroke-linejoin="round" stroke-miterlimit="4" stroke-opacity="1" stroke-width=".243" d="m 216.02784,310.129 c 0,1.98482 0.76024,3.96978 2.28108,5.49064 3.04174,3.04168 7.93952,3.04168 10.98126,-2e-5 l 21.57176,-21.57176 z" display="inline" enable-background="new" opacity="1"/></g></g></svg>