<svg xmlns="http://www.w3.org/2000/svg" xmlns:svg="http://www.w3.org/2000/svg" xmlns:xlink="http://www.w3.org/1999/xlink" id="svg2" width="48" height="48" enable-background="new" version="1.1" viewBox="0 0 48 48"><title id="title4675">Template icons dark</title><metadata id="metadata24"/><defs id="defs22"><linearGradient id="linearGradient7767"><stop id="stop7763" offset="0" stop-color="#dbdbdb" stop-opacity="1"/><stop id="stop7765" offset="1" stop-color="#fff" stop-opacity="1"/></linearGradient><linearGradient id="linearGradient4795" x1="31" x2="31" y1="38.2" y2="16.075" gradientTransform="matrix(1.9844809,0,0,1.9844809,112.43547,106.5164)" gradientUnits="userSpaceOnUse" xlink:href="#linearGradient4789"/><linearGradient id="linearGradient4789"><stop id="stop4791" offset="0" stop-color="#343434" stop-opacity="1"/><stop id="stop4793" offset="1" stop-color="#585858" stop-opacity="1"/></linearGradient><linearGradient id="linearGradient4787" x1="25" x2="25" y1="45.7" y2="8.075" gradientTransform="matrix(2.1999998,0,0,2.1999998,107.2,100.16001)" gradientUnits="userSpaceOnUse" xlink:href="#linearGradient4781"/><linearGradient id="linearGradient4781"><stop id="stop4783" offset="0" stop-color="#0086f7" stop-opacity="1"/><stop id="stop4785" offset="1" stop-color="#60cdff" stop-opacity="1"/></linearGradient><linearGradient id="linearGradient7769" x1="164.959" x2="164.959" y1="189.342" y2="137.236" gradientTransform="matrix(1.0153677,0,0,1.0153677,-2.458828,-2.4588278)" gradientUnits="userSpaceOnUse" xlink:href="#linearGradient7767"/><linearGradient id="linearGradient4787-6" x1="25" x2="25" y1="45.7" y2="8.075" gradientTransform="matrix(2.933333,0,0,2.933333,201.59999,192.21334)" gradientUnits="userSpaceOnUse" xlink:href="#linearGradient4781"/><linearGradient id="linearGradient7769-7" x1="164.959" x2="164.959" y1="189.342" y2="137.236" gradientTransform="matrix(1.3538236,0,0,1.3538236,55.388223,55.388223)" gradientUnits="userSpaceOnUse" xlink:href="#linearGradient7767"/><linearGradient id="linearGradient4795-0" x1="31" x2="31" y1="38.2" y2="16.075" gradientTransform="matrix(2.6459745,0,0,2.6459745,208.58062,200.68853)" gradientUnits="userSpaceOnUse" xlink:href="#linearGradient4789"/><linearGradient id="linearGradient4787-7" x1="25" x2="25" y1="45.7" y2="8.075" gradientTransform="matrix(2.1999998,0,0,2.1999998,27.2,20.16001)" gradientUnits="userSpaceOnUse" xlink:href="#linearGradient4781"/><linearGradient id="linearGradient7769-3" x1="164.959" x2="164.959" y1="189.342" y2="137.236" gradientTransform="matrix(1.0153677,0,0,1.0153677,-82.45883,-82.45883)" gradientUnits="userSpaceOnUse" xlink:href="#linearGradient7767"/><linearGradient id="linearGradient4795-8" x1="31" x2="31" y1="38.2" y2="16.075" gradientTransform="matrix(1.9844809,0,0,1.9844809,32.43547,26.5164)" gradientUnits="userSpaceOnUse" xlink:href="#linearGradient4789"/><linearGradient id="linearGradient4787-7-1" x1="25" x2="25" y1="45.7" y2="8.075" gradientTransform="matrix(2.1999998,0,0,2.1999998,-28.8,-35.83999)" gradientUnits="userSpaceOnUse" xlink:href="#linearGradient4781"/><linearGradient id="linearGradient7769-3-1" x1="164.959" x2="164.959" y1="189.342" y2="137.236" gradientTransform="matrix(1.0153677,0,0,1.0153677,-138.45883,-138.45883)" gradientUnits="userSpaceOnUse" xlink:href="#linearGradient7767"/><linearGradient id="linearGradient4795-8-4" x1="31" x2="31" y1="38.2" y2="16.075" gradientTransform="matrix(1.9844809,0,0,1.9844809,-23.56453,-29.4836)" gradientUnits="userSpaceOnUse" xlink:href="#linearGradient4789"/><linearGradient id="linearGradient8334" x1="25" x2="25" y1="45.7" y2="8.075" gradientTransform="matrix(2.1999998,0,0,2.1999998,-68.8,-75.83999)" gradientUnits="userSpaceOnUse" xlink:href="#linearGradient4781"/><linearGradient id="linearGradient8336" x1="164.959" x2="164.959" y1="189.342" y2="137.236" gradientTransform="matrix(1.0153677,0,0,1.0153677,-178.45883,-178.45883)" gradientUnits="userSpaceOnUse" xlink:href="#linearGradient7767"/><linearGradient id="linearGradient8338" x1="31" x2="31" y1="38.2" y2="16.075" gradientTransform="matrix(1.9844809,0,0,1.9844809,-63.56453,-69.4836)" gradientUnits="userSpaceOnUse" xlink:href="#linearGradient4789"/><linearGradient id="linearGradient8334-8" x1="25" x2="25" y1="45.7" y2="8.075" gradientTransform="matrix(2.1999998,0,0,2.1999998,-96.8,-103.83999)" gradientUnits="userSpaceOnUse" xlink:href="#linearGradient4781"/><linearGradient id="linearGradient8336-1" x1="164.959" x2="164.959" y1="189.342" y2="137.236" gradientTransform="matrix(1.0153677,0,0,1.0153677,-206.45883,-206.45883)" gradientUnits="userSpaceOnUse" xlink:href="#linearGradient7767"/><linearGradient id="linearGradient8338-6" x1="31" x2="31" y1="38.2" y2="16.075" gradientTransform="matrix(1.9844809,0,0,1.9844809,-91.56453,-97.4836)" gradientUnits="userSpaceOnUse" xlink:href="#linearGradient4789"/><linearGradient id="linearGradient8334-8-9" x1="25" x2="25" y1="45.7" y2="8.075" gradientTransform="matrix(2.1999998,0,0,2.1999998,-116.8,-123.83999)" gradientUnits="userSpaceOnUse" xlink:href="#linearGradient4781"/><linearGradient id="linearGradient8336-1-6" x1="164.959" x2="164.959" y1="189.342" y2="137.236" gradientTransform="matrix(1.0153677,0,0,1.0153677,-226.45882,-226.45882)" gradientUnits="userSpaceOnUse" xlink:href="#linearGradient7767"/><linearGradient id="linearGradient8338-6-0" x1="31" x2="31" y1="38.2" y2="16.075" gradientTransform="matrix(1.9844809,0,0,1.9844809,-111.56453,-117.4836)" gradientUnits="userSpaceOnUse" xlink:href="#linearGradient4789"/></defs><g id="layer1" display="inline"><g id="layer5" display="none"><rect id="frame_16" width="16" height="16" x="-72" y="-72" fill="#000" fill-opacity="1" fill-rule="nonzero" stroke="#ff24f7" stroke-dasharray="none" stroke-dashoffset="0" stroke-linecap="square" stroke-linejoin="miter" stroke-miterlimit="4" stroke-opacity=".995" stroke-width="0" marker-end="none" marker-mid="none" marker-start="none" clip-rule="nonzero" color="#000" color-interpolation="sRGB" color-interpolation-filters="linearRGB" color-rendering="auto" display="block" enable-background="accumulate" image-rendering="auto" opacity="1" overflow="visible" paint-order="normal" shape-rendering="auto" text-rendering="auto" vector-effect="none" visibility="visible" style="isolation:auto;mix-blend-mode:normal;solid-color:#000;solid-opacity:1;marker:none"/><text id="txt_16" x="-69.279" y="-61.088" fill="#fff" fill-opacity="1" stroke="none" stroke-linecap="butt" stroke-linejoin="miter" stroke-opacity="1" stroke-width=".072" display="inline" font-family="sans-serif" font-size="8" letter-spacing="0" opacity="1" word-spacing="0" xml:space="preserve" style="line-height:1000%"><tspan id="tspan4768-6" x="-69.279" y="-61.088" fill="#fff" fill-opacity="1" stroke="none" stroke-width=".072" font-size="8">16</tspan></text></g><g id="layer6" display="inline"><path id="rect4154-4-1-4-3-9" fill="url(#linearGradient8334-8-9)" fill-opacity="1" fill-rule="nonzero" stroke="none" stroke-dasharray="none" stroke-dashoffset="0" stroke-linecap="butt" stroke-linejoin="round" stroke-miterlimit="4" stroke-opacity=".131" stroke-width="1.804" d="m -68.875,-72 h 9.75 c 2.28525,0 3.125,0.83975 3.125,3.125 v 9.75 c 0,2.28525 -0.83975,3.125 -3.125,3.125 h -9.75 C -71.16025,-56 -72,-56.83975 -72,-59.125 v -9.75 c 0,-2.28525 0.83975,-3.125 3.125,-3.125 z" display="inline" opacity="1"/><path id="rect4156-49-1-4-0-4" fill="url(#linearGradient8336-1-6)" fill-opacity="1" fill-rule="nonzero" stroke="none" stroke-dasharray="none" stroke-dashoffset="0" stroke-linecap="butt" stroke-linejoin="round" stroke-miterlimit="4" stroke-opacity="1" stroke-width="1.076" d="m -67.68229,-70.00002 h 7.36458 c 1.83801,0 2.31771,0.47969 2.31771,2.3177 v 7.36459 c 0,1.83801 -0.4797,2.31771 -2.31771,2.31771 h -7.36458 c -1.83801,0 -2.31771,-0.4797 -2.31771,-2.31771 v -7.36459 c 0,-1.83801 0.4797,-2.3177 2.31771,-2.3177 z" display="inline" opacity="1"/><path id="rect4158-0-9-6-8-5" fill="url(#linearGradient8338-6-0)" fill-opacity="1" fill-rule="nonzero" stroke="none" stroke-dasharray="none" stroke-dashoffset="0" stroke-linecap="butt" stroke-linejoin="round" stroke-miterlimit="4" stroke-opacity=".613" stroke-width=".992" d="M -69,-69.00787 V -59 h 4 v -2 l -2,-4e-5 -4e-5,-5.99996 H -65 v -2 z m 6,0.0079 v 2 h 1.99996 l 4e-5,6.00004 -2,-4e-5 v 2 h 4 v -10 z" display="inline" opacity="1"/></g></g><g id="layer2" display="inline"><g id="layer7" display="none"><rect id="frame_24" width="24" height="24" x="-56" y="-56" fill="#000" fill-opacity=".995" fill-rule="nonzero" stroke="#ff24f7" stroke-dasharray="none" stroke-dashoffset="0" stroke-linecap="square" stroke-linejoin="miter" stroke-miterlimit="4" stroke-opacity=".995" stroke-width="0" marker-end="none" marker-mid="none" marker-start="none" clip-rule="nonzero" color="#000" color-interpolation="sRGB" color-interpolation-filters="linearRGB" color-rendering="auto" display="block" enable-background="accumulate" image-rendering="auto" opacity="1" overflow="visible" paint-order="normal" shape-rendering="auto" text-rendering="auto" vector-effect="none" visibility="visible" style="isolation:auto;mix-blend-mode:normal;solid-color:#000;solid-opacity:1;marker:none"/><text id="txt_24" x="-50.88" y="-40.042" fill="#fff" fill-opacity="1" stroke="none" stroke-linecap="butt" stroke-linejoin="miter" stroke-opacity="1" stroke-width=".112" display="inline" font-family="sans-serif" font-size="10.667" letter-spacing="0" opacity="1" word-spacing="0" xml:space="preserve" style="line-height:1000%"><tspan id="tspan4835-2-5" x="-50.88" y="-40.042" fill="#fff" fill-opacity="1" stroke="none" stroke-width=".112" font-size="10.667">24</tspan></text></g><g id="layer8" display="inline"><path id="rect4154-4-1-4-3" fill="url(#linearGradient8334-8)" fill-opacity="1" fill-rule="nonzero" stroke="none" stroke-dasharray="none" stroke-dashoffset="0" stroke-linecap="butt" stroke-linejoin="round" stroke-miterlimit="4" stroke-opacity=".131" stroke-width="1.804" d="m -51.875,-56 h 15.75 c 2.28525,0 4.125,1.83975 4.125,4.125 v 15.75 c 0,2.28525 -1.83975,4.125 -4.125,4.125 h -15.75 C -54.16025,-32 -56,-33.83975 -56,-36.125 v -15.75 c 0,-2.28525 1.83975,-4.125 4.125,-4.125 z" display="inline" opacity="1"/><path id="rect7793-3-7-4-8" fill="#fff" fill-opacity=".219" fill-rule="nonzero" stroke="none" stroke-dasharray="none" stroke-dashoffset="0" stroke-linecap="butt" stroke-linejoin="round" stroke-miterlimit="4" stroke-opacity=".131" stroke-width="1.804" d="m -56,-37.125 v 1 c 0,0 0,4.125 4.414778,4.125 h 15.290386 C -32.322834,-32 -32,-36.125 -32,-36.125 v -1 c 0,1.794386 -1.46534,4.125 -4.294836,4.125 H -51.585222 C -53.870472,-33 -56,-34.376562 -56,-37.125 Z" display="inline" opacity="1"/><path id="rect7761-1-71-4-6" fill="#000" fill-opacity=".385" fill-rule="nonzero" stroke="none" stroke-dasharray="none" stroke-dashoffset="0" stroke-linecap="butt" stroke-linejoin="round" stroke-miterlimit="4" stroke-opacity="1" stroke-width="1.076" d="m -49.68229,-53.00001 h 11.36458 c 1.83801,0 3.31771,1.4797 3.31771,3.31771 v 12.36458 c 0,1.83801 -1.4797,3.31771 -3.31771,3.31771 h -11.36458 c -1.83801,0 -3.31771,-1.4797 -3.31771,-3.31771 V -49.6823 c 0,-1.83801 1.4797,-3.31771 3.31771,-3.31771 z" display="inline" opacity="1"/><path id="rect4156-49-1-4-0" fill="url(#linearGradient8336-1)" fill-opacity="1" fill-rule="nonzero" stroke="none" stroke-dasharray="none" stroke-dashoffset="0" stroke-linecap="butt" stroke-linejoin="round" stroke-miterlimit="4" stroke-opacity="1" stroke-width="1.076" d="m -49.68229,-54.00002 h 11.36458 c 1.83801,0 3.31771,1.47969 3.31771,3.3177 v 12.36459 c 0,1.83801 -1.4797,3.31771 -3.31771,3.31771 h -11.36458 c -1.83801,0 -3.31771,-1.4797 -3.31771,-3.31771 v -12.36459 c 0,-1.83801 1.4797,-3.3177 3.31771,-3.3177 z" display="inline" opacity="1"/><path id="rect7771-2-5-7-4" fill="#f8f8f8" fill-opacity="1" fill-rule="nonzero" stroke="none" stroke-dasharray="none" stroke-dashoffset="0" stroke-linecap="butt" stroke-linejoin="round" stroke-miterlimit="4" stroke-opacity="1" stroke-width="1.076" d="m -53,-39.3414 v 1.01535 c 0,1.838 1.47976,3.31775 3.31775,3.31775 h 11.3645 c 1.83799,0 3.31775,-1.47975 3.31775,-3.31775 v -1.01535 c 0,1.83799 -1.47976,3.31775 -3.31775,3.31775 h -11.3645 c -1.83799,0 -3.31775,-1.47977 -3.31775,-3.31775 z" display="inline" opacity="1"/><path id="rect4158-0-9-6-8" fill="url(#linearGradient8338-6)" fill-opacity="1" fill-rule="nonzero" stroke="none" stroke-dasharray="none" stroke-dashoffset="0" stroke-linecap="butt" stroke-linejoin="round" stroke-miterlimit="4" stroke-opacity=".613" stroke-width=".992" d="M -50,-51.00787 V -38 h 5 v -3 l -3,-4e-5 -4e-5,-6.99996 H -45 v -3 z M -43,-51 v 3 h 2.99996 l 4e-5,7.00004 -3,-4e-5 v 3 h 5 v -13 z" display="inline" opacity="1"/><path id="path7777-6-7-3-8" fill="#000" fill-opacity=".51" fill-rule="nonzero" stroke="none" stroke-dasharray="none" stroke-dashoffset="0" stroke-linecap="butt" stroke-linejoin="round" stroke-miterlimit="4" stroke-opacity=".613" stroke-width=".992" d="m -50,-51.00781 v 1 L -45,-50 v -1 z M -43,-51 v 1 h 5 v -1 z m -5,10 v 1 h 3 v -1 z m 5,0 v 1 h 3 v -1 z" display="inline" opacity="1"/><path id="path7782-8-7-1-8" fill="#fff" fill-opacity=".948" fill-rule="nonzero" stroke="none" stroke-dasharray="none" stroke-dashoffset="0" stroke-linecap="butt" stroke-linejoin="round" stroke-miterlimit="4" stroke-opacity=".613" stroke-width=".992" d="m -48,-48 v 1 h 3 v -1 z m 5,0 v 1 h 3 v -1 z m -2,10 -5,9.6e-4 V -37 h 5 z m 2,0 v 1 h 5 v -1 z" display="inline" opacity="1"/></g></g><g id="g7816" display="inline"><g id="g7802" display="none"><rect id="rect7792" width="32" height="32" x="-32" y="-32" fill="#000" fill-opacity="1" fill-rule="nonzero" stroke="#ff24f7" stroke-dasharray="none" stroke-dashoffset="0" stroke-linecap="square" stroke-linejoin="miter" stroke-miterlimit="4" stroke-opacity=".995" stroke-width="0" marker-end="none" marker-mid="none" marker-start="none" clip-rule="nonzero" color="#000" color-interpolation="sRGB" color-interpolation-filters="linearRGB" color-rendering="auto" display="block" enable-background="accumulate" image-rendering="auto" opacity="1" overflow="visible" paint-order="normal" shape-rendering="auto" text-rendering="auto" vector-effect="none" visibility="visible" style="isolation:auto;mix-blend-mode:normal;solid-color:#000;solid-opacity:1;marker:none"/><text id="text7796" x="-23.799" y="-11.47" fill="#fff" fill-opacity="1" stroke="none" stroke-linecap="butt" stroke-linejoin="miter" stroke-opacity="1" stroke-width=".074" display="inline" font-family="sans-serif" font-size="12.444" letter-spacing="0" opacity="1" word-spacing="0" xml:space="preserve" style="line-height:1000%"><tspan id="tspan7794" x="-23.799" y="-11.47" fill="#fff" fill-opacity="1" stroke="none" stroke-width=".074" font-size="12.444">32</tspan></text></g><g id="g7814" display="inline"><path id="rect4154-2-8-9-0" fill="#000" fill-opacity=".078" fill-rule="nonzero" stroke="none" stroke-dasharray="none" stroke-dashoffset="0" stroke-linecap="butt" stroke-linejoin="round" stroke-miterlimit="4" stroke-opacity=".131" stroke-width="1.845" d="m -27.78125,-32 h 23.5625 C -1.88156,-32 0,-30.11844 0,-27.78125 v 23.5625 C 0,-1.88156 -1.88156,0 -4.21875,0 h -23.5625 C -30.11844,0 -32,-1.88156 -32,-4.21875 v -23.5625 C -32,-30.11844 -30.11844,-32 -27.78125,-32 Z" display="inline" opacity="1"/><path id="rect4154-4-1-4" fill="url(#linearGradient8334)" fill-opacity="1" fill-rule="nonzero" stroke="none" stroke-dasharray="none" stroke-dashoffset="0" stroke-linecap="butt" stroke-linejoin="round" stroke-miterlimit="4" stroke-opacity=".131" stroke-width="1.804" d="m -26.875,-31 h 21.75 c 2.28525,0 4.125,1.83975 4.125,4.125 v 21.75 C -1,-2.83975 -2.83975,-1 -5.125,-1 h -21.75 C -29.16025,-1 -31,-2.83975 -31,-5.125 v -21.75 c 0,-2.28525 1.83975,-4.125 4.125,-4.125 z" display="inline" opacity="1"/><path id="rect7793-3-7-4" fill="#fff" fill-opacity=".219" fill-rule="nonzero" stroke="none" stroke-dasharray="none" stroke-dashoffset="0" stroke-linecap="butt" stroke-linejoin="round" stroke-miterlimit="4" stroke-opacity=".131" stroke-width="1.804" d="m -31,-6.125 v 1 c 0,0 0,4.125 4.414778,4.125 H -5.294836 C -1.322834,-1 -1,-5.125 -1,-5.125 v -1 C -1,-4.330614 -2.46534,-2 -5.294836,-2 H -26.585222 C -28.870472,-2 -31,-3.376562 -31,-6.125 Z" display="inline" opacity="1"/><path id="rect7761-1-71-4" fill="#000" fill-opacity=".385" fill-rule="nonzero" stroke="none" stroke-dasharray="none" stroke-dashoffset="0" stroke-linecap="butt" stroke-linejoin="round" stroke-miterlimit="4" stroke-opacity="1" stroke-width="1.076" d="m -24.68229,-27.00001 h 17.36458 c 1.83801,0 3.31771,1.4797 3.31771,3.31771 v 17.36458 c 0,1.83801 -1.4797,3.31771 -3.31771,3.31771 H -24.68229 C -26.5203,-3.00001 -28,-4.47971 -28,-6.31772 V -23.6823 c 0,-1.83801 1.4797,-3.31771 3.31771,-3.31771 z" display="inline" opacity="1"/><path id="rect4156-49-1-4" fill="url(#linearGradient8336)" fill-opacity="1" fill-rule="nonzero" stroke="none" stroke-dasharray="none" stroke-dashoffset="0" stroke-linecap="butt" stroke-linejoin="round" stroke-miterlimit="4" stroke-opacity="1" stroke-width="1.076" d="m -24.68229,-28.00002 h 17.36458 c 1.83801,0 3.31771,1.47969 3.31771,3.3177 v 17.36459 c 0,1.83801 -1.4797,3.31771 -3.31771,3.31771 H -24.68229 C -26.5203,-4.00002 -28,-5.47972 -28,-7.31773 v -17.36459 c 0,-1.83801 1.4797,-3.3177 3.31771,-3.3177 z" display="inline" opacity="1"/><path id="rect7771-2-5-7" fill="#f8f8f8" fill-opacity="1" fill-rule="nonzero" stroke="none" stroke-dasharray="none" stroke-dashoffset="0" stroke-linecap="butt" stroke-linejoin="round" stroke-miterlimit="4" stroke-opacity="1" stroke-width="1.076" d="m -28,-8.3414 v 1.01535 c 0,1.838 1.47976,3.31775 3.31775,3.31775 h 17.3645 C -5.47976,-4.0083 -4,-5.48805 -4,-7.32605 V -8.3414 c 0,1.83799 -1.47976,3.31775 -3.31775,3.31775 h -17.3645 C -26.52024,-5.02365 -28,-6.50342 -28,-8.3414 Z" display="inline" opacity="1"/><path id="rect4158-0-9-6" fill="url(#linearGradient8338)" fill-opacity="1" fill-rule="nonzero" stroke="none" stroke-dasharray="none" stroke-dashoffset="0" stroke-linecap="butt" stroke-linejoin="round" stroke-miterlimit="4" stroke-opacity=".613" stroke-width=".992" d="M -24,-24.00787 V -8 h 7 v -4 l -3,-4e-5 -4e-5,-7.99996 H -17 v -4 z M -15,-24 v 4 h 2.99996 l 4e-5,8.00004 -3,-4e-5 v 4 h 7 v -16 z" display="inline" opacity="1"/><path id="path7777-6-7-3" fill="#000" fill-opacity=".51" fill-rule="nonzero" stroke="none" stroke-dasharray="none" stroke-dashoffset="0" stroke-linecap="butt" stroke-linejoin="round" stroke-miterlimit="4" stroke-opacity=".613" stroke-width=".992" d="m -24,-24.00781 v 1 L -17,-23 v -1 z M -15,-24 v 1 h 7 v -1 z m -5,12 v 1 h 3 v -1 z m 5,0 v 1 h 3 v -1 z" display="inline" opacity="1"/><path id="path7782-8-7-1" fill="#fff" fill-opacity=".948" fill-rule="nonzero" stroke="none" stroke-dasharray="none" stroke-dashoffset="0" stroke-linecap="butt" stroke-linejoin="round" stroke-miterlimit="4" stroke-opacity=".613" stroke-width=".992" d="m -20,-20 v 1 h 3 v -1 z m 5,0 v 1 h 3 v -1 z m -2,12 -7,9.6e-4 V -7 h 7 z m 2,0 v 1 h 7 v -1 z" display="inline" opacity="1"/></g></g><g id="layer3" display="inline"><g id="layer9" display="none"><rect id="frame_48" width="48" height="48" x="0" y="0" fill="#000" fill-opacity="1" fill-rule="nonzero" stroke="#ff24f7" stroke-dasharray="none" stroke-dashoffset="0" stroke-linecap="square" stroke-linejoin="miter" stroke-miterlimit="4" stroke-opacity=".995" stroke-width="0" marker-end="none" marker-mid="none" marker-start="none" clip-rule="nonzero" color="#000" color-interpolation="sRGB" color-interpolation-filters="linearRGB" color-rendering="auto" display="block" enable-background="accumulate" image-rendering="auto" opacity="1" overflow="visible" paint-order="normal" shape-rendering="auto" text-rendering="auto" vector-effect="none" visibility="visible" style="isolation:auto;mix-blend-mode:normal;solid-color:#000;solid-opacity:1;marker:none"/><text id="txt_48" x="12.301" y="30.795" fill="#fff" fill-opacity="1" stroke="none" stroke-linecap="butt" stroke-linejoin="miter" stroke-opacity="1" stroke-width=".112" display="inline" font-family="sans-serif" font-size="18.667" letter-spacing="0" opacity="1" word-spacing="0" xml:space="preserve" style="line-height:1000%"><tspan id="tspan5049-1" x="12.301" y="30.795" fill="#fff" fill-opacity="1" stroke="none" stroke-width=".112" font-size="18.667">48</tspan></text><text id="txt_scalable_32-64" x="25.824" y="45.962" fill="#fff" fill-opacity=".448" stroke="none" stroke-linecap="butt" stroke-linejoin="miter" stroke-opacity="1" stroke-width=".059" display="inline" font-family="sans-serif" font-size="2.667" letter-spacing="0" opacity="1" word-spacing="0" xml:space="preserve" style="line-height:1000%"><tspan id="tspan5049-1-6" x="25.824" y="45.962" fill="#fff" fill-opacity=".448" stroke="none" stroke-width=".059" font-size="2.667">Scalable:32-64</tspan></text></g><g id="layer10" display="inline"><path id="rect4154-2-8-9" fill="#000" fill-opacity=".078" fill-rule="nonzero" stroke="none" stroke-dasharray="none" stroke-dashoffset="0" stroke-linecap="butt" stroke-linejoin="round" stroke-miterlimit="4" stroke-opacity=".131" stroke-width="1.845" d="m 4.21875,0 h 39.5625 C 46.11844,0 48,1.88156 48,4.21875 v 39.5625 C 48,46.11844 46.11844,48 43.78125,48 H 4.21875 C 1.88156,48 0,46.11844 0,43.78125 V 4.21875 C 0,1.88156 1.88156,0 4.21875,0 Z" display="inline" opacity="1"/><path id="rect4154-4-1" fill="url(#linearGradient4787-7-1)" fill-opacity="1" fill-rule="nonzero" stroke="none" stroke-dasharray="none" stroke-dashoffset="0" stroke-linecap="butt" stroke-linejoin="round" stroke-miterlimit="4" stroke-opacity=".131" stroke-width="1.804" d="m 5.125,1 h 37.75 C 45.16025,1 47,2.83975 47,5.125 v 37.75 C 47,45.16025 45.16025,47 42.875,47 H 5.125 C 2.83975,47 1,45.16025 1,42.875 V 5.125 C 1,2.83975 2.83975,1 5.125,1 Z" display="inline" opacity="1"/><path id="rect7793-3-7" fill="#fff" fill-opacity=".219" fill-rule="nonzero" stroke="none" stroke-dasharray="none" stroke-dashoffset="0" stroke-linecap="butt" stroke-linejoin="round" stroke-miterlimit="4" stroke-opacity=".131" stroke-width="1.804" d="m 1,41.875 v 1 C 1,42.875 1,47 5.4147776,47 H 42.705164 C 46.677166,47 47,42.875 47,42.875 v -1 C 47,43.669386 45.53466,46 42.705164,46 H 5.4147776 C 3.1295276,46 1,44.623438 1,41.875 Z" display="inline" opacity="1"/><path id="rect7761-1-71" fill="#000" fill-opacity=".385" fill-rule="nonzero" stroke="none" stroke-dasharray="none" stroke-dashoffset="0" stroke-linecap="butt" stroke-linejoin="round" stroke-miterlimit="4" stroke-opacity="1" stroke-width="1.076" d="M 9.31771,5.99999 H 38.68229 C 40.5203,5.99999 42,7.47969 42,9.3177 v 30.36458 c 0,1.83801 -1.4797,3.31771 -3.31771,3.31771 H 9.31771 C 7.4797,42.99999 6,41.52029 6,39.68228 V 9.3177 C 6,7.47969 7.4797,5.99999 9.31771,5.99999 Z" display="inline" opacity="1"/><path id="rect4156-49-1" fill="url(#linearGradient7769-3-1)" fill-opacity="1" fill-rule="nonzero" stroke="none" stroke-dasharray="none" stroke-dashoffset="0" stroke-linecap="butt" stroke-linejoin="round" stroke-miterlimit="4" stroke-opacity="1" stroke-width="1.076" d="M 9.31771,4.99998 H 38.68229 C 40.5203,4.99998 42,6.47967 42,8.31768 v 30.36459 c 0,1.83801 -1.4797,3.31771 -3.31771,3.31771 H 9.31771 C 7.4797,41.99998 6,40.52028 6,38.68227 V 8.31768 C 6,6.47967 7.4797,4.99998 9.31771,4.99998 Z" display="inline" opacity="1"/><path id="rect7771-2-5" fill="#f8f8f8" fill-opacity="1" fill-rule="nonzero" stroke="none" stroke-dasharray="none" stroke-dashoffset="0" stroke-linecap="butt" stroke-linejoin="round" stroke-miterlimit="4" stroke-opacity="1" stroke-width="1.076" d="m 6,37.6586 v 1.01535 c 0,1.838 1.47976,3.31775 3.31775,3.31775 h 29.3645 C 40.52024,41.9917 42,40.51195 42,38.67395 V 37.6586 c 0,1.83799 -1.47976,3.31775 -3.31775,3.31775 H 9.31775 C 7.47976,40.97635 6,39.49658 6,37.6586 Z" display="inline" opacity="1"/><path id="rect4158-0-9" fill="url(#linearGradient4795-8-4)" fill-opacity="1" fill-rule="nonzero" stroke="none" stroke-dasharray="none" stroke-dashoffset="0" stroke-linecap="butt" stroke-linejoin="round" stroke-miterlimit="4" stroke-opacity=".613" stroke-width=".992" d="M 10,10.99213 V 36.12599 L 21,36 v -5 l -4,-4e-5 L 16.99996,16 H 21 V 11 Z M 27,11 v 5 h 3.99996 L 31,31.00004 27,31 v 5 H 38 V 11 Z" display="inline" opacity="1"/><path id="path7777-6-7" fill="#000" fill-opacity=".51" fill-rule="nonzero" stroke="none" stroke-dasharray="none" stroke-dashoffset="0" stroke-linecap="butt" stroke-linejoin="round" stroke-miterlimit="4" stroke-opacity=".613" stroke-width=".992" d="m 10,10.99219 v 1 L 21,12 V 11 Z M 27,11 v 1 H 38 V 11 Z M 17,31 v 1 h 4 v -1 z m 10,0 v 1 h 4 v -1 z" display="inline" opacity="1"/><path id="path7782-8-7" fill="#fff" fill-opacity=".948" fill-rule="nonzero" stroke="none" stroke-dasharray="none" stroke-dashoffset="0" stroke-linecap="butt" stroke-linejoin="round" stroke-miterlimit="4" stroke-opacity=".613" stroke-width=".992" d="m 17,16 v 1 h 4 v -1 z m 10,0 v 1 h 4 v -1 z m -6,20 -11,0.12695 v 1 L 21,37 Z m 6,0 v 1 h 11 v -1 z" display="inline" opacity="1"/></g></g><g id="g7907" display="inline"><g id="g7843" display="none"><rect id="rect7837" width="64" height="64" x="48" y="48" fill="#000" fill-opacity="1" fill-rule="nonzero" stroke="#ff24f7" stroke-dasharray="none" stroke-dashoffset="0" stroke-linecap="square" stroke-linejoin="miter" stroke-miterlimit="4" stroke-opacity=".995" stroke-width="0" marker-end="none" marker-mid="none" marker-start="none" clip-rule="nonzero" color="#000" color-interpolation="sRGB" color-interpolation-filters="linearRGB" color-rendering="auto" display="inline" enable-background="accumulate" image-rendering="auto" opacity="1" overflow="visible" paint-order="normal" shape-rendering="auto" text-rendering="auto" vector-effect="none" visibility="visible" style="isolation:auto;mix-blend-mode:normal;solid-color:#000;solid-opacity:1;marker:none"/><text id="text7841" x="69.816" y="85.824" fill="#fff" fill-opacity="1" stroke="none" stroke-linecap="butt" stroke-linejoin="miter" stroke-opacity="1" stroke-width=".033" display="inline" font-family="sans-serif" font-size="16" letter-spacing="0" opacity="1" word-spacing="0" xml:space="preserve" style="line-height:0%"><tspan id="tspan7839" x="69.816" y="85.824" fill="#fff" fill-opacity="1" stroke="none" stroke-width=".033" font-size="16" style="line-height:0%">64</tspan></text></g><g id="g7905" display="inline"><path id="rect4154-2-8" fill="#000" fill-opacity=".078" fill-rule="nonzero" stroke="none" stroke-dasharray="none" stroke-dashoffset="0" stroke-linecap="butt" stroke-linejoin="round" stroke-miterlimit="4" stroke-opacity=".131" stroke-width="1.845" d="m 54.21875,50 h 51.5625 C 108.11844,50 110,51.88156 110,54.21875 v 51.5625 C 110,108.11844 108.11844,110 105.78125,110 H 54.21875 C 51.88156,110 50,108.11844 50,105.78125 V 54.21875 C 50,51.88156 51.88156,50 54.21875,50 Z" display="inline" opacity="1"/><path id="rect4154-4" fill="url(#linearGradient4787-7)" fill-opacity="1" fill-rule="nonzero" stroke="none" stroke-dasharray="none" stroke-dashoffset="0" stroke-linecap="butt" stroke-linejoin="round" stroke-miterlimit="4" stroke-opacity=".131" stroke-width="1.804" d="m 55.125,51 h 49.75 c 2.28525,0 4.125,1.83975 4.125,4.125 v 49.75 c 0,2.28525 -1.83975,4.125 -4.125,4.125 H 55.125 C 52.83975,109 51,107.16025 51,104.875 V 55.125 C 51,52.83975 52.83975,51 55.125,51 Z" display="inline" opacity="1"/><path id="rect7793-3" fill="#fff" fill-opacity=".219" fill-rule="nonzero" stroke="none" stroke-dasharray="none" stroke-dashoffset="0" stroke-linecap="butt" stroke-linejoin="round" stroke-miterlimit="4" stroke-opacity=".131" stroke-width="1.804" d="m 51,103.875 v 1 c 0,0 1.83975,4.125 4.125,4.125 h 49.75 c 2.28525,0 4.125,-4.125 4.125,-4.125 v -1 c 0,2.28525 -1.83975,4.125 -4.125,4.125 H 55.125 C 52.83975,108 51,106.16025 51,103.875 Z" display="inline" opacity="1"/><path id="rect7761-1" fill="#000" fill-opacity=".385" fill-rule="nonzero" stroke="none" stroke-dasharray="none" stroke-dashoffset="0" stroke-linecap="butt" stroke-linejoin="round" stroke-miterlimit="4" stroke-opacity="1" stroke-width="1.076" d="m 60.31771,57.99999 h 39.36458 c 1.83801,0 3.31771,1.4797 3.31771,3.31771 v 39.36458 c 0,1.83801 -1.4797,3.31771 -3.31771,3.31771 H 60.31771 C 58.4797,103.99999 57,102.52029 57,100.68228 V 61.3177 c 0,-1.83801 1.4797,-3.31771 3.31771,-3.31771 z" display="inline" opacity="1"/><path id="rect4156-49" fill="url(#linearGradient7769-3)" fill-opacity="1" fill-rule="nonzero" stroke="none" stroke-dasharray="none" stroke-dashoffset="0" stroke-linecap="butt" stroke-linejoin="round" stroke-miterlimit="4" stroke-opacity="1" stroke-width="1.076" d="m 60.31771,56.99998 h 39.36458 c 1.83801,0 3.31771,1.47969 3.31771,3.3177 v 39.36459 c 0,1.83801 -1.4797,3.31771 -3.31771,3.31771 H 60.31771 C 58.4797,102.99998 57,101.52028 57,99.68227 V 60.31768 c 0,-1.83801 1.4797,-3.3177 3.31771,-3.3177 z" display="inline" opacity="1"/><path id="rect7771-2" fill="#f8f8f8" fill-opacity="1" fill-rule="nonzero" stroke="none" stroke-dasharray="none" stroke-dashoffset="0" stroke-linecap="butt" stroke-linejoin="round" stroke-miterlimit="4" stroke-opacity="1" stroke-width="1.076" d="m 57,98.6586 v 1.01535 c 0,1.838 1.47976,3.31775 3.31775,3.31775 h 39.3645 c 1.83799,0 3.31775,-1.47975 3.31775,-3.31775 V 98.6586 c 0,1.83799 -1.47976,3.31775 -3.31775,3.31775 H 60.31775 C 58.47976,101.97635 57,100.49658 57,98.6586 Z" display="inline" opacity="1"/><path id="rect4158-0" fill="url(#linearGradient4795-8)" fill-opacity="1" fill-rule="nonzero" stroke="none" stroke-dasharray="none" stroke-dashoffset="0" stroke-linecap="butt" stroke-linejoin="round" stroke-miterlimit="4" stroke-opacity=".613" stroke-width=".992" d="M 63,63.99213 V 96.12599 L 77,96 v -7 l -6,-4e-5 L 70.99996,70 H 77 V 64 Z M 83,64 v 6 h 5.99996 L 89,89.00004 83,89 v 7 H 97 V 64 Z" display="inline" opacity="1"/><path id="path7777-6" fill="#000" fill-opacity=".51" fill-rule="nonzero" stroke="none" stroke-dasharray="none" stroke-dashoffset="0" stroke-linecap="butt" stroke-linejoin="round" stroke-miterlimit="4" stroke-opacity=".613" stroke-width=".992" d="m 63,63.99219 v 1 L 77,65 V 64 Z M 83,64 v 1 H 97 V 64 Z M 71,89 v 1 h 6 v -1 z m 12,0 v 1 h 6 v -1 z" display="inline" opacity="1"/><path id="path7782-8" fill="#fff" fill-opacity=".948" fill-rule="nonzero" stroke="none" stroke-dasharray="none" stroke-dashoffset="0" stroke-linecap="butt" stroke-linejoin="round" stroke-miterlimit="4" stroke-opacity=".613" stroke-width=".992" d="m 71,70 v 1 h 6 v -1 z m 12,0 v 1 h 6 v -1 z m -6,26 -14,0.12695 v 1 L 77,97 Z m 6,0 v 1 h 14 v -1 z" display="inline" opacity="1"/></g></g><g id="g8840" display="inline"><g id="g8776" display="none"><rect id="rect_96" width="96" height="96" x="112" y="112" fill="#000" fill-opacity="1" fill-rule="nonzero" stroke="#ff24f7" stroke-dasharray="none" stroke-dashoffset="0" stroke-linecap="square" stroke-linejoin="miter" stroke-miterlimit="4" stroke-opacity=".995" stroke-width="0" marker-end="none" marker-mid="none" marker-start="none" clip-rule="nonzero" color="#000" color-interpolation="sRGB" color-interpolation-filters="linearRGB" color-rendering="auto" display="inline" enable-background="accumulate" image-rendering="auto" opacity="1" overflow="visible" paint-order="normal" shape-rendering="auto" text-rendering="auto" vector-effect="none" visibility="visible" style="isolation:auto;mix-blend-mode:normal;solid-color:#000;solid-opacity:1;marker:none"/><text id="text_96" x="144.725" y="168.736" fill="#fff" fill-opacity="1" stroke="none" stroke-linecap="butt" stroke-linejoin="miter" stroke-opacity="1" stroke-width=".049" display="inline" font-family="sans-serif" font-size="24" letter-spacing="0" opacity="1" word-spacing="0" xml:space="preserve" style="line-height:0%"><tspan style="line-height:0%" id="tspan8768" x="144.725" y="168.736" fill="#fff" fill-opacity="1" stroke="none" stroke-width=".049" font-size="24">96</tspan></text></g><g id="g8838" display="inline"><path id="rect4154-2" fill="#000" fill-opacity=".078" fill-rule="nonzero" stroke="none" stroke-dasharray="none" stroke-dashoffset="0" stroke-linecap="butt" stroke-linejoin="round" stroke-miterlimit="4" stroke-opacity=".131" stroke-width="1.845" d="m 119.21875,115 h 81.5625 c 2.33719,0 4.21875,1.88156 4.21875,4.21875 v 81.5625 C 205,203.11844 203.11844,205 200.78125,205 h -81.5625 C 116.88156,205 115,203.11844 115,200.78125 v -81.5625 C 115,116.88156 116.88156,115 119.21875,115 Z" display="inline" opacity="1"/><path id="rect4154" fill="url(#linearGradient4787)" fill-opacity="1" fill-rule="nonzero" stroke="none" stroke-dasharray="none" stroke-dashoffset="0" stroke-linecap="butt" stroke-linejoin="round" stroke-miterlimit="4" stroke-opacity=".131" stroke-width="1.804" d="m 120.125,116 h 79.75 c 2.28525,0 4.125,1.83975 4.125,4.125 v 79.75 c 0,2.28525 -1.83975,4.125 -4.125,4.125 h -79.75 C 117.83975,204 116,202.16025 116,199.875 v -79.75 c 0,-2.28525 1.83975,-4.125 4.125,-4.125 z" display="inline" opacity="1"/><path id="rect7793" fill="#fff" fill-opacity=".219" fill-rule="nonzero" stroke="none" stroke-dasharray="none" stroke-dashoffset="0" stroke-linecap="butt" stroke-linejoin="round" stroke-miterlimit="4" stroke-opacity=".131" stroke-width="1.804" d="m 116,198.875 v 1 c 0,2.28525 1.83975,4.125 4.125,4.125 h 79.75 c 2.28525,0 4.125,-1.83975 4.125,-4.125 v -1 c 0,2.28525 -1.83975,4.125 -4.125,4.125 h -79.75 C 117.83975,203 116,201.16025 116,198.875 Z" display="inline" opacity="1"/><path id="rect7761" fill="#000" fill-opacity=".385" fill-rule="nonzero" stroke="none" stroke-dasharray="none" stroke-dashoffset="0" stroke-linecap="butt" stroke-linejoin="round" stroke-miterlimit="4" stroke-opacity="1" stroke-width="1.076" d="m 128.31771,125.99999 h 63.36458 c 1.83801,0 3.31771,1.4797 3.31771,3.31771 v 63.36458 c 0,1.83801 -1.4797,3.31771 -3.31771,3.31771 h -63.36458 c -1.83801,0 -3.31771,-1.4797 -3.31771,-3.31771 V 129.3177 c 0,-1.83801 1.4797,-3.31771 3.31771,-3.31771 z" display="inline" opacity="1"/><path id="rect4156" fill="url(#linearGradient7769)" fill-opacity="1" fill-rule="nonzero" stroke="none" stroke-dasharray="none" stroke-dashoffset="0" stroke-linecap="butt" stroke-linejoin="round" stroke-miterlimit="4" stroke-opacity="1" stroke-width="1.076" d="m 128.31771,124.99998 h 63.36458 c 1.83801,0 3.31771,1.47969 3.31771,3.3177 v 63.36459 c 0,1.83801 -1.4797,3.31771 -3.31771,3.31771 h -63.36458 c -1.83801,0 -3.31771,-1.4797 -3.31771,-3.31771 v -63.36459 c 0,-1.83801 1.4797,-3.3177 3.31771,-3.3177 z" display="inline" opacity="1"/><path id="rect7771" fill="#f8f8f8" fill-opacity="1" fill-rule="nonzero" stroke="none" stroke-dasharray="none" stroke-dashoffset="0" stroke-linecap="butt" stroke-linejoin="round" stroke-miterlimit="4" stroke-opacity="1" stroke-width="1.076" d="m 125,190.6586 v 1.01535 c 0,1.838 1.47976,3.31775 3.31775,3.31775 h 63.3645 c 1.83799,0 3.31775,-1.47975 3.31775,-3.31775 v -1.01535 c 0,1.83799 -1.47976,3.31775 -3.31775,3.31775 h -63.3645 c -1.83799,0 -3.31775,-1.47977 -3.31775,-3.31775 z" display="inline" opacity="1"/><path id="rect4158" fill="url(#linearGradient4795)" fill-opacity="1" fill-rule="nonzero" stroke="none" stroke-dasharray="none" stroke-dashoffset="0" stroke-linecap="butt" stroke-linejoin="round" stroke-miterlimit="4" stroke-opacity=".613" stroke-width=".992" d="m 135,135.99213 v 49.13386 L 156,185 v -11 l -10,-4e-5 L 145.99996,146 H 156 V 136 Z M 164,136 v 10 h 9.99996 L 174,174.00004 164,174 v 11 h 21 v -49 z" display="inline" opacity="1"/><path id="path7777" fill="#000" fill-opacity=".51" fill-rule="nonzero" stroke="none" stroke-dasharray="none" stroke-dashoffset="0" stroke-linecap="butt" stroke-linejoin="round" stroke-miterlimit="4" stroke-opacity=".613" stroke-width=".992" d="m 135,135.99219 v 1 L 156,137 v -1 z M 164,136 v 1 h 21 v -1 z m -18,38 v 1 h 10 v -1 z m 18,0 v 1 h 10 v -1 z" display="inline" opacity="1"/><path id="path7782" fill="#fff" fill-opacity=".948" fill-rule="nonzero" stroke="none" stroke-dasharray="none" stroke-dashoffset="0" stroke-linecap="butt" stroke-linejoin="round" stroke-miterlimit="4" stroke-opacity=".613" stroke-width=".992" d="m 146,146 v 1 h 10 v -1 z m 18,0 v 1 h 10 v -1 z m -8,39 -21,0.12695 v 1 L 156,186 Z m 8,0 v 1 h 21 v -1 z" display="inline" opacity="1"/></g></g><g id="layer4" display="inline"><g id="layer11" display="none"><rect id="frame_128" width="128" height="128" x="208" y="208" fill="#000" fill-opacity="1" fill-rule="nonzero" stroke="#ff24f7" stroke-dasharray="none" stroke-dashoffset="0" stroke-linecap="square" stroke-linejoin="miter" stroke-miterlimit="4" stroke-opacity=".995" stroke-width="0" marker-end="none" marker-mid="none" marker-start="none" clip-rule="nonzero" color="#000" color-interpolation="sRGB" color-interpolation-filters="linearRGB" color-rendering="auto" display="inline" enable-background="accumulate" image-rendering="auto" opacity="1" overflow="visible" paint-order="normal" shape-rendering="auto" text-rendering="auto" vector-effect="none" visibility="visible" style="isolation:auto;mix-blend-mode:normal;solid-color:#000;solid-opacity:1;marker:none"/><text id="txt_128" x="236.175" y="283.345" fill="#fff" fill-opacity="1" stroke="none" stroke-linecap="butt" stroke-linejoin="miter" stroke-opacity="1" stroke-width=".079" display="inline" font-family="sans-serif" font-size="38.465" letter-spacing="0" opacity="1" word-spacing="0" xml:space="preserve" style="line-height:0%"><tspan id="tspan5069-6" x="236.175" y="283.345" fill="#fff" fill-opacity="1" stroke="none" stroke-width=".079" font-size="38.465" style="line-height:0%">128</tspan></text><text id="txt_scalable_64_512" x="265.978" y="330.133" fill="#fff" fill-opacity=".422" stroke="none" stroke-linecap="butt" stroke-linejoin="miter" stroke-opacity="1" stroke-width=".164" display="inline" font-family="sans-serif" font-size="7.432" letter-spacing="0" opacity="1" word-spacing="0" xml:space="preserve" style="line-height:1000%"><tspan id="tspan5049-1-6-6" x="265.978" y="330.133" fill="#fff" fill-opacity=".422" stroke="none" stroke-width=".164" font-size="8.09">Scalable:96-512</tspan></text></g><g id="layer12" display="inline"><path id="rect4154-2-7" fill="#000" fill-opacity=".078" fill-rule="nonzero" stroke="none" stroke-dasharray="none" stroke-dashoffset="0" stroke-linecap="butt" stroke-linejoin="round" stroke-miterlimit="4" stroke-opacity=".131" stroke-width="2.46" d="m 217.625,212 h 108.75 c 3.11625,0 5.625,2.50875 5.625,5.625 v 108.75 c 0,3.11625 -2.50875,5.625 -5.625,5.625 H 217.625 C 214.50875,332 212,330.11625 212,327 V 217.625 c 0,-3.11625 2.50875,-5.625 5.625,-5.625 z" display="inline" opacity="1"/><path id="rect4154-5" fill="url(#linearGradient4787-6)" fill-opacity="1" fill-rule="nonzero" stroke="none" stroke-dasharray="none" stroke-dashoffset="0" stroke-linecap="butt" stroke-linejoin="round" stroke-miterlimit="4" stroke-opacity=".131" stroke-width="2.405" d="m 219,213 h 106 c 3.047,0 6,2.953 6,6 v 106 c 0,3.047 -2.953,6 -6,6 H 219 c -3.047,0 -6,-2.953 -6,-6 V 219 c 0,-3.047 2.953,-6 6,-6 z" display="inline" opacity="1"/><path id="rect7793-9" fill="#fff" fill-opacity=".219" fill-rule="nonzero" stroke="none" stroke-dasharray="none" stroke-dashoffset="0" stroke-linecap="butt" stroke-linejoin="round" stroke-miterlimit="4" stroke-opacity=".131" stroke-width="2.405" d="M 213,323.66666 V 325 c 0,3.047 2.953,6 6,6 h 106 c 3.047,0 6,-2.953 6,-6 v -1.33334 C 331,326.71366 328.047,330 325,330 H 219 c -3.047,0 -6,-3.28634 -6,-6.33334 z" display="inline" opacity="1"/><path id="rect7761-2" fill="#000" fill-opacity=".385" fill-rule="nonzero" stroke="none" stroke-dasharray="none" stroke-dashoffset="0" stroke-linecap="butt" stroke-linejoin="round" stroke-miterlimit="4" stroke-opacity="1" stroke-width="1.434" d="m 229.75695,226.66665 h 84.4861 c 2.45068,0 4.41388,1.97296 4.42362,4.42362 L 319,315 c 0.01,2.45066 -2.54932,5 -5,5 h -84 c -2.45068,0 -5.00974,-2.54934 -5,-5 l 0.33333,-83.90973 c 0.01,-2.45066 1.97294,-4.42362 4.42362,-4.42362 z" display="inline" opacity="1"/><path id="rect4156-2" fill="url(#linearGradient7769-7)" fill-opacity="1" fill-rule="nonzero" stroke="none" stroke-dasharray="none" stroke-dashoffset="0" stroke-linecap="butt" stroke-linejoin="round" stroke-miterlimit="4" stroke-opacity="1" stroke-width="1.434" d="m 230,225 h 84 c 2.45068,0 5,2.54932 5,5 v 84.0111 C 319,316.46178 316.45068,319 314,319 H 229.98425 C 227.53357,319 225,316.45068 225,314 v -84 c 0,-2.45068 2.54932,-5 5,-5 z" display="inline" opacity="1"/><path id="rect7771-8" fill="#f8f8f8" fill-opacity="1" fill-rule="nonzero" stroke="none" stroke-dasharray="none" stroke-dashoffset="0" stroke-linecap="butt" stroke-linejoin="round" stroke-miterlimit="4" stroke-opacity="1" stroke-width="1.434" d="M 225,312.6462 V 314 c 0,2.45067 2.53366,4.98896 4.9843,4.98896 h 84.01565 C 316.4506,318.98896 319,316.45067 319,314 v -1.3538 c 0,2.45066 -2.54935,5.3538 -5,5.3538 h -84 c -2.45065,0 -5,-2.90316 -5,-5.3538 z" display="inline" opacity="1"/><path id="rect4158-9" fill="url(#linearGradient4795-0)" fill-opacity="1" fill-rule="nonzero" stroke="none" stroke-dasharray="none" stroke-dashoffset="0" stroke-linecap="butt" stroke-linejoin="round" stroke-miterlimit="4" stroke-opacity=".613" stroke-width="1.323" d="m 239,239.99475 v 65.0886 l 28,-0.16799 V 291 l -13.99998,-6e-5 L 252.99997,253 H 267 v -12.99476 z m 38,0.0105 V 253 h 13.99997 l 6e-5,38.00005 L 277,291 v 13.91536 h 28 v -64.91012 z" display="inline" opacity="1"/><path id="path7777-7" fill="#000" fill-opacity=".51" fill-rule="nonzero" stroke="none" stroke-dasharray="none" stroke-dashoffset="0" stroke-linecap="butt" stroke-linejoin="round" stroke-miterlimit="4" stroke-opacity=".613" stroke-width="1.323" d="m 239,239.99483 v 0.99996 l 28,0.0104 v -0.99996 z m 38,0.0104 v 0.99997 h 28 v -0.99997 z M 253.00002,291 v 1 H 267 v -1 z M 277,291 v 1 h 14.00003 v -1 z" display="inline" opacity="1"/><path id="path7782-3" fill="#fff" fill-opacity=".948" fill-rule="nonzero" stroke="none" stroke-dasharray="none" stroke-dashoffset="0" stroke-linecap="butt" stroke-linejoin="round" stroke-miterlimit="4" stroke-opacity=".613" stroke-width="1.323" d="m 253.00002,253 v 1 H 267 v -1 z M 277,253 v 1 h 14.00003 v -1 z m -10,51.91536 -28,0.16927 v 1 l 28,-0.16926 z m 10,0 v 1.00001 h 28 v -1.00001 z" display="inline" opacity="1"/></g></g></svg>