<svg xmlns="http://www.w3.org/2000/svg" xmlns:svg="http://www.w3.org/2000/svg" xmlns:xlink="http://www.w3.org/1999/xlink" id="svg2" width="48" height="48" enable-background="new" version="1.1" viewBox="0 0 48 48"><title id="title4675">Template icons dark</title><metadata id="metadata24"/><defs id="defs22"><linearGradient id="linearGradient1005"><stop id="stop1001" offset="0" stop-color="#1f97cf" stop-opacity="1"/><stop id="stop1003" offset="1" stop-color="#50b5e4" stop-opacity="1"/></linearGradient><linearGradient id="linearGradient997"><stop id="stop993" offset="0" stop-color="#62c8f7" stop-opacity="1"/><stop id="stop995" offset="1" stop-color="#0ca3e8" stop-opacity="1"/></linearGradient><linearGradient id="linearGradient4201" x1="138.929" x2="165.724" y1="880.934" y2="880.934" gradientTransform="matrix(1.4428324,0,0,1.4428324,-80.350663,-1134.5004)" gradientUnits="userSpaceOnUse" xlink:href="#linearGradient4570"/><linearGradient id="linearGradient4570"><stop id="stop4572" offset="0" stop-color="#7ed6fb" stop-opacity="1"/><stop id="stop4574" offset="1" stop-color="#90ddfc" stop-opacity="1"/></linearGradient><linearGradient id="linearGradient4625" x1="70.711" x2="56.624" y1="986.071" y2="988.557" gradientTransform="matrix(1.4428324,0,0,1.4428324,90.728022,-1289.0782)" gradientUnits="userSpaceOnUse" xlink:href="#linearGradient4619"/><linearGradient id="linearGradient4619"><stop id="stop4621" offset="0" stop-color="#7ed6fb" stop-opacity="1"/><stop id="stop4623" offset="1" stop-color="#8edcfc" stop-opacity="1"/></linearGradient><linearGradient id="linearGradient4609" x1="54.138" x2="57.452" y1="1022.255" y2="1020.598" gradientTransform="matrix(1.4428324,0,0,1.4428324,90.728022,-1289.0782)" gradientUnits="userSpaceOnUse" xlink:href="#linearGradient4603"/><linearGradient id="linearGradient4603"><stop id="stop4605" offset="0" stop-color="#62c8f7" stop-opacity="1"/><stop id="stop4607" offset="1" stop-color="#36aaf2" stop-opacity="1"/></linearGradient><linearGradient id="linearGradient4617" x1="72.644" x2="58.281" y1="1009.273" y2="1008.997" gradientTransform="matrix(1.4428324,0,0,1.4428324,90.728022,-1289.0782)" gradientUnits="userSpaceOnUse" xlink:href="#linearGradient4611"/><linearGradient id="linearGradient4611"><stop id="stop4613" offset="0" stop-color="#7ed6fb" stop-opacity="1"/><stop id="stop4615" offset="1" stop-color="#8fdcfc" stop-opacity="1"/></linearGradient><linearGradient id="linearGradient4601" x1="38.672" x2="44.922" y1="1020.149" y2="1022.675" gradientTransform="matrix(1.4428324,0,0,1.4428324,90.728022,-1289.0782)" gradientUnits="userSpaceOnUse" xlink:href="#linearGradient4595"/><linearGradient id="linearGradient4595"><stop id="stop4597" offset="0" stop-color="#1581ce" stop-opacity="1"/><stop id="stop4599" offset="1" stop-color="#32a9e0" stop-opacity="1"/></linearGradient><linearGradient id="linearGradient4593" x1="23.438" x2="40.234" y1="1010.175" y2="1009.393" gradientTransform="matrix(1.4428324,0,0,1.4428324,90.728022,-1289.0782)" gradientUnits="userSpaceOnUse" xlink:href="#linearGradient4611"/><linearGradient id="linearGradient999" x1="148" x2="150.614" y1="148" y2="169.512" gradientUnits="userSpaceOnUse" xlink:href="#linearGradient997"/><linearGradient id="linearGradient1007" x1="167.78" x2="169.512" y1="164" y2="143.055" gradientUnits="userSpaceOnUse" xlink:href="#linearGradient1005"/><linearGradient id="linearGradient4201-3" x1="138.929" x2="165.724" y1="880.934" y2="880.934" gradientTransform="matrix(1.9189671,0,0,1.9189671,-47.662066,-1449.7612)" gradientUnits="userSpaceOnUse" xlink:href="#linearGradient4570"/><linearGradient id="linearGradient4625-5" x1="70.711" x2="56.624" y1="986.071" y2="988.557" gradientTransform="matrix(1.9189671,0,0,1.9189671,179.87258,-1655.3497)" gradientUnits="userSpaceOnUse" xlink:href="#linearGradient4619"/><linearGradient id="linearGradient999-6" x1="148" x2="150.614" y1="148" y2="169.512" gradientTransform="matrix(1.33,0,0,1.33,59.204312,59.124349)" gradientUnits="userSpaceOnUse" xlink:href="#linearGradient997"/><linearGradient id="linearGradient1007-1" x1="167.78" x2="169.512" y1="164" y2="143.055" gradientTransform="matrix(1.33,0,0,1.33,59.204312,59.124349)" gradientUnits="userSpaceOnUse" xlink:href="#linearGradient1005"/><linearGradient id="linearGradient4609-0" x1="54.138" x2="57.452" y1="1022.255" y2="1020.598" gradientTransform="matrix(1.9189671,0,0,1.9189671,179.87258,-1655.3497)" gradientUnits="userSpaceOnUse" xlink:href="#linearGradient4603"/><linearGradient id="linearGradient4617-6" x1="72.644" x2="58.281" y1="1009.273" y2="1008.997" gradientTransform="matrix(1.9189671,0,0,1.9189671,179.87258,-1655.3497)" gradientUnits="userSpaceOnUse" xlink:href="#linearGradient4611"/><linearGradient id="linearGradient4601-2" x1="38.672" x2="44.922" y1="1020.149" y2="1022.675" gradientTransform="matrix(1.9189671,0,0,1.9189671,179.87258,-1655.3497)" gradientUnits="userSpaceOnUse" xlink:href="#linearGradient4595"/><linearGradient id="linearGradient4593-8" x1="23.438" x2="40.234" y1="1010.175" y2="1009.393" gradientTransform="matrix(1.9189671,0,0,1.9189671,179.87258,-1655.3497)" gradientUnits="userSpaceOnUse" xlink:href="#linearGradient4611"/><linearGradient id="linearGradient4201-2" x1="138.929" x2="165.724" y1="880.934" y2="880.934" gradientTransform="matrix(0.96189308,0,0,0.96189308,-80.23893,-783.17083)" gradientUnits="userSpaceOnUse" xlink:href="#linearGradient4570"/><linearGradient id="linearGradient4625-7" x1="70.711" x2="56.624" y1="986.071" y2="988.557" gradientTransform="matrix(0.96189308,0,0,0.96189308,33.814096,-886.22321)" gradientUnits="userSpaceOnUse" xlink:href="#linearGradient4619"/><linearGradient id="linearGradient999-1" x1="148" x2="150.614" y1="148" y2="169.512" gradientTransform="matrix(0.66667,0,0,0.66667,-26.671555,-26.833435)" gradientUnits="userSpaceOnUse" xlink:href="#linearGradient997"/><linearGradient id="linearGradient1007-3" x1="167.78" x2="169.512" y1="164" y2="143.055" gradientTransform="matrix(0.66667,0,0,0.66667,-26.671555,-26.833435)" gradientUnits="userSpaceOnUse" xlink:href="#linearGradient1005"/><linearGradient id="linearGradient4609-4" x1="54.138" x2="57.452" y1="1022.255" y2="1020.598" gradientTransform="matrix(0.96189308,0,0,0.96189308,33.814096,-886.22321)" gradientUnits="userSpaceOnUse" xlink:href="#linearGradient4603"/><linearGradient id="linearGradient4617-4" x1="72.644" x2="58.281" y1="1009.273" y2="1008.997" gradientTransform="matrix(0.96189308,0,0,0.96189308,33.814096,-886.22321)" gradientUnits="userSpaceOnUse" xlink:href="#linearGradient4611"/><linearGradient id="linearGradient4601-3" x1="38.672" x2="44.922" y1="1020.149" y2="1022.675" gradientTransform="matrix(0.96189308,0,0,0.96189308,33.814096,-886.22321)" gradientUnits="userSpaceOnUse" xlink:href="#linearGradient4595"/><linearGradient id="linearGradient4593-0" x1="23.438" x2="40.234" y1="1010.175" y2="1009.393" gradientTransform="matrix(0.96189308,0,0,0.96189308,33.814096,-886.22321)" gradientUnits="userSpaceOnUse" xlink:href="#linearGradient4611"/><linearGradient id="linearGradient4201-5" x1="138.929" x2="165.724" y1="880.934" y2="880.934" gradientTransform="matrix(0.75159709,0,0,0.75159709,-101.1961,-650.46568)" gradientUnits="userSpaceOnUse" xlink:href="#linearGradient4570"/><linearGradient id="linearGradient4625-3" x1="70.711" x2="56.624" y1="986.071" y2="988.557" gradientTransform="matrix(0.75159709,0,0,0.75159709,-12.078171,-730.98801)" gradientUnits="userSpaceOnUse" xlink:href="#linearGradient4619"/><linearGradient id="linearGradient999-5" x1="148" x2="150.614" y1="148" y2="169.512" gradientTransform="matrix(0.52091781,0,0,0.52091781,-59.340012,-59.48419)" gradientUnits="userSpaceOnUse" xlink:href="#linearGradient997"/><linearGradient id="linearGradient1007-4" x1="167.78" x2="169.512" y1="164" y2="143.055" gradientTransform="matrix(0.52091781,0,0,0.52091781,-59.340012,-59.48419)" gradientUnits="userSpaceOnUse" xlink:href="#linearGradient1005"/><linearGradient id="linearGradient4609-43" x1="54.138" x2="57.452" y1="1022.255" y2="1020.598" gradientTransform="matrix(0.75159709,0,0,0.75159709,-12.078171,-730.98801)" gradientUnits="userSpaceOnUse" xlink:href="#linearGradient4603"/><linearGradient id="linearGradient4617-8" x1="72.644" x2="58.281" y1="1009.273" y2="1008.997" gradientTransform="matrix(0.75159709,0,0,0.75159709,-12.078171,-730.98801)" gradientUnits="userSpaceOnUse" xlink:href="#linearGradient4611"/><linearGradient id="linearGradient4601-8" x1="38.672" x2="44.922" y1="1020.149" y2="1022.675" gradientTransform="matrix(0.75159709,0,0,0.75159709,-12.078171,-730.98801)" gradientUnits="userSpaceOnUse" xlink:href="#linearGradient4595"/><linearGradient id="linearGradient4593-1" x1="23.438" x2="40.234" y1="1010.175" y2="1009.393" gradientTransform="matrix(0.75159709,0,0,0.75159709,-12.078171,-730.98801)" gradientUnits="userSpaceOnUse" xlink:href="#linearGradient4611"/><linearGradient id="linearGradient4201-50" x1="138.929" x2="165.724" y1="880.934" y2="880.934" gradientTransform="matrix(0.50105889,0,0,0.50105889,-99.463283,-465.6368)" gradientUnits="userSpaceOnUse" xlink:href="#linearGradient4570"/><linearGradient id="linearGradient4625-71" x1="70.711" x2="56.624" y1="986.071" y2="988.557" gradientTransform="matrix(0.50105889,0,0,0.50105889,-40.05202,-519.31773)" gradientUnits="userSpaceOnUse" xlink:href="#linearGradient4619"/><linearGradient id="linearGradient999-7" x1="148" x2="150.614" y1="148" y2="169.512" gradientTransform="matrix(0.34727449,0,0,0.34727449,-71.559548,-71.653753)" gradientUnits="userSpaceOnUse" xlink:href="#linearGradient997"/><linearGradient id="linearGradient1007-6" x1="167.78" x2="169.512" y1="164" y2="143.055" gradientTransform="matrix(0.34727449,0,0,0.34727449,-71.559548,-71.653753)" gradientUnits="userSpaceOnUse" xlink:href="#linearGradient1005"/><linearGradient id="linearGradient4609-6" x1="54.138" x2="57.452" y1="1022.255" y2="1020.598" gradientTransform="matrix(0.50105889,0,0,0.50105889,-40.05202,-519.31773)" gradientUnits="userSpaceOnUse" xlink:href="#linearGradient4603"/><linearGradient id="linearGradient4617-9" x1="72.644" x2="58.281" y1="1009.273" y2="1008.997" gradientTransform="matrix(0.50105889,0,0,0.50105889,-40.05202,-519.31773)" gradientUnits="userSpaceOnUse" xlink:href="#linearGradient4611"/><linearGradient id="linearGradient4601-0" x1="38.672" x2="44.922" y1="1020.149" y2="1022.675" gradientTransform="matrix(0.50105889,0,0,0.50105889,-40.05202,-519.31773)" gradientUnits="userSpaceOnUse" xlink:href="#linearGradient4595"/><linearGradient id="linearGradient4593-7" x1="23.438" x2="40.234" y1="1010.175" y2="1009.393" gradientTransform="matrix(0.50105889,0,0,0.50105889,-40.05202,-519.31773)" gradientUnits="userSpaceOnUse" xlink:href="#linearGradient4611"/><linearGradient id="linearGradient4201-6" x1="138.929" x2="165.724" y1="880.934" y2="880.934" gradientTransform="matrix(0.37579854,0,0,0.37579854,-106.59805,-381.21973)" gradientUnits="userSpaceOnUse" xlink:href="#linearGradient4570"/><linearGradient id="linearGradient4625-4" x1="70.711" x2="56.624" y1="986.071" y2="988.557" gradientTransform="matrix(0.37579854,0,0,0.37579854,-62.039085,-421.48089)" gradientUnits="userSpaceOnUse" xlink:href="#linearGradient4619"/><linearGradient id="linearGradient4609-8" x1="54.138" x2="57.452" y1="1022.255" y2="1020.598" gradientTransform="matrix(0.37579854,0,0,0.37579854,-62.039085,-421.48089)" gradientUnits="userSpaceOnUse" xlink:href="#linearGradient4603"/><linearGradient id="linearGradient4617-96" x1="72.644" x2="58.281" y1="1009.273" y2="1008.997" gradientTransform="matrix(0.37579854,0,0,0.37579854,-62.039085,-421.48089)" gradientUnits="userSpaceOnUse" xlink:href="#linearGradient4611"/><linearGradient id="linearGradient4601-5" x1="38.672" x2="44.922" y1="1020.149" y2="1022.675" gradientTransform="matrix(0.37579854,0,0,0.37579854,-62.039085,-421.48089)" gradientUnits="userSpaceOnUse" xlink:href="#linearGradient4595"/><linearGradient id="linearGradient4593-15" x1="23.438" x2="40.234" y1="1010.175" y2="1009.393" gradientTransform="matrix(0.37579854,0,0,0.37579854,-62.039085,-421.48089)" gradientUnits="userSpaceOnUse" xlink:href="#linearGradient4611"/><linearGradient id="linearGradient4201-1" x1="138.929" x2="165.724" y1="880.934" y2="880.934" gradientTransform="matrix(0.25053821,0,0,0.25053821,-105.73282,-288.84217)" gradientUnits="userSpaceOnUse" xlink:href="#linearGradient4570"/><linearGradient id="linearGradient4625-9" x1="70.711" x2="56.624" y1="986.071" y2="988.557" gradientTransform="matrix(0.25053821,0,0,0.25053821,-76.026151,-315.68357)" gradientUnits="userSpaceOnUse" xlink:href="#linearGradient4619"/><linearGradient id="linearGradient4617-5" x1="72.644" x2="58.281" y1="1009.273" y2="1008.997" gradientTransform="matrix(0.25053821,0,0,0.25053821,-76.026151,-315.68357)" gradientUnits="userSpaceOnUse" xlink:href="#linearGradient4611"/><linearGradient id="linearGradient4593-9" x1="23.438" x2="40.234" y1="1010.175" y2="1009.393" gradientTransform="matrix(0.25053821,0,0,0.25053821,-76.026151,-315.68357)" gradientUnits="userSpaceOnUse" xlink:href="#linearGradient4611"/></defs><g id="layer1" display="inline"><g id="layer5" display="none"><rect id="frame_16" width="16" height="16" x="-72" y="-72" fill="#000" fill-opacity="1" fill-rule="nonzero" stroke="#ff24f7" stroke-dasharray="none" stroke-dashoffset="0" stroke-linecap="square" stroke-linejoin="miter" stroke-miterlimit="4" stroke-opacity=".995" stroke-width="0" marker-end="none" marker-mid="none" marker-start="none" clip-rule="nonzero" color="#000" color-interpolation="sRGB" color-interpolation-filters="linearRGB" color-rendering="auto" display="block" enable-background="accumulate" image-rendering="auto" opacity="1" overflow="visible" paint-order="normal" shape-rendering="auto" text-rendering="auto" vector-effect="none" visibility="visible" style="isolation:auto;mix-blend-mode:normal;solid-color:#000;solid-opacity:1;marker:none"/><text id="txt_16" x="-69.279" y="-61.088" fill="#fff" fill-opacity="1" stroke="none" stroke-linecap="butt" stroke-linejoin="miter" stroke-opacity="1" stroke-width=".072" display="inline" font-family="sans-serif" font-size="8" letter-spacing="0" opacity="1" word-spacing="0" xml:space="preserve" style="line-height:1000%"><tspan id="tspan4768-6" x="-69.279" y="-61.088" fill="#fff" fill-opacity="1" stroke="none" stroke-width=".072" font-size="8">16</tspan></text></g><g id="layer6" display="inline"><path id="path974-64" fill="none" fill-opacity="1" fill-rule="nonzero" stroke="#000" stroke-opacity=".209" stroke-width=".217" d="m -67.174665,-71.032294 -4.639531,2.871558 3.151694,2.601259 -3.151694,2.601258 3.152033,1.950774 v 1.040165 l 4.651064,2.894959 -0.02103,-5.57049 6.95e-4,-3.47e-4 0.02204,5.566761 4.607653,-2.89089 v -1.012355 l 3.215454,-1.993845 -3.174757,-2.582267 -0.04036,0.0251 v -0.0234 l 0.0088,-0.0054 -4.639194,-2.871559 -4.630374,2.871559 4.636141,-2.877662 -0.0051,0.0041 4.649368,2.877323 3.174416,-2.581926 -4.662255,-2.890889 -3.154747,2.589727 z" display="inline"/><path id="path4040-33" fill="#7ed6fb" fill-opacity="1" fill-rule="nonzero" stroke="none" stroke-width=".217" d="m -64.031951,-68.431124 4.639404,2.871657 -4.607771,2.890726 -4.662142,-2.890726 z" display="inline"/><path id="path4044-3" fill="url(#linearGradient4201-1)" fill-opacity="1" fill-rule="nonzero" stroke="none" stroke-width=".217" d="m -71.814217,-68.160704 4.639406,-2.871667 3.150768,2.594035 -4.638417,2.878869 z" display="inline"/><path id="path4046-86" fill="url(#linearGradient4625-9)" fill-opacity="1" fill-rule="nonzero" stroke="none" stroke-width=".217" d="m -64.031147,-68.433225 4.649292,2.877599 3.174496,-2.58217 -4.662146,-2.890729 z" display="inline"/><path id="path4050-0" fill="#17739f" fill-opacity="1" fill-rule="nonzero" stroke="none" stroke-width=".217" d="m -64.031951,-68.431124 -1.73e-4,4.927945 -4.607771,2.890731 -0.0224,-4.947019 z" display="inline"/><path id="path4052-4" fill="#17739f" fill-opacity="1" fill-rule="nonzero" stroke="none" stroke-width=".217" d="m -64.031951,-68.431124 1.74e-4,4.927945 4.607768,2.890731 0.0224,-4.947019 z" display="inline"/><path id="path4056-8" fill="#27b3f4" fill-opacity="1" fill-rule="nonzero" stroke="none" stroke-width=".217" d="m -59.401442,-65.559467 -1.74e-4,5.592295 -4.60777,2.890732 -0.0224,-5.611379 z" display="inline"/><path id="path4048-8" fill="url(#linearGradient4617-5)" fill-opacity="1" fill-rule="nonzero" stroke="none" stroke-width=".217" d="m -64.000318,-62.683935 4.639407,-2.871691 3.174494,2.582186 -4.662143,2.890753 z" display="inline"/><path id="path4054-8" fill="#1f95e8" fill-opacity="1" fill-rule="nonzero" stroke="none" stroke-width=".217" d="m -68.66246,-65.559467 1.73e-4,5.592295 4.651267,2.894682 -0.0211,-5.615329 z" display="inline"/><path id="path4042-97" fill="url(#linearGradient4593-9)" fill-opacity="1" fill-rule="nonzero" stroke="none" stroke-width=".217" d="m -71.814217,-62.958246 4.639406,2.871695 3.174493,-2.58219 -4.662142,-2.890726 z" display="inline"/></g></g><g id="layer2" display="inline"><g id="layer7" display="none"><rect id="frame_24" width="24" height="24" x="-56" y="-56" fill="#000" fill-opacity=".995" fill-rule="nonzero" stroke="#ff24f7" stroke-dasharray="none" stroke-dashoffset="0" stroke-linecap="square" stroke-linejoin="miter" stroke-miterlimit="4" stroke-opacity=".995" stroke-width="0" marker-end="none" marker-mid="none" marker-start="none" clip-rule="nonzero" color="#000" color-interpolation="sRGB" color-interpolation-filters="linearRGB" color-rendering="auto" display="block" enable-background="accumulate" image-rendering="auto" opacity="1" overflow="visible" paint-order="normal" shape-rendering="auto" text-rendering="auto" vector-effect="none" visibility="visible" style="isolation:auto;mix-blend-mode:normal;solid-color:#000;solid-opacity:1;marker:none"/><text id="txt_24" x="-50.88" y="-40.042" fill="#fff" fill-opacity="1" stroke="none" stroke-linecap="butt" stroke-linejoin="miter" stroke-opacity="1" stroke-width=".112" display="inline" font-family="sans-serif" font-size="10.667" letter-spacing="0" opacity="1" word-spacing="0" xml:space="preserve" style="line-height:1000%"><tspan id="tspan4835-2-5" x="-50.88" y="-40.042" fill="#fff" fill-opacity="1" stroke="none" stroke-width=".112" font-size="10.667">24</tspan></text></g><g id="layer8" display="inline"><path id="path974-9" fill="none" fill-opacity="1" fill-rule="nonzero" stroke="#000" stroke-opacity=".209" stroke-width=".326" d="m -48.762167,-54.512591 -6.959134,4.307237 4.727431,3.901797 -4.727431,3.901797 4.727939,2.926091 v 1.560212 l 6.976433,4.342337 -0.03154,-8.35554 10e-4,-5.21e-4 0.03307,8.349948 6.911318,-4.336235 v -1.518496 l 4.823069,-2.990699 -4.762025,-3.87331 -0.06054,0.03765 v -0.0351 l 0.01323,-0.0081 -6.958629,-4.307237 -6.9454,4.307237 6.95405,-4.316392 -0.0076,0.0061 6.973888,4.315884 4.761515,-3.8728 -6.99322,-4.336231 -4.73201,3.884499 z" display="inline"/><path id="path4040-8" fill="#7ed6fb" fill-opacity="1" fill-rule="nonzero" stroke="none" stroke-width=".326" d="m -44.048205,-50.610928 6.958944,4.307386 -6.911496,4.335987 -6.993051,-4.335987 z" display="inline"/><path id="path4044-4" fill="url(#linearGradient4201-6)" fill-opacity="1" fill-rule="nonzero" stroke="none" stroke-width=".326" d="m -55.721332,-50.205307 6.958946,-4.307399 4.726043,3.890962 -6.957465,4.318202 z" display="inline"/><path id="path4046-8" fill="url(#linearGradient4625-4)" fill-opacity="1" fill-rule="nonzero" stroke="none" stroke-width=".326" d="m -44.046999,-50.614079 6.973774,4.316299 4.761634,-3.873165 -6.993055,-4.335992 z" display="inline"/><path id="path4050-10" fill="#0ca4eb" fill-opacity="1" fill-rule="nonzero" stroke="none" stroke-width=".326" d="m -44.048205,-50.610928 -2.6e-4,7.391746 -6.911496,4.335995 -0.0336,-7.420355 z" display="inline"/><path id="path4052-30" fill="#1c89bc" fill-opacity="1" fill-rule="nonzero" stroke="none" stroke-width=".326" d="m -44.048205,-50.610928 2.61e-4,7.391746 6.91149,4.335995 0.0336,-7.420355 z" display="inline"/><path id="path4056-4" fill="url(#linearGradient4609-8)" fill-opacity="1" fill-rule="nonzero" stroke="none" stroke-width=".326" d="m -37.102604,-46.303542 -2.61e-4,8.388246 -6.911493,4.335997 -0.0336,-8.416872 z" display="inline"/><path id="path4048-44" fill="url(#linearGradient4617-96)" fill-opacity="1" fill-rule="nonzero" stroke="none" stroke-width=".326" d="m -44.000757,-41.990345 6.958949,-4.307435 4.761629,3.873188 -6.993051,4.336028 z" display="inline"/><path id="path4054-47" fill="url(#linearGradient4601-5)" fill-opacity="1" fill-rule="nonzero" stroke="none" stroke-width=".326" d="m -50.993808,-46.303542 2.61e-4,8.388246 6.976738,4.341923 -0.03164,-8.422798 z" display="inline"/><path id="path4042-63" fill="url(#linearGradient4593-15)" fill-opacity="1" fill-rule="nonzero" stroke="none" stroke-width=".326" d="m -55.721332,-42.401802 6.958946,4.307443 4.761629,-3.873196 -6.993051,-4.335987 z" display="inline"/></g></g><g id="g7816" display="inline"><g id="g7802" display="none"><rect id="rect7792" width="32" height="32" x="-32" y="-32" fill="#000" fill-opacity="1" fill-rule="nonzero" stroke="#ff24f7" stroke-dasharray="none" stroke-dashoffset="0" stroke-linecap="square" stroke-linejoin="miter" stroke-miterlimit="4" stroke-opacity=".995" stroke-width="0" marker-end="none" marker-mid="none" marker-start="none" clip-rule="nonzero" color="#000" color-interpolation="sRGB" color-interpolation-filters="linearRGB" color-rendering="auto" display="block" enable-background="accumulate" image-rendering="auto" opacity="1" overflow="visible" paint-order="normal" shape-rendering="auto" text-rendering="auto" vector-effect="none" visibility="visible" style="isolation:auto;mix-blend-mode:normal;solid-color:#000;solid-opacity:1;marker:none"/><text id="text7796" x="-23.799" y="-11.47" fill="#fff" fill-opacity="1" stroke="none" stroke-linecap="butt" stroke-linejoin="miter" stroke-opacity="1" stroke-width=".074" display="inline" font-family="sans-serif" font-size="12.444" letter-spacing="0" opacity="1" word-spacing="0" xml:space="preserve" style="line-height:1000%"><tspan id="tspan7794" x="-23.799" y="-11.47" fill="#fff" fill-opacity="1" stroke="none" stroke-width=".074" font-size="12.444">32</tspan></text></g><g id="g7814" display="inline"><path id="path974-71" fill="none" fill-opacity="1" fill-rule="nonzero" stroke="#000" stroke-opacity=".209" stroke-width=".434" d="m -22.349669,-30.032364 -9.278737,5.742917 6.303167,5.202335 -6.303167,5.202335 6.303844,3.9014109 v 2.0802575 l 9.301803,5.7897151 -0.04205,-11.1405905 0.0014,-6.95e-4 0.04409,11.1331349 9.2149842,-5.7815784 v -2.024638 l 6.43068305,-3.9875525 -6.34929235,-5.164354 -0.080713,0.05019 v -0.0468 l 0.017641,-0.01084 -9.2780629,-5.742916 -9.260425,5.742916 9.271958,-5.755123 -0.01018,0.0081 9.2984106,5.754446 6.34861165,-5.163673 -9.32418455,-5.781575 -6.3092727,5.179273 z" display="inline"/><path id="path4040-1" fill="#7ed6fb" fill-opacity="1" fill-rule="nonzero" stroke="none" stroke-width=".434" d="m -16.06446,-24.830206 9.2784839,5.743115 -9.2152209,5.781248 -9.323958,-5.781248 z" display="inline"/><path id="path4044-5" fill="url(#linearGradient4201-50)" fill-opacity="1" fill-rule="nonzero" stroke="none" stroke-width=".434" d="m -31.628448,-24.289385 9.278487,-5.743131 6.301316,5.187888 -9.27651,5.757537 z" display="inline"/><path id="path4046-9" fill="url(#linearGradient4625-71)" fill-opacity="1" fill-rule="nonzero" stroke="none" stroke-width=".434" d="m -16.062852,-24.834408 9.2982576,5.754998 6.34877147,-5.164159 -9.32396577,-5.781255 z" display="inline"/><path id="path4050-7" fill="url(#linearGradient999-7)" fill-opacity="1" fill-rule="nonzero" stroke="none" stroke-width=".434" d="m -16.06446,-24.830206 -3.47e-4,9.855546 -9.21522,5.78126 -0.0448,-9.893691 z" display="inline"/><path id="path4052-7" fill="url(#linearGradient1007-6)" fill-opacity="1" fill-rule="nonzero" stroke="none" stroke-width=".434" d="m -16.06446,-24.830206 3.48e-4,9.855546 9.2152133,5.78126 0.044798,-9.893691 z" display="inline"/><path id="path4056-67" fill="url(#linearGradient4609-6)" fill-opacity="1" fill-rule="nonzero" stroke="none" stroke-width=".434" d="m -6.8037669,-19.087091 -3.473e-4,11.1841977 -9.2152168,5.7812624 -0.0448,-11.2223671 z" display="inline"/><path id="path4048-3" fill="url(#linearGradient4617-9)" fill-opacity="1" fill-rule="nonzero" stroke="none" stroke-width=".434" d="m -16.001197,-13.336229 9.2784909,-5.743181 6.34876447,5.164191 -9.32395877,5.7813048 z" display="inline"/><path id="path4054-6" fill="url(#linearGradient4601-0)" fill-opacity="1" fill-rule="nonzero" stroke="none" stroke-width=".434" d="m -25.325155,-19.087091 3.47e-4,11.1841977 9.302209,5.7891629 -0.04219,-11.2302676 z" display="inline"/><path id="path4042-5" fill="url(#linearGradient4593-7)" fill-opacity="1" fill-rule="nonzero" stroke="none" stroke-width=".434" d="m -31.628448,-13.884833 9.278487,5.743192 6.348764,-5.164202 -9.323958,-5.781248 z" display="inline"/></g></g><g id="layer3" display="inline"><g id="layer9" display="none"><rect id="frame_48" width="48" height="48" x="0" y="0" fill="#000" fill-opacity="1" fill-rule="nonzero" stroke="#ff24f7" stroke-dasharray="none" stroke-dashoffset="0" stroke-linecap="square" stroke-linejoin="miter" stroke-miterlimit="4" stroke-opacity=".995" stroke-width="0" marker-end="none" marker-mid="none" marker-start="none" clip-rule="nonzero" color="#000" color-interpolation="sRGB" color-interpolation-filters="linearRGB" color-rendering="auto" display="block" enable-background="accumulate" image-rendering="auto" opacity="1" overflow="visible" paint-order="normal" shape-rendering="auto" text-rendering="auto" vector-effect="none" visibility="visible" style="isolation:auto;mix-blend-mode:normal;solid-color:#000;solid-opacity:1;marker:none"/><text id="txt_48" x="12.301" y="30.795" fill="#fff" fill-opacity="1" stroke="none" stroke-linecap="butt" stroke-linejoin="miter" stroke-opacity="1" stroke-width=".112" display="inline" font-family="sans-serif" font-size="18.667" letter-spacing="0" opacity="1" word-spacing="0" xml:space="preserve" style="line-height:1000%"><tspan id="tspan5049-1" x="12.301" y="30.795" fill="#fff" fill-opacity="1" stroke="none" stroke-width=".112" font-size="18.667">48</tspan></text><text id="txt_scalable_32-64" x="25.824" y="45.962" fill="#fff" fill-opacity=".448" stroke="none" stroke-linecap="butt" stroke-linejoin="miter" stroke-opacity="1" stroke-width=".059" display="inline" font-family="sans-serif" font-size="2.667" letter-spacing="0" opacity="1" word-spacing="0" xml:space="preserve" style="line-height:1000%"><tspan id="tspan5049-1-6" x="25.824" y="45.962" fill="#fff" fill-opacity=".448" stroke="none" stroke-width=".059" font-size="2.667">Scalable:32-64</tspan></text></g><g id="layer10" display="inline"><path id="path974-4" fill="none" fill-opacity="1" fill-rule="nonzero" stroke="#000" stroke-opacity=".209" stroke-width=".651" d="M 14.475666,2.9486243 0.55739818,11.563096 10.01226,19.36669 0.55739818,27.170283 10.013276,33.022467 v 3.120422 l 13.952866,8.684674 -0.06308,-16.711079 0.0021,-0.001 0.06613,16.699895 13.822637,-8.672469 v -3.036992 l 9.646138,-5.981397 -9.52405,-7.746621 -0.121072,0.07529 v -0.0702 l 0.02646,-0.01625 -13.917257,-8.614475 -13.890799,8.614475 13.908099,-8.632785 -0.01526,0.01219 13.947777,8.631769 9.523029,-7.745599 -13.98644,-8.6724606 -9.464019,7.7689966 z" display="inline"/><path id="path4040-92" fill="#7ed6fb" fill-opacity="1" fill-rule="nonzero" stroke="none" stroke-width=".651" d="M 23.90359,10.751949 37.821477,19.366721 23.998486,28.038695 10.012385,19.366721 Z" display="inline"/><path id="path4044-0" fill="url(#linearGradient4201-5)" fill-opacity="1" fill-rule="nonzero" stroke="none" stroke-width=".651" d="M 0.55733567,11.56319 14.475228,2.9483951 23.927313,10.730315 10.012385,19.366721 Z" display="inline"/><path id="path4046-68" fill="url(#linearGradient4625-3)" fill-opacity="1" fill-rule="nonzero" stroke="none" stroke-width=".651" d="M 23.906002,10.745646 37.85355,19.378244 47.376819,11.631915 33.390707,2.9599334 Z" display="inline"/><path id="path4050-9" fill="url(#linearGradient999-5)" fill-opacity="1" fill-rule="nonzero" stroke="none" stroke-width=".651" d="M 23.90359,10.751949 23.903069,25.53544 10.080078,34.20743 10.012888,19.366721 Z" display="inline"/><path id="path4052-2" fill="url(#linearGradient1007-4)" fill-opacity="1" fill-rule="nonzero" stroke="none" stroke-width=".651" d="m 23.90359,10.751949 5.21e-4,14.783491 13.822981,8.67199 0.0672,-14.840709 z" display="inline"/><path id="path4056-6" fill="url(#linearGradient4609-43)" fill-opacity="1" fill-rule="nonzero" stroke="none" stroke-width=".651" d="m 37.794791,19.366721 -5.21e-4,16.776491 -13.822987,8.671995 -0.0672,-16.833745 z" display="inline"/><path id="path4048-6" fill="url(#linearGradient4617-8)" fill-opacity="1" fill-rule="nonzero" stroke="none" stroke-width=".651" d="M 23.998486,27.993115 37.916383,19.378244 47.439641,27.12462 33.45354,35.796677 Z" display="inline"/><path id="path4054-4" fill="url(#linearGradient4601-8)" fill-opacity="1" fill-rule="nonzero" stroke="none" stroke-width=".651" d="m 10.012385,19.366721 5.21e-4,16.776491 13.953476,8.683846 -0.06329,-16.845596 z" display="inline"/><path id="path4042-9" fill="url(#linearGradient4593-1)" fill-opacity="1" fill-rule="nonzero" stroke="none" stroke-width=".651" d="M 0.55733567,27.1702 14.475228,35.785086 23.998486,28.038695 10.012385,19.366721 Z" display="inline"/></g></g><g id="g7907" display="inline"><g id="g7843" display="none"><rect id="rect7837" width="64" height="64" x="48" y="48" fill="#000" fill-opacity="1" fill-rule="nonzero" stroke="#ff24f7" stroke-dasharray="none" stroke-dashoffset="0" stroke-linecap="square" stroke-linejoin="miter" stroke-miterlimit="4" stroke-opacity=".995" stroke-width="0" marker-end="none" marker-mid="none" marker-start="none" clip-rule="nonzero" color="#000" color-interpolation="sRGB" color-interpolation-filters="linearRGB" color-rendering="auto" display="inline" enable-background="accumulate" image-rendering="auto" opacity="1" overflow="visible" paint-order="normal" shape-rendering="auto" text-rendering="auto" vector-effect="none" visibility="visible" style="isolation:auto;mix-blend-mode:normal;solid-color:#000;solid-opacity:1;marker:none"/><text id="text7841" x="69.816" y="85.824" fill="#fff" fill-opacity="1" stroke="none" stroke-linecap="butt" stroke-linejoin="miter" stroke-opacity="1" stroke-width=".033" display="inline" font-family="sans-serif" font-size="16" letter-spacing="0" opacity="1" word-spacing="0" xml:space="preserve" style="line-height:0%"><tspan id="tspan7839" x="69.816" y="85.824" fill="#fff" fill-opacity="1" stroke="none" stroke-width=".033" font-size="16" style="line-height:0%">64</tspan></text></g><g id="g7905" display="inline"><path id="path974-6" fill="none" fill-opacity="1" fill-rule="nonzero" stroke="#000" stroke-opacity=".209" stroke-width=".833" d="m 67.797664,53.068004 -17.812582,11.024795 12.10032,9.98703 -12.10032,9.98703 12.101621,7.489618 v 3.993513 l 17.856862,11.11463 -0.08073,-21.386815 0.0027,-0.0013 0.08463,21.372495 17.690194,-11.099004 v -3.886739 l 12.345111,-7.654985 -12.188863,-9.914116 -0.154948,0.09636 v -0.08985 l 0.03387,-0.0208 -17.811288,-11.024795 -17.777429,11.024795 17.799569,-11.048229 -0.01953,0.0156 17.850349,11.046928 12.18756,-9.912809 -17.899828,-11.099009 -12.11204,9.942756 z" display="inline"/><path id="path4040-3" fill="#7ed6fb" fill-opacity="1" fill-rule="nonzero" stroke="none" stroke-width=".833" d="M 79.863511,63.054694 97.675606,74.079869 79.984959,85.178252 62.085562,74.079869 Z" display="inline"/><path id="path4044-20" fill="url(#linearGradient4201-2)" fill-opacity="1" fill-rule="nonzero" stroke="none" stroke-width=".833" d="M 49.985002,64.092919 67.797104,53.067711 79.893872,63.027007 62.085562,74.079869 Z" display="inline"/><path id="path4046-6" fill="url(#linearGradient4625-7)" fill-opacity="1" fill-rule="nonzero" stroke="none" stroke-width=".833" d="M 79.866598,63.046628 97.716653,74.094616 109.90452,64.180873 92.005112,53.082478 Z" display="inline"/><path id="path4050-1" fill="url(#linearGradient999-1)" fill-opacity="1" fill-rule="nonzero" stroke="none" stroke-width=".833" d="M 79.863511,63.054694 79.862845,81.974589 62.172196,93.072991 62.086202,74.079869 Z" display="inline"/><path id="path4052-5" fill="url(#linearGradient1007-3)" fill-opacity="1" fill-rule="nonzero" stroke="none" stroke-width=".833" d="m 79.863511,63.054694 6.67e-4,18.919895 17.690635,11.098402 0.086,-18.993122 z" display="inline"/><path id="path4056-5" fill="url(#linearGradient4609-4)" fill-opacity="1" fill-rule="nonzero" stroke="none" stroke-width=".833" d="m 97.641453,74.079869 -6.67e-4,21.470534 -17.690641,11.098397 -0.086,-21.543796 z" display="inline"/><path id="path4048-4" fill="url(#linearGradient4617-4)" fill-opacity="1" fill-rule="nonzero" stroke="none" stroke-width=".833" d="M 79.984959,85.119918 97.797067,74.094616 109.98492,84.008419 92.085526,95.106908 Z" display="inline"/><path id="path4054-7" fill="url(#linearGradient4601-3)" fill-opacity="1" fill-rule="nonzero" stroke="none" stroke-width=".833" d="m 62.085562,74.079869 6.67e-4,21.470534 17.857643,11.113567 -0.08099,-21.558966 z" display="inline"/><path id="path4042-6" fill="url(#linearGradient4593-0)" fill-opacity="1" fill-rule="nonzero" stroke="none" stroke-width=".833" d="M 49.985002,84.066753 67.797104,95.092074 79.984959,85.178252 62.085562,74.079869 Z" display="inline"/></g></g><g id="g8840" display="inline"><g id="g8776" display="none"><rect id="rect_96" width="96" height="96" x="112" y="112" fill="#000" fill-opacity="1" fill-rule="nonzero" stroke="#ff24f7" stroke-dasharray="none" stroke-dashoffset="0" stroke-linecap="square" stroke-linejoin="miter" stroke-miterlimit="4" stroke-opacity=".995" stroke-width="0" marker-end="none" marker-mid="none" marker-start="none" clip-rule="nonzero" color="#000" color-interpolation="sRGB" color-interpolation-filters="linearRGB" color-rendering="auto" display="inline" enable-background="accumulate" image-rendering="auto" opacity="1" overflow="visible" paint-order="normal" shape-rendering="auto" text-rendering="auto" vector-effect="none" visibility="visible" style="isolation:auto;mix-blend-mode:normal;solid-color:#000;solid-opacity:1;marker:none"/><text id="text_96" x="144.725" y="168.736" fill="#fff" fill-opacity="1" stroke="none" stroke-linecap="butt" stroke-linejoin="miter" stroke-opacity="1" stroke-width=".049" display="inline" font-family="sans-serif" font-size="24" letter-spacing="0" opacity="1" word-spacing="0" xml:space="preserve" style="line-height:0%"><tspan style="line-height:0%" id="tspan8768" x="144.725" y="168.736" fill="#fff" fill-opacity="1" stroke="none" stroke-width=".049" font-size="24">96</tspan></text></g><g id="g8838" display="inline"><path id="path974" fill="none" fill-opacity="1" fill-rule="nonzero" stroke="#000" stroke-opacity=".209" stroke-width="1.25" d="m 141.70312,119.85156 -26.71874,16.53711 18.15039,14.98047 -18.15039,14.98047 18.15234,11.23437 v 5.99024 l 26.78516,16.67187 -0.1211,-32.08007 0.004,-0.002 0.12695,32.0586 26.53516,-16.64844 v -5.83008 l 18.51758,-11.48242 -18.28321,-14.8711 -0.23242,0.14454 v -0.13477 l 0.0508,-0.0312 -26.7168,-16.53711 -26.66601,16.53711 26.69922,-16.57226 -0.0293,0.0234 26.77539,16.57031 18.28125,-14.86914 -26.84961,-16.64843 -18.16797,14.91406 z"/><path id="path4040" fill="#7ed6fb" fill-opacity="1" fill-rule="nonzero" stroke="none" stroke-width="1.25" d="m 159.8018,134.83152 26.71801,16.53768 -26.53584,16.64749 -26.84896,-16.64749 z"/><path id="path4044" fill="url(#linearGradient4201)" fill-opacity="1" fill-rule="nonzero" stroke="none" stroke-width="1.25" d="m 114.98426,136.38885 26.71802,-16.53773 18.14506,14.93887 -26.71233,16.57921 z"/><path id="path4046" fill="url(#linearGradient4625)" fill-opacity="1" fill-rule="nonzero" stroke="none" stroke-width="1.25" d="m 159.80643,134.81942 26.77495,16.5719 18.28171,-14.87054 -26.84898,-16.64751 z"/><path id="path4050" fill="url(#linearGradient999)" fill-opacity="1" fill-rule="nonzero" stroke="none" stroke-width="1.25" d="m 159.8018,134.83152 -10e-4,28.3797 -26.53584,16.64752 -0.12899,-28.48954 z"/><path id="path4052" fill="url(#linearGradient1007)" fill-opacity="1" fill-rule="nonzero" stroke="none" stroke-width="1.25" d="m 159.8018,134.83152 0.001,28.3797 26.53582,16.64752 0.129,-28.48954 z"/><path id="path4056" fill="url(#linearGradient4609)" fill-opacity="1" fill-rule="nonzero" stroke="none" stroke-width="1.25" d="m 186.46858,151.3692 -0.001,32.20564 -26.53583,16.64753 -0.129,-32.31555 z"/><path id="path4048" fill="url(#linearGradient4617)" fill-opacity="1" fill-rule="nonzero" stroke="none" stroke-width="1.25" d="m 159.98397,167.92919 26.71803,-16.53787 18.28169,14.87063 -26.84896,16.64765 z"/><path id="path4054" fill="url(#linearGradient4601)" fill-opacity="1" fill-rule="nonzero" stroke="none" stroke-width="1.25" d="m 133.13501,151.3692 0.001,32.20564 26.78633,16.67028 -0.12149,-32.3383 z"/><path id="path4042" fill="url(#linearGradient4593)" fill-opacity="1" fill-rule="nonzero" stroke="none" stroke-width="1.25" d="m 114.98426,166.34945 26.71802,16.5379 18.28169,-14.87066 -26.84896,-16.64749 z"/></g></g><g id="layer4" display="inline"><g id="layer11" display="none"><rect id="frame_128" width="128" height="128" x="208" y="208" fill="#000" fill-opacity="1" fill-rule="nonzero" stroke="#ff24f7" stroke-dasharray="none" stroke-dashoffset="0" stroke-linecap="square" stroke-linejoin="miter" stroke-miterlimit="4" stroke-opacity=".995" stroke-width="0" marker-end="none" marker-mid="none" marker-start="none" clip-rule="nonzero" color="#000" color-interpolation="sRGB" color-interpolation-filters="linearRGB" color-rendering="auto" display="inline" enable-background="accumulate" image-rendering="auto" opacity="1" overflow="visible" paint-order="normal" shape-rendering="auto" text-rendering="auto" vector-effect="none" visibility="visible" style="isolation:auto;mix-blend-mode:normal;solid-color:#000;solid-opacity:1;marker:none"/><text id="txt_128" x="236.175" y="283.345" fill="#fff" fill-opacity="1" stroke="none" stroke-linecap="butt" stroke-linejoin="miter" stroke-opacity="1" stroke-width=".079" display="inline" font-family="sans-serif" font-size="38.465" letter-spacing="0" opacity="1" word-spacing="0" xml:space="preserve" style="line-height:0%"><tspan id="tspan5069-6" x="236.175" y="283.345" fill="#fff" fill-opacity="1" stroke="none" stroke-width=".079" font-size="38.465" style="line-height:0%">128</tspan></text><text id="txt_scalable_64_512" x="265.978" y="330.133" fill="#fff" fill-opacity=".422" stroke="none" stroke-linecap="butt" stroke-linejoin="miter" stroke-opacity="1" stroke-width=".164" display="inline" font-family="sans-serif" font-size="7.432" letter-spacing="0" opacity="1" word-spacing="0" xml:space="preserve" style="line-height:1000%"><tspan id="tspan5049-1-6-6" x="265.978" y="330.133" fill="#fff" fill-opacity=".422" stroke="none" stroke-width=".164" font-size="8.09">Scalable:96-512</tspan></text></g><g id="layer12" display="inline"><path id="path974-7" fill="none" fill-opacity="1" fill-rule="nonzero" stroke="#000" stroke-opacity=".209" stroke-width="1.662" d="m 247.66946,218.52692 -35.53592,21.99436 24.14002,19.92402 -24.14002,19.92403 24.14261,14.94171 v 7.96702 l 35.62426,22.17359 -0.16106,-42.66649 0.005,-0.003 0.16884,42.63793 35.29177,-22.14242 V 295.524 l 24.62838,-15.27162 -24.31667,-19.77856 -0.30912,0.19224 v -0.17925 l 0.0676,-0.0415 -35.53334,-21.99436 -35.46579,21.99436 35.50996,-22.04111 -0.039,0.0311 35.61127,22.03852 24.31406,-19.77596 -35.70998,-22.14241 -24.1634,19.8357 z" display="inline"/><path id="path4040-9" fill="#7ed6fb" fill-opacity="1" fill-rule="nonzero" stroke="none" stroke-width="1.662" d="m 271.74071,238.45027 35.53495,21.99511 -35.29267,22.14117 -35.70911,-22.14117 z" display="inline"/><path id="path4044-2" fill="url(#linearGradient4201-3)" fill-opacity="1" fill-rule="nonzero" stroke="none" stroke-width="1.662" d="m 212.13338,240.52152 35.53496,-21.99518 24.13293,19.8687 -35.52739,22.05034 z" display="inline"/><path id="path4046-0" fill="url(#linearGradient4625-5)" fill-opacity="1" fill-rule="nonzero" stroke="none" stroke-width="1.662" d="m 271.74686,238.43418 35.61069,22.04062 24.31467,-19.77781 -35.70914,-22.14119 z" display="inline"/><path id="path4050-2" fill="url(#linearGradient999-6)" fill-opacity="1" fill-rule="nonzero" stroke="none" stroke-width="1.662" d="m 271.74071,238.45027 -10e-4,37.745 -35.29267,22.1412 -0.17156,-37.89109 z" display="inline"/><path id="path4052-3" fill="url(#linearGradient1007-1)" fill-opacity="1" fill-rule="nonzero" stroke="none" stroke-width="1.662" d="m 271.74071,238.45027 0.001,37.745 35.29264,22.1412 0.17157,-37.89109 z" display="inline"/><path id="path4056-7" fill="url(#linearGradient4609-0)" fill-opacity="1" fill-rule="nonzero" stroke="none" stroke-width="1.662" d="m 307.20752,260.44538 -10e-4,42.83351 -35.29265,22.14121 -0.17157,-42.97968 z" display="inline"/><path id="path4048-5" fill="url(#linearGradient4617-6)" fill-opacity="1" fill-rule="nonzero" stroke="none" stroke-width="1.662" d="m 271.98299,282.47017 35.53498,-21.99537 24.31465,19.77794 -35.70912,22.14138 z" display="inline"/><path id="path4054-9" fill="url(#linearGradient4601-2)" fill-opacity="1" fill-rule="nonzero" stroke="none" stroke-width="1.662" d="m 236.27388,260.44538 0.001,42.83351 35.62581,22.17147 -0.16158,-43.00994 z" display="inline"/><path id="path4042-2" fill="url(#linearGradient4593-8)" fill-opacity="1" fill-rule="nonzero" stroke="none" stroke-width="1.662" d="m 212.13338,280.36912 35.53496,21.9954 24.31465,-19.77797 -35.70911,-22.14117 z" display="inline"/></g></g></svg>