<svg xmlns="http://www.w3.org/2000/svg" xmlns:svg="http://www.w3.org/2000/svg" xmlns:xlink="http://www.w3.org/1999/xlink" id="svg2" width="48" height="48" enable-background="new" version="1.1" viewBox="0 0 48 48"><title id="title4675">Template icons dark</title><metadata id="metadata24"/><defs id="defs22"><linearGradient id="linearGradient24388"><stop id="stop24384" offset="0" stop-color="#e9e9e9" stop-opacity="1"/><stop id="stop24386" offset="1" stop-color="#fff" stop-opacity="1"/></linearGradient><linearGradient id="linearGradient24390" x1="168" x2="168" y1="201.741" y2="114.331" gradientUnits="userSpaceOnUse" xlink:href="#linearGradient24388"/><linearGradient id="linearGradient24390-3" x1="168" x2="168" y1="201.741" y2="114.331" gradientTransform="matrix(0.17390774,0,0,0.17390774,-91.825276,-91.825242)" gradientUnits="userSpaceOnUse" xlink:href="#linearGradient24388"/><linearGradient id="linearGradient24390-35" x1="168" x2="168" y1="201.741" y2="114.331" gradientTransform="matrix(0.26087493,0,0,0.26087493,-85.740023,-85.739992)" gradientUnits="userSpaceOnUse" xlink:href="#linearGradient24388"/><linearGradient id="linearGradient24390-1" x1="168" x2="168" y1="201.741" y2="114.331" gradientTransform="matrix(0.34044067,0,0,0.34044067,-70.470159,-70.471989)" gradientUnits="userSpaceOnUse" xlink:href="#linearGradient24388"/><linearGradient id="linearGradient24390-6" x1="168" x2="168" y1="201.741" y2="114.331" gradientTransform="matrix(0.51065451,0,0,0.51065451,-57.704463,-57.703546)" gradientUnits="userSpaceOnUse" xlink:href="#linearGradient24388"/><linearGradient id="linearGradient24390-18" x1="168" x2="168" y1="201.741" y2="114.331" gradientTransform="matrix(0.68086833,0,0,0.68086833,-28.938763,-28.939647)" gradientUnits="userSpaceOnUse" xlink:href="#linearGradient24388"/><linearGradient id="linearGradient24390-37" x1="168" x2="168" y1="201.741" y2="114.331" gradientTransform="matrix(1.2766363,0,0,1.2766363,67.738053,67.738821)" gradientUnits="userSpaceOnUse" xlink:href="#linearGradient24388"/></defs><g id="layer1" display="inline"><g id="layer5" display="none"><rect id="frame_16" width="16" height="16" x="-72" y="-72" fill="#000" fill-opacity="1" fill-rule="nonzero" stroke="#ff24f7" stroke-dasharray="none" stroke-dashoffset="0" stroke-linecap="square" stroke-linejoin="miter" stroke-miterlimit="4" stroke-opacity=".995" stroke-width="0" marker-end="none" marker-mid="none" marker-start="none" clip-rule="nonzero" color="#000" color-interpolation="sRGB" color-interpolation-filters="linearRGB" color-rendering="auto" display="block" enable-background="accumulate" image-rendering="auto" opacity="1" overflow="visible" paint-order="normal" shape-rendering="auto" text-rendering="auto" vector-effect="none" visibility="visible" style="isolation:auto;mix-blend-mode:normal;solid-color:#000;solid-opacity:1;marker:none"/><text id="txt_16" x="-69.279" y="-61.088" fill="#fff" fill-opacity="1" stroke="none" stroke-linecap="butt" stroke-linejoin="miter" stroke-opacity="1" stroke-width=".072" display="inline" font-family="sans-serif" font-size="8" letter-spacing="0" opacity="1" word-spacing="0" xml:space="preserve" style="line-height:1000%"><tspan id="tspan4768-6" x="-69.279" y="-61.088" fill="#fff" fill-opacity="1" stroke="none" stroke-width=".072" font-size="8">16</tspan></text></g><g id="layer6" display="inline"><path id="path24380-5" fill="url(#linearGradient24390-3)" fill-opacity="1" stroke-width=".147" d="m -64.739716,-56.183113 c -1.119322,-0.37184 -1.91254,-0.876879 -2.805211,-1.78607 -0.997973,-1.016435 -1.58558,-2.080039 -1.832971,-3.317777 -0.342229,-1.712231 0.566079,-3.281787 2.481726,-4.288433 2.311759,-1.214792 5.472339,-1.329606 6.637572,-0.241125 0.357166,0.333642 0.436056,0.525475 0.436056,1.06033 0,1.021706 -0.564122,1.6544 -2.769557,3.106235 -2.663919,1.753656 -2.94223,2.183064 -2.015513,3.109782 0.378977,0.378976 0.62368,0.499056 1.016983,0.499056 0.508823,0 0.967369,-0.293354 0.991476,-0.634306 0.07063,-0.99902 0.220915,-1.183689 1.167711,-1.434926 0.7946,-0.210857 1.697076,-0.07591 1.888865,0.282447 0.219108,0.409411 -0.306408,1.723834 -0.958459,2.397299 -1.216372,1.256318 -2.804822,1.723817 -4.238678,1.247488 z m -5.143371,-9.687471 c -0.801426,-0.801424 -0.863784,-1.848929 -0.129976,-2.183274 0.32318,-0.147249 0.417909,-0.120149 0.75369,0.215632 0.637459,0.637462 0.644998,2.458048 0.01017,2.458048 -0.07891,0 -0.364168,-0.220682 -0.633892,-0.490406 z m 2.236091,-1.533209 c -0.296431,-0.327553 -0.688862,-1.251236 -0.688862,-1.621408 0,-0.470507 0.563878,-1.051978 1.02015,-1.051978 0.547953,0 0.771206,0.303904 0.853661,1.162008 0.09426,0.981041 -0.180471,1.773619 -0.614803,1.773619 -0.18305,0 -0.439612,-0.118007 -0.570146,-0.262241 z m 6.177511,-0.04064 c -0.696137,-0.405736 -0.597549,-2.271178 0.176509,-3.339732 1.086113,-1.499338 3.818931,-1.656796 3.818931,-0.220035 0,0.973972 -1.407267,2.860087 -2.544867,3.410785 -0.691539,0.334769 -1.065849,0.373218 -1.450573,0.148982 z m -3.492133,-0.908058 c -0.822414,-1.348294 -0.318276,-3.045712 0.904589,-3.045712 0.575764,0 0.858515,0.358806 0.858515,1.089445 0,1.130303 -0.635299,2.433308 -1.1864,2.433308 -0.164818,0 -0.408859,-0.20187 -0.576704,-0.477041 z" display="inline"/></g></g><g id="layer2" display="inline"><g id="layer7" display="none"><rect id="frame_24" width="24" height="24" x="-56" y="-56" fill="#000" fill-opacity=".995" fill-rule="nonzero" stroke="#ff24f7" stroke-dasharray="none" stroke-dashoffset="0" stroke-linecap="square" stroke-linejoin="miter" stroke-miterlimit="4" stroke-opacity=".995" stroke-width="0" marker-end="none" marker-mid="none" marker-start="none" clip-rule="nonzero" color="#000" color-interpolation="sRGB" color-interpolation-filters="linearRGB" color-rendering="auto" display="block" enable-background="accumulate" image-rendering="auto" opacity="1" overflow="visible" paint-order="normal" shape-rendering="auto" text-rendering="auto" vector-effect="none" visibility="visible" style="isolation:auto;mix-blend-mode:normal;solid-color:#000;solid-opacity:1;marker:none"/><text id="txt_24" x="-50.88" y="-40.042" fill="#fff" fill-opacity="1" stroke="none" stroke-linecap="butt" stroke-linejoin="miter" stroke-opacity="1" stroke-width=".112" display="inline" font-family="sans-serif" font-size="10.667" letter-spacing="0" opacity="1" word-spacing="0" xml:space="preserve" style="line-height:1000%"><tspan id="tspan4835-2-5" x="-50.88" y="-40.042" fill="#fff" fill-opacity="1" stroke="none" stroke-width=".112" font-size="10.667">24</tspan></text></g><g id="layer8" display="inline"><path id="path24380-9" fill="url(#linearGradient24390-35)" fill-opacity="1" stroke-width=".22" d="m -45.109608,-32.274068 c -1.679069,-0.55779 -2.868956,-1.315386 -4.208032,-2.679243 -1.497036,-1.524731 -2.378491,-3.120218 -2.749596,-4.97692 -0.51337,-2.568478 0.849161,-4.922932 3.722779,-6.432977 3.467816,-1.822282 8.208928,-1.994512 9.956866,-0.361706 0.535777,0.500489 0.654118,0.788252 0.654118,1.590575 0,1.532638 -0.846226,2.481727 -4.154548,4.659592 -3.996082,2.630618 -4.413571,3.274763 -3.023423,4.66491 0.568493,0.568494 0.935568,0.748623 1.525552,0.748623 0.763273,0 1.451127,-0.440055 1.48729,-0.951508 0.105957,-1.498606 0.331389,-1.775624 1.751655,-2.1525 1.191961,-0.3163 2.545745,-0.113866 2.833443,0.423693 0.328679,0.614149 -0.459635,2.585883 -1.437762,3.596132 -1.824651,1.884573 -4.207449,2.585857 -6.358342,1.871329 z m -7.715451,-14.531949 c -1.202201,-1.202198 -1.295742,-2.773537 -0.194973,-3.275079 0.484794,-0.220885 0.626896,-0.180233 1.130593,0.323464 0.956237,0.956242 0.967546,3.687261 0.01526,3.687261 -0.118377,0 -0.54628,-0.33104 -0.950886,-0.735646 z m 3.354309,-2.299931 c -0.444669,-0.491356 -1.033347,-1.876951 -1.033347,-2.432236 0,-0.705797 0.845861,-1.578048 1.530303,-1.578048 0.821973,0 1.156868,0.455879 1.280557,1.743101 0.141404,1.471637 -0.270721,2.660564 -0.92225,2.660564 -0.27459,0 -0.659453,-0.177019 -0.855263,-0.393381 z m 9.266739,-0.06096 c -1.044259,-0.608635 -0.896369,-3.406941 0.264778,-5.009853 1.629252,-2.249123 5.728688,-2.485322 5.728688,-0.330069 0,1.461032 -2.111008,4.290349 -3.817495,5.116438 -1.037362,0.502179 -1.598856,0.559856 -2.175971,0.223484 z m -5.238468,-1.362156 c -1.233683,-2.022545 -0.477437,-4.568802 1.356954,-4.568802 0.863689,0 1.287838,0.538237 1.287838,1.634251 0,1.695541 -0.952997,3.650149 -1.779691,3.650149 -0.247239,0 -0.61332,-0.302821 -0.865101,-0.715598 z" display="inline"/></g></g><g id="g7816" display="inline"><g id="g7802" display="none"><rect id="rect7792" width="32" height="32" x="-32" y="-32" fill="#000" fill-opacity="1" fill-rule="nonzero" stroke="#ff24f7" stroke-dasharray="none" stroke-dashoffset="0" stroke-linecap="square" stroke-linejoin="miter" stroke-miterlimit="4" stroke-opacity=".995" stroke-width="0" marker-end="none" marker-mid="none" marker-start="none" clip-rule="nonzero" color="#000" color-interpolation="sRGB" color-interpolation-filters="linearRGB" color-rendering="auto" display="block" enable-background="accumulate" image-rendering="auto" opacity="1" overflow="visible" paint-order="normal" shape-rendering="auto" text-rendering="auto" vector-effect="none" visibility="visible" style="isolation:auto;mix-blend-mode:normal;solid-color:#000;solid-opacity:1;marker:none"/><text id="text7796" x="-23.799" y="-11.47" fill="#fff" fill-opacity="1" stroke="none" stroke-linecap="butt" stroke-linejoin="miter" stroke-opacity="1" stroke-width=".074" display="inline" font-family="sans-serif" font-size="12.444" letter-spacing="0" opacity="1" word-spacing="0" xml:space="preserve" style="line-height:1000%"><tspan id="tspan7794" x="-23.799" y="-11.47" fill="#fff" fill-opacity="1" stroke="none" stroke-width=".074" font-size="12.444">32</tspan></text></g><g id="g7814" display="inline"><path id="path24382-0" fill="none" fill-opacity="1" stroke="#000" stroke-dasharray="none" stroke-miterlimit="4" stroke-opacity=".176" stroke-width=".681" d="m -17.447642,-0.69918729 c -2.191178,-0.72791321 -3.743976,-1.71657331 -5.491465,-3.49640051 -1.953625,-1.9897668 -3.10392,-4.0718713 -3.58821,-6.4948592 -0.669946,-3.351853 1.108151,-6.424405 4.858211,-8.395008 4.525484,-2.37807 10.712616,-2.602829 12.9936668,-0.472024 0.6991868,0.653135 0.8536209,1.028665 0.8536209,2.075694 0,2.000085 -1.1043215,3.238642 -5.4216677,6.080747 -5.21487,3.4329454 -5.759691,4.2735513 -3.945554,6.0876881 0.741882,0.7418815 1.220912,0.976949 1.990839,0.976949 0.996068,0 1.893715,-0.5742689 1.940907,-1.2417131 0.138273,-1.955675 0.432462,-2.3171821 2.285902,-2.8090031 1.5555045,-0.4127707 3.3221873,-0.1485956 3.6976321,0.5529165 0.4289246,0.801462 -0.5998224,3.374567 -1.8762741,4.6929371 -2.381161,2.45936038 -5.490702,3.37453298 -8.297608,2.44207621 z M -27.516273,-19.663319 c -1.568867,-1.568863 -1.690939,-3.619453 -0.254439,-4.273963 0.632655,-0.288255 0.818096,-0.235204 1.475419,0.422119 1.247885,1.247892 1.262643,4.81186 0.01992,4.81186 -0.154482,0 -0.712893,-0.432006 -1.240903,-0.960016 z m 4.377358,-3.0014 c -0.580291,-0.641216 -1.348512,-2.449412 -1.348512,-3.174057 0,-0.921063 1.103845,-2.059346 1.997038,-2.059346 1.072671,0 1.509708,0.59492 1.671121,2.274739 0.184533,1.92048 -0.353288,3.472025 -1.203532,3.472025 -0.358338,0 -0.860583,-0.231009 -1.116115,-0.513361 z m 12.093055,-0.07955 c -1.362753,-0.794265 -1.169757,-4.446043 0.345534,-6.537836 2.1261679,-2.935096 7.4759138,-3.243334 7.4759138,-0.430739 0,1.906641 -2.7548561,5.598887 -4.9818147,6.67693 -1.3537521,0.655341 -2.0864991,0.730609 -2.8396331,0.291645 z m -6.836177,-1.777607 c -1.609951,-2.639413 -0.623055,-5.962267 1.770819,-5.962267 1.12711,0 1.680622,0.702397 1.680622,2.13269 0,2.212674 -1.243656,4.763429 -2.322489,4.763429 -0.322646,0 -0.80038,-0.39518 -1.128952,-0.933852 z" display="inline"/><path id="path24380-93" fill="url(#linearGradient24390-1)" fill-opacity="1" stroke-width=".287" d="m -17.447642,-0.69918729 c -2.191178,-0.72791321 -3.743976,-1.71657331 -5.491465,-3.49640051 -1.953625,-1.9897668 -3.10392,-4.0718713 -3.58821,-6.4948592 -0.669946,-3.351853 1.108151,-6.424405 4.858211,-8.395008 4.525484,-2.37807 10.712616,-2.602829 12.9936668,-0.472024 0.6991868,0.653135 0.8536209,1.028665 0.8536209,2.075694 0,2.000085 -1.1043215,3.238642 -5.4216677,6.080747 -5.21487,3.4329454 -5.759691,4.2735513 -3.945554,6.0876881 0.741882,0.7418815 1.220912,0.976949 1.990839,0.976949 0.996068,0 1.893715,-0.5742689 1.940907,-1.2417131 0.138273,-1.955675 0.432462,-2.3171821 2.285902,-2.8090031 1.5555045,-0.4127707 3.3221873,-0.1485956 3.6976321,0.5529165 0.4289246,0.801462 -0.5998224,3.374567 -1.8762741,4.6929371 -2.381161,2.45936038 -5.490702,3.37453298 -8.297608,2.44207621 z M -27.516273,-19.663319 c -1.568867,-1.568863 -1.690939,-3.619453 -0.254439,-4.273963 0.632655,-0.288255 0.818096,-0.235204 1.475419,0.422119 1.247885,1.247892 1.262643,4.81186 0.01992,4.81186 -0.154482,0 -0.712893,-0.432006 -1.240903,-0.960016 z m 4.377358,-3.0014 c -0.580291,-0.641216 -1.348512,-2.449412 -1.348512,-3.174057 0,-0.921063 1.103845,-2.059346 1.997038,-2.059346 1.072671,0 1.509708,0.59492 1.671121,2.274739 0.184533,1.92048 -0.353288,3.472025 -1.203532,3.472025 -0.358338,0 -0.860583,-0.231009 -1.116115,-0.513361 z m 12.093055,-0.07955 c -1.362753,-0.794265 -1.169757,-4.446043 0.345534,-6.537836 2.1261679,-2.935096 7.4759138,-3.243334 7.4759138,-0.430739 0,1.906641 -2.7548561,5.598887 -4.9818147,6.67693 -1.3537521,0.655341 -2.0864991,0.730609 -2.8396331,0.291645 z m -6.836177,-1.777607 c -1.609951,-2.639413 -0.623055,-5.962267 1.770819,-5.962267 1.12711,0 1.680622,0.702397 1.680622,2.13269 0,2.212674 -1.243656,4.763429 -2.322489,4.763429 -0.322646,0 -0.80038,-0.39518 -1.128952,-0.933852 z" display="inline"/></g></g><g id="layer3" display="inline"><g id="layer9" display="none"><rect id="frame_48" width="48" height="48" x="0" y="0" fill="#000" fill-opacity="1" fill-rule="nonzero" stroke="#ff24f7" stroke-dasharray="none" stroke-dashoffset="0" stroke-linecap="square" stroke-linejoin="miter" stroke-miterlimit="4" stroke-opacity=".995" stroke-width="0" marker-end="none" marker-mid="none" marker-start="none" clip-rule="nonzero" color="#000" color-interpolation="sRGB" color-interpolation-filters="linearRGB" color-rendering="auto" display="block" enable-background="accumulate" image-rendering="auto" opacity="1" overflow="visible" paint-order="normal" shape-rendering="auto" text-rendering="auto" vector-effect="none" visibility="visible" style="isolation:auto;mix-blend-mode:normal;solid-color:#000;solid-opacity:1;marker:none"/><text id="txt_48" x="12.301" y="30.795" fill="#fff" fill-opacity="1" stroke="none" stroke-linecap="butt" stroke-linejoin="miter" stroke-opacity="1" stroke-width=".112" display="inline" font-family="sans-serif" font-size="18.667" letter-spacing="0" opacity="1" word-spacing="0" xml:space="preserve" style="line-height:1000%"><tspan id="tspan5049-1" x="12.301" y="30.795" fill="#fff" fill-opacity="1" stroke="none" stroke-width=".112" font-size="18.667">48</tspan></text><text id="txt_scalable_32-64" x="25.824" y="45.962" fill="#fff" fill-opacity=".448" stroke="none" stroke-linecap="butt" stroke-linejoin="miter" stroke-opacity="1" stroke-width=".059" display="inline" font-family="sans-serif" font-size="2.667" letter-spacing="0" opacity="1" word-spacing="0" xml:space="preserve" style="line-height:1000%"><tspan id="tspan5049-1-6" x="25.824" y="45.962" fill="#fff" fill-opacity=".448" stroke="none" stroke-width=".059" font-size="2.667">Scalable:32-64</tspan></text></g><g id="layer10" display="inline"><path id="path24382-2" fill="none" fill-opacity="1" stroke="#000" stroke-dasharray="none" stroke-miterlimit="4" stroke-opacity=".176" stroke-width="1.021" d="M 21.8283,46.954324 C 18.541575,45.862468 16.212408,44.379497 13.591208,41.70979 10.660807,38.725178 8.9353874,35.602061 8.2089609,31.967625 7.2040541,26.93991 9.8711668,22.331141 15.496185,19.375273 c 6.78814,-3.567059 16.068719,-3.904193 19.490252,-0.708027 1.048767,0.97969 1.280415,1.542978 1.280415,3.113501 0,3.00009 -1.656461,4.857902 -8.132397,9.121005 -7.822206,5.149353 -8.639427,6.410246 -5.918256,9.131416 1.112808,1.112808 1.831345,1.465405 2.98622,1.465405 1.494084,0 2.840537,-0.861392 2.911324,-1.862546 0.207407,-2.933475 0.648684,-3.475729 3.42881,-4.213451 2.333226,-0.619148 4.983217,-0.22289 5.546377,0.829364 0.643378,1.202178 -0.899723,5.061786 -2.814376,7.039316 -3.571696,3.688994 -8.235948,5.061736 -12.446254,3.663068 z M 6.7255453,18.508488 c -2.3532697,-2.353264 -2.5363751,-5.42911 -0.381653,-6.410864 0.9489698,-0.432376 1.2271284,-0.352801 2.2131001,0.633171 1.8718036,1.871814 1.8939406,7.217698 0.029873,7.217698 -0.2317197,0 -1.0693259,-0.648 -1.8613306,-1.440005 z M 13.2915,14.006446 c -0.870426,-0.961813 -2.022743,-3.674073 -2.022743,-4.7610259 0,-1.3815757 1.655746,-3.0889797 2.995519,-3.0889797 1.608986,0 2.264534,0.8923687 2.50665,3.4120657 0.276795,2.8806839 -0.529926,5.2079709 -1.805276,5.2079709 -0.537499,0 -1.290858,-0.34651 -1.67415,-0.770031 z m 18.139352,-0.11933 c -2.044104,-1.191382 -1.754614,-6.668979 0.518294,-9.8066292 3.189211,-4.40258739 11.213728,-4.86493909 11.213728,-0.6461005 0,2.8599257 -4.132232,8.3982237 -7.472627,10.0152677 -2.030602,0.982999 -3.12971,1.0959 -4.259395,0.437462 z M 21.176715,11.220739 C 18.76182,7.2616703 20.242146,2.2774525 23.83291,2.2774525 c 1.690645,0 2.520903,1.0535824 2.520903,3.1989952 0,3.3189684 -1.865462,7.1450523 -3.483691,7.1450523 -0.483962,0 -1.200553,-0.592763 -1.693407,-1.400761 z" display="inline"/><path id="path24380-6" fill="url(#linearGradient24390-6)" fill-opacity="1" stroke-width=".431" d="M 21.8283,46.954324 C 18.541575,45.862468 16.212408,44.379497 13.591208,41.70979 10.660807,38.725178 8.9353874,35.602061 8.2089609,31.967625 7.2040541,26.93991 9.8711668,22.331141 15.496185,19.375273 c 6.78814,-3.567059 16.068719,-3.904193 19.490252,-0.708027 1.048767,0.97969 1.280415,1.542978 1.280415,3.113501 0,3.00009 -1.656461,4.857902 -8.132397,9.121005 -7.822206,5.149353 -8.639427,6.410246 -5.918256,9.131416 1.112808,1.112808 1.831345,1.465405 2.98622,1.465405 1.494084,0 2.840537,-0.861392 2.911324,-1.862546 0.207407,-2.933475 0.648684,-3.475729 3.42881,-4.213451 2.333226,-0.619148 4.983217,-0.22289 5.546377,0.829364 0.643378,1.202178 -0.899723,5.061786 -2.814376,7.039316 -3.571696,3.688994 -8.235948,5.061736 -12.446254,3.663068 z M 6.7255453,18.508488 c -2.3532697,-2.353264 -2.5363751,-5.42911 -0.381653,-6.410864 0.9489698,-0.432376 1.2271284,-0.352801 2.2131001,0.633171 1.8718036,1.871814 1.8939406,7.217698 0.029873,7.217698 -0.2317197,0 -1.0693259,-0.648 -1.8613306,-1.440005 z M 13.2915,14.006446 c -0.870426,-0.961813 -2.022743,-3.674073 -2.022743,-4.7610259 0,-1.3815757 1.655746,-3.0889797 2.995519,-3.0889797 1.608986,0 2.264534,0.8923687 2.50665,3.4120657 0.276795,2.8806839 -0.529926,5.2079709 -1.805276,5.2079709 -0.537499,0 -1.290858,-0.34651 -1.67415,-0.770031 z m 18.139352,-0.11933 c -2.044104,-1.191382 -1.754614,-6.668979 0.518294,-9.8066292 3.189211,-4.40258739 11.213728,-4.86493909 11.213728,-0.6461005 0,2.8599257 -4.132232,8.3982237 -7.472627,10.0152677 -2.030602,0.982999 -3.12971,1.0959 -4.259395,0.437462 z M 21.176715,11.220739 C 18.76182,7.2616703 20.242146,2.2774525 23.83291,2.2774525 c 1.690645,0 2.520903,1.0535824 2.520903,3.1989952 0,3.3189684 -1.865462,7.1450523 -3.483691,7.1450523 -0.483962,0 -1.200553,-0.592763 -1.693407,-1.400761 z" display="inline"/></g></g><g id="g7907" display="inline"><g id="g7843" display="none"><rect id="rect7837" width="64" height="64" x="48" y="48" fill="#000" fill-opacity="1" fill-rule="nonzero" stroke="#ff24f7" stroke-dasharray="none" stroke-dashoffset="0" stroke-linecap="square" stroke-linejoin="miter" stroke-miterlimit="4" stroke-opacity=".995" stroke-width="0" marker-end="none" marker-mid="none" marker-start="none" clip-rule="nonzero" color="#000" color-interpolation="sRGB" color-interpolation-filters="linearRGB" color-rendering="auto" display="inline" enable-background="accumulate" image-rendering="auto" opacity="1" overflow="visible" paint-order="normal" shape-rendering="auto" text-rendering="auto" vector-effect="none" visibility="visible" style="isolation:auto;mix-blend-mode:normal;solid-color:#000;solid-opacity:1;marker:none"/><text id="text7841" x="69.816" y="85.824" fill="#fff" fill-opacity="1" stroke="none" stroke-linecap="butt" stroke-linejoin="miter" stroke-opacity="1" stroke-width=".033" display="inline" font-family="sans-serif" font-size="16" letter-spacing="0" opacity="1" word-spacing="0" xml:space="preserve" style="line-height:0%"><tspan id="tspan7839" x="69.816" y="85.824" fill="#fff" fill-opacity="1" stroke="none" stroke-width=".033" font-size="16" style="line-height:0%">64</tspan></text></g><g id="g7905" display="inline"><path id="path24382-20" fill="none" fill-opacity="1" stroke="#000" stroke-dasharray="none" stroke-miterlimit="4" stroke-opacity=".176" stroke-width="1.362" d="m 77.104243,110.60329 c -4.382272,-1.4558 -7.487808,-3.43308 -10.982719,-6.99267 -3.907176,-3.979458 -6.207722,-8.143588 -7.176284,-12.989471 -1.339867,-6.703577 2.21626,-12.848564 9.716236,-16.789695 9.050796,-4.756049 21.424823,-5.205559 25.98684,-0.944031 1.398347,1.306246 1.707209,2.057291 1.707209,4.151309 0,4.000094 -2.208601,6.477161 -10.84313,12.161261 -10.429541,6.865761 -11.519162,8.54694 -7.890957,12.175147 1.483734,1.48373 2.441777,1.95386 3.981602,1.95386 1.992098,0 3.787357,-1.14852 3.881739,-2.48338 0.276542,-3.911276 0.864907,-4.634276 4.571718,-5.617899 3.110949,-0.825526 6.644249,-0.297186 7.395124,1.105811 0.857833,1.602894 -1.199622,6.749008 -3.752476,9.385698 -4.762234,4.91862 -10.981197,6.74893 -16.594902,4.88406 z M 56.967365,72.675748 c -3.137673,-3.137666 -3.381811,-7.238767 -0.508867,-8.547764 1.265285,-0.576498 1.63616,-0.470398 2.950781,0.844222 2.495723,2.495737 2.525239,9.623536 0.03983,9.623536 -0.308958,0 -1.425759,-0.863995 -2.481758,-1.919994 z m 8.754551,-6.002685 c -1.160561,-1.282409 -2.696974,-4.898732 -2.696974,-6.347994 0,-1.842089 2.207647,-4.118614 3.994001,-4.118614 2.1453,0 3.019358,1.189818 3.342178,4.549392 0.369058,3.840888 -0.706564,6.943918 -2.407019,6.943918 -0.716662,0 -1.721133,-0.46201 -2.232186,-1.026702 z m 24.185648,-0.159105 c -2.725455,-1.5885 -2.339471,-8.891916 0.691054,-13.075423 4.252256,-5.870079 14.951542,-6.486544 14.951542,-0.861462 0,3.81321 -5.50961,11.197561 -9.963437,13.353605 -2.707455,1.310658 -4.172922,1.461191 -5.679159,0.58328 z M 76.235469,62.95881 c -3.21984,-5.278724 -1.246084,-11.924305 3.541571,-11.924305 2.254178,0 3.361181,1.404767 3.361181,4.265299 0,4.425263 -2.487266,9.526676 -4.64489,9.526676 -0.64528,0 -1.600729,-0.790345 -2.257862,-1.86767 z" display="inline"/><path id="path24380-2" fill="url(#linearGradient24390-18)" fill-opacity="1" stroke-width=".575" d="m 77.104243,110.60329 c -4.382272,-1.4558 -7.487808,-3.43308 -10.982719,-6.99267 -3.907176,-3.979458 -6.207722,-8.143588 -7.176284,-12.989471 -1.339867,-6.703577 2.21626,-12.848564 9.716236,-16.789695 9.050796,-4.756049 21.424823,-5.205559 25.98684,-0.944031 1.398347,1.306246 1.707209,2.057291 1.707209,4.151309 0,4.000094 -2.208601,6.477161 -10.84313,12.161261 -10.429541,6.865761 -11.519162,8.54694 -7.890957,12.175147 1.483734,1.48373 2.441777,1.95386 3.981602,1.95386 1.992098,0 3.787357,-1.14852 3.881739,-2.48338 0.276542,-3.911276 0.864907,-4.634276 4.571718,-5.617899 3.110949,-0.825526 6.644249,-0.297186 7.395124,1.105811 0.857833,1.602894 -1.199622,6.749008 -3.752476,9.385698 -4.762234,4.91862 -10.981197,6.74893 -16.594902,4.88406 z M 56.967365,72.675748 c -3.137673,-3.137666 -3.381811,-7.238767 -0.508867,-8.547764 1.265285,-0.576498 1.63616,-0.470398 2.950781,0.844222 2.495723,2.495737 2.525239,9.623536 0.03983,9.623536 -0.308958,0 -1.425759,-0.863995 -2.481758,-1.919994 z m 8.754551,-6.002685 c -1.160561,-1.282409 -2.696974,-4.898732 -2.696974,-6.347994 0,-1.842089 2.207647,-4.118614 3.994001,-4.118614 2.1453,0 3.019358,1.189818 3.342178,4.549392 0.369058,3.840888 -0.706564,6.943918 -2.407019,6.943918 -0.716662,0 -1.721133,-0.46201 -2.232186,-1.026702 z m 24.185648,-0.159105 c -2.725455,-1.5885 -2.339471,-8.891916 0.691054,-13.075423 4.252256,-5.870079 14.951542,-6.486544 14.951542,-0.861462 0,3.81321 -5.50961,11.197561 -9.963437,13.353605 -2.707455,1.310658 -4.172922,1.461191 -5.679159,0.58328 z M 76.235469,62.95881 c -3.21984,-5.278724 -1.246084,-11.924305 3.541571,-11.924305 2.254178,0 3.361181,1.404767 3.361181,4.265299 0,4.425263 -2.487266,9.526676 -4.64489,9.526676 -0.64528,0 -1.600729,-0.790345 -2.257862,-1.86767 z" display="inline"/></g></g><g id="g8840" display="inline"><g id="g8776" display="none"><rect id="rect_96" width="96" height="96" x="112" y="112" fill="#000" fill-opacity="1" fill-rule="nonzero" stroke="#ff24f7" stroke-dasharray="none" stroke-dashoffset="0" stroke-linecap="square" stroke-linejoin="miter" stroke-miterlimit="4" stroke-opacity=".995" stroke-width="0" marker-end="none" marker-mid="none" marker-start="none" clip-rule="nonzero" color="#000" color-interpolation="sRGB" color-interpolation-filters="linearRGB" color-rendering="auto" display="inline" enable-background="accumulate" image-rendering="auto" opacity="1" overflow="visible" paint-order="normal" shape-rendering="auto" text-rendering="auto" vector-effect="none" visibility="visible" style="isolation:auto;mix-blend-mode:normal;solid-color:#000;solid-opacity:1;marker:none"/><text id="text_96" x="144.725" y="168.736" fill="#fff" fill-opacity="1" stroke="none" stroke-linecap="butt" stroke-linejoin="miter" stroke-opacity="1" stroke-width=".049" display="inline" font-family="sans-serif" font-size="24" letter-spacing="0" opacity="1" word-spacing="0" xml:space="preserve" style="line-height:0%"><tspan style="line-height:0%" id="tspan8768" x="144.725" y="168.736" fill="#fff" fill-opacity="1" stroke="none" stroke-width=".049" font-size="24">96</tspan></text></g><g id="g8838" display="inline"><path id="path24382" fill="none" fill-opacity="1" stroke="#000" stroke-dasharray="none" stroke-miterlimit="4" stroke-opacity=".176" stroke-width="2" d="m 155.74672,204.94849 c -6.4363,-2.13815 -10.99744,-5.04221 -16.13046,-10.27022 -5.73852,-5.84468 -9.11736,-11.96059 -10.5399,-19.0778 -1.96788,-9.84563 3.25505,-18.87085 14.27036,-24.65924 13.29302,-6.98527 31.46691,-7.64547 38.1672,-1.38651 2.05377,1.9185 2.5074,3.02157 2.5074,6.09708 0,5.87499 -3.2438,9.51309 -15.92544,17.8614 -15.318,10.08383 -16.91834,12.553 -11.58955,17.88179 2.17918,2.17918 3.58627,2.86966 5.84783,2.86966 2.92582,0 5.56254,-1.68684 5.70116,-3.64737 0.40616,-5.74454 1.2703,-6.80642 6.71454,-8.25108 4.56909,-1.21246 9.75849,-0.43648 10.86131,1.62412 1.25991,2.35419 -1.7619,9.91235 -5.51131,13.78489 -6.99435,7.22405 -16.12822,9.91225 -24.37314,7.17328 z m -29.57529,-55.70466 c -4.60834,-4.60833 -4.96691,-10.63167 -0.74738,-12.55421 1.85834,-0.84671 2.40305,-0.69088 4.33385,1.23992 3.6655,3.66552 3.70885,14.13421 0.0585,14.13421 -0.45377,0 -2.09403,-1.26896 -3.64499,-2.81992 z m 12.85792,-8.81622 c -1.70453,-1.88349 -3.96108,-7.19483 -3.96108,-9.32338 0,-2.7055 3.2424,-6.04906 5.86604,-6.04906 3.15083,0 4.43457,1.7475 4.9087,6.68175 0.54204,5.64116 -1.03774,10.19862 -3.53522,10.19862 -1.05257,0 -2.52785,-0.67856 -3.27844,-1.50793 z m 35.52177,-0.23368 c -4.00291,-2.33305 -3.43601,-13.05967 1.01496,-19.20404 6.24534,-8.62146 21.95952,-9.52687 21.95952,-1.26524 0,5.60051 -8.09203,16.446 -14.63343,19.61261 -3.97647,1.92498 -6.12882,2.14607 -8.34105,0.85667 z m -20.08038,-5.22149 c -4.72902,-7.75293 -1.83014,-17.51338 5.20155,-17.51338 3.31074,0 4.93661,2.0632 4.93661,6.2645 0,6.49944 -3.65308,13.99195 -6.82201,13.99195 -0.94773,0 -2.35101,-1.16079 -3.31615,-2.74307 z"/><path id="path24380" fill="url(#linearGradient24390)" fill-opacity="1" stroke-width=".844" d="m 155.74672,204.94849 c -6.4363,-2.13815 -10.99744,-5.04221 -16.13046,-10.27022 -5.73852,-5.84468 -9.11736,-11.96059 -10.5399,-19.0778 -1.96788,-9.84563 3.25505,-18.87085 14.27036,-24.65924 13.29302,-6.98527 31.46691,-7.64547 38.1672,-1.38651 2.05377,1.9185 2.5074,3.02157 2.5074,6.09708 0,5.87499 -3.2438,9.51309 -15.92544,17.8614 -15.318,10.08383 -16.91834,12.553 -11.58955,17.88179 2.17918,2.17918 3.58627,2.86966 5.84783,2.86966 2.92582,0 5.56254,-1.68684 5.70116,-3.64737 0.40616,-5.74454 1.2703,-6.80642 6.71454,-8.25108 4.56909,-1.21246 9.75849,-0.43648 10.86131,1.62412 1.25991,2.35419 -1.7619,9.91235 -5.51131,13.78489 -6.99435,7.22405 -16.12822,9.91225 -24.37314,7.17328 z m -29.57529,-55.70466 c -4.60834,-4.60833 -4.96691,-10.63167 -0.74738,-12.55421 1.85834,-0.84671 2.40305,-0.69088 4.33385,1.23992 3.6655,3.66552 3.70885,14.13421 0.0585,14.13421 -0.45377,0 -2.09403,-1.26896 -3.64499,-2.81992 z m 12.85792,-8.81622 c -1.70453,-1.88349 -3.96108,-7.19483 -3.96108,-9.32338 0,-2.7055 3.2424,-6.04906 5.86604,-6.04906 3.15083,0 4.43457,1.7475 4.9087,6.68175 0.54204,5.64116 -1.03774,10.19862 -3.53522,10.19862 -1.05257,0 -2.52785,-0.67856 -3.27844,-1.50793 z m 35.52177,-0.23368 c -4.00291,-2.33305 -3.43601,-13.05967 1.01496,-19.20404 6.24534,-8.62146 21.95952,-9.52687 21.95952,-1.26524 0,5.60051 -8.09203,16.446 -14.63343,19.61261 -3.97647,1.92498 -6.12882,2.14607 -8.34105,0.85667 z m -20.08038,-5.22149 c -4.72902,-7.75293 -1.83014,-17.51338 5.20155,-17.51338 3.31074,0 4.93661,2.0632 4.93661,6.2645 0,6.49944 -3.65308,13.99195 -6.82201,13.99195 -0.94773,0 -2.35101,-1.16079 -3.31615,-2.74307 z"/></g></g><g id="layer4" display="inline"><g id="layer11" display="none"><rect id="frame_128" width="128" height="128" x="208" y="208" fill="#000" fill-opacity="1" fill-rule="nonzero" stroke="#ff24f7" stroke-dasharray="none" stroke-dashoffset="0" stroke-linecap="square" stroke-linejoin="miter" stroke-miterlimit="4" stroke-opacity=".995" stroke-width="0" marker-end="none" marker-mid="none" marker-start="none" clip-rule="nonzero" color="#000" color-interpolation="sRGB" color-interpolation-filters="linearRGB" color-rendering="auto" display="inline" enable-background="accumulate" image-rendering="auto" opacity="1" overflow="visible" paint-order="normal" shape-rendering="auto" text-rendering="auto" vector-effect="none" visibility="visible" style="isolation:auto;mix-blend-mode:normal;solid-color:#000;solid-opacity:1;marker:none"/><text id="txt_128" x="236.175" y="283.345" fill="#fff" fill-opacity="1" stroke="none" stroke-linecap="butt" stroke-linejoin="miter" stroke-opacity="1" stroke-width=".079" display="inline" font-family="sans-serif" font-size="38.465" letter-spacing="0" opacity="1" word-spacing="0" xml:space="preserve" style="line-height:0%"><tspan id="tspan5069-6" x="236.175" y="283.345" fill="#fff" fill-opacity="1" stroke="none" stroke-width=".079" font-size="38.465" style="line-height:0%">128</tspan></text><text id="txt_scalable_64_512" x="265.978" y="330.133" fill="#fff" fill-opacity=".422" stroke="none" stroke-linecap="butt" stroke-linejoin="miter" stroke-opacity="1" stroke-width=".164" display="inline" font-family="sans-serif" font-size="7.432" letter-spacing="0" opacity="1" word-spacing="0" xml:space="preserve" style="line-height:1000%"><tspan id="tspan5049-1-6-6" x="265.978" y="330.133" fill="#fff" fill-opacity=".422" stroke="none" stroke-width=".164" font-size="8.09">Scalable:96-512</tspan></text></g><g id="layer12" display="inline"><path id="path24382-22" fill="none" fill-opacity="1" stroke="#000" stroke-dasharray="none" stroke-miterlimit="4" stroke-opacity=".176" stroke-width="2.553" d="m 266.56996,329.38349 c -8.21681,-2.72964 -14.03973,-6.43706 -20.59273,-13.11133 -7.326,-7.46153 -11.63955,-15.26932 -13.45562,-24.35541 -2.51226,-12.56929 4.15552,-24.09121 18.21806,-31.48088 16.97035,-8.91765 40.1718,-9.76049 48.72563,-1.77007 2.62192,2.44922 3.20104,3.85744 3.20104,7.78375 0,7.50023 -4.14115,12.14476 -20.33099,22.80251 -19.55552,12.87339 -21.59857,16.02562 -14.79564,22.82854 2.78202,2.78202 4.57836,3.66352 7.46555,3.66352 3.73521,0 7.10134,-2.15348 7.27831,-4.65637 0.51852,-7.33369 1.62171,-8.68932 8.57202,-10.53363 5.83307,-1.54787 12.45804,-0.55722 13.86594,2.07341 1.60845,3.00545 -2.2493,12.65447 -7.03593,17.59829 -8.92924,9.22249 -20.58987,12.65434 -31.11564,9.15767 z M 228.81307,258.2689 c -5.88317,-5.88316 -6.34093,-13.57277 -0.95413,-16.02716 2.37243,-1.08094 3.06782,-0.882 5.53275,1.58293 4.67951,4.67954 4.73485,18.04425 0.0747,18.04425 -0.57929,0 -2.67331,-1.62 -4.65332,-3.60002 z m 16.41489,-11.2551 c -2.17606,-2.40453 -5.05686,-9.18518 -5.05686,-11.90257 0,-3.45394 4.13937,-7.72245 7.4888,-7.72245 4.02247,0 5.66133,2.23093 6.26663,8.53017 0.69198,7.20171 -1.32482,13.01993 -4.51319,13.01993 -1.34375,0 -3.22715,-0.86628 -4.18538,-1.92508 z m 45.34838,-0.29833 c -5.11026,-2.97845 -4.38653,-16.67244 1.29574,-24.51657 7.97302,-11.00647 28.03432,-12.16235 28.03432,-1.61525 0,7.14981 -10.33058,20.99556 -18.68157,25.03817 -5.07651,2.4575 -7.82428,2.73975 -10.64849,1.09365 z M 264.941,240.04953 c -6.03724,-9.89767 -2.33642,-22.35822 6.64049,-22.35822 4.22661,0 6.30225,2.63396 6.30225,7.99749 0,8.29742 -4.66365,17.86263 -8.70922,17.86263 -1.20991,0 -3.00139,-1.4819 -4.23352,-3.5019 z" display="inline"/><path id="path24380-8" fill="url(#linearGradient24390-37)" fill-opacity="1" stroke-width="1.078" d="m 266.56996,329.38349 c -8.21681,-2.72964 -14.03973,-6.43706 -20.59273,-13.11133 -7.326,-7.46153 -11.63955,-15.26932 -13.45562,-24.35541 -2.51226,-12.56929 4.15552,-24.09121 18.21806,-31.48088 16.97035,-8.91765 40.1718,-9.76049 48.72563,-1.77007 2.62192,2.44922 3.20104,3.85744 3.20104,7.78375 0,7.50023 -4.14115,12.14476 -20.33099,22.80251 -19.55552,12.87339 -21.59857,16.02562 -14.79564,22.82854 2.78202,2.78202 4.57836,3.66352 7.46555,3.66352 3.73521,0 7.10134,-2.15348 7.27831,-4.65637 0.51852,-7.33369 1.62171,-8.68932 8.57202,-10.53363 5.83307,-1.54787 12.45804,-0.55722 13.86594,2.07341 1.60845,3.00545 -2.2493,12.65447 -7.03593,17.59829 -8.92924,9.22249 -20.58987,12.65434 -31.11564,9.15767 z M 228.81307,258.2689 c -5.88317,-5.88316 -6.34093,-13.57277 -0.95413,-16.02716 2.37243,-1.08094 3.06782,-0.882 5.53275,1.58293 4.67951,4.67954 4.73485,18.04425 0.0747,18.04425 -0.57929,0 -2.67331,-1.62 -4.65332,-3.60002 z m 16.41489,-11.2551 c -2.17606,-2.40453 -5.05686,-9.18518 -5.05686,-11.90257 0,-3.45394 4.13937,-7.72245 7.4888,-7.72245 4.02247,0 5.66133,2.23093 6.26663,8.53017 0.69198,7.20171 -1.32482,13.01993 -4.51319,13.01993 -1.34375,0 -3.22715,-0.86628 -4.18538,-1.92508 z m 45.34838,-0.29833 c -5.11026,-2.97845 -4.38653,-16.67244 1.29574,-24.51657 7.97302,-11.00647 28.03432,-12.16235 28.03432,-1.61525 0,7.14981 -10.33058,20.99556 -18.68157,25.03817 -5.07651,2.4575 -7.82428,2.73975 -10.64849,1.09365 z M 264.941,240.04953 c -6.03724,-9.89767 -2.33642,-22.35822 6.64049,-22.35822 4.22661,0 6.30225,2.63396 6.30225,7.99749 0,8.29742 -4.66365,17.86263 -8.70922,17.86263 -1.20991,0 -3.00139,-1.4819 -4.23352,-3.5019 z" display="inline"/></g></g></svg>