<svg xmlns="http://www.w3.org/2000/svg" xmlns:svg="http://www.w3.org/2000/svg" xmlns:xlink="http://www.w3.org/1999/xlink" id="svg2" width="48" height="48" enable-background="new" version="1.1" viewBox="0 0 48 48"><title id="title4675">Template icons dark</title><metadata id="metadata24"/><defs id="defs22"><linearGradient id="linearGradient1039"><stop id="stop1035" offset="0" stop-color="#fff" stop-opacity=".802"/><stop id="stop1043" offset=".502" stop-color="#fff" stop-opacity=".945"/><stop id="stop1037" offset="1" stop-color="#fff" stop-opacity=".692"/></linearGradient><linearGradient id="linearGradient1013"><stop id="stop1009" offset="0" stop-color="#fff" stop-opacity=".632"/><stop id="stop1017" offset=".448" stop-color="#fff" stop-opacity=".94"/><stop id="stop1011" offset="1" stop-color="#fff" stop-opacity=".61"/></linearGradient><linearGradient id="linearGradient988"><stop id="stop984" offset="0" stop-color="#d1d1d1" stop-opacity="1"/><stop id="stop986" offset="1" stop-color="#fff" stop-opacity=".989"/></linearGradient><linearGradient id="linearGradient4787" x1="25" x2="25" y1="45.7" y2="8.075" gradientTransform="matrix(2.1999998,0,0,2.1999998,107.2,100.16001)" gradientUnits="userSpaceOnUse" xlink:href="#linearGradient4781"/><linearGradient id="linearGradient4781"><stop id="stop4783" offset="0" stop-color="#0086f7" stop-opacity="1"/><stop id="stop4785" offset="1" stop-color="#60cdff" stop-opacity="1"/></linearGradient><linearGradient id="linearGradient4787-6" x1="25" x2="25" y1="45.7" y2="8.075" gradientTransform="matrix(2.933333,0,0,2.933333,201.59999,192.21334)" gradientUnits="userSpaceOnUse" xlink:href="#linearGradient4781"/><linearGradient id="linearGradient4787-7" x1="25" x2="25" y1="45.7" y2="8.075" gradientTransform="matrix(2.1999998,0,0,2.1999998,27.2,20.16001)" gradientUnits="userSpaceOnUse" xlink:href="#linearGradient4781"/><linearGradient id="linearGradient4787-7-1" x1="25" x2="25" y1="45.7" y2="8.075" gradientTransform="matrix(2.1999998,0,0,2.1999998,-28.8,-35.83999)" gradientUnits="userSpaceOnUse" xlink:href="#linearGradient4781"/><linearGradient id="linearGradient8334" x1="25" x2="25" y1="45.7" y2="8.075" gradientTransform="matrix(2.1999998,0,0,2.1999998,-68.8,-75.83999)" gradientUnits="userSpaceOnUse" xlink:href="#linearGradient4781"/><linearGradient id="linearGradient8334-8" x1="25" x2="25" y1="45.7" y2="8.075" gradientTransform="matrix(2.1999998,0,0,2.1999998,-96.8,-103.83999)" gradientUnits="userSpaceOnUse" xlink:href="#linearGradient4781"/><linearGradient id="linearGradient8334-8-9" x1="25" x2="25" y1="45.7" y2="8.075" gradientTransform="matrix(2.1999998,0,0,2.1999998,-116.8,-123.83999)" gradientUnits="userSpaceOnUse" xlink:href="#linearGradient4781"/><linearGradient id="linearGradient990" x1="157.89" x2="157.89" y1="194.158" y2="132" gradientUnits="userSpaceOnUse" xlink:href="#linearGradient988"/><linearGradient id="linearGradient1015" x1="161.865" x2="161.865" y1="202.767" y2="119.286" gradientUnits="userSpaceOnUse" xlink:href="#linearGradient1013"/><linearGradient id="linearGradient1041" x1="173.291" x2="136" y1="203.528" y2="117.102" gradientUnits="userSpaceOnUse" xlink:href="#linearGradient1039"/><linearGradient id="linearGradient1041-3" x1="173.291" x2="136" y1="203.528" y2="117.102" gradientTransform="matrix(1.3393327,0,0,1.3393327,57.706777,57.706777)" gradientUnits="userSpaceOnUse" xlink:href="#linearGradient1039"/><linearGradient id="linearGradient990-3" x1="157.89" x2="157.89" y1="194.158" y2="132" gradientTransform="matrix(1.3393327,0,0,1.3393327,57.706777,57.706777)" gradientUnits="userSpaceOnUse" xlink:href="#linearGradient988"/><linearGradient id="linearGradient1041-2" x1="173.291" x2="136" y1="203.528" y2="117.102" gradientTransform="matrix(0.65998571,0,0,0.65998571,-25.597714,-25.597714)" gradientUnits="userSpaceOnUse" xlink:href="#linearGradient1039"/><linearGradient id="linearGradient990-36" x1="157.89" x2="157.89" y1="194.158" y2="132" gradientTransform="matrix(0.65998571,0,0,0.65998571,-25.597714,-25.597714)" gradientUnits="userSpaceOnUse" xlink:href="#linearGradient988"/><linearGradient id="linearGradient1041-7" x1="173.291" x2="136" y1="203.528" y2="117.102" gradientTransform="matrix(0.52272727,0,0,0.52272727,-59.636364,-59.636364)" gradientUnits="userSpaceOnUse" xlink:href="#linearGradient1039"/><linearGradient id="linearGradient990-2" x1="157.89" x2="157.89" y1="194.158" y2="132" gradientTransform="matrix(0.52272727,0,0,0.52272727,-59.636364,-59.636364)" gradientUnits="userSpaceOnUse" xlink:href="#linearGradient988"/><linearGradient id="linearGradient990-2-8" x1="157.89" x2="157.89" y1="194.158" y2="132" gradientTransform="matrix(0.34090909,0,0,0.34090909,-70.545454,-70.545454)" gradientUnits="userSpaceOnUse" xlink:href="#linearGradient988"/><linearGradient id="linearGradient1041-7-3" x1="173.291" x2="136" y1="203.528" y2="117.102" gradientTransform="matrix(0.34090909,0,0,0.34090909,-70.545454,-70.545454)" gradientUnits="userSpaceOnUse" xlink:href="#linearGradient1039"/><linearGradient id="linearGradient990-2-8-9" x1="157.89" x2="157.89" y1="194.158" y2="132" gradientTransform="matrix(0.25475144,0,0,0.25475144,-84.760225,-85.476312)" gradientUnits="userSpaceOnUse" xlink:href="#linearGradient988"/><linearGradient id="linearGradient990-2-8-5" x1="157.89" x2="157.89" y1="194.158" y2="132" gradientTransform="matrix(0.19207781,0,0,0.19207781,-94.73244,-94.731032)" gradientUnits="userSpaceOnUse" xlink:href="#linearGradient988"/></defs><g id="layer1" display="inline"><g id="layer5" display="none"><rect id="frame_16" width="16" height="16" x="-72" y="-72" fill="#000" fill-opacity="1" fill-rule="nonzero" stroke="#ff24f7" stroke-dasharray="none" stroke-dashoffset="0" stroke-linecap="square" stroke-linejoin="miter" stroke-miterlimit="4" stroke-opacity=".995" stroke-width="0" marker-end="none" marker-mid="none" marker-start="none" clip-rule="nonzero" color="#000" color-interpolation="sRGB" color-interpolation-filters="linearRGB" color-rendering="auto" display="block" enable-background="accumulate" image-rendering="auto" opacity="1" overflow="visible" paint-order="normal" shape-rendering="auto" text-rendering="auto" vector-effect="none" visibility="visible" style="isolation:auto;mix-blend-mode:normal;solid-color:#000;solid-opacity:1;marker:none"/><text id="txt_16" x="-69.279" y="-61.088" fill="#fff" fill-opacity="1" stroke="none" stroke-linecap="butt" stroke-linejoin="miter" stroke-opacity="1" stroke-width=".072" display="inline" font-family="sans-serif" font-size="8" letter-spacing="0" opacity="1" word-spacing="0" xml:space="preserve" style="line-height:1000%"><tspan id="tspan4768-6" x="-69.279" y="-61.088" fill="#fff" fill-opacity="1" stroke="none" stroke-width=".072" font-size="8">16</tspan></text></g><g id="layer6" display="inline"><path id="rect4154-4-1-4-3-9" fill="url(#linearGradient8334-8-9)" fill-opacity="1" fill-rule="nonzero" stroke="none" stroke-dasharray="none" stroke-dashoffset="0" stroke-linecap="butt" stroke-linejoin="round" stroke-miterlimit="4" stroke-opacity=".131" stroke-width="1.804" d="m -68.875,-72 h 9.75 c 2.28525,0 3.125,0.83975 3.125,3.125 v 9.75 c 0,2.28525 -0.83975,3.125 -3.125,3.125 h -9.75 C -71.16025,-56 -72,-56.83975 -72,-59.125 v -9.75 c 0,-2.28525 0.83975,-3.125 3.125,-3.125 z" display="inline" opacity="1"/><path id="path1255" fill="none" fill-opacity="1" fill-rule="evenodd" stroke="#0a0a0a" stroke-dasharray="none" stroke-linecap="butt" stroke-linejoin="miter" stroke-miterlimit="4" stroke-opacity=".341" stroke-width="1.127" d="m -71.622586,-64.416445 h 2.757111 l 1.621833,6.162956 2.270565,-8.920072 1.946196,6.325144 1.784015,-6.325144 1.784015,6.325144 h 3.081475" display="inline"/><path id="path4378-92-3-1" fill="none" fill-rule="evenodd" stroke="url(#linearGradient990-2-8-5)" stroke-dasharray="none" stroke-linecap="butt" stroke-linejoin="miter" stroke-miterlimit="4" stroke-opacity="1" stroke-width="1.127" d="m -71.622586,-65.782601 h 2.757111 l 1.621833,6.162956 2.270565,-8.920072 1.946196,6.325144 1.784015,-6.325144 1.784015,6.325144 h 3.081475" display="inline"/></g></g><g id="layer2" display="inline"><g id="layer7" display="none"><rect id="frame_24" width="24" height="24" x="-56" y="-56" fill="#000" fill-opacity=".995" fill-rule="nonzero" stroke="#ff24f7" stroke-dasharray="none" stroke-dashoffset="0" stroke-linecap="square" stroke-linejoin="miter" stroke-miterlimit="4" stroke-opacity=".995" stroke-width="0" marker-end="none" marker-mid="none" marker-start="none" clip-rule="nonzero" color="#000" color-interpolation="sRGB" color-interpolation-filters="linearRGB" color-rendering="auto" display="block" enable-background="accumulate" image-rendering="auto" opacity="1" overflow="visible" paint-order="normal" shape-rendering="auto" text-rendering="auto" vector-effect="none" visibility="visible" style="isolation:auto;mix-blend-mode:normal;solid-color:#000;solid-opacity:1;marker:none"/><text id="txt_24" x="-50.88" y="-40.042" fill="#fff" fill-opacity="1" stroke="none" stroke-linecap="butt" stroke-linejoin="miter" stroke-opacity="1" stroke-width=".112" display="inline" font-family="sans-serif" font-size="10.667" letter-spacing="0" opacity="1" word-spacing="0" xml:space="preserve" style="line-height:1000%"><tspan id="tspan4835-2-5" x="-50.88" y="-40.042" fill="#fff" fill-opacity="1" stroke="none" stroke-width=".112" font-size="10.667">24</tspan></text></g><g id="layer8" display="inline"><path id="rect4154-4-1-4-3" fill="url(#linearGradient8334-8)" fill-opacity="1" fill-rule="nonzero" stroke="none" stroke-dasharray="none" stroke-dashoffset="0" stroke-linecap="butt" stroke-linejoin="round" stroke-miterlimit="4" stroke-opacity=".131" stroke-width="1.804" d="m -51.875,-56 h 15.75 c 2.28525,0 4.125,1.83975 4.125,4.125 v 15.75 c 0,2.28525 -1.83975,4.125 -4.125,4.125 h -15.75 C -54.16025,-32 -56,-33.83975 -56,-36.125 v -15.75 c 0,-2.28525 1.83975,-4.125 4.125,-4.125 z" display="inline" opacity="1"/><path id="rect7793-3-7-4-8" fill="#fff" fill-opacity=".219" fill-rule="nonzero" stroke="none" stroke-dasharray="none" stroke-dashoffset="0" stroke-linecap="butt" stroke-linejoin="round" stroke-miterlimit="4" stroke-opacity=".131" stroke-width="1.804" d="m -56,-37.125 v 1 c 0,0 0,4.125 4.414778,4.125 h 15.290386 C -32.322834,-32 -32,-36.125 -32,-36.125 v -1 c 0,1.794386 -1.46534,4.125 -4.294836,4.125 H -51.585222 C -53.870472,-33 -56,-34.376562 -56,-37.125 Z" display="inline" opacity="1"/><path id="path982-5-9-8" fill="none" fill-rule="evenodd" stroke="#000" stroke-dasharray="none" stroke-linecap="butt" stroke-linejoin="miter" stroke-miterlimit="4" stroke-opacity=".275" stroke-width="1.462" d="m -54.109788,-45.343257 h 3.656737 l 2.151025,8.173886 L -45.290592,-49 -42.709366,-40.611007 -40.34324,-49 l 2.366127,8.388993 h 4.086939" display="inline"/><path id="path4378-92-3-4" fill="none" fill-rule="evenodd" stroke="url(#linearGradient990-2-8-9)" stroke-dasharray="none" stroke-linecap="butt" stroke-linejoin="miter" stroke-miterlimit="4" stroke-opacity="1" stroke-width="1.495" d="m -54.109788,-47.082212 h 3.656737 l 2.151025,8.173886 3.011434,-11.830629 2.581226,8.388993 2.366126,-8.388993 2.366127,8.388993 h 4.086939" display="inline"/></g></g><g id="g7816" display="inline"><g id="g7802" display="none"><rect id="rect7792" width="32" height="32" x="-32" y="-32" fill="#000" fill-opacity="1" fill-rule="nonzero" stroke="#ff24f7" stroke-dasharray="none" stroke-dashoffset="0" stroke-linecap="square" stroke-linejoin="miter" stroke-miterlimit="4" stroke-opacity=".995" stroke-width="0" marker-end="none" marker-mid="none" marker-start="none" clip-rule="nonzero" color="#000" color-interpolation="sRGB" color-interpolation-filters="linearRGB" color-rendering="auto" display="block" enable-background="accumulate" image-rendering="auto" opacity="1" overflow="visible" paint-order="normal" shape-rendering="auto" text-rendering="auto" vector-effect="none" visibility="visible" style="isolation:auto;mix-blend-mode:normal;solid-color:#000;solid-opacity:1;marker:none"/><text id="text7796" x="-23.799" y="-11.47" fill="#fff" fill-opacity="1" stroke="none" stroke-linecap="butt" stroke-linejoin="miter" stroke-opacity="1" stroke-width=".074" display="inline" font-family="sans-serif" font-size="12.444" letter-spacing="0" opacity="1" word-spacing="0" xml:space="preserve" style="line-height:1000%"><tspan id="tspan7794" x="-23.799" y="-11.47" fill="#fff" fill-opacity="1" stroke="none" stroke-width=".074" font-size="12.444">32</tspan></text></g><g id="g7814" display="inline"><path id="rect4154-2-8-9-0" fill="#000" fill-opacity=".078" fill-rule="nonzero" stroke="none" stroke-dasharray="none" stroke-dashoffset="0" stroke-linecap="butt" stroke-linejoin="round" stroke-miterlimit="4" stroke-opacity=".131" stroke-width="1.845" d="m -27.78125,-32 h 23.5625 C -1.88156,-32 0,-30.11844 0,-27.78125 v 23.5625 C 0,-1.88156 -1.88156,0 -4.21875,0 h -23.5625 C -30.11844,0 -32,-1.88156 -32,-4.21875 v -23.5625 C -32,-30.11844 -30.11844,-32 -27.78125,-32 Z" display="inline" opacity="1"/><path id="rect4154-4-1-4" fill="url(#linearGradient8334)" fill-opacity="1" fill-rule="nonzero" stroke="none" stroke-dasharray="none" stroke-dashoffset="0" stroke-linecap="butt" stroke-linejoin="round" stroke-miterlimit="4" stroke-opacity=".131" stroke-width="1.804" d="m -26.875,-31 h 21.75 c 2.28525,0 4.125,1.83975 4.125,4.125 v 21.75 C -1,-2.83975 -2.83975,-1 -5.125,-1 h -21.75 C -29.16025,-1 -31,-2.83975 -31,-5.125 v -21.75 c 0,-2.28525 1.83975,-4.125 4.125,-4.125 z" display="inline" opacity="1"/><path id="path982-5-9" fill="none" fill-rule="evenodd" stroke="#000" stroke-dasharray="none" stroke-linecap="butt" stroke-linejoin="miter" stroke-miterlimit="4" stroke-opacity=".275" stroke-width="1.957" d="m -29.528953,-16.839285 h 4.893456 l 2.878507,10.9383167 4.02991,-15.8317807 3.454204,11.226174 3.166357,-11.226174 3.1663568,11.226174 h 5.4691533" display="inline"/><path id="path4378-92-3" fill="none" fill-rule="evenodd" stroke="url(#linearGradient990-2-8)" stroke-dasharray="none" stroke-linecap="butt" stroke-linejoin="miter" stroke-miterlimit="4" stroke-opacity="1" stroke-width="2" d="m -29.528953,-19.16636 h 4.893456 l 2.878507,10.9383165 4.02991,-15.8317805 3.454204,11.226174 3.166357,-11.226174 3.1663568,11.226174 h 5.4691533" display="inline"/><path id="path1007-2-1" fill="url(#linearGradient1041-7-3)" fill-opacity="1" fill-rule="nonzero" stroke="none" stroke-dasharray="none" stroke-dashoffset="0" stroke-linecap="butt" stroke-linejoin="round" stroke-miterlimit="4" stroke-opacity="1" stroke-width=".672" d="M -27.391304,-31 C -28.957819,-31 -31,-28.754941 -31,-27.391304 V -4.6086957 C -31,-3.3043478 -28.833071,-1 -27.391304,-1 H -4.6086957 C -3.2450593,-1 -1,-3.14975 -1,-4.6679841 V -27.332016 C -1,-29.096093 -3.4429987,-31 -4.6679841,-31 Z m 0,0.652174 h 22.7826083 c 1.3043479,0 2.9565218,1.652173 2.9565218,2.956522 v 22.7826083 c 0,1.3043479 -1.6798757,2.9565218 -2.9565218,2.9565218 H -28.043478 c -0.652174,0 -2.304348,-1.6521739 -2.304348,-2.3043478 V -27.391304 c 0,-1.304349 1.652173,-2.956522 2.956522,-2.956522 z" baseline-shift="baseline" clip-rule="nonzero" color="#000" color-interpolation="sRGB" color-interpolation-filters="linearRGB" color-rendering="auto" direction="ltr" display="inline" dominant-baseline="auto" enable-background="accumulate" font-family="sans-serif" font-size="medium" font-stretch="normal" font-style="normal" font-variant="normal" font-weight="normal" image-rendering="auto" letter-spacing="normal" opacity=".315" overflow="visible" shape-rendering="auto" text-anchor="start" text-decoration="none" text-rendering="auto" vector-effect="none" visibility="visible" word-spacing="normal" writing-mode="lr-tb" style="line-height:normal;font-variant-ligatures:normal;font-variant-position:normal;font-variant-caps:normal;font-variant-numeric:normal;font-variant-alternates:normal;font-feature-settings:normal;text-indent:0;text-align:start;text-decoration-line:none;text-decoration-style:solid;text-decoration-color:#000;text-transform:none;text-orientation:mixed;white-space:normal;shape-padding:0;isolation:auto;mix-blend-mode:normal;solid-color:#000;solid-opacity:1"/></g></g><g id="layer3" display="inline"><g id="layer9" display="none"><rect id="frame_48" width="48" height="48" x="0" y="0" fill="#000" fill-opacity="1" fill-rule="nonzero" stroke="#ff24f7" stroke-dasharray="none" stroke-dashoffset="0" stroke-linecap="square" stroke-linejoin="miter" stroke-miterlimit="4" stroke-opacity=".995" stroke-width="0" marker-end="none" marker-mid="none" marker-start="none" clip-rule="nonzero" color="#000" color-interpolation="sRGB" color-interpolation-filters="linearRGB" color-rendering="auto" display="block" enable-background="accumulate" image-rendering="auto" opacity="1" overflow="visible" paint-order="normal" shape-rendering="auto" text-rendering="auto" vector-effect="none" visibility="visible" style="isolation:auto;mix-blend-mode:normal;solid-color:#000;solid-opacity:1;marker:none"/><text id="txt_48" x="12.301" y="30.795" fill="#fff" fill-opacity="1" stroke="none" stroke-linecap="butt" stroke-linejoin="miter" stroke-opacity="1" stroke-width=".112" display="inline" font-family="sans-serif" font-size="18.667" letter-spacing="0" opacity="1" word-spacing="0" xml:space="preserve" style="line-height:1000%"><tspan id="tspan5049-1" x="12.301" y="30.795" fill="#fff" fill-opacity="1" stroke="none" stroke-width=".112" font-size="18.667">48</tspan></text><text id="txt_scalable_32-64" x="25.824" y="45.962" fill="#fff" fill-opacity=".448" stroke="none" stroke-linecap="butt" stroke-linejoin="miter" stroke-opacity="1" stroke-width=".059" display="inline" font-family="sans-serif" font-size="2.667" letter-spacing="0" opacity="1" word-spacing="0" xml:space="preserve" style="line-height:1000%"><tspan id="tspan5049-1-6" x="25.824" y="45.962" fill="#fff" fill-opacity=".448" stroke="none" stroke-width=".059" font-size="2.667">Scalable:32-64</tspan></text></g><g id="layer10" display="inline"><path id="rect4154-2-8-9" fill="#000" fill-opacity=".078" fill-rule="nonzero" stroke="none" stroke-dasharray="none" stroke-dashoffset="0" stroke-linecap="butt" stroke-linejoin="round" stroke-miterlimit="4" stroke-opacity=".131" stroke-width="1.845" d="m 4.21875,0 h 39.5625 C 46.11844,0 48,1.88156 48,4.21875 v 39.5625 C 48,46.11844 46.11844,48 43.78125,48 H 4.21875 C 1.88156,48 0,46.11844 0,43.78125 V 4.21875 C 0,1.88156 1.88156,0 4.21875,0 Z" display="inline" opacity="1"/><path id="rect4154-4-1" fill="url(#linearGradient4787-7-1)" fill-opacity="1" fill-rule="nonzero" stroke="none" stroke-dasharray="none" stroke-dashoffset="0" stroke-linecap="butt" stroke-linejoin="round" stroke-miterlimit="4" stroke-opacity=".131" stroke-width="1.804" d="m 5.125,1 h 37.75 C 45.16025,1 47,2.83975 47,5.125 v 37.75 C 47,45.16025 45.16025,47 42.875,47 H 5.125 C 2.83975,47 1,45.16025 1,42.875 V 5.125 C 1,2.83975 2.83975,1 5.125,1 Z" display="inline" opacity="1"/><path id="path982-5" fill="none" fill-rule="evenodd" stroke="#000" stroke-dasharray="none" stroke-linecap="butt" stroke-linejoin="miter" stroke-miterlimit="4" stroke-opacity=".275" stroke-width="3" d="m 3.2556048,19.922621 h 7.5033002 l 4.413711,16.772086 6.179195,-24.275397 5.296446,17.213467 4.85508,-17.213467 4.855081,17.213467 h 8.386035" display="inline"/><path id="path4378-92" fill="none" fill-rule="evenodd" stroke="url(#linearGradient990-2)" stroke-dasharray="none" stroke-linecap="butt" stroke-linejoin="miter" stroke-miterlimit="4" stroke-opacity="1" stroke-width="2" d="M 3.2556048,19.144914 H 10.758905 L 15.172616,35.917 21.351811,11.641603 26.648257,28.85507 31.503337,11.641603 36.358418,28.85507 h 8.386035" display="inline"/><path id="path1007-2" fill="url(#linearGradient1041-7)" fill-opacity="1" fill-rule="nonzero" stroke="none" stroke-dasharray="none" stroke-dashoffset="0" stroke-linecap="butt" stroke-linejoin="round" stroke-miterlimit="4" stroke-opacity="1" stroke-width="1.03" d="M 5,1 C 2.5980111,1 1,2.9090909 1,5 v 38 c 0,2 1.789291,4 4,4 h 38 c 2.090909,0 4,-1.76295 4,-4.090909 V 5.0909091 C 47,2.3859904 44.787402,1 42.909091,1 Z m 0,1 h 38 c 2,0 3,0.9999987 3,3 v 38 c 0,2 -1.042476,3 -3,3 H 4 C 3,46 2,45 2,44 V 5 C 2,2.9999987 2.9999987,2 5,2 Z" baseline-shift="baseline" clip-rule="nonzero" color="#000" color-interpolation="sRGB" color-interpolation-filters="linearRGB" color-rendering="auto" direction="ltr" display="inline" dominant-baseline="auto" enable-background="accumulate" font-family="sans-serif" font-size="medium" font-stretch="normal" font-style="normal" font-variant="normal" font-weight="normal" image-rendering="auto" letter-spacing="normal" opacity=".259" overflow="visible" shape-rendering="auto" text-anchor="start" text-decoration="none" text-rendering="auto" vector-effect="none" visibility="visible" word-spacing="normal" writing-mode="lr-tb" style="line-height:normal;font-variant-ligatures:normal;font-variant-position:normal;font-variant-caps:normal;font-variant-numeric:normal;font-variant-alternates:normal;font-feature-settings:normal;text-indent:0;text-align:start;text-decoration-line:none;text-decoration-style:solid;text-decoration-color:#000;text-transform:none;text-orientation:mixed;white-space:normal;shape-padding:0;isolation:auto;mix-blend-mode:normal;solid-color:#000;solid-opacity:1"/></g></g><g id="g7907" display="inline"><g id="g7843" display="none"><rect id="rect7837" width="64" height="64" x="48" y="48" fill="#000" fill-opacity="1" fill-rule="nonzero" stroke="#ff24f7" stroke-dasharray="none" stroke-dashoffset="0" stroke-linecap="square" stroke-linejoin="miter" stroke-miterlimit="4" stroke-opacity=".995" stroke-width="0" marker-end="none" marker-mid="none" marker-start="none" clip-rule="nonzero" color="#000" color-interpolation="sRGB" color-interpolation-filters="linearRGB" color-rendering="auto" display="inline" enable-background="accumulate" image-rendering="auto" opacity="1" overflow="visible" paint-order="normal" shape-rendering="auto" text-rendering="auto" vector-effect="none" visibility="visible" style="isolation:auto;mix-blend-mode:normal;solid-color:#000;solid-opacity:1;marker:none"/><text id="text7841" x="69.816" y="85.824" fill="#fff" fill-opacity="1" stroke="none" stroke-linecap="butt" stroke-linejoin="miter" stroke-opacity="1" stroke-width=".033" display="inline" font-family="sans-serif" font-size="16" letter-spacing="0" opacity="1" word-spacing="0" xml:space="preserve" style="line-height:0%"><tspan id="tspan7839" x="69.816" y="85.824" fill="#fff" fill-opacity="1" stroke="none" stroke-width=".033" font-size="16" style="line-height:0%">64</tspan></text></g><g id="g7905" display="inline"><path id="rect4154-2-8" fill="#000" fill-opacity=".078" fill-rule="nonzero" stroke="none" stroke-dasharray="none" stroke-dashoffset="0" stroke-linecap="butt" stroke-linejoin="round" stroke-miterlimit="4" stroke-opacity=".131" stroke-width="1.845" d="m 54.21875,50 h 51.5625 C 108.11844,50 110,51.88156 110,54.21875 v 51.5625 C 110,108.11844 108.11844,110 105.78125,110 H 54.21875 C 51.88156,110 50,108.11844 50,105.78125 V 54.21875 C 50,51.88156 51.88156,50 54.21875,50 Z" display="inline" opacity="1"/><path id="rect4154-4" fill="url(#linearGradient4787-7)" fill-opacity="1" fill-rule="nonzero" stroke="none" stroke-dasharray="none" stroke-dashoffset="0" stroke-linecap="butt" stroke-linejoin="round" stroke-miterlimit="4" stroke-opacity=".131" stroke-width="1.804" d="m 55.125,51 h 49.75 c 2.28525,0 4.125,1.83975 4.125,4.125 v 49.75 c 0,2.28525 -1.83975,4.125 -4.125,4.125 H 55.125 C 52.83975,109 51,107.16025 51,104.875 V 55.125 C 51,52.83975 52.83975,51 55.125,51 Z" display="inline" opacity="1"/><path id="rect7793-3" fill="#fff" fill-opacity=".219" fill-rule="nonzero" stroke="none" stroke-dasharray="none" stroke-dashoffset="0" stroke-linecap="butt" stroke-linejoin="round" stroke-miterlimit="4" stroke-opacity=".131" stroke-width="1.804" d="m 51,103.875 v 1 c 0,0 1.83975,4.125 4.125,4.125 h 49.75 c 2.28525,0 4.125,-4.125 4.125,-4.125 v -1 c 0,2.28525 -1.83975,4.125 -4.125,4.125 H 55.125 C 52.83975,108 51,106.16025 51,103.875 Z" display="inline" opacity="1"/><path id="path982-26" fill="none" fill-rule="evenodd" stroke="#000" stroke-dasharray="none" stroke-linecap="butt" stroke-linejoin="miter" stroke-miterlimit="4" stroke-opacity=".275" stroke-width="3.344" d="m 53.808513,75.850016 h 9.473528 l 5.572668,21.176124 7.801737,-30.649664 6.687193,21.733402 6.129934,-21.733402 6.129935,21.733402 h 10.588052" display="inline"/><path id="path4378-1" fill="none" fill-rule="evenodd" stroke="url(#linearGradient990-36)" stroke-dasharray="none" stroke-linecap="butt" stroke-linejoin="miter" stroke-miterlimit="4" stroke-opacity="1" stroke-width="3.344" d="m 53.808513,73.870059 h 9.473528 l 5.572668,21.176124 7.801737,-30.649664 6.687193,21.733402 6.129934,-21.733402 6.129935,21.733402 h 10.588052" display="inline"/><path id="path1007-8" fill="url(#linearGradient1041-2)" fill-opacity="1" fill-rule="nonzero" stroke="none" stroke-dasharray="none" stroke-dashoffset="0" stroke-linecap="butt" stroke-linejoin="round" stroke-miterlimit="4" stroke-opacity="1" stroke-width="1.3" d="m 53.600572,50.960629 c -1.39523,0 -2.639943,1.230259 -2.639943,2.639943 v 52.798858 c 0,1.72987 1.64217,2.63994 2.639943,2.63994 h 52.798858 c 1.08092,0 2.63994,-1.02794 2.63994,-2.63994 V 53.600572 c 0,-1.549944 -1.41804,-2.639943 -2.63994,-2.639943 z m 0,1.319971 h 52.798858 c 0.65998,0 1.31997,0.659986 1.31997,1.319972 v 52.798858 c 0,0.65998 -0.65999,1.31997 -1.31997,1.31997 H 53.600572 c -0.659986,0 -1.319972,-0.65999 -1.319972,-1.31997 V 53.600572 c 0,-0.659986 0.644582,-1.319972 1.319972,-1.319972 z" baseline-shift="baseline" clip-rule="nonzero" color="#000" color-interpolation="sRGB" color-interpolation-filters="linearRGB" color-rendering="auto" direction="ltr" display="inline" dominant-baseline="auto" enable-background="accumulate" font-family="sans-serif" font-size="medium" font-stretch="normal" font-style="normal" font-variant="normal" font-weight="normal" image-rendering="auto" letter-spacing="normal" opacity=".654" overflow="visible" shape-rendering="auto" text-anchor="start" text-decoration="none" text-rendering="auto" vector-effect="none" visibility="visible" word-spacing="normal" writing-mode="lr-tb" style="line-height:normal;font-variant-ligatures:normal;font-variant-position:normal;font-variant-caps:normal;font-variant-numeric:normal;font-variant-alternates:normal;font-feature-settings:normal;text-indent:0;text-align:start;text-decoration-line:none;text-decoration-style:solid;text-decoration-color:#000;text-transform:none;text-orientation:mixed;white-space:normal;shape-padding:0;isolation:auto;mix-blend-mode:normal;solid-color:#000;solid-opacity:1"/></g></g><g id="g8840" display="inline"><g id="g8776" display="none"><rect id="rect_96" width="96" height="96" x="112" y="112" fill="#000" fill-opacity="1" fill-rule="nonzero" stroke="#ff24f7" stroke-dasharray="none" stroke-dashoffset="0" stroke-linecap="square" stroke-linejoin="miter" stroke-miterlimit="4" stroke-opacity=".995" stroke-width="0" marker-end="none" marker-mid="none" marker-start="none" clip-rule="nonzero" color="#000" color-interpolation="sRGB" color-interpolation-filters="linearRGB" color-rendering="auto" display="inline" enable-background="accumulate" image-rendering="auto" opacity="1" overflow="visible" paint-order="normal" shape-rendering="auto" text-rendering="auto" vector-effect="none" visibility="visible" style="isolation:auto;mix-blend-mode:normal;solid-color:#000;solid-opacity:1;marker:none"/><text id="text_96" x="144.725" y="168.736" fill="#fff" fill-opacity="1" stroke="none" stroke-linecap="butt" stroke-linejoin="miter" stroke-opacity="1" stroke-width=".049" display="inline" font-family="sans-serif" font-size="24" letter-spacing="0" opacity="1" word-spacing="0" xml:space="preserve" style="line-height:0%"><tspan style="line-height:0%" id="tspan8768" x="144.725" y="168.736" fill="#fff" fill-opacity="1" stroke="none" stroke-width=".049" font-size="24">96</tspan></text></g><g id="g8838" display="inline"><path id="rect4154-2" fill="#000" fill-opacity=".078" fill-rule="nonzero" stroke="none" stroke-dasharray="none" stroke-dashoffset="0" stroke-linecap="butt" stroke-linejoin="round" stroke-miterlimit="4" stroke-opacity=".131" stroke-width="1.845" d="m 119.21875,115 h 81.5625 c 2.33719,0 4.21875,1.88156 4.21875,4.21875 v 81.5625 C 205,203.11844 203.11844,205 200.78125,205 h -81.5625 C 116.88156,205 115,203.11844 115,200.78125 v -81.5625 C 115,116.88156 116.88156,115 119.21875,115 Z" display="inline" opacity="1"/><path id="rect4154" fill="url(#linearGradient4787)" fill-opacity="1" fill-rule="nonzero" stroke="none" stroke-dasharray="none" stroke-dashoffset="0" stroke-linecap="butt" stroke-linejoin="round" stroke-miterlimit="4" stroke-opacity=".131" stroke-width="1.804" d="m 120.125,116 h 79.75 c 2.28525,0 4.125,1.83975 4.125,4.125 v 79.75 c 0,2.28525 -1.83975,4.125 -4.125,4.125 h -79.75 C 117.83975,204 116,202.16025 116,199.875 v -79.75 c 0,-2.28525 1.83975,-4.125 4.125,-4.125 z" display="inline" opacity="1"/><path id="path982" fill="none" fill-rule="evenodd" stroke="#000" stroke-dasharray="none" stroke-linecap="butt" stroke-linejoin="miter" stroke-miterlimit="4" stroke-opacity=".275" stroke-width="5.066" d="m 120.31507,153.71201 h 14.35414 l 8.44362,32.08573 11.82107,-46.43989 10.13233,32.93011 9.28798,-32.93011 9.28798,32.93011 h 16.04285" display="inline"/><path id="path4378" fill="none" fill-rule="evenodd" stroke="url(#linearGradient990)" stroke-dasharray="none" stroke-linecap="butt" stroke-linejoin="miter" stroke-miterlimit="4" stroke-opacity="1" stroke-width="5.066" d="m 120.31507,150.71201 h 14.35414 l 8.44362,32.08573 11.82107,-46.43989 10.13233,32.93011 9.28798,-32.93011 9.28798,32.93011 h 16.04285" display="inline"/><path id="path1007" fill="url(#linearGradient1041)" fill-opacity="1" fill-rule="nonzero" stroke="none" stroke-dasharray="none" stroke-dashoffset="0" stroke-linecap="butt" stroke-linejoin="round" stroke-miterlimit="4" stroke-opacity="1" stroke-width="1.97" d="m 120,116 c -2.11403,0 -4,1.86407 -4,4 v 80 c 0,2.62107 2.48819,4 4,4 h 80 c 1.6378,0 4,-1.55752 4,-4 v -80 c 0,-2.34845 -2.14859,-4 -4,-4 z m 0,2 h 80 c 1,0 2,1 2,2 v 80 c 0,1 -1,2 -2,2 h -80 c -1,0 -2,-1 -2,-2 v -80 c 0,-1 0.97666,-2 2,-2 z" baseline-shift="baseline" clip-rule="nonzero" color="#000" color-interpolation="sRGB" color-interpolation-filters="linearRGB" color-rendering="auto" direction="ltr" display="inline" dominant-baseline="auto" enable-background="accumulate" font-family="sans-serif" font-size="medium" font-stretch="normal" font-style="normal" font-variant="normal" font-weight="normal" image-rendering="auto" letter-spacing="normal" opacity="1" overflow="visible" shape-rendering="auto" text-anchor="start" text-decoration="none" text-rendering="auto" vector-effect="none" visibility="visible" word-spacing="normal" writing-mode="lr-tb" style="line-height:normal;font-variant-ligatures:normal;font-variant-position:normal;font-variant-caps:normal;font-variant-numeric:normal;font-variant-alternates:normal;font-feature-settings:normal;text-indent:0;text-align:start;text-decoration-line:none;text-decoration-style:solid;text-decoration-color:#000;text-transform:none;text-orientation:mixed;white-space:normal;shape-padding:0;isolation:auto;mix-blend-mode:normal;solid-color:#000;solid-opacity:1"/></g></g><g id="layer4" display="inline"><g id="layer11" display="none"><rect id="frame_128" width="128" height="128" x="208" y="208" fill="#000" fill-opacity="1" fill-rule="nonzero" stroke="#ff24f7" stroke-dasharray="none" stroke-dashoffset="0" stroke-linecap="square" stroke-linejoin="miter" stroke-miterlimit="4" stroke-opacity=".995" stroke-width="0" marker-end="none" marker-mid="none" marker-start="none" clip-rule="nonzero" color="#000" color-interpolation="sRGB" color-interpolation-filters="linearRGB" color-rendering="auto" display="inline" enable-background="accumulate" image-rendering="auto" opacity="1" overflow="visible" paint-order="normal" shape-rendering="auto" text-rendering="auto" vector-effect="none" visibility="visible" style="isolation:auto;mix-blend-mode:normal;solid-color:#000;solid-opacity:1;marker:none"/><text id="txt_128" x="236.175" y="283.345" fill="#fff" fill-opacity="1" stroke="none" stroke-linecap="butt" stroke-linejoin="miter" stroke-opacity="1" stroke-width=".079" display="inline" font-family="sans-serif" font-size="38.465" letter-spacing="0" opacity="1" word-spacing="0" xml:space="preserve" style="line-height:0%"><tspan id="tspan5069-6" x="236.175" y="283.345" fill="#fff" fill-opacity="1" stroke="none" stroke-width=".079" font-size="38.465" style="line-height:0%">128</tspan></text><text id="txt_scalable_64_512" x="265.978" y="330.133" fill="#fff" fill-opacity=".422" stroke="none" stroke-linecap="butt" stroke-linejoin="miter" stroke-opacity="1" stroke-width=".164" display="inline" font-family="sans-serif" font-size="7.432" letter-spacing="0" opacity="1" word-spacing="0" xml:space="preserve" style="line-height:1000%"><tspan id="tspan5049-1-6-6" x="265.978" y="330.133" fill="#fff" fill-opacity=".422" stroke="none" stroke-width=".164" font-size="8.09">Scalable:96-512</tspan></text></g><g id="layer12" display="inline"><path id="rect4154-2-7" fill="#000" fill-opacity=".078" fill-rule="nonzero" stroke="none" stroke-dasharray="none" stroke-dashoffset="0" stroke-linecap="butt" stroke-linejoin="round" stroke-miterlimit="4" stroke-opacity=".131" stroke-width="2.46" d="m 217.625,212 h 108.75 c 3.11625,0 5.625,2.50875 5.625,5.625 v 108.75 c 0,3.11625 -2.50875,5.625 -5.625,5.625 H 217.625 C 214.50875,332 212,330.11625 212,327 V 217.625 c 0,-3.11625 2.50875,-5.625 5.625,-5.625 z" display="inline" opacity="1"/><path id="rect4154-5" fill="url(#linearGradient4787-6)" fill-opacity="1" fill-rule="nonzero" stroke="none" stroke-dasharray="none" stroke-dashoffset="0" stroke-linecap="butt" stroke-linejoin="round" stroke-miterlimit="4" stroke-opacity=".131" stroke-width="2.405" d="m 219,213 h 106 c 3.047,0 6,2.953 6,6 v 106 c 0,3.047 -2.953,6 -6,6 H 219 c -3.047,0 -6,-2.953 -6,-6 V 219 c 0,-3.047 2.953,-6 6,-6 z" display="inline" opacity="1"/><path id="rect7793-9" fill="#fff" fill-opacity=".219" fill-rule="nonzero" stroke="none" stroke-dasharray="none" stroke-dashoffset="0" stroke-linecap="butt" stroke-linejoin="round" stroke-miterlimit="4" stroke-opacity=".131" stroke-width="2.405" d="M 213,323.66666 V 325 c 0,3.047 2.953,6 6,6 h 106 c 3.047,0 6,-2.953 6,-6 v -1.33334 C 331,326.71366 328.047,330 325,330 H 219 c -3.047,0 -6,-3.28634 -6,-6.33334 z" display="inline" opacity="1"/><path id="path982-2" fill="none" fill-rule="evenodd" stroke="#000" stroke-dasharray="none" stroke-linecap="butt" stroke-linejoin="miter" stroke-miterlimit="4" stroke-opacity=".275" stroke-width="6.785" d="m 218.84868,263.57829 h 19.22497 l 11.30881,42.97347 15.83235,-62.19847 13.57056,44.10438 12.43969,-44.10438 12.4397,44.10438 h 21.48671" display="inline"/><path id="path4378-9" fill="none" fill-rule="evenodd" stroke="url(#linearGradient990-3)" stroke-dasharray="none" stroke-linecap="butt" stroke-linejoin="miter" stroke-miterlimit="4" stroke-opacity="1" stroke-width="6.785" d="m 218.84868,259.56029 h 19.22497 l 11.30881,42.97347 15.83235,-62.19846 13.57056,44.10437 12.43969,-44.10437 12.4397,44.10437 h 21.48671" display="inline"/><path id="path1007-1" fill="url(#linearGradient1041-3)" fill-opacity="1" fill-rule="nonzero" stroke="none" stroke-dasharray="none" stroke-dashoffset="0" stroke-linecap="butt" stroke-linejoin="round" stroke-miterlimit="4" stroke-opacity="1" stroke-width="2.638" d="m 218.42669,213.06936 c -2.83139,0 -5.35733,2.49661 -5.35733,5.35733 v 107.14662 c 0,3.51048 3.33252,5.35733 5.35733,5.35733 h 107.14662 c 2.19356,0 5.35733,-2.08604 5.35733,-5.35733 V 218.42669 c 0,-3.14535 -2.87768,-5.35733 -5.35733,-5.35733 z m 0,2.67867 h 107.14662 c 1.33933,0 2.67866,1.33933 2.67866,2.67866 v 107.14662 c 0,1.33933 -1.33933,2.67866 -2.67866,2.67866 H 218.42669 c -1.33933,0 -2.67866,-1.33933 -2.67866,-2.67866 V 218.42669 c 0,-1.33933 1.30807,-2.67866 2.67866,-2.67866 z" baseline-shift="baseline" clip-rule="nonzero" color="#000" color-interpolation="sRGB" color-interpolation-filters="linearRGB" color-rendering="auto" direction="ltr" display="inline" dominant-baseline="auto" enable-background="accumulate" font-family="sans-serif" font-size="medium" font-stretch="normal" font-style="normal" font-variant="normal" font-weight="normal" image-rendering="auto" letter-spacing="normal" opacity="1" overflow="visible" shape-rendering="auto" text-anchor="start" text-decoration="none" text-rendering="auto" vector-effect="none" visibility="visible" word-spacing="normal" writing-mode="lr-tb" style="line-height:normal;font-variant-ligatures:normal;font-variant-position:normal;font-variant-caps:normal;font-variant-numeric:normal;font-variant-alternates:normal;font-feature-settings:normal;text-indent:0;text-align:start;text-decoration-line:none;text-decoration-style:solid;text-decoration-color:#000;text-transform:none;text-orientation:mixed;white-space:normal;shape-padding:0;isolation:auto;mix-blend-mode:normal;solid-color:#000;solid-opacity:1"/></g></g></svg>