<svg xmlns="http://www.w3.org/2000/svg" xmlns:svg="http://www.w3.org/2000/svg" xmlns:xlink="http://www.w3.org/1999/xlink" id="svg2" width="48" height="48" enable-background="new" version="1.1" viewBox="0 0 48 48"><title id="title4675">Template icons dark</title><metadata id="metadata24"/><defs id="defs22"><linearGradient id="linearGradient7804"><stop id="stop7800" offset="0" stop-color="#56aff6" stop-opacity="1"/><stop id="stop7802" offset="1" stop-color="#2196f3" stop-opacity="1"/></linearGradient><clipPath id="clipPath4373-3" clipPathUnits="userSpaceOnUse"><path id="path4375-6" fill="#1565c0" fill-rule="evenodd" stroke="none" stroke-linecap="butt" stroke-linejoin="miter" stroke-opacity="1" stroke-width="1" d="M 592,-212 272,101.04297 V -116 l -48,24 v 240 l 48,24 432,-336 z" display="inline" enable-background="new"/></clipPath><filter id="filter4377-7" width="1.108" height="1.135" x="-.054" y="-.068" color-interpolation-filters="sRGB"><feGaussianBlur id="feGaussianBlur4379-5" stdDeviation="10.8"/></filter><filter id="filter4344-3" width="1.048" height="1.048" x="-.024" y="-.024" color-interpolation-filters="sRGB"><feGaussianBlur id="feGaussianBlur4346-5" stdDeviation="4.8"/></filter><filter id="filter4344-3-3" width="1.048" height="1.048" x="-.024" y="-.024" color-interpolation-filters="sRGB"><feGaussianBlur id="feGaussianBlur4346-5-6" stdDeviation="4.8"/></filter><clipPath id="clipPath4373-3-7" clipPathUnits="userSpaceOnUse"><path id="path4375-6-5" fill="#1565c0" fill-rule="evenodd" stroke="none" stroke-linecap="butt" stroke-linejoin="miter" stroke-opacity="1" stroke-width="1" d="M 592,-212 272,101.04297 V -116 l -48,24 v 240 l 48,24 432,-336 z" display="inline" enable-background="new"/></clipPath><filter id="filter4377-7-3" width="1.108" height="1.135" x="-.054" y="-.068" color-interpolation-filters="sRGB"><feGaussianBlur id="feGaussianBlur4379-5-5" stdDeviation="10.8"/></filter><filter id="filter4344-3-2" width="1.048" height="1.048" x="-.024" y="-.024" color-interpolation-filters="sRGB"><feGaussianBlur id="feGaussianBlur4346-5-61" stdDeviation="4.8"/></filter><clipPath id="clipPath4373-3-8" clipPathUnits="userSpaceOnUse"><path id="path4375-6-7" fill="#1565c0" fill-rule="evenodd" stroke="none" stroke-linecap="butt" stroke-linejoin="miter" stroke-opacity="1" stroke-width="1" d="M 592,-212 272,101.04297 V -116 l -48,24 v 240 l 48,24 432,-336 z" display="inline" enable-background="new"/></clipPath><filter id="filter4377-7-9" width="1.108" height="1.135" x="-.054" y="-.068" color-interpolation-filters="sRGB"><feGaussianBlur id="feGaussianBlur4379-5-2" stdDeviation="10.8"/></filter><filter id="filter4344-3-2-6" width="1.048" height="1.048" x="-.024" y="-.024" color-interpolation-filters="sRGB"><feGaussianBlur id="feGaussianBlur4346-5-61-1" stdDeviation="4.8"/></filter><clipPath id="clipPath4373-3-8-2" clipPathUnits="userSpaceOnUse"><path id="path4375-6-7-9" fill="#1565c0" fill-rule="evenodd" stroke="none" stroke-linecap="butt" stroke-linejoin="miter" stroke-opacity="1" stroke-width="1" d="M 592,-212 272,101.04297 V -116 l -48,24 v 240 l 48,24 432,-336 z" display="inline" enable-background="new"/></clipPath><filter id="filter4377-7-9-3" width="1.108" height="1.135" x="-.054" y="-.068" color-interpolation-filters="sRGB"><feGaussianBlur id="feGaussianBlur4379-5-2-1" stdDeviation="10.8"/></filter><linearGradient id="linearGradient7806" x1="-70" x2="-58" y1="-64" y2="-64" gradientUnits="userSpaceOnUse" xlink:href="#linearGradient7804"/><linearGradient id="linearGradient7806-3" x1="-70" x2="-58" y1="-64" y2="-64" gradientTransform="translate(70,70)" gradientUnits="userSpaceOnUse" xlink:href="#linearGradient7804"/><linearGradient id="linearGradient7831" x1="-53" x2="-35" y1="-43" y2="-44" gradientUnits="userSpaceOnUse" xlink:href="#linearGradient7804"/></defs><g id="layer1" display="inline"><g id="layer5" display="none"><rect id="frame_16" width="16" height="16" x="-72" y="-72" fill="#000" fill-opacity="1" fill-rule="nonzero" stroke="#ff24f7" stroke-dasharray="none" stroke-dashoffset="0" stroke-linecap="square" stroke-linejoin="miter" stroke-miterlimit="4" stroke-opacity=".995" stroke-width="0" marker-end="none" marker-mid="none" marker-start="none" clip-rule="nonzero" color="#000" color-interpolation="sRGB" color-interpolation-filters="linearRGB" color-rendering="auto" display="block" enable-background="accumulate" image-rendering="auto" opacity="1" overflow="visible" paint-order="normal" shape-rendering="auto" text-rendering="auto" vector-effect="none" visibility="visible" style="isolation:auto;mix-blend-mode:normal;solid-color:#000;solid-opacity:1;marker:none"/><text id="txt_16" x="-69.279" y="-61.088" fill="#fff" fill-opacity="1" stroke="none" stroke-linecap="butt" stroke-linejoin="miter" stroke-opacity="1" stroke-width=".072" display="inline" font-family="sans-serif" font-size="8" letter-spacing="0" opacity="1" word-spacing="0" xml:space="preserve" style="line-height:1000%"><tspan id="tspan4768-6" x="-69.279" y="-61.088" fill="#fff" fill-opacity="1" stroke="none" stroke-width=".072" font-size="8">16</tspan></text></g><g id="layer6" display="inline"><path id="path7798" fill="#000" fill-opacity=".104" fill-rule="evenodd" stroke="none" stroke-linecap="butt" stroke-linejoin="miter" stroke-opacity="1" stroke-width=".034" d="m -59,-71.499999 -7.499999,5 L -69,-69 l -2.499999,2.500001 v 4.999998 L -69,-59 l 2.500001,-2.500001 7.499999,5 L -56.500001,-59 V -69 Z M -59,-69 v 10 l -5,-5 z M -69,-66.499999 -66.499999,-64 -69,-61.468331 Z" display="inline" enable-background="new"/><path id="path3386-1-8" fill="url(#linearGradient7806)" fill-opacity="1" fill-rule="evenodd" stroke="none" stroke-linecap="butt" stroke-linejoin="miter" stroke-opacity="1" stroke-width=".027" d="m -60,-70 -6,4 -2,-2 -2,2 v 4 l 2,2 2,-2 6,4 2,-2 v -8 z m 0,2 v 8 l -4,-4 z m -8,2 2,2 -2,2.025335 z" display="inline" enable-background="new"/></g></g><g id="layer2" display="inline"><g id="layer7" display="none"><rect id="frame_24" width="24" height="24" x="-56" y="-56" fill="#000" fill-opacity=".995" fill-rule="nonzero" stroke="#ff24f7" stroke-dasharray="none" stroke-dashoffset="0" stroke-linecap="square" stroke-linejoin="miter" stroke-miterlimit="4" stroke-opacity=".995" stroke-width="0" marker-end="none" marker-mid="none" marker-start="none" clip-rule="nonzero" color="#000" color-interpolation="sRGB" color-interpolation-filters="linearRGB" color-rendering="auto" display="block" enable-background="accumulate" image-rendering="auto" opacity="1" overflow="visible" paint-order="normal" shape-rendering="auto" text-rendering="auto" vector-effect="none" visibility="visible" style="isolation:auto;mix-blend-mode:normal;solid-color:#000;solid-opacity:1;marker:none"/><text id="txt_24" x="-50.88" y="-40.042" fill="#fff" fill-opacity="1" stroke="none" stroke-linecap="butt" stroke-linejoin="miter" stroke-opacity="1" stroke-width=".112" display="inline" font-family="sans-serif" font-size="10.667" letter-spacing="0" opacity="1" word-spacing="0" xml:space="preserve" style="line-height:1000%"><tspan id="tspan4835-2-5" x="-50.88" y="-40.042" fill="#fff" fill-opacity="1" stroke="none" stroke-width=".112" font-size="10.667">24</tspan></text></g><g id="layer8" display="inline"><path id="path7796" fill="#000" fill-opacity=".224" fill-rule="evenodd" stroke="none" stroke-linecap="butt" stroke-linejoin="miter" stroke-opacity="1" stroke-width=".047" d="m -37,-54.553077 -10.531846,7.021231 -3.510616,-3.510616 -3.510615,3.510616 v 7.021231 L -51.042462,-37 -47.531846,-40.510615 -37,-33.489384 -33.489384,-37 v -14.042462 z m 0,3.510615 V -37 l -7.021231,-7.021231 z m -14.042462,3.510616 3.510616,3.510615 -3.510616,3.555086 z" display="inline" enable-background="new"/><path stroke-miterlimit="4" style="font-variant-east_asian:normal" id="path3386-1-8-3" fill="url(#linearGradient7831)" fill-opacity="1" fill-rule="evenodd" stroke="none" stroke-dasharray="none" stroke-dashoffset="0" stroke-linecap="butt" stroke-linejoin="miter" stroke-opacity="1" stroke-width=".027" d="m -38.021231,-53.021231 -9,6 -3,-3 -3,3 v 6 l 3,3 3,-3 9,6 3,-3 v -12 z m 0,3 v 12 l -6,-6 z m -12,3 3,3 -3,3.038002 z" display="inline" enable-background="new" opacity="1" vector-effect="none"/></g></g><g id="g7816" display="inline"><g id="g7802" display="none"><rect id="rect7792" width="32" height="32" x="-32" y="-32" fill="#000" fill-opacity="1" fill-rule="nonzero" stroke="#ff24f7" stroke-dasharray="none" stroke-dashoffset="0" stroke-linecap="square" stroke-linejoin="miter" stroke-miterlimit="4" stroke-opacity=".995" stroke-width="0" marker-end="none" marker-mid="none" marker-start="none" clip-rule="nonzero" color="#000" color-interpolation="sRGB" color-interpolation-filters="linearRGB" color-rendering="auto" display="block" enable-background="accumulate" image-rendering="auto" opacity="1" overflow="visible" paint-order="normal" shape-rendering="auto" text-rendering="auto" vector-effect="none" visibility="visible" style="isolation:auto;mix-blend-mode:normal;solid-color:#000;solid-opacity:1;marker:none"/><text id="text7796" x="-23.799" y="-11.47" fill="#fff" fill-opacity="1" stroke="none" stroke-linecap="butt" stroke-linejoin="miter" stroke-opacity="1" stroke-width=".074" display="inline" font-family="sans-serif" font-size="12.444" letter-spacing="0" opacity="1" word-spacing="0" xml:space="preserve" style="line-height:1000%"><tspan id="tspan7794" x="-23.799" y="-11.47" fill="#fff" fill-opacity="1" stroke="none" stroke-width=".074" font-size="12.444">32</tspan></text></g><g id="g7814" display="inline"><path id="path7754" fill="none" fill-opacity="1" fill-rule="evenodd" stroke="#000" stroke-dasharray="none" stroke-linecap="butt" stroke-linejoin="miter" stroke-miterlimit="4" stroke-opacity=".234" stroke-width="1" d="M -8.5332031,-30.107422 -19.990234,-18.898438 -27.199219,-24.505859 -30,-23.107422 v 14.0000001 l 2.800781,1.4003907 7.208985,-5.6074218 L -8.5332031,-2.1074219 -2,-4.90625 v -22.400391 z m 0,7.882813 v 12.2382809 l -7.8671879,-6.1191409 z m -18.6660159,1.857421 4.355469,4.259766 -4.355469,4.259766 z" display="inline" enable-background="new"/><path id="path3386-1-6" fill="#1976d2" fill-rule="evenodd" stroke="none" stroke-linecap="butt" stroke-linejoin="miter" stroke-opacity="1" stroke-width=".058" d="M -30,-9.1065745 V -23.106576 l 2.8,-1.399998 v 16.7999991 z" display="inline" enable-background="new"/><path id="path3392-2-2" fill="#1565c0" fill-rule="evenodd" stroke="none" stroke-linecap="butt" stroke-linejoin="miter" stroke-opacity="1" stroke-width=".058" d="M -8.5333334,-30.106574 -30,-9.1065745 -27.2,-7.7065749 -2,-27.306574 Z" display="inline" enable-background="new"/><path id="path3390-9-6" fill="#1e88e5" fill-rule="evenodd" stroke="none" stroke-linecap="butt" stroke-linejoin="miter" stroke-opacity="1" stroke-width=".058" d="M -8.5333334,-2.1065749 -30,-23.106576 -27.2,-24.506574 -2,-4.9065749 Z" display="inline" enable-background="new"/><path id="path3388-6-1" fill="#2196f3" fill-rule="evenodd" stroke="none" stroke-linecap="butt" stroke-linejoin="miter" stroke-opacity="1" stroke-width=".058" d="M -2,-4.9065749 V -27.306574 l -6.5333334,-2.8 v 27.9999991 z" display="inline" enable-background="new"/></g></g><g id="layer3" display="inline"><g id="layer9" display="none"><rect id="frame_48" width="48" height="48" x="0" y="0" fill="#000" fill-opacity="1" fill-rule="nonzero" stroke="#ff24f7" stroke-dasharray="none" stroke-dashoffset="0" stroke-linecap="square" stroke-linejoin="miter" stroke-miterlimit="4" stroke-opacity=".995" stroke-width="0" marker-end="none" marker-mid="none" marker-start="none" clip-rule="nonzero" color="#000" color-interpolation="sRGB" color-interpolation-filters="linearRGB" color-rendering="auto" display="block" enable-background="accumulate" image-rendering="auto" opacity="1" overflow="visible" paint-order="normal" shape-rendering="auto" text-rendering="auto" vector-effect="none" visibility="visible" style="isolation:auto;mix-blend-mode:normal;solid-color:#000;solid-opacity:1;marker:none"/><text id="txt_48" x="12.301" y="30.795" fill="#fff" fill-opacity="1" stroke="none" stroke-linecap="butt" stroke-linejoin="miter" stroke-opacity="1" stroke-width=".112" display="inline" font-family="sans-serif" font-size="18.667" letter-spacing="0" opacity="1" word-spacing="0" xml:space="preserve" style="line-height:1000%"><tspan id="tspan5049-1" x="12.301" y="30.795" fill="#fff" fill-opacity="1" stroke="none" stroke-width=".112" font-size="18.667">48</tspan></text><text id="txt_scalable_32-64" x="25.824" y="45.962" fill="#fff" fill-opacity=".448" stroke="none" stroke-linecap="butt" stroke-linejoin="miter" stroke-opacity="1" stroke-width=".059" display="inline" font-family="sans-serif" font-size="2.667" letter-spacing="0" opacity="1" word-spacing="0" xml:space="preserve" style="line-height:1000%"><tspan id="tspan5049-1-6" x="25.824" y="45.962" fill="#fff" fill-opacity=".448" stroke="none" stroke-width=".059" font-size="2.667">Scalable:32-64</tspan></text></g><g id="layer10" display="inline"><path id="path4348-6" fill="#000" fill-rule="evenodd" stroke="none" stroke-linecap="butt" stroke-linejoin="miter" stroke-opacity="1" stroke-width="1" d="M 152,-216 -44.40234,-23.86719 -168,-120 l -48,24 v 240 l 48,24 L -44.40234,71.86719 152,264 264,216 v -384 z m 0,135.11133 V 128.88867 L 17.14258,24 Z M -168,-49.04297 -93.33398,24 -168,97.04297 Z" display="inline" enable-background="new" filter="url(#filter4344-3)" opacity=".1" transform="matrix(0.09166667,0,0,0.09166667,21.799999,21.953058)"/><path id="path4342-2" fill="#000" fill-rule="evenodd" stroke="none" stroke-linecap="butt" stroke-linejoin="miter" stroke-opacity="1" stroke-width="1" d="M 152,-216 -44.40234,-23.86719 -168,-120 l -48,24 v 240 l 48,24 L -44.40234,71.86719 152,264 264,216 v -384 z m 0,135.11133 V 128.88867 L 17.14258,24 Z M -168,-49.04297 -93.33398,24 -168,97.04297 Z" display="inline" enable-background="new" filter="url(#filter4344-3)" opacity=".2" transform="matrix(0.09166667,0,0,0.09166667,21.799999,21.953058)"/><path id="path4333-9" fill="#000" fill-rule="evenodd" stroke="none" stroke-linecap="butt" stroke-linejoin="miter" stroke-opacity="1" stroke-width=".092" d="M 35.733334,1.7863919 17.729784,19.398566 6.3999997,10.586391 1.9999998,12.786392 v 22 l 4.3999999,2.2 L 17.729784,28.174216 35.733334,45.786392 46,41.386391 V 6.1863918 Z m 0,12.3852061 V 33.401187 L 23.371403,23.786392 Z m -29.3333343,2.919189 6.8443843,6.695605 -6.8443843,6.695606 z" display="inline" enable-background="new" opacity=".2"/><path id="path3386-1" fill="#1976d2" fill-rule="evenodd" stroke="none" stroke-linecap="butt" stroke-linejoin="miter" stroke-opacity="1" stroke-width=".092" d="M 1.9999998,34.603058 V 12.603059 l 4.3999999,-2.200001 v 26.4 z" display="inline" enable-background="new"/><path id="path3392-2" fill="#1565c0" fill-rule="evenodd" stroke="none" stroke-linecap="butt" stroke-linejoin="miter" stroke-opacity="1" stroke-width=".092" d="M 35.733334,1.6030585 1.9999998,34.603058 l 4.3999999,2.2 L 46,6.0030584 Z" display="inline" enable-background="new"/><path id="path4350-7" fill="#000" fill-opacity="1" fill-rule="evenodd" stroke="none" stroke-linecap="butt" stroke-linejoin="miter" stroke-opacity="1" stroke-width="1" d="M 592,272 224,-88 272,-112 704,224 Z" clip-path="url(#clipPath4373-3)" display="inline" enable-background="new" filter="url(#filter4377-7)" opacity=".2" transform="matrix(0.09166667,0,0,0.09166667,-18.533333,21.036392)"/><path id="path4318-0" fill="#fff" fill-rule="evenodd" stroke="none" stroke-linecap="butt" stroke-linejoin="miter" stroke-opacity="1" stroke-width=".092" d="M 35.733334,1.6030585 1.9999998,34.603058 2.1240724,34.665004 35.733334,1.7863919 45.847999,6.1212222 46,6.0030584 Z" display="inline" enable-background="new" opacity=".2"/><path id="path3390-9" fill="#1e88e5" fill-rule="evenodd" stroke="none" stroke-linecap="butt" stroke-linejoin="miter" stroke-opacity="1" stroke-width=".092" d="M 35.733334,45.603058 1.9999998,12.603059 6.3999997,10.403058 46,41.203057 Z" display="inline" enable-background="new"/><path id="path4320-3" fill="#fff" fill-rule="evenodd" stroke="none" stroke-linecap="butt" stroke-linejoin="miter" stroke-opacity="1" stroke-width=".092" d="M 6.3999997,10.403058 1.9999998,12.603059 2.1240724,12.724445 6.3999997,10.586391 45.847999,41.268228 46,41.203059 Z" display="inline" enable-background="new" opacity=".2"/><path id="path3388-6" fill="#2196f3" fill-rule="evenodd" stroke="none" stroke-linecap="butt" stroke-linejoin="miter" stroke-opacity="1" stroke-width=".092" d="M 46,41.203057 V 6.0030584 L 35.733334,1.6030585 V 45.603058 Z" display="inline" enable-background="new"/><path id="path4322-0" fill="#fff" fill-rule="evenodd" stroke="none" stroke-linecap="butt" stroke-linejoin="miter" stroke-opacity="1" stroke-width=".092" d="M 35.733334,1.6030585 V 1.7863919 L 46,6.1863918 V 6.0030584 Z" display="inline" enable-background="new" opacity=".2"/></g></g><g id="g7907" display="inline"><g id="g7843" display="none"><rect id="rect7837" width="64" height="64" x="48" y="48" fill="#000" fill-opacity="1" fill-rule="nonzero" stroke="#ff24f7" stroke-dasharray="none" stroke-dashoffset="0" stroke-linecap="square" stroke-linejoin="miter" stroke-miterlimit="4" stroke-opacity=".995" stroke-width="0" marker-end="none" marker-mid="none" marker-start="none" clip-rule="nonzero" color="#000" color-interpolation="sRGB" color-interpolation-filters="linearRGB" color-rendering="auto" display="inline" enable-background="accumulate" image-rendering="auto" opacity="1" overflow="visible" paint-order="normal" shape-rendering="auto" text-rendering="auto" vector-effect="none" visibility="visible" style="isolation:auto;mix-blend-mode:normal;solid-color:#000;solid-opacity:1;marker:none"/><text id="text7841" x="69.816" y="85.824" fill="#fff" fill-opacity="1" stroke="none" stroke-linecap="butt" stroke-linejoin="miter" stroke-opacity="1" stroke-width=".033" display="inline" font-family="sans-serif" font-size="16" letter-spacing="0" opacity="1" word-spacing="0" xml:space="preserve" style="line-height:0%"><tspan id="tspan7839" x="69.816" y="85.824" fill="#fff" fill-opacity="1" stroke="none" stroke-width=".033" font-size="16" style="line-height:0%">64</tspan></text></g><g id="g7905" display="inline"><path id="path4348-6-6" fill="#000" fill-rule="evenodd" stroke="none" stroke-linecap="butt" stroke-linejoin="miter" stroke-opacity="1" stroke-width="1" d="M 152,-216 -44.40234,-23.86719 -168,-120 l -48,24 v 240 l 48,24 L -44.40234,71.86719 152,264 264,216 v -384 z m 0,135.11133 V 128.88867 L 17.14258,24 Z M -168,-49.04297 -93.33398,24 -168,97.04297 Z" display="inline" enable-background="new" filter="url(#filter4344-3-3)" opacity=".1" transform="matrix(0.12091536,0,0,0.12091536,77.117714,77.418215)"/><path id="path4342-2-2" fill="#000" fill-rule="evenodd" stroke="none" stroke-linecap="butt" stroke-linejoin="miter" stroke-opacity="1" stroke-width="1" d="M 152,-216 -44.40234,-23.86719 -168,-120 l -48,24 v 240 l 48,24 L -44.40234,71.86719 152,264 264,216 v -384 z m 0,135.11133 V 128.88867 L 17.14258,24 Z M -168,-49.04297 -93.33398,24 -168,97.04297 Z" display="inline" enable-background="new" filter="url(#filter4344-3-3)" opacity=".2" transform="matrix(0.12091536,0,0,0.12091536,77.117714,77.418215)"/><path id="path4333-9-9" fill="#000" fill-rule="evenodd" stroke="none" stroke-linecap="butt" stroke-linejoin="miter" stroke-opacity="1" stroke-width=".121" d="M 95.49685,50.816838 71.748788,74.048643 56.803936,62.42471 50.999997,65.32668 v 29.019685 l 5.803939,2.901968 14.944852,-11.623934 23.748062,23.231801 13.54252,-5.80393 V 56.620774 Z m 0,16.337035 V 92.519174 L 79.190516,79.836522 Z m -38.692914,3.850633 9.028266,8.832016 -9.028266,8.832019 z" display="inline" enable-background="new" opacity=".2"/><path id="path3386-1-1" fill="#1976d2" fill-rule="evenodd" stroke="none" stroke-linecap="butt" stroke-linejoin="miter" stroke-opacity="1" stroke-width=".121" d="M 50.999997,94.104534 V 65.08485 l 5.803939,-2.90197 v 34.823622 z" display="inline" enable-background="new"/><path id="path3392-2-27" fill="#1565c0" fill-rule="evenodd" stroke="none" stroke-linecap="butt" stroke-linejoin="miter" stroke-opacity="1" stroke-width=".121" d="M 95.49685,50.575006 50.999997,94.104534 56.803936,97.006502 109.03937,56.378943 Z" display="inline" enable-background="new"/><path id="path4350-7-0" fill="#000" fill-opacity="1" fill-rule="evenodd" stroke="none" stroke-linecap="butt" stroke-linejoin="miter" stroke-opacity="1" stroke-width="1" d="M 592,272 224,-88 272,-112 704,224 Z" clip-path="url(#clipPath4373-3-7)" display="inline" enable-background="new" filter="url(#filter4377-7-3)" opacity=".2" transform="matrix(0.12091536,0,0,0.12091536,23.914959,76.209062)"/><path id="path4318-0-9" fill="#fff" fill-rule="evenodd" stroke="none" stroke-linecap="butt" stroke-linejoin="miter" stroke-opacity="1" stroke-width=".121" d="m 95.49685,50.575006 -44.496853,43.529528 0.163662,0.08171 44.333191,-43.369405 13.34201,5.717972 0.20051,-0.155867 z" display="inline" enable-background="new" opacity=".2"/><path id="path3390-9-3" fill="#1e88e5" fill-rule="evenodd" stroke="none" stroke-linecap="butt" stroke-linejoin="miter" stroke-opacity="1" stroke-width=".121" d="M 95.49685,108.61438 50.999997,65.08485 56.803936,62.18288 109.03937,102.81044 Z" display="inline" enable-background="new"/><path id="path4320-3-6" fill="#fff" fill-rule="evenodd" stroke="none" stroke-linecap="butt" stroke-linejoin="miter" stroke-opacity="1" stroke-width=".121" d="m 56.803936,62.18288 -5.803939,2.90197 0.163662,0.160117 5.640277,-2.820257 52.034924,40.4717 0.20051,-0.086 z" display="inline" enable-background="new" opacity=".2"/><path id="path3388-6-0" fill="#2196f3" fill-rule="evenodd" stroke="none" stroke-linecap="butt" stroke-linejoin="miter" stroke-opacity="1" stroke-width=".121" d="M 109.03937,102.81044 V 56.378943 L 95.49685,50.575006 v 58.039374 z" display="inline" enable-background="new"/><path id="path4322-0-6" fill="#fff" fill-rule="evenodd" stroke="none" stroke-linecap="butt" stroke-linejoin="miter" stroke-opacity="1" stroke-width=".121" d="m 95.49685,50.575006 v 0.241832 l 13.54252,5.803936 v -0.241831 z" display="inline" enable-background="new" opacity=".2"/></g></g><g id="g8840" display="inline"><g id="g8776" display="none"><rect id="rect_96" width="96" height="96" x="112" y="112" fill="#000" fill-opacity="1" fill-rule="nonzero" stroke="#ff24f7" stroke-dasharray="none" stroke-dashoffset="0" stroke-linecap="square" stroke-linejoin="miter" stroke-miterlimit="4" stroke-opacity=".995" stroke-width="0" marker-end="none" marker-mid="none" marker-start="none" clip-rule="nonzero" color="#000" color-interpolation="sRGB" color-interpolation-filters="linearRGB" color-rendering="auto" display="inline" enable-background="accumulate" image-rendering="auto" opacity="1" overflow="visible" paint-order="normal" shape-rendering="auto" text-rendering="auto" vector-effect="none" visibility="visible" style="isolation:auto;mix-blend-mode:normal;solid-color:#000;solid-opacity:1;marker:none"/><text id="text_96" x="144.725" y="168.736" fill="#fff" fill-opacity="1" stroke="none" stroke-linecap="butt" stroke-linejoin="miter" stroke-opacity="1" stroke-width=".049" display="inline" font-family="sans-serif" font-size="24" letter-spacing="0" opacity="1" word-spacing="0" xml:space="preserve" style="line-height:0%"><tspan style="line-height:0%" id="tspan8768" x="144.725" y="168.736" fill="#fff" fill-opacity="1" stroke="none" stroke-width=".049" font-size="24">96</tspan></text></g><g id="g8838" display="inline"><path id="path4348-6-0" fill="#000" fill-rule="evenodd" stroke="none" stroke-linecap="butt" stroke-linejoin="miter" stroke-opacity="1" stroke-width="1" d="M 152,-216 -44.40234,-23.86719 -168,-120 l -48,24 v 240 l 48,24 L -44.40234,71.86719 152,264 264,216 v -384 z m 0,135.11133 V 128.88867 L 17.14258,24 Z M -168,-49.04297 -93.33398,24 -168,97.04297 Z" display="inline" enable-background="new" filter="url(#filter4344-3-2)" opacity=".1" transform="matrix(0.18333334,0,0,0.18333334,155.6,155.75306)"/><path id="path4342-2-23" fill="#000" fill-rule="evenodd" stroke="none" stroke-linecap="butt" stroke-linejoin="miter" stroke-opacity="1" stroke-width="1" d="M 152,-216 -44.40234,-23.86719 -168,-120 l -48,24 v 240 l 48,24 L -44.40234,71.86719 152,264 264,216 v -384 z m 0,135.11133 V 128.88867 L 17.14258,24 Z M -168,-49.04297 -93.33398,24 -168,97.04297 Z" display="inline" enable-background="new" filter="url(#filter4344-3-2)" opacity=".2" transform="matrix(0.18333334,0,0,0.18333334,155.6,155.75306)"/><path id="path4333-9-7" fill="#000" fill-rule="evenodd" stroke="none" stroke-linecap="butt" stroke-linejoin="miter" stroke-opacity="1" stroke-width=".183" d="m 183.46666,115.41972 -36.0071,35.22436 -22.65956,-17.62436 -8.8,4.4 v 44 l 8.8,4.4 22.65956,-17.62434 36.0071,35.22434 20.53334,-8.8 v -70.4 z m 0,24.77042 v 38.45918 L 158.7428,159.41972 Z M 124.8,146.02852 138.48876,159.41972 124.8,172.81094 Z" display="inline" enable-background="new" opacity=".2"/><path id="path3386-1-5" fill="#1976d2" fill-rule="evenodd" stroke="none" stroke-linecap="butt" stroke-linejoin="miter" stroke-opacity="1" stroke-width=".183" d="m 116,181.05306 v -44 l 8.8,-4.4 v 52.8 z" display="inline" enable-background="new"/><path id="path3392-2-9" fill="#1565c0" fill-rule="evenodd" stroke="none" stroke-linecap="butt" stroke-linejoin="miter" stroke-opacity="1" stroke-width=".183" d="m 183.46666,115.05306 -67.46666,66 8.8,4.4 79.2,-61.6 z" display="inline" enable-background="new"/><path id="path4350-7-2" fill="#000" fill-opacity="1" fill-rule="evenodd" stroke="none" stroke-linecap="butt" stroke-linejoin="miter" stroke-opacity="1" stroke-width="1" d="M 592,272 224,-88 272,-112 704,224 Z" clip-path="url(#clipPath4373-3-8)" display="inline" enable-background="new" filter="url(#filter4377-7-9)" opacity=".2" transform="matrix(0.18333334,0,0,0.18333334,74.93334,153.91972)"/><path id="path4318-0-2" fill="#fff" fill-rule="evenodd" stroke="none" stroke-linecap="butt" stroke-linejoin="miter" stroke-opacity="1" stroke-width=".183" d="m 183.46666,115.05306 -67.46666,66 0.24814,0.1238 67.21852,-65.75722 20.22934,8.66966 0.304,-0.23632 z" display="inline" enable-background="new" opacity=".2"/><path id="path3390-9-8" fill="#1e88e5" fill-rule="evenodd" stroke="none" stroke-linecap="butt" stroke-linejoin="miter" stroke-opacity="1" stroke-width=".183" d="m 183.46666,203.05306 -67.46666,-66 8.8,-4.4 79.2,61.6 z" display="inline" enable-background="new"/><path id="path4320-3-9" fill="#fff" fill-rule="evenodd" stroke="none" stroke-linecap="butt" stroke-linejoin="miter" stroke-opacity="1" stroke-width=".183" d="m 124.8,132.65306 -8.8,4.4 0.24814,0.24276 8.55186,-4.2761 78.896,61.36368 0.304,-0.1304 z" display="inline" enable-background="new" opacity=".2"/><path id="path3388-6-7" fill="#2196f3" fill-rule="evenodd" stroke="none" stroke-linecap="butt" stroke-linejoin="miter" stroke-opacity="1" stroke-width=".183" d="m 204,194.25306 v -70.4 l -20.53334,-8.8 v 88 z" display="inline" enable-background="new"/><path id="path4322-0-3" fill="#fff" fill-rule="evenodd" stroke="none" stroke-linecap="butt" stroke-linejoin="miter" stroke-opacity="1" stroke-width=".183" d="m 183.46666,115.05306 v 0.36666 l 20.53334,8.8 v -0.36666 z" display="inline" enable-background="new" opacity=".2"/></g></g><g id="layer4" display="inline"><g id="layer11" display="none"><rect id="frame_128" width="128" height="128" x="208" y="208" fill="#000" fill-opacity="1" fill-rule="nonzero" stroke="#ff24f7" stroke-dasharray="none" stroke-dashoffset="0" stroke-linecap="square" stroke-linejoin="miter" stroke-miterlimit="4" stroke-opacity=".995" stroke-width="0" marker-end="none" marker-mid="none" marker-start="none" clip-rule="nonzero" color="#000" color-interpolation="sRGB" color-interpolation-filters="linearRGB" color-rendering="auto" display="inline" enable-background="accumulate" image-rendering="auto" opacity="1" overflow="visible" paint-order="normal" shape-rendering="auto" text-rendering="auto" vector-effect="none" visibility="visible" style="isolation:auto;mix-blend-mode:normal;solid-color:#000;solid-opacity:1;marker:none"/><text id="txt_128" x="236.175" y="283.345" fill="#fff" fill-opacity="1" stroke="none" stroke-linecap="butt" stroke-linejoin="miter" stroke-opacity="1" stroke-width=".079" display="inline" font-family="sans-serif" font-size="38.465" letter-spacing="0" opacity="1" word-spacing="0" xml:space="preserve" style="line-height:0%"><tspan id="tspan5069-6" x="236.175" y="283.345" fill="#fff" fill-opacity="1" stroke="none" stroke-width=".079" font-size="38.465" style="line-height:0%">128</tspan></text><text id="txt_scalable_64_512" x="265.978" y="330.133" fill="#fff" fill-opacity=".422" stroke="none" stroke-linecap="butt" stroke-linejoin="miter" stroke-opacity="1" stroke-width=".164" display="inline" font-family="sans-serif" font-size="7.432" letter-spacing="0" opacity="1" word-spacing="0" xml:space="preserve" style="line-height:1000%"><tspan id="tspan5049-1-6-6" x="265.978" y="330.133" fill="#fff" fill-opacity=".422" stroke="none" stroke-width=".164" font-size="8.09">Scalable:96-512</tspan></text></g><g id="layer12" display="inline"><path id="path4348-6-0-9" fill="#000" fill-rule="evenodd" stroke="none" stroke-linecap="butt" stroke-linejoin="miter" stroke-opacity="1" stroke-width="1" d="M 152,-216 -44.40234,-23.86719 -168,-120 l -48,24 v 240 l 48,24 L -44.40234,71.86719 152,264 264,216 v -384 z m 0,135.11133 V 128.88867 L 17.14258,24 Z M -168,-49.04297 -93.33398,24 -168,97.04297 Z" display="inline" enable-background="new" filter="url(#filter4344-3-2-6)" opacity=".1" transform="matrix(0.24583333,0,0,0.24583333,266.09999,265.91958)"/><path id="path4342-2-23-4" fill="#000" fill-rule="evenodd" stroke="none" stroke-linecap="butt" stroke-linejoin="miter" stroke-opacity="1" stroke-width="1" d="M 152,-216 -44.40234,-23.86719 -168,-120 l -48,24 v 240 l 48,24 L -44.40234,71.86719 152,264 264,216 v -384 z m 0,135.11133 V 128.88867 L 17.14258,24 Z M -168,-49.04297 -93.33398,24 -168,97.04297 Z" display="inline" enable-background="new" filter="url(#filter4344-3-2-6)" opacity=".2" transform="matrix(0.24583333,0,0,0.24583333,266.09999,265.91958)"/><path id="path4333-9-7-7" fill="#000" fill-rule="evenodd" stroke="none" stroke-linecap="butt" stroke-linejoin="miter" stroke-opacity="1" stroke-width=".246" d="m 303.46665,211.83624 -48.28225,47.23266 -30.38441,-23.63266 -11.8,5.90001 v 58.99999 l 11.8,5.9 30.38441,-23.63264 48.28225,47.23264 27.53334,-11.80001 v -94.39999 z m 0,33.21488 v 51.57027 L 270.3142,270.83625 Z m -78.66666,7.82874 18.35539,17.95639 -18.35539,17.95639 z" display="inline" enable-background="new" opacity=".2"/><path id="path3386-1-5-8" fill="#1976d2" fill-rule="evenodd" stroke="none" stroke-linecap="butt" stroke-linejoin="miter" stroke-opacity="1" stroke-width=".246" d="m 212.99999,299.84459 v -59 l 11.8,-5.9 v 70.79999 z" display="inline" enable-background="new"/><path id="path3392-2-9-4" fill="#1565c0" fill-rule="evenodd" stroke="none" stroke-linecap="butt" stroke-linejoin="miter" stroke-opacity="1" stroke-width=".246" d="m 303.46665,211.34459 -90.46666,88.5 11.8,5.89999 106.2,-82.6 z" display="inline" enable-background="new"/><path id="path4350-7-2-5" fill="#000" fill-opacity="1" fill-rule="evenodd" stroke="none" stroke-linecap="butt" stroke-linejoin="miter" stroke-opacity="1" stroke-width="1" d="M 592,272 224,-88 272,-112 704,224 Z" clip-path="url(#clipPath4373-3-8-2)" display="inline" enable-background="new" filter="url(#filter4377-7-9-3)" opacity=".2" transform="matrix(0.24583333,0,0,0.24583333,157.93334,263.46124)"/><path id="path4318-0-2-0" fill="#fff" fill-rule="evenodd" stroke="none" stroke-linecap="butt" stroke-linejoin="miter" stroke-opacity="1" stroke-width=".246" d="m 303.46665,211.34459 -90.46666,88.5 0.33273,0.16599 90.13393,-88.17445 27.1257,11.62524 0.40764,-0.3169 z" display="inline" enable-background="new" opacity=".2"/><path id="path3390-9-8-3" fill="#1e88e5" fill-rule="evenodd" stroke="none" stroke-linecap="butt" stroke-linejoin="miter" stroke-opacity="1" stroke-width=".246" d="m 303.46665,329.34458 -90.46666,-88.49999 11.8,-5.9 106.2,82.59998 z" display="inline" enable-background="new"/><path id="path4320-3-9-6" fill="#fff" fill-rule="evenodd" stroke="none" stroke-linecap="butt" stroke-linejoin="miter" stroke-opacity="1" stroke-width=".246" d="m 224.79999,234.94459 -11.8,5.9 0.33273,0.32552 11.46727,-5.73387 105.79236,82.28312 0.40764,-0.17487 z" display="inline" enable-background="new" opacity=".2"/><path id="path3388-6-7-1" fill="#2196f3" fill-rule="evenodd" stroke="none" stroke-linecap="butt" stroke-linejoin="miter" stroke-opacity="1" stroke-width=".246" d="M 330.99999,317.54457 V 223.14458 L 303.46665,211.34459 V 329.34458 Z" display="inline" enable-background="new"/><path id="path4322-0-3-0" fill="#fff" fill-rule="evenodd" stroke="none" stroke-linecap="butt" stroke-linejoin="miter" stroke-opacity="1" stroke-width=".246" d="m 303.46665,211.34459 v 0.49165 l 27.53334,11.8 v -0.49166 z" display="inline" enable-background="new" opacity=".2"/></g></g></svg>