<svg xmlns="http://www.w3.org/2000/svg" xmlns:svg="http://www.w3.org/2000/svg" xmlns:xlink="http://www.w3.org/1999/xlink" id="svg2" width="48" height="48" version="1.1" viewBox="0 0 48 48"><metadata id="metadata24"/><defs id="defs22"><linearGradient id="linearGradient5318"><stop id="stop5320" offset="0" stop-color="#8dd4d4" stop-opacity="1"/><stop id="stop5322" offset="1" stop-color="#0b6b85" stop-opacity="1"/></linearGradient><linearGradient id="linearGradient5286"><stop id="stop5288" offset="0" stop-color="#c21007" stop-opacity="1"/><stop id="stop5290" offset="1" stop-color="#f91c09" stop-opacity="1"/></linearGradient><linearGradient id="linearGradient5270"><stop id="stop5272" offset="0" stop-color="#d51418" stop-opacity="1"/><stop id="stop5280" offset="1" stop-color="#ff5341" stop-opacity="1"/></linearGradient><linearGradient id="linearGradient5196"><stop id="stop5198" offset="0" stop-color="#090909" stop-opacity="1"/><stop id="stop5202" offset="1" stop-color="#5b5b5b" stop-opacity="1"/></linearGradient><linearGradient id="linearGradient5184"><stop id="stop5186" offset="0" stop-color="#ff2937" stop-opacity="1"/><stop id="stop5192" offset=".508" stop-color="#b60009" stop-opacity="1"/><stop id="stop5188" offset="1" stop-color="#fa3e39" stop-opacity="1"/></linearGradient><linearGradient id="linearGradient5170"><stop id="stop5172" offset="0" stop-color="#e6e5e0" stop-opacity="1"/><stop id="stop5182" offset=".175" stop-color="#e9e6e0" stop-opacity="1"/><stop id="stop5180" offset=".475" stop-color="#6b5c53" stop-opacity="1"/><stop id="stop5388" offset=".566" stop-color="#7e7168" stop-opacity="1"/><stop id="stop5178" offset=".816" stop-color="#faf5e6" stop-opacity="1"/><stop id="stop5174" offset="1" stop-color="#a49594" stop-opacity="1"/></linearGradient><linearGradient id="linearGradient5058"><stop id="stop5060" offset="0" stop-color="#ef302e" stop-opacity="1"/><stop id="stop5292" offset=".158" stop-color="#ee2d2d" stop-opacity="1"/><stop id="stop5066" offset=".495" stop-color="#b10219" stop-opacity="1"/><stop id="stop5070" offset=".729" stop-color="#e82829" stop-opacity="1"/><stop id="stop5068" offset=".835" stop-color="#fe4c46" stop-opacity="1"/><stop id="stop5062" offset="1" stop-color="#e52530" stop-opacity="1"/></linearGradient><linearGradient id="linearGradient4261"><stop id="stop4263" offset="0" stop-color="#000" stop-opacity="1"/><stop id="stop4265" offset="1" stop-color="#000" stop-opacity="0"/></linearGradient><linearGradient id="linearGradient49897"><stop id="stop49899" offset="0" stop-color="#176875" stop-opacity="1"/><stop id="stop49901" offset="1" stop-color="#186a77" stop-opacity="1"/></linearGradient><linearGradient id="linearGradient4536"><stop id="stop4538" offset="0" stop-color="#b6b6b6" stop-opacity="1"/><stop id="stop4544" offset=".482" stop-color="#fff" stop-opacity="1"/><stop id="stop4540" offset="1" stop-color="#cfcfcf" stop-opacity="1"/></linearGradient><linearGradient id="linearGradient4492"><stop id="stop4494" offset="0" stop-color="#165dc2" stop-opacity="1"/><stop id="stop4496" offset="1" stop-color="#1680c2" stop-opacity="1"/></linearGradient><filter id="filter4672" color-interpolation-filters="sRGB"><feGaussianBlur id="feGaussianBlur4674" stdDeviation="19.54"/></filter><filter id="filter4680" color-interpolation-filters="sRGB"><feDiffuseLighting id="feDiffuseLighting4682"/></filter><linearGradient id="linearGradient4498-3" x1="32.948" x2="41.58" y1="16.16" y2="6.42" gradientTransform="translate(-29.321003,-3.241)" gradientUnits="userSpaceOnUse" xlink:href="#linearGradient4492"/><linearGradient id="linearGradient4542-0" x1="29.321" x2="44.279" y1="10.72" y2="10.72" gradientTransform="translate(-29.321003,-3.241)" gradientUnits="userSpaceOnUse" xlink:href="#linearGradient4536"/><linearGradient id="linearGradient3244"><stop id="stop3246" offset="0" stop-color="#d0611f" stop-opacity="1"/><stop id="stop3248" offset="1" stop-color="#f77a2c" stop-opacity="1"/></linearGradient><linearGradient id="linearGradient3242-3" x1="78.897" x2="78.897" y1="1042.14" y2="982.428" gradientTransform="matrix(0.49438202,0,0,0.49438202,-34.11236,-485.66219)" gradientUnits="userSpaceOnUse" xlink:href="#linearGradient3244"/><symbol id="icon-refresh" viewBox="0 0 24 28"><title id="title9852">refresh</title><path id="path9854" d="M23.609 16.5c0 0.031 0 0.078-0.016 0.109-1.328 5.531-5.891 9.391-11.656 9.391-3.047 0-6-1.203-8.219-3.313l-2.016 2.016c-0.187 0.187-0.438 0.297-0.703 0.297-0.547 0-1-0.453-1-1v-7c0-0.547 0.453-1 1-1h7c0.547 0 1 0.453 1 1 0 0.266-0.109 0.516-0.297 0.703l-2.141 2.141c1.469 1.375 3.422 2.156 5.437 2.156 2.781 0 5.359-1.437 6.813-3.813 0.375-0.609 0.562-1.203 0.828-1.828 0.078-0.219 0.234-0.359 0.469-0.359h3c0.281 0 0.5 0.234 0.5 0.5zM24 4v7c0 0.547-0.453 1-1 1h-7c-0.547 0-1-0.453-1-1 0-0.266 0.109-0.516 0.297-0.703l2.156-2.156c-1.484-1.375-3.437-2.141-5.453-2.141-2.781 0-5.359 1.437-6.813 3.813-0.375 0.609-0.562 1.203-0.828 1.828-0.078 0.219-0.234 0.359-0.469 0.359h-3.109c-0.281 0-0.5-0.234-0.5-0.5v-0.109c1.344-5.547 5.953-9.391 11.719-9.391 3.063 0 6.047 1.219 8.266 3.313l2.031-2.016c0.187-0.187 0.438-0.297 0.703-0.297 0.547 0 1 0.453 1 1z" class="path1"/></symbol><symbol id="symbol5687"><title id="title5689">Replay</title><path id="path5691" stroke="none" d="M24 10V2L14 12l10 10v-8c6.63 0 12 5.37 12 12s-5.37 12-12 12-12-5.37-12-12H8c0 8.84 7.16 16 16 16s16-7.16 16-16-7.16-16-16-16z"/></symbol><symbol id="symbol20353"><title id="title20355">Refresh</title><path id="path20357" stroke="none" d="M35.3 12.7C32.41 9.8 28.42 8 24 8 15.16 8 8.02 15.16 8.02 24S15.16 40 24 40c7.45 0 13.69-5.1 15.46-12H35.3c-1.65 4.66-6.07 8-11.3 8-6.63 0-12-5.37-12-12s5.37-12 12-12c3.31 0 6.28 1.38 8.45 3.55L26 22h14V8l-4.7 4.7z"/></symbol><linearGradient id="linearGradient49903-2" x1="24.334" x2="24.334" y1="44.352" y2="-.6" gradientUnits="userSpaceOnUse" xlink:href="#linearGradient49897"/><linearGradient id="linearGradient50365" x1="24.334" x2="24.334" y1="44.352" y2="-.6" gradientTransform="matrix(1.0514827,0,0,1.0514827,-1.2359443,-1.105721)" gradientUnits="userSpaceOnUse" xlink:href="#linearGradient49897"/><linearGradient id="linearGradient4267" x1="8.02" x2="40" y1="24" y2="24" gradientUnits="userSpaceOnUse" xlink:href="#linearGradient4261"/><clipPath id="clipPath4346" clipPathUnits="userSpaceOnUse"><path id="path4348" d="M 7999.98,0 0,0 l 0,8000 7999.98,0 0,-8000 M 4024.8,2315.98 c -2018.37,0 -3631.265,-295.84 -3634.183,-674.02 -3,-387.98 1691.193,-715.679 3783.883,-731.851 53.65,-0.418 107.31,-0.621 160.41,-0.621 2018.44,-0.027 3631.23,295.892 3634.14,673.912 3.01,388.17 -1691.12,715.78 -3783.7,731.96 -53.77,0.42 -107.32,0.62 -160.55,0.62"/></clipPath><clipPath id="clipPath4352" clipPathUnits="userSpaceOnUse"><path id="path4354" d="m 0,3819.2 4531.2,0 0,4185.6 -4531.2,0 0,-4185.6 z"/></clipPath><clipPath id="clipPath4364" clipPathUnits="userSpaceOnUse"><path id="path4366" d="M 7999.98,0 0,0 l 0,8000 7999.98,0 0,-8000 M 4024.8,2315.98 c -2018.37,0 -3631.265,-295.84 -3634.183,-674.02 -3,-387.98 1691.193,-715.679 3783.883,-731.851 53.65,-0.418 107.31,-0.621 160.41,-0.621 2018.44,-0.027 3631.23,295.892 3634.14,673.912 3.01,388.17 -1691.12,715.78 -3783.7,731.96 -53.77,0.42 -107.32,0.62 -160.55,0.62"/></clipPath><clipPath id="clipPath4370" clipPathUnits="userSpaceOnUse"><path id="path4372" d="m 4516.8,2777.6 3489.6,0 0,5227.2 -3489.6,0 0,-5227.2 z"/></clipPath><clipPath id="clipPath4382" clipPathUnits="userSpaceOnUse"><path id="path4384" d="M 7999.98,0 0,0 l 0,8000 7999.98,0 0,-8000 M 4024.8,2315.98 c -2018.37,0 -3631.265,-295.84 -3634.183,-674.02 -3,-387.98 1691.193,-715.679 3783.883,-731.851 53.65,-0.418 107.31,-0.621 160.41,-0.621 2018.44,-0.027 3631.23,295.892 3634.14,673.912 3.01,388.17 -1691.12,715.78 -3783.7,731.96 -53.77,0.42 -107.32,0.62 -160.55,0.62"/></clipPath><clipPath id="clipPath4388" clipPathUnits="userSpaceOnUse"><path id="path4390" d="m 0,2081.6 4531.2,0 0,1752 -4531.2,0 0,-1752 z"/></clipPath><clipPath id="clipPath4400" clipPathUnits="userSpaceOnUse"><path id="path4402" d="M 7999.98,0 0,0 l 0,8000 7999.98,0 0,-8000 M 4024.8,2315.98 c -2018.37,0 -3631.265,-295.84 -3634.183,-674.02 -3,-387.98 1691.193,-715.679 3783.883,-731.851 53.65,-0.418 107.31,-0.621 160.41,-0.621 2018.44,-0.027 3631.23,295.892 3634.14,673.912 3.01,388.17 -1691.12,715.78 -3783.7,731.96 -53.77,0.42 -107.32,0.62 -160.55,0.62"/></clipPath><clipPath id="clipPath4406" clipPathUnits="userSpaceOnUse"><path id="path4408" d="m 4516.8,2081.6 3489.6,0 0,710.398 -3489.6,0 0,-710.398 z"/></clipPath><clipPath id="clipPath4418" clipPathUnits="userSpaceOnUse"><path id="path4420" d="M 7999.98,0 0,0 l 0,8000 7999.98,0 0,-8000 M 4024.8,2315.98 c -2018.37,0 -3631.265,-295.84 -3634.183,-674.02 -3,-387.98 1691.193,-715.679 3783.883,-731.851 53.65,-0.418 107.31,-0.621 160.41,-0.621 2018.44,-0.027 3631.23,295.892 3634.14,673.912 3.01,388.17 -1691.12,715.78 -3783.7,731.96 -53.77,0.42 -107.32,0.62 -160.55,0.62"/></clipPath><clipPath id="clipPath4424" clipPathUnits="userSpaceOnUse"><path id="path4426" d="m 0,0 700.801,0 0,2096 L 0,2096 0,0 Z"/></clipPath><clipPath id="clipPath4436" clipPathUnits="userSpaceOnUse"><path id="path4438" d="M 7999.98,0 0,0 l 0,8000 7999.98,0 0,-8000 M 4024.8,2315.98 c -2018.37,0 -3631.265,-295.84 -3634.183,-674.02 -3,-387.98 1691.193,-715.679 3783.883,-731.851 53.65,-0.418 107.31,-0.621 160.41,-0.621 2018.44,-0.027 3631.23,295.892 3634.14,673.912 3.01,388.17 -1691.12,715.78 -3783.7,731.96 -53.77,0.42 -107.32,0.62 -160.55,0.62"/></clipPath><clipPath id="clipPath4442" clipPathUnits="userSpaceOnUse"><path id="path4444" d="m 686.398,1731.2 710.402,0 0,364.801 -710.402,0 0,-364.801 z"/></clipPath><clipPath id="clipPath4454" clipPathUnits="userSpaceOnUse"><path id="path4456" d="M 7999.98,0 0,0 l 0,8000 7999.98,0 0,-8000 M 4024.8,2315.98 c -2018.37,0 -3631.265,-295.84 -3634.183,-674.02 -3,-387.98 1691.193,-715.679 3783.883,-731.851 53.65,-0.418 107.31,-0.621 160.41,-0.621 2018.44,-0.027 3631.23,295.892 3634.14,673.912 3.01,388.17 -1691.12,715.78 -3783.7,731.96 -53.77,0.42 -107.32,0.62 -160.55,0.62"/></clipPath><clipPath id="clipPath4460" clipPathUnits="userSpaceOnUse"><path id="path4462" d="m 6600,1731.2 1406.4,0 0,364.801 -1406.4,0 0,-364.801 z"/></clipPath><clipPath id="clipPath4472" clipPathUnits="userSpaceOnUse"><path id="path4474" d="M 7999.98,0 0,0 l 0,8000 7999.98,0 0,-8000 M 4024.8,2315.98 c -2018.37,0 -3631.265,-295.84 -3634.183,-674.02 -3,-387.98 1691.193,-715.679 3783.883,-731.851 53.65,-0.418 107.31,-0.621 160.41,-0.621 2018.44,-0.027 3631.23,295.892 3634.14,673.912 3.01,388.17 -1691.12,715.78 -3783.7,731.96 -53.77,0.42 -107.32,0.62 -160.55,0.62"/></clipPath><clipPath id="clipPath4478" clipPathUnits="userSpaceOnUse"><path id="path4480" d="m 7646.4,0 360,0 0,1745.6 -360,0 0,-1745.6 z"/></clipPath><clipPath id="clipPath4490" clipPathUnits="userSpaceOnUse"><path id="path4492" d="M 7999.98,0 0,0 l 0,8000 7999.98,0 0,-8000 M 4024.8,2315.98 c -2018.37,0 -3631.265,-295.84 -3634.183,-674.02 -3,-387.98 1691.193,-715.679 3783.883,-731.851 53.65,-0.418 107.31,-0.621 160.41,-0.621 2018.44,-0.027 3631.23,295.892 3634.14,673.912 3.01,388.17 -1691.12,715.78 -3783.7,731.96 -53.77,0.42 -107.32,0.62 -160.55,0.62"/></clipPath><clipPath id="clipPath4496" clipPathUnits="userSpaceOnUse"><path id="path4498" d="m 686.398,0 1406.4,0 0,1400 -1406.4,0 0,-1400 z"/></clipPath><clipPath id="clipPath4508" clipPathUnits="userSpaceOnUse"><path id="path4510" d="M 7999.98,0 0,0 l 0,8000 7999.98,0 0,-8000 M 4024.8,2315.98 c -2018.37,0 -3631.265,-295.84 -3634.183,-674.02 -3,-387.98 1691.193,-715.679 3783.883,-731.851 53.65,-0.418 107.31,-0.621 160.41,-0.621 2018.44,-0.027 3631.23,295.892 3634.14,673.912 3.01,388.17 -1691.12,715.78 -3783.7,731.96 -53.77,0.42 -107.32,0.62 -160.55,0.62"/></clipPath><clipPath id="clipPath4514" clipPathUnits="userSpaceOnUse"><path id="path4516" d="m 6254.4,0 1406.4,0 0,1400 -1406.4,0 0,-1400 z"/></clipPath><clipPath id="clipPath4526" clipPathUnits="userSpaceOnUse"><path id="path4528" d="M 7999.98,0 0,0 l 0,8000 7999.98,0 0,-8000 M 4024.8,2315.98 c -2018.37,0 -3631.265,-295.84 -3634.183,-674.02 -3,-387.98 1691.193,-715.679 3783.883,-731.851 53.65,-0.418 107.31,-0.621 160.41,-0.621 2018.44,-0.027 3631.23,295.892 3634.14,673.912 3.01,388.17 -1691.12,715.78 -3783.7,731.96 -53.77,0.42 -107.32,0.62 -160.55,0.62"/></clipPath><clipPath id="clipPath4532" clipPathUnits="userSpaceOnUse"><path id="path4534" d="m 2078.4,0 4190.4,0 0,1049.6 -4190.4,0 0,-1049.6 z"/></clipPath><clipPath id="clipPath4596" clipPathUnits="userSpaceOnUse"><path id="path4598" d="m 4334.91,909.488 c -53.1,0 -106.76,0.203 -160.41,0.621 -2092.69,16.172 -3786.883,343.871 -3783.883,731.851 2.918,378.18 1615.813,674.02 3634.183,674.02 53.23,0 106.78,-0.2 160.55,-0.62 2092.58,-16.18 3786.71,-343.79 3783.7,-731.96 -2.91,-378.02 -1615.7,-673.939 -3634.14,-673.912"/></clipPath><clipPath id="clipPath4628" clipPathUnits="userSpaceOnUse"><path id="path4630" d="m 1470.27,4552.09 589.74,-2417.91 2754.89,303.3 -497.07,2106.18 -2847.56,8.43 z"/></clipPath><linearGradient id="linearGradient4632" x1="0" x2="1" y1="0" y2="0" gradientTransform="matrix(584.97,-2114.89,-2114.89,-584.97,2664.31,5235.57)" gradientUnits="userSpaceOnUse" spreadMethod="pad"><stop id="stop4634" offset="0" stop-color="#eef8e9" stop-opacity="1"/><stop id="stop4636" offset=".004" stop-color="#eef8e9" stop-opacity="1"/><stop id="stop4638" offset="1" stop-color="#6acdc9" stop-opacity="1"/></linearGradient><clipPath id="clipPath4646" clipPathUnits="userSpaceOnUse"><path id="path4648" d="m 1470.27,4552.09 589.74,-2417.91 2754.89,303.3 -497.07,2106.18 -2847.56,8.43"/></clipPath><linearGradient id="linearGradient5064" x1="33.6" x2="23.333" y1="24.32" y2="14.573" gradientTransform="matrix(1.1050183,0,0,1.1050183,-0.72089573,-3.7054154)" gradientUnits="userSpaceOnUse" xlink:href="#linearGradient5058"/><filter id="filter5140" width="1.218" height="1.335" x="-.109" y="-.167" color-interpolation-filters="sRGB"><feGaussianBlur id="feGaussianBlur5142" stdDeviation=".068"/></filter><filter id="filter5156" width="1.071" height="1.073" x="-.036" y="-.036" color-interpolation-filters="sRGB"><feGaussianBlur id="feGaussianBlur5158" stdDeviation=".092"/></filter><filter id="filter5166" width="1.048" height="1.048" x="-.024" y="-.024" color-interpolation-filters="sRGB"><feGaussianBlur id="feGaussianBlur5168" stdDeviation=".137"/></filter><linearGradient id="linearGradient5176" x1="26.12" x2="17.722" y1="29.982" y2="21.881" gradientTransform="matrix(1.1050183,0,0,1.1050183,-0.72089573,-3.7054154)" gradientUnits="userSpaceOnUse" xlink:href="#linearGradient5170"/><linearGradient id="linearGradient5190" x1="19.844" x2="18.375" y1="29.063" y2="27.563" gradientTransform="matrix(1.3235573,0,0,1.3235573,-5.0645458,-9.6733102)" gradientUnits="userSpaceOnUse" xlink:href="#linearGradient5184"/><linearGradient id="linearGradient5194" x1="17.781" x2="16.563" y1="29.438" y2="30.813" gradientTransform="matrix(1.1050183,0,0,1.1050183,-0.72089573,-3.7054154)" gradientUnits="userSpaceOnUse" xlink:href="#linearGradient5196"/><filter id="filter5242" width="1.22" height="1.327" x="-.11" y="-.164" color-interpolation-filters="sRGB"><feGaussianBlur id="feGaussianBlur5244" stdDeviation=".068"/></filter><linearGradient id="linearGradient5268" x1="16.25" x2="10.75" y1="23.938" y2="22.313" gradientTransform="matrix(1.1050183,0,0,1.1050183,-0.72089573,-3.7054154)" gradientUnits="userSpaceOnUse" xlink:href="#linearGradient5270"/><linearGradient id="linearGradient5284" x1="16.25" x2="10.75" y1="23.938" y2="22.313" gradientTransform="matrix(0.16081334,-1.0932541,-1.0932541,-0.16081334,48.808386,51.596148)" gradientUnits="userSpaceOnUse" xlink:href="#linearGradient5286"/><linearGradient id="linearGradient5324" x1="24.484" x2="24.13" y1="44.73" y2="2.038" gradientUnits="userSpaceOnUse" xlink:href="#linearGradient5318"/><filter id="filter5384" width="1.234" height="1.365" x="-.117" y="-.183" color-interpolation-filters="sRGB"><feGaussianBlur id="feGaussianBlur5386" stdDeviation=".075"/></filter><filter id="filter5400" width="1.024" height="1.024" x="-.012" y="-.012" color-interpolation-filters="sRGB"><feGaussianBlur id="feGaussianBlur5402" stdDeviation=".225"/></filter></defs><g id="layer6" display="none" opacity="1"><rect marker-start="none" style="isolation:auto;mix-blend-mode:normal;solid-color:#000;solid-opacity:1;marker:none" id="rect49905" width="60" height="60" x="-6" y="-6" fill="#fff" fill-opacity="1" fill-rule="nonzero" stroke="none" stroke-dasharray="none" stroke-dashoffset="0" stroke-linecap="butt" stroke-linejoin="miter" stroke-miterlimit="4" stroke-opacity="1" stroke-width=".201" marker-end="none" marker-mid="none" clip-rule="nonzero" color="#000" color-interpolation="sRGB" color-interpolation-filters="linearRGB" color-rendering="auto" display="inline" enable-background="accumulate" image-rendering="auto" opacity="1" overflow="visible" paint-order="normal" rx="0" ry="0" shape-rendering="auto" text-rendering="auto" visibility="visible"/></g><g id="layer7" display="inline"><circle marker-start="none" style="isolation:auto;mix-blend-mode:normal;solid-color:#000;solid-opacity:1;marker:none" id="circle5398" cx="24" cy="24" r="22.5" fill="#000" fill-opacity=".157" fill-rule="nonzero" stroke="none" stroke-dasharray="none" stroke-dashoffset="0" stroke-linecap="butt" stroke-linejoin="miter" stroke-miterlimit="4" stroke-opacity=".702" stroke-width=".5" marker-end="none" marker-mid="none" clip-rule="nonzero" color="#000" color-interpolation="sRGB" color-interpolation-filters="linearRGB" color-rendering="auto" display="inline" enable-background="accumulate" filter="url(#filter5400)" image-rendering="auto" opacity="1" overflow="visible" paint-order="normal" shape-rendering="auto" text-rendering="auto" visibility="visible"/><rect id="rect4356" width="0" height="0" x="0" y="0" fill="red" fill-opacity="1" fill-rule="nonzero" stroke="none" stroke-dasharray="none" stroke-dashoffset="0" stroke-linecap="round" stroke-linejoin="miter" stroke-miterlimit="4" stroke-opacity=".771" stroke-width=".618" marker-end="none" marker-mid="none" marker-start="none" clip-rule="nonzero" color="#000" color-interpolation="sRGB" color-interpolation-filters="linearRGB" color-rendering="auto" display="inline" enable-background="accumulate" image-rendering="auto" opacity="1" overflow="visible" paint-order="normal" shape-rendering="auto" text-rendering="auto" visibility="visible" style="isolation:auto;mix-blend-mode:normal;solid-color:#000;solid-opacity:1;marker:none"/><circle id="path46816" cx="24" cy="24" r="22" fill="url(#linearGradient5324)" fill-opacity="1" fill-rule="nonzero" stroke="none" stroke-dasharray="none" stroke-dashoffset="0" stroke-linecap="butt" stroke-linejoin="miter" stroke-miterlimit="4" stroke-opacity=".702" stroke-width=".5" marker-end="none" marker-mid="none" marker-start="none" clip-rule="nonzero" color="#000" color-interpolation="sRGB" color-interpolation-filters="linearRGB" color-rendering="auto" display="inline" enable-background="accumulate" image-rendering="auto" opacity="1" overflow="visible" paint-order="normal" shape-rendering="auto" text-rendering="auto" visibility="visible" style="isolation:auto;mix-blend-mode:normal;solid-color:#000;solid-opacity:1;marker:none"/><path id="path5248" fill="#090909" fill-opacity=".157" fill-rule="nonzero" stroke="none" d="M 21.030306,33.471372 C 20.349937,32.094279 19.449955,30.797845 18.32337,29.640226 17.197483,28.482187 15.927751,27.546558 14.56953,26.827746 16.265209,22.150299 17.676457,16.683901 22.197476,12.282262 29.378882,5.2909747 36.554345,5.2567172 42.960462,5.7387207 43.266328,12.159098 42.691429,18.609746 35.509883,25.601454 30.856356,30.232932 26.013577,31.797036 21.030306,33.471372 Z" display="inline"/><rect id="rect49930" width="25.713" height="25.713" x="28.345" y="35.163" fill="none"/><path id="path5282" fill="url(#linearGradient5284)" fill-opacity="1" fill-rule="nonzero" stroke="none" d="m 22.927347,28.653114 c 0.213745,5.331433 0.12134,6.214413 -0.983345,11.607591 1.505385,-0.443085 4.980206,-3.030302 6.30642,-4.043905 5.411737,-4.551009 4.351265,-8.080121 2.194245,-13.311467 l -7.51732,5.747781" display="inline"/><path id="path4714" fill="#ffc37f" fill-opacity="1" fill-rule="nonzero" stroke="none" d="M 5.0403441,42.429838 C 7.9442696,29.289369 14.901378,28.765058 14.901378,28.765058 l 1.901872,1.901873 0.01794,0.01794 1.901996,1.901996 c 0,0 -0.29908,6.731632 -13.4395477,9.635558 l -0.028999,0.029 0.00552,-0.02347 -0.023464,0.0055 -0.1963556,0.196356" display="inline" filter="url(#filter5166)" transform="matrix(1.1050183,0,0,1.1050183,-0.72089573,-3.7054154)"/><path id="path5160" fill="#ffdfaa" fill-opacity="1" fill-rule="nonzero" stroke="none" d="M 6.9015406,41.130278 C 9.674771,28.581214 16.318765,28.0805 16.318765,28.0805 l 1.816275,1.816277 0.01713,0.01713 1.816394,1.816394 c 0,0 -0.28562,6.428667 -12.8346823,9.201896 l -0.027693,0.02769 0.00527,-0.02242 -0.022407,0.0052 -0.1875183,0.187519" display="inline"/><path id="path4716" fill="#ffefb1" fill-opacity="1" fill-rule="nonzero" stroke="none" d="m 9.009486,38.93544 c 2.397468,-11.185157 7.682572,-9.805089 7.682572,-9.805089 l 1.185903,1.185904 0.01127,0.01127 c 0,0 1.220391,0.688404 1.185904,1.185902 -0.42988,6.168762 -10.0656489,7.422013 -10.0656489,7.422013" display="inline"/><path id="path4722" fill="url(#linearGradient5268)" fill-opacity="1" fill-rule="nonzero" stroke="none" d="M 18.211415,25.23899 C 12.967848,24.251637 12.08082,24.214559 6.5842942,24.522614 c 0.6574472,-1.424877 3.7228108,-4.486186 4.9186268,-5.650772 5.290129,-4.691814 8.627338,-3.12904 13.48908,-0.233666 l -6.780586,6.600814" display="inline"/><path id="path5146" fill="#fff" fill-opacity=".88" fill-rule="nonzero" stroke="none" d="m 11.693502,35.759943 c 1.481826,-6.91331 4.748437,-6.060319 4.748437,-6.060319 l 0.732982,0.732982 0.007,0.007 c 0,0 0.754298,0.425488 0.732982,0.732981 -0.2657,3.812782 -6.221367,4.58739 -6.221367,4.58739" display="inline" filter="url(#filter5156)" transform="matrix(1.1050183,0,0,1.1050183,-0.72089573,-3.7054154)"/><path id="path4718" fill="url(#linearGradient5194)" fill-opacity="1" fill-rule="nonzero" stroke="none" d="m 19.810855,32.993081 c 0,0 -0.311113,-1.654049 -1.579326,-3.032968 -1.338193,-1.45501 -3.029661,-1.755292 -3.029661,-1.755292 l 0.585493,-1.919786 6.681031,6.099519" display="inline"/><path id="path4724" fill="url(#linearGradient5064)" fill-opacity="1" fill-rule="nonzero" stroke="none" d="m 21.661295,32.859163 c -0.660842,-1.33757 -1.534994,-2.596794 -2.629245,-3.721189 -1.093574,-1.124803 -2.326863,-2.033579 -3.646103,-2.73176 1.647012,-4.543202 3.275635,-9.190285 7.666898,-13.465593 C 30.02814,6.1499877 35.723318,5.4100927 42.387518,6.5411751 43.303323,11.05371 39.564027,21.255882 34.040579,26.138825 30.539126,29.234244 21.661295,32.859163 21.661295,32.859163 Z" display="inline"/><path id="path4728" fill="url(#linearGradient5176)" fill-opacity="1" fill-rule="nonzero" stroke="none" d="m 27.689198,30.075203 c 0,0 -4.889547,-5.906138 -9.919441,-9.678266 l 0.956087,-1.917956 c 0,0 8.817093,6.878792 10.962917,10.598354" display="inline"/><path id="path4730" fill="url(#linearGradient5190)" fill-opacity="1" fill-rule="nonzero" stroke="#000" stroke-dasharray="none" stroke-miterlimit="4" stroke-opacity=".178" stroke-width=".265" d="m 21.599993,28.191907 c -2.198072,2.140049 -4.463837,3.61901 -5.928189,3.983812 0.404307,-1.45427 1.943862,-3.680633 4.141935,-5.820477 2.198173,-2.139948 4.464556,-3.618908 5.928394,-3.983813 -0.404409,1.454579 -1.943964,3.680737 -4.14214,5.820478" display="inline"/><ellipse color="#000" style="isolation:auto;mix-blend-mode:normal;solid-color:#000;solid-opacity:1;marker:none" id="path5072" cx="37.712" cy="9.496" fill="#f5c1c6" fill-opacity=".754" fill-rule="nonzero" stroke="none" stroke-dasharray="none" stroke-dashoffset="0" stroke-linecap="square" stroke-linejoin="miter" stroke-miterlimit="4" stroke-opacity="1" stroke-width="1" marker-end="none" marker-mid="none" marker-start="none" clip-rule="nonzero" color-interpolation="sRGB" color-interpolation-filters="linearRGB" color-rendering="auto" display="inline" enable-background="accumulate" filter="url(#filter5384)" image-rendering="auto" opacity="1" overflow="visible" paint-order="normal" rx=".754" ry=".49" shape-rendering="auto" text-rendering="auto" transform="matrix(1.5806331,0.04461662,0.12376315,0.61186656,-19.81761,-0.72738067)" visibility="visible"/><ellipse id="ellipse5106" cx="37.712" cy="9.496" fill="#ebec94" fill-opacity=".738" fill-rule="nonzero" stroke="none" stroke-dasharray="none" stroke-dashoffset="0" stroke-linecap="square" stroke-linejoin="miter" stroke-miterlimit="4" stroke-opacity="1" stroke-width="1" marker-end="none" marker-mid="none" marker-start="none" clip-rule="nonzero" color="#000" color-interpolation="sRGB" color-interpolation-filters="linearRGB" color-rendering="auto" display="inline" enable-background="accumulate" filter="url(#filter5140)" image-rendering="auto" opacity="1" overflow="visible" paint-order="normal" rx=".754" ry=".49" shape-rendering="auto" text-rendering="auto" transform="matrix(1.4156871,-0.99646865,0.35390882,0.58327472,-26.750917,43.199947)" visibility="visible" style="isolation:auto;mix-blend-mode:normal;solid-color:#000;solid-opacity:1;marker:none"/><ellipse color="#000" style="isolation:auto;mix-blend-mode:normal;solid-color:#000;solid-opacity:1;marker:none" id="ellipse5144" cx="37.712" cy="9.496" fill="#f3f4c0" fill-opacity=".67" fill-rule="nonzero" stroke="none" stroke-dasharray="none" stroke-dashoffset="0" stroke-linecap="square" stroke-linejoin="miter" stroke-miterlimit="4" stroke-opacity="1" stroke-width="1" marker-end="none" marker-mid="none" marker-start="none" clip-rule="nonzero" color-interpolation="sRGB" color-interpolation-filters="linearRGB" color-rendering="auto" display="inline" enable-background="accumulate" filter="url(#filter5140)" image-rendering="auto" opacity="1" overflow="visible" paint-order="normal" rx=".754" ry=".49" shape-rendering="auto" text-rendering="auto" transform="matrix(0.58139799,-0.46379414,0.16679655,0.24100059,4.5093941,27.903556)" visibility="visible"/><ellipse id="ellipse5204" cx="37.712" cy="9.496" fill="#fff" fill-opacity=".414" fill-rule="nonzero" stroke="none" stroke-dasharray="none" stroke-dashoffset="0" stroke-linecap="square" stroke-linejoin="miter" stroke-miterlimit="4" stroke-opacity="1" stroke-width="1" marker-end="none" marker-mid="none" marker-start="none" clip-rule="nonzero" color="#000" color-interpolation="sRGB" color-interpolation-filters="linearRGB" color-rendering="auto" display="inline" enable-background="accumulate" filter="url(#filter5242)" image-rendering="auto" opacity="1" overflow="visible" paint-order="normal" rx=".754" ry=".49" shape-rendering="auto" text-rendering="auto" transform="matrix(0.7728286,-0.14768265,0.12709298,0.90403552,-12.965516,25.662085)" visibility="visible" style="isolation:auto;mix-blend-mode:normal;solid-color:#000;solid-opacity:1;marker:none"/><ellipse color="#000" style="isolation:auto;mix-blend-mode:normal;solid-color:#000;solid-opacity:1;marker:none" id="ellipse5246" cx="37.712" cy="9.496" fill="#fff" fill-opacity=".754" fill-rule="nonzero" stroke="none" stroke-dasharray="none" stroke-dashoffset="0" stroke-linecap="square" stroke-linejoin="miter" stroke-miterlimit="4" stroke-opacity="1" stroke-width="1" marker-end="none" marker-mid="none" marker-start="none" clip-rule="nonzero" color-interpolation="sRGB" color-interpolation-filters="linearRGB" color-rendering="auto" display="inline" enable-background="accumulate" filter="url(#filter5242)" image-rendering="auto" opacity="1" overflow="visible" paint-order="normal" rx=".754" ry=".49" shape-rendering="auto" text-rendering="auto" transform="matrix(0.3924683,-0.0749982,0.06454209,0.45909957,1.9727331,27.145951)" visibility="visible"/><ellipse color="#000" style="isolation:auto;mix-blend-mode:normal;solid-color:#000;solid-opacity:1;marker:none" id="ellipse5294" cx="37.712" cy="9.496" fill="#ebec94" fill-opacity=".738" fill-rule="nonzero" stroke="none" stroke-dasharray="none" stroke-dashoffset="0" stroke-linecap="square" stroke-linejoin="miter" stroke-miterlimit="4" stroke-opacity="1" stroke-width="1" marker-end="none" marker-mid="none" marker-start="none" clip-rule="nonzero" color-interpolation="sRGB" color-interpolation-filters="linearRGB" color-rendering="auto" display="inline" enable-background="accumulate" filter="url(#filter5140)" image-rendering="auto" opacity="1" overflow="visible" paint-order="normal" rx=".754" ry=".49" shape-rendering="auto" text-rendering="auto" transform="matrix(1.8234085,-1.276684,0.45583541,0.74729646,-41.567728,66.492941)" visibility="visible"/><ellipse id="ellipse5296" cx="37.712" cy="9.496" fill="#f3f4c0" fill-opacity=".67" fill-rule="nonzero" stroke="none" stroke-dasharray="none" stroke-dashoffset="0" stroke-linecap="square" stroke-linejoin="miter" stroke-miterlimit="4" stroke-opacity="1" stroke-width="1" marker-end="none" marker-mid="none" marker-start="none" clip-rule="nonzero" color="#000" color-interpolation="sRGB" color-interpolation-filters="linearRGB" color-rendering="auto" display="inline" enable-background="accumulate" filter="url(#filter5140)" image-rendering="auto" opacity="1" overflow="visible" paint-order="normal" rx=".754" ry=".49" shape-rendering="auto" text-rendering="auto" transform="matrix(0.58139799,-0.46379414,0.16679655,0.24100059,6.476096,41.820199)" visibility="visible" style="isolation:auto;mix-blend-mode:normal;solid-color:#000;solid-opacity:1;marker:none"/></g><g id="layer1" display="none"><rect id="rect5279-6" width="39.9" height="39.9" x="4.05" y="4.05" fill="none" fill-opacity=".95" stroke="#ff1300" stroke-dasharray=".1 .2" stroke-dashoffset="0" stroke-linecap="square" stroke-linejoin="miter" stroke-miterlimit="4" stroke-opacity="1" stroke-width=".1" display="inline" opacity="1" paint-order="normal" rx="6.65" ry="6.65"/><circle id="path5297-7" cx="24" cy="24" r="15.95" fill="none" fill-opacity=".95" stroke="#ff1300" stroke-dasharray=".1 .199" stroke-dashoffset="0" stroke-linecap="square" stroke-linejoin="miter" stroke-miterlimit="4" stroke-opacity="1" stroke-width=".1" display="inline" opacity="1" paint-order="normal"/><circle id="circle5299-5" cx="24" cy="24" r="3.988" fill="none" fill-opacity=".95" stroke="#ff1300" stroke-dasharray=".025 .05" stroke-dashoffset="0" stroke-linecap="square" stroke-linejoin="miter" stroke-miterlimit="4" stroke-opacity="1" stroke-width=".025" display="inline" opacity="1" paint-order="normal"/><circle id="circle5277" cx="24" cy="24" r="23.925" fill="none" fill-opacity=".95" stroke="#ff00dc" stroke-dasharray=".15 .299" stroke-dashoffset="0" stroke-linecap="square" stroke-linejoin="miter" stroke-miterlimit="4" stroke-opacity="1" stroke-width=".15" display="inline" opacity="1" paint-order="normal"/></g></svg>