<svg xmlns="http://www.w3.org/2000/svg" xmlns:svg="http://www.w3.org/2000/svg" xmlns:xlink="http://www.w3.org/1999/xlink" id="svg2" width="48" height="48" version="1.1" viewBox="0 0 48 48"><metadata id="metadata24"/><defs id="defs22"><linearGradient id="linearGradient4376"><stop id="stop4378" offset="0" stop-color="#770302" stop-opacity="1"/><stop id="stop4380" offset="1" stop-color="#e81818" stop-opacity="1"/></linearGradient><linearGradient id="linearGradient4261"><stop id="stop4263" offset="0" stop-color="#000" stop-opacity="1"/><stop id="stop4265" offset="1" stop-color="#000" stop-opacity="0"/></linearGradient><linearGradient id="linearGradient49897"><stop id="stop49899" offset="0" stop-color="#176875" stop-opacity="1"/><stop id="stop49901" offset="1" stop-color="#186a77" stop-opacity="1"/></linearGradient><linearGradient id="linearGradient4536"><stop id="stop4538" offset="0" stop-color="#b6b6b6" stop-opacity="1"/><stop id="stop4544" offset=".482" stop-color="#fff" stop-opacity="1"/><stop id="stop4540" offset="1" stop-color="#cfcfcf" stop-opacity="1"/></linearGradient><linearGradient id="linearGradient4492"><stop id="stop4494" offset="0" stop-color="#165dc2" stop-opacity="1"/><stop id="stop4496" offset="1" stop-color="#1680c2" stop-opacity="1"/></linearGradient><filter id="filter4672" color-interpolation-filters="sRGB"><feGaussianBlur id="feGaussianBlur4674" stdDeviation="19.54"/></filter><filter id="filter4680" color-interpolation-filters="sRGB"><feDiffuseLighting id="feDiffuseLighting4682"/></filter><linearGradient id="linearGradient4498-3" x1="32.948" x2="41.58" y1="16.16" y2="6.42" gradientTransform="translate(-29.321003,-3.241)" gradientUnits="userSpaceOnUse" xlink:href="#linearGradient4492"/><linearGradient id="linearGradient4542-0" x1="29.321" x2="44.279" y1="10.72" y2="10.72" gradientTransform="translate(-29.321003,-3.241)" gradientUnits="userSpaceOnUse" xlink:href="#linearGradient4536"/><linearGradient id="linearGradient3244"><stop id="stop3246" offset="0" stop-color="#d0611f" stop-opacity="1"/><stop id="stop3248" offset="1" stop-color="#f77a2c" stop-opacity="1"/></linearGradient><linearGradient id="linearGradient3242-3" x1="78.897" x2="78.897" y1="1042.14" y2="982.428" gradientTransform="matrix(0.49438202,0,0,0.49438202,-34.11236,-485.66219)" gradientUnits="userSpaceOnUse" xlink:href="#linearGradient3244"/><symbol id="icon-refresh" viewBox="0 0 24 28"><title id="title9852">refresh</title><path id="path9854" d="M23.609 16.5c0 0.031 0 0.078-0.016 0.109-1.328 5.531-5.891 9.391-11.656 9.391-3.047 0-6-1.203-8.219-3.313l-2.016 2.016c-0.187 0.187-0.438 0.297-0.703 0.297-0.547 0-1-0.453-1-1v-7c0-0.547 0.453-1 1-1h7c0.547 0 1 0.453 1 1 0 0.266-0.109 0.516-0.297 0.703l-2.141 2.141c1.469 1.375 3.422 2.156 5.437 2.156 2.781 0 5.359-1.437 6.813-3.813 0.375-0.609 0.562-1.203 0.828-1.828 0.078-0.219 0.234-0.359 0.469-0.359h3c0.281 0 0.5 0.234 0.5 0.5zM24 4v7c0 0.547-0.453 1-1 1h-7c-0.547 0-1-0.453-1-1 0-0.266 0.109-0.516 0.297-0.703l2.156-2.156c-1.484-1.375-3.437-2.141-5.453-2.141-2.781 0-5.359 1.437-6.813 3.813-0.375 0.609-0.562 1.203-0.828 1.828-0.078 0.219-0.234 0.359-0.469 0.359h-3.109c-0.281 0-0.5-0.234-0.5-0.5v-0.109c1.344-5.547 5.953-9.391 11.719-9.391 3.063 0 6.047 1.219 8.266 3.313l2.031-2.016c0.187-0.187 0.438-0.297 0.703-0.297 0.547 0 1 0.453 1 1z" class="path1"/></symbol><symbol id="symbol5687"><title id="title5689">Replay</title><path id="path5691" stroke="none" d="M24 10V2L14 12l10 10v-8c6.63 0 12 5.37 12 12s-5.37 12-12 12-12-5.37-12-12H8c0 8.84 7.16 16 16 16s16-7.16 16-16-7.16-16-16-16z"/></symbol><symbol id="symbol20353"><title id="title20355">Refresh</title><path id="path20357" stroke="none" d="M35.3 12.7C32.41 9.8 28.42 8 24 8 15.16 8 8.02 15.16 8.02 24S15.16 40 24 40c7.45 0 13.69-5.1 15.46-12H35.3c-1.65 4.66-6.07 8-11.3 8-6.63 0-12-5.37-12-12s5.37-12 12-12c3.31 0 6.28 1.38 8.45 3.55L26 22h14V8l-4.7 4.7z"/></symbol><linearGradient id="linearGradient49903-2" x1="24.334" x2="24.334" y1="44.352" y2="-.6" gradientUnits="userSpaceOnUse" xlink:href="#linearGradient49897"/><linearGradient id="linearGradient50365" x1="24.334" x2="24.334" y1="44.352" y2="-.6" gradientTransform="matrix(1.0514827,0,0,1.0514827,-1.2359443,-1.105721)" gradientUnits="userSpaceOnUse" xlink:href="#linearGradient49897"/><linearGradient id="linearGradient4267" x1="8.02" x2="40" y1="24" y2="24" gradientUnits="userSpaceOnUse" xlink:href="#linearGradient4261"/><linearGradient id="linearGradient4382" x1="20.802" x2="21.421" y1="48.629" y2="13.003" gradientTransform="matrix(0.89902127,0,0,0.89902127,1.6113771,3.139055)" gradientUnits="userSpaceOnUse" xlink:href="#linearGradient4536"/><linearGradient id="linearGradient4390" x1="23.08" x2="23.08" y1="45.285" y2="3.801" gradientTransform="matrix(1.0769813,0,0,1.0769813,-1.8475506,-1.8475506)" gradientUnits="userSpaceOnUse" xlink:href="#linearGradient4376"/></defs><g id="layer6" display="none" opacity="1"><rect marker-start="none" style="isolation:auto;mix-blend-mode:normal;solid-color:#000;solid-opacity:1;marker:none" id="rect49905" width="60" height="60" x="-6" y="-6" fill="#fff" fill-opacity="1" fill-rule="nonzero" stroke="none" stroke-dasharray="none" stroke-dashoffset="0" stroke-linecap="butt" stroke-linejoin="miter" stroke-miterlimit="4" stroke-opacity="1" stroke-width=".201" marker-end="none" marker-mid="none" clip-rule="nonzero" color="#000" color-interpolation="sRGB" color-interpolation-filters="linearRGB" color-rendering="auto" display="inline" enable-background="accumulate" image-rendering="auto" opacity="1" overflow="visible" paint-order="normal" rx="0" ry="0" shape-rendering="auto" text-rendering="auto" visibility="visible"/></g><g id="layer7" display="inline"><rect id="rect4356" width="0" height="0" x="0" y="0" fill="red" fill-opacity="1" fill-rule="nonzero" stroke="none" stroke-dasharray="none" stroke-dashoffset="0" stroke-linecap="round" stroke-linejoin="miter" stroke-miterlimit="4" stroke-opacity=".771" stroke-width=".618" marker-end="none" marker-mid="none" marker-start="none" clip-rule="nonzero" color="#000" color-interpolation="sRGB" color-interpolation-filters="linearRGB" color-rendering="auto" display="inline" enable-background="accumulate" image-rendering="auto" opacity="1" overflow="visible" paint-order="normal" shape-rendering="auto" text-rendering="auto" visibility="visible" style="isolation:auto;mix-blend-mode:normal;solid-color:#000;solid-opacity:1;marker:none"/><path id="path4267" fill="#d80027" stroke="none" stroke-dasharray="none" stroke-miterlimit="4" stroke-opacity="1" stroke-width="1.4" d="m 105.23723,26.523605 c -0.90079,-0.887501 -2.8986,-1.357548 -5.938635,-1.397469 -2.05786,-0.02269 -4.5347,0.158541 -7.139921,0.523275 -1.166563,-0.673071 -2.368738,-1.405579 -3.312633,-2.28763 -2.538812,-2.370766 -4.658016,-5.661475 -5.978558,-9.280039 0.08605,-0.337993 0.159302,-0.635051 0.227483,-0.938193 0,0 1.430038,-8.122601 1.051492,-10.868872 -0.05209,-0.376646 -0.08415,-0.485888 -0.185409,-0.778638 l -0.124196,-0.31911 c -0.38894,-0.897132 -1.15161,-1.847745 -2.347321,-1.795911 l -0.701206,-0.02231 -0.01927,-3.81e-4 c -1.333342,0 -2.420064,0.681942 -2.705337,1.701244 -0.867096,3.196928 0.02763,7.97952 1.64903,14.173901 l -0.415046,1.00891 c -1.160987,2.830167 -2.615864,5.680485 -3.899527,8.19509 l -0.166906,0.3271 c -1.35045,2.642858 -2.575816,4.886385 -3.686618,6.786977 l -1.146919,0.60641 c -0.08352,0.04411 -2.049122,1.083681 -2.510171,1.362617 -3.911187,2.335281 -6.502973,4.986377 -6.932972,7.090119 -0.13687,0.671297 -0.03498,1.530283 0.660904,1.928093 l 1.109281,0.558252 c 0.481199,0.241044 0.988632,0.363212 1.508484,0.363212 2.785685,0 6.019746,-3.47016 10.474864,-11.245136 5.143778,-1.674631 11.000166,-3.066523 16.13279,-3.834261 3.911442,2.202466 8.722162,3.732114 11.758527,3.732114 0.53912,0 1.00384,-0.05145 1.3815,-0.151317 0.58232,-0.154232 1.07316,-0.486396 1.37237,-0.937052 0.58905,-0.886487 0.70856,-2.107672 0.54862,-3.358004 -0.0477,-0.370944 -0.34408,-0.829711 -0.66471,-1.142991 z M 63.629391,41.346371 c 0.50794,-1.388977 2.518788,-4.134867 5.491909,-6.57128 0.186929,-0.151571 0.647344,-0.583091 1.06898,-0.983689 -3.109104,4.958748 -5.191175,6.935126 -6.560889,7.554969 z M 81.238984,0.794834 c 0.895484,0 1.404818,2.257087 1.447146,4.373123 0.0422,2.116162 -0.452684,3.601329 -1.066571,4.700217 C 81.111112,8.241195 80.86538,5.676784 80.86538,4 c 0,0 -0.03739,-3.205166 0.373604,-3.205166 z m -5.25302,28.897944 c 0.623772,-1.11663 1.272765,-2.29422 1.93595,-3.543032 1.616587,-3.057142 2.637536,-5.449326 3.397924,-7.415565 1.512288,2.751341 3.395643,5.090424 5.609642,6.964529 0.276148,0.233692 0.568772,0.468653 0.876095,0.702979 -4.502262,0.890795 -8.393552,1.974223 -11.819611,3.291089 z m 28.386206,-0.253589 c -0.27424,0.171468 -1.05973,0.270572 -1.565,0.270572 -1.63066,0 -3.648225,-0.745562 -6.476625,-1.958128 1.08672,-0.08048 2.08321,-0.121283 2.9768,-0.121283 1.635605,0 2.120095,-0.0071 3.719445,0.400853 1.59934,0.407948 1.61949,1.236518 1.34538,1.407986 z" display="inline"/><g id="g4403" transform="matrix(0.95721404,0,0,0.95721404,0.97714987,1.0268635)"><rect id="rect904" width="47.715" height="47.715" x=".143" y=".143" fill="#000" fill-opacity=".082" fill-rule="nonzero" stroke="none" stroke-dasharray="none" stroke-dashoffset="0" stroke-linecap="square" stroke-linejoin="miter" stroke-miterlimit="4" stroke-opacity="1" stroke-width="1.25" marker-end="none" marker-mid="none" marker-start="none" clip-rule="nonzero" color="#000" color-interpolation="sRGB" color-interpolation-filters="linearRGB" color-rendering="auto" display="inline" enable-background="accumulate" image-rendering="auto" opacity="1" overflow="visible" paint-order="normal" ry="4.998" shape-rendering="auto" text-rendering="auto" visibility="visible" style="isolation:auto;mix-blend-mode:normal;solid-color:#000;solid-opacity:1;marker:none"/><rect marker-mid="none" style="isolation:auto;mix-blend-mode:normal;solid-color:#000;solid-opacity:1;marker:none" id="rect4324" width="46.178" height="46.178" x=".911" y=".911" fill="url(#linearGradient4390)" fill-opacity="1" fill-rule="nonzero" stroke="none" stroke-dasharray="none" stroke-dashoffset="0" stroke-linecap="square" stroke-linejoin="miter" stroke-miterlimit="4" stroke-opacity="1" stroke-width="1.209" marker-end="none" marker-start="none" clip-rule="nonzero" color="#000" color-interpolation="sRGB" color-interpolation-filters="linearRGB" color-rendering="auto" display="inline" enable-background="accumulate" image-rendering="auto" opacity="1" overflow="visible" paint-order="normal" ry="4.837" shape-rendering="auto" text-rendering="auto" visibility="visible"/><path id="path908" fill="#000" fill-opacity=".275" stroke="none" stroke-dasharray="none" stroke-miterlimit="4" stroke-opacity="1" stroke-width=".675" d="m 19.418023,8.9603216 c 0.01748,3.6629774 1.060743,7.1283214 1.780968,10.6886364 -2.161215,5.280243 -4.851233,10.322758 -7.653562,15.285673 -0.765375,0.553403 -5.3421647,2.644974 -0.564139,1.172511 -1.020465,2.399363 -2.52064,3.549921 -3.4571773,4.867986 -1.120239,1.44954 -3.5138196,3.297339 -4.6431908,3.300774 1.7067783,1.283127 4.455963,-0.881071 5.7143081,-2.336711 1.933785,-2.269267 3.463204,-4.841835 4.954187,-7.413157 5.007345,-1.62637 10.143106,-2.864681 15.35007,-3.64924 3.591663,1.886861 7.529151,3.645644 11.6792,3.38456 2.173813,-0.656209 1.919635,-4.526493 -0.520823,-4.661985 -2.258563,-0.555124 -4.630191,-0.403789 -6.929406,-0.272679 -1.867157,0.40985 -4.079204,0.491772 -5.487241,-1.035676 -3.242576,-2.468452 -5.560579,-6.107304 -6.815804,-9.926027 0.369081,-1.732756 0.783549,-4.221389 0.848863,-5.809701 -1.513271,4.500031 -1.791418,4.774733 -2.475049,-0.328626 -1.182745,-7.4662379 2.223669,-8.2677621 2.37469,1.207231 C 25.263672,3.3723097 19.765207,3.60953 19.418023,8.9603216 Z m 2.524862,12.1996674 c 1.747708,3.510616 4.26956,6.643118 7.518429,8.86942 -0.696619,0.297746 -2.130358,0.417282 -3.046741,0.683777 -3.654397,0.771515 -7.230886,1.879865 -10.694936,3.273288 2.361096,-4.130124 4.627356,-8.331613 6.223248,-12.826485 z m 16.656869,9.03016 c 1.757599,-0.0079 3.829463,0.07308 5.153055,1.3714 0.914709,1.914011 -1.792304,1.967821 -2.985699,1.772403 -1.828304,-0.232405 -3.475973,-1.106845 -5.171495,-1.76728 -3.120996,-1.573078 1.431118,-1.274485 2.641388,-1.364698 l 0.362693,-0.01187 z m -25.039271,5.248685 c -3.240086,0.975895 -9.0080615,4.140257 -9.5763711,7.290849 -0.193741,1.620898 2.666034,2.645396 0.9122758,0.283722 8.004e-4,-2.458484 5.9205933,-5.92324 8.6640953,-7.574571 z" display="inline"/><path id="path4358" fill="url(#linearGradient4382)" fill-opacity="1" stroke="none" stroke-dasharray="none" stroke-miterlimit="4" stroke-opacity="1" stroke-width=".675" d="m 19.418023,7.8352009 c 0.01748,3.6629771 1.060743,7.1283221 1.780968,10.6886371 -2.161215,5.280243 -4.851233,10.322758 -7.653562,15.285673 -0.765375,0.553403 -5.3421647,2.644974 -0.564139,1.172511 -1.020465,2.399363 -2.52064,3.549921 -3.4571773,4.867986 -1.120239,1.44954 -3.5138196,3.297338 -4.6431908,3.300774 1.7067783,1.283127 4.455963,-0.881071 5.7143081,-2.336711 1.933785,-2.269268 3.463204,-4.841836 4.954187,-7.413157 5.007345,-1.62637 10.143106,-2.864681 15.35007,-3.649241 3.591663,1.886862 7.529151,3.645645 11.6792,3.384561 2.173813,-0.656209 1.919635,-4.526494 -0.520823,-4.661985 -2.258563,-0.555124 -4.630191,-0.40379 -6.929406,-0.272679 -1.867157,0.40985 -4.079204,0.491772 -5.487241,-1.035676 -3.242576,-2.468452 -5.560579,-6.107304 -6.815804,-9.926027 0.369081,-1.732756 0.783549,-4.221389 0.848863,-5.809701 -1.513271,4.500031 -1.791418,4.774733 -2.475049,-0.328626 -1.182745,-7.4662385 2.223669,-8.2677627 2.37469,1.207231 1.689755,-10.0615819 -3.80871,-9.8243616 -4.155894,-4.4735701 z m 2.524862,12.1996671 c 1.747708,3.510617 4.26956,6.643119 7.518429,8.86942 -0.696619,0.297747 -2.130358,0.417283 -3.046741,0.683778 -3.654397,0.771515 -7.230886,1.879864 -10.694936,3.273287 2.361096,-4.130124 4.627356,-8.331612 6.223248,-12.826485 z m 16.656869,9.030161 c 1.757599,-0.0079 3.829463,0.07308 5.153055,1.3714 0.914709,1.914011 -1.792304,1.967821 -2.985699,1.772403 -1.828304,-0.232405 -3.475973,-1.106845 -5.171495,-1.76728 -3.120996,-1.573079 1.431118,-1.274486 2.641388,-1.364698 l 0.362693,-0.01187 z m -25.039271,5.248684 c -3.240086,0.975896 -9.0080615,4.140258 -9.5763711,7.29085 -0.193741,1.620898 2.666034,2.645396 0.9122758,0.283722 8.004e-4,-2.458484 5.9205933,-5.923241 8.6640953,-7.574572 z" display="inline"/><path id="rect899" fill="#fff" fill-opacity=".154" fill-rule="nonzero" stroke="none" stroke-dasharray="none" stroke-dashoffset="0" stroke-linecap="square" stroke-linejoin="miter" stroke-miterlimit="4" stroke-opacity="1" stroke-width="1.209" marker-end="none" marker-mid="none" marker-start="none" d="m 0.91185006,41.127323 v 1.125121 c 0,2.679738 2.15696274,4.8367 4.83670014,4.8367 H 42.251243 c 2.679737,0 4.8367,-2.156962 4.8367,-4.8367 v -1.125121 c 0,2.679738 -2.156963,4.8367 -4.8367,4.8367 H 5.7485502 c -2.6797374,0 -4.83670014,-2.156962 -4.83670014,-4.8367 z" clip-rule="nonzero" color="#000" color-interpolation="sRGB" color-interpolation-filters="linearRGB" color-rendering="auto" display="inline" enable-background="accumulate" image-rendering="auto" opacity="1" overflow="visible" paint-order="normal" shape-rendering="auto" text-rendering="auto" visibility="visible" style="isolation:auto;mix-blend-mode:normal;solid-color:#000;solid-opacity:1;marker:none"/></g></g><g id="layer1" display="none"><rect id="rect5279-6" width="39.9" height="39.9" x="4.05" y="4.05" fill="none" fill-opacity=".95" stroke="#ff1300" stroke-dasharray=".1 .2" stroke-dashoffset="0" stroke-linecap="square" stroke-linejoin="miter" stroke-miterlimit="4" stroke-opacity="1" stroke-width=".1" display="inline" opacity="1" paint-order="normal" rx="6.65" ry="6.65"/><circle id="path5297-7" cx="24" cy="24" r="15.95" fill="none" fill-opacity=".95" stroke="#ff1300" stroke-dasharray=".1 .199" stroke-dashoffset="0" stroke-linecap="square" stroke-linejoin="miter" stroke-miterlimit="4" stroke-opacity="1" stroke-width=".1" display="inline" opacity="1" paint-order="normal"/><circle id="circle5299-5" cx="24" cy="24" r="3.988" fill="none" fill-opacity=".95" stroke="#ff1300" stroke-dasharray=".025 .05" stroke-dashoffset="0" stroke-linecap="square" stroke-linejoin="miter" stroke-miterlimit="4" stroke-opacity="1" stroke-width=".025" display="inline" opacity="1" paint-order="normal"/><circle id="circle5277" cx="24" cy="24" r="23.925" fill="none" fill-opacity=".95" stroke="#ff00dc" stroke-dasharray=".15 .299" stroke-dashoffset="0" stroke-linecap="square" stroke-linejoin="miter" stroke-miterlimit="4" stroke-opacity="1" stroke-width=".15" display="inline" opacity="1" paint-order="normal"/></g></svg>