<svg xmlns="http://www.w3.org/2000/svg" xmlns:svg="http://www.w3.org/2000/svg" xmlns:xlink="http://www.w3.org/1999/xlink" id="svg2" width="48" height="48" version="1.1" viewBox="0 0 48 48"><metadata id="metadata54"/><defs id="defs4"><linearGradient id="linearGradient3903" x2="0" y1="221.062" y2="226.25" gradientTransform="matrix(.95758 0 0 -1 -290.20455 264.24999)" gradientUnits="userSpaceOnUse" xlink:href="#linearGradient3303"/><linearGradient id="linearGradient3908" x1="12" x2="36" gradientTransform="matrix(.5 0 0 2 12 -25)" gradientUnits="userSpaceOnUse" xlink:href="#linearGradient3850"/><linearGradient id="linearGradient3921" x1="10.5" x2="10.548" y1="24" y2="30" gradientUnits="userSpaceOnUse" xlink:href="#linearGradient3915"/><linearGradient id="linearGradient3303"><stop id="stop10" offset="0" stop-opacity=".1"/><stop id="stop12" offset="1" stop-opacity="0"/></linearGradient><linearGradient id="linearGradient3915"><stop id="stop15" offset="0" stop-color="#ccc"/><stop id="stop17" offset="1" stop-color="#fff"/></linearGradient><linearGradient id="linearGradient5644"><stop id="stop20" offset="0" stop-color="#ccc"/><stop id="stop22" offset="1" stop-color="#fff"/></linearGradient><linearGradient id="linearGradient3898" x2="0" y1="236.125" y2="224.438" gradientTransform="matrix(1.4268595,0,0,1.4269792,-483.94084,-304.64379)" gradientUnits="userSpaceOnUse" xlink:href="#linearGradient5644"/><linearGradient id="linearGradient3850"><stop id="stop26" offset="0" stop-color="#028ccc"/><stop id="stop28" offset="1" stop-color="#03a9f4"/></linearGradient><radialGradient id="radialGradient3913" cx="62.625" cy="4.625" r="10.625" gradientTransform="matrix(-2.25882 0 0 .32941 165.45886 42.97647)" gradientUnits="userSpaceOnUse" xlink:href="#radialGradient4760"/><radialGradient id="radialGradient4760" cx="62.625" cy="4.625" r="10.625" gradientTransform="matrix(5.77506 0 0 2.00858 -297.66314 30.79602)" gradientUnits="userSpaceOnUse"><stop id="stop32" offset="0" stop-opacity=".15"/><stop id="stop34" offset="1" stop-opacity="0"/></radialGradient><filter id="filter4204" width="1.288" height="1.288" x="-.144" y="-.144" color-interpolation-filters="sRGB"><feGaussianBlur id="feGaussianBlur4206" stdDeviation=".96"/></filter></defs><path id="path36" fill="url(#radialGradient3913)" fill-rule="evenodd" d="M 0,44.5 C 0,46.432994 10.745163,48 24,48 37.254838,48 48,46.432994 48,44.5 48,42.567006 37.254838,41 24,41 10.745163,41 0,42.567006 0,44.5 z"/><rect id="rect38" width="40" height="40" x="-44" y="4" fill="#ccc" rx="1.939" transform="scale(-1 1)"/><rect id="rect40" width="39" height="39.5" x="-43" y="4.25" fill="#eee" rx="1.891" ry="1.915" transform="matrix(0 -1 1 0 0 0)"/><g id="g42" fill-rule="evenodd"><rect id="rect44" width="12" height="24" x="18" y="11" fill="url(#linearGradient3908)" rx="2.059" transform="matrix(0 1 1 0 0 0)"/><path id="path46" fill="url(#linearGradient3921)" d="m 33.28125,17.5 c 1.235743,0 2.21875,0.983007 2.21875,2.21875 l 0,8.5625 C 35.5,29.516993 34.516993,30.5 33.28125,30.5 l -20.5625,0 C 11.483007,30.5 10.5,29.516993 10.5,28.28125 l 0,-8.5625 C 10.5,18.483007 11.483007,17.5 12.71875,17.5 l 20.5625,0 z M 32.9375,18 13.0625,18 C 11.921814,18 11,18.921814 11,20.0625 l 0,7.875 C 11,29.078186 11.921814,30 13.0625,30 l 19.875,0 C 34.078186,30 35,29.078186 35,27.9375 l 0,-7.875 C 35,18.921814 34.078186,18 32.9375,18 z"/></g><circle id="ellipse4182" cx="-31" cy="24" r="8" fill="#000" fill-opacity="1" stroke="none" stroke-linecap="round" stroke-opacity="1" stroke-width="1.5" filter="url(#filter4204)" opacity=".16" transform="scale(-1,1)"/><ellipse id="ellipse48" cx="-31" cy="24" fill="#eee" stroke="url(#linearGradient3898)" stroke-dasharray="none" stroke-linecap="round" stroke-miterlimit="4" stroke-width="2" rx="7" ry="7" transform="scale(-1,1)"/><path id="path50" fill="url(#linearGradient3903)" d="M 6.1651513,43 C 5.1041575,43 4.25,42.108 4.25,41 l 0,-5 c 0,1.108 0.8541575,2 1.9151513,2 L 41.834849,38 C 42.895842,38 43.75,37.108 43.75,36 l 0,5 c 0,1.108 -0.854158,2 -1.915151,2 L 6.1651513,43 z"/></svg>