<svg xmlns="http://www.w3.org/2000/svg" xmlns:svg="http://www.w3.org/2000/svg" xmlns:xlink="http://www.w3.org/1999/xlink" id="svg2" width="48" height="48" version="1.1" viewBox="0 0 48 48"><metadata id="metadata24"/><defs id="defs22"><linearGradient id="linearGradient4311"><stop id="stop4313" offset="0" stop-color="#c0ebd9" stop-opacity="1"/><stop id="stop4319" offset=".337" stop-color="#b7d6e9" stop-opacity=".604"/><stop id="stop4321" offset=".537" stop-color="#9fbaf4" stop-opacity=".282"/><stop id="stop4315" offset="1" stop-color="#48d5ab" stop-opacity="1"/></linearGradient><linearGradient id="linearGradient4303"><stop id="stop4305" offset="0" stop-color="#00f6e3" stop-opacity="1"/><stop id="stop4307" offset="1" stop-color="#276c82" stop-opacity="1"/></linearGradient><linearGradient id="linearGradient4261"><stop id="stop4263" offset="0" stop-color="#000" stop-opacity="1"/><stop id="stop4265" offset="1" stop-color="#000" stop-opacity="0"/></linearGradient><linearGradient id="linearGradient49897"><stop id="stop49899" offset="0" stop-color="#176875" stop-opacity="1"/><stop id="stop49901" offset="1" stop-color="#186a77" stop-opacity="1"/></linearGradient><linearGradient id="linearGradient4536"><stop id="stop4538" offset="0" stop-color="#b6b6b6" stop-opacity="1"/><stop id="stop4544" offset=".482" stop-color="#fff" stop-opacity="1"/><stop id="stop4540" offset="1" stop-color="#cfcfcf" stop-opacity="1"/></linearGradient><linearGradient id="linearGradient4492"><stop id="stop4494" offset="0" stop-color="#165dc2" stop-opacity="1"/><stop id="stop4496" offset="1" stop-color="#1680c2" stop-opacity="1"/></linearGradient><filter id="filter4672" color-interpolation-filters="sRGB"><feGaussianBlur id="feGaussianBlur4674" stdDeviation="19.54"/></filter><filter id="filter4680" color-interpolation-filters="sRGB"><feDiffuseLighting id="feDiffuseLighting4682"/></filter><linearGradient id="linearGradient4498-3" x1="32.948" x2="41.58" y1="16.16" y2="6.42" gradientTransform="translate(-29.321003,-3.241)" gradientUnits="userSpaceOnUse" xlink:href="#linearGradient4492"/><linearGradient id="linearGradient4542-0" x1="29.321" x2="44.279" y1="10.72" y2="10.72" gradientTransform="translate(-29.321003,-3.241)" gradientUnits="userSpaceOnUse" xlink:href="#linearGradient4536"/><linearGradient id="linearGradient3244"><stop id="stop3246" offset="0" stop-color="#d0611f" stop-opacity="1"/><stop id="stop3248" offset="1" stop-color="#f77a2c" stop-opacity="1"/></linearGradient><linearGradient id="linearGradient3242-3" x1="78.897" x2="78.897" y1="1042.14" y2="982.428" gradientTransform="matrix(0.49438202,0,0,0.49438202,-34.11236,-485.66219)" gradientUnits="userSpaceOnUse" xlink:href="#linearGradient3244"/><symbol id="icon-refresh" viewBox="0 0 24 28"><title id="title9852">refresh</title><path id="path9854" d="M23.609 16.5c0 0.031 0 0.078-0.016 0.109-1.328 5.531-5.891 9.391-11.656 9.391-3.047 0-6-1.203-8.219-3.313l-2.016 2.016c-0.187 0.187-0.438 0.297-0.703 0.297-0.547 0-1-0.453-1-1v-7c0-0.547 0.453-1 1-1h7c0.547 0 1 0.453 1 1 0 0.266-0.109 0.516-0.297 0.703l-2.141 2.141c1.469 1.375 3.422 2.156 5.437 2.156 2.781 0 5.359-1.437 6.813-3.813 0.375-0.609 0.562-1.203 0.828-1.828 0.078-0.219 0.234-0.359 0.469-0.359h3c0.281 0 0.5 0.234 0.5 0.5zM24 4v7c0 0.547-0.453 1-1 1h-7c-0.547 0-1-0.453-1-1 0-0.266 0.109-0.516 0.297-0.703l2.156-2.156c-1.484-1.375-3.437-2.141-5.453-2.141-2.781 0-5.359 1.437-6.813 3.813-0.375 0.609-0.562 1.203-0.828 1.828-0.078 0.219-0.234 0.359-0.469 0.359h-3.109c-0.281 0-0.5-0.234-0.5-0.5v-0.109c1.344-5.547 5.953-9.391 11.719-9.391 3.063 0 6.047 1.219 8.266 3.313l2.031-2.016c0.187-0.187 0.438-0.297 0.703-0.297 0.547 0 1 0.453 1 1z" class="path1"/></symbol><symbol id="symbol5687"><title id="title5689">Replay</title><path id="path5691" stroke="none" d="M24 10V2L14 12l10 10v-8c6.63 0 12 5.37 12 12s-5.37 12-12 12-12-5.37-12-12H8c0 8.84 7.16 16 16 16s16-7.16 16-16-7.16-16-16-16z"/></symbol><symbol id="symbol20353"><title id="title20355">Refresh</title><path id="path20357" stroke="none" d="M35.3 12.7C32.41 9.8 28.42 8 24 8 15.16 8 8.02 15.16 8.02 24S15.16 40 24 40c7.45 0 13.69-5.1 15.46-12H35.3c-1.65 4.66-6.07 8-11.3 8-6.63 0-12-5.37-12-12s5.37-12 12-12c3.31 0 6.28 1.38 8.45 3.55L26 22h14V8l-4.7 4.7z"/></symbol><linearGradient id="linearGradient49903-2" x1="24.334" x2="24.334" y1="44.352" y2="-.6" gradientUnits="userSpaceOnUse" xlink:href="#linearGradient49897"/><linearGradient id="linearGradient50365" x1="24.334" x2="24.334" y1="44.352" y2="-.6" gradientTransform="matrix(1.0514827,0,0,1.0514827,-1.2359443,-1.105721)" gradientUnits="userSpaceOnUse" xlink:href="#linearGradient49897"/><linearGradient id="linearGradient4267" x1="8.02" x2="40" y1="24" y2="24" gradientUnits="userSpaceOnUse" xlink:href="#linearGradient4261"/><linearGradient id="linearGradient4309" x1="4.907" x2="33.227" y1="28.587" y2="42.453" gradientUnits="userSpaceOnUse" xlink:href="#linearGradient4303"/><linearGradient id="linearGradient4317" x1="44" x2="6.987" y1="27.467" y2="17.813" gradientUnits="userSpaceOnUse" xlink:href="#linearGradient4311"/></defs><g id="layer6" display="none" opacity="1"><rect marker-start="none" style="isolation:auto;mix-blend-mode:normal;solid-color:#000;solid-opacity:1;marker:none" id="rect49905" width="60" height="60" x="-6" y="-6" fill="#fff" fill-opacity="1" fill-rule="nonzero" stroke="none" stroke-dasharray="none" stroke-dashoffset="0" stroke-linecap="butt" stroke-linejoin="miter" stroke-miterlimit="4" stroke-opacity="1" stroke-width=".201" marker-end="none" marker-mid="none" clip-rule="nonzero" color="#000" color-interpolation="sRGB" color-interpolation-filters="linearRGB" color-rendering="auto" display="inline" enable-background="accumulate" image-rendering="auto" opacity="1" overflow="visible" paint-order="normal" rx="0" ry="0" shape-rendering="auto" text-rendering="auto" visibility="visible"/></g><g id="layer7" display="inline"><rect id="rect4356" width="0" height="0" x="0" y="0" fill="red" fill-opacity="1" fill-rule="nonzero" stroke="none" stroke-dasharray="none" stroke-dashoffset="0" stroke-linecap="round" stroke-linejoin="miter" stroke-miterlimit="4" stroke-opacity=".771" stroke-width=".618" marker-end="none" marker-mid="none" marker-start="none" clip-rule="nonzero" color="#000" color-interpolation="sRGB" color-interpolation-filters="linearRGB" color-rendering="auto" display="inline" enable-background="accumulate" image-rendering="auto" opacity="1" overflow="visible" paint-order="normal" shape-rendering="auto" text-rendering="auto" visibility="visible" style="isolation:auto;mix-blend-mode:normal;solid-color:#000;solid-opacity:1;marker:none"/><path id="path4182" fill="url(#linearGradient4317)" fill-opacity="1" fill-rule="nonzero" stroke="#bfc1bd" stroke-dasharray="none" stroke-dashoffset="0" stroke-linecap="butt" stroke-linejoin="miter" stroke-miterlimit="4" stroke-opacity="1" stroke-width=".518" d="M 43.295639,13.989482 A 21.737804,21.737804 0 0 0 13.989483,4.7043604 21.737804,21.737804 0 0 0 4.7043616,34.010518 21.737804,21.737804 0 0 0 34.010519,43.295638 21.737804,21.737804 0 0 0 43.295639,13.989482 Z M 31.35072,20.186469 A 8.2810685,8.2810685 0 0 1 27.813531,31.350719 8.2810685,8.2810685 0 0 1 16.649282,27.81353 8.2810685,8.2810685 0 0 1 20.18647,16.64928 8.2810685,8.2810685 0 0 1 31.35072,20.186469 Z" display="inline" opacity=".99"/><path id="path4182-9" fill="url(#linearGradient4309)" fill-opacity="1" fill-rule="nonzero" stroke="#a8a4a3" stroke-dasharray="none" stroke-dashoffset="0" stroke-linecap="butt" stroke-linejoin="miter" stroke-miterlimit="4" stroke-opacity="1" stroke-width=".518" d="M 44.709467,30.561416 31.890749,26.500039 a 8.2810685,8.2810685 0 0 1 -4.077218,4.85068 8.2810685,8.2810685 0 0 1 -11.164249,-3.537189 8.2810685,8.2810685 0 0 1 -0.54003,-6.31357 L 3.2905344,17.438583 a 21.737804,21.737804 0 0 0 1.4138272,16.571935 21.737804,21.737804 0 0 0 29.3061574,9.28512 21.737804,21.737804 0 0 0 10.698948,-12.734222 z" display="inline" opacity=".99"/><path id="path4584" fill="#fff" fill-opacity=".265" fill-rule="nonzero" stroke="none" stroke-dasharray="none" stroke-dashoffset="0" stroke-linecap="butt" stroke-linejoin="miter" stroke-miterlimit="4" stroke-opacity="1" stroke-width=".5" d="M 31.075366,3.5449146 A 21.737804,21.737804 0 0 0 3.6579329,17.449904 L 16.448209,21.632328 A 8.2810685,8.2810685 0 0 1 26.892964,16.33523 L 31.075388,3.5449575 Z" display="inline" opacity=".99"/><path id="path4586" fill="#fff" fill-opacity=".162" fill-rule="nonzero" stroke="none" stroke-dasharray="none" stroke-dashoffset="0" stroke-linecap="butt" stroke-linejoin="miter" stroke-miterlimit="4" stroke-opacity="1" stroke-width=".5" d="m 34.686137,43.025366 a 21.737804,21.737804 0 0 0 8.351986,-29.585614 l -11.742594,6.572315 a 8.2810685,8.2810685 0 0 1 -3.181751,11.270698 l 6.572313,11.742589 z" display="inline" opacity=".99"/><ellipse color="#000" style="isolation:auto;mix-blend-mode:normal;solid-color:#000;solid-opacity:1" id="path4506" cx="24" cy="24" fill="none" fill-opacity="1" fill-rule="nonzero" stroke="#fff" stroke-dasharray="none" stroke-dashoffset="0" stroke-linecap="butt" stroke-linejoin="miter" stroke-miterlimit="4" stroke-opacity=".201" stroke-width="2.631" clip-rule="nonzero" color-interpolation="sRGB" color-interpolation-filters="linearRGB" color-rendering="auto" display="inline" enable-background="accumulate" image-rendering="auto" opacity="1" overflow="visible" rx="10.062" ry="9.972" shape-rendering="auto" text-rendering="auto" visibility="visible"/><text id="text4327" x="-27.688" y="35.179" fill="#fff" fill-opacity="1" stroke="none" stroke-linecap="butt" stroke-linejoin="miter" stroke-opacity="1" stroke-width="1" font-family="sans-serif" font-size="3.167" letter-spacing="0" transform="matrix(0,-1,1,0,0,0)" word-spacing="0" xml:space="preserve" style="line-height:1000%"><tspan id="tspan4329" x="-27.688" y="35.179">Disck</tspan></text></g><g id="layer1" display="none"><rect id="rect5279-6" width="39.9" height="39.9" x="4.05" y="4.05" fill="none" fill-opacity=".95" stroke="#ff1300" stroke-dasharray=".1 .2" stroke-dashoffset="0" stroke-linecap="square" stroke-linejoin="miter" stroke-miterlimit="4" stroke-opacity="1" stroke-width=".1" display="inline" opacity="1" paint-order="normal" rx="6.65" ry="6.65"/><circle id="path5297-7" cx="24" cy="24" r="15.95" fill="none" fill-opacity=".95" stroke="#ff1300" stroke-dasharray=".1 .199" stroke-dashoffset="0" stroke-linecap="square" stroke-linejoin="miter" stroke-miterlimit="4" stroke-opacity="1" stroke-width=".1" display="inline" opacity="1" paint-order="normal"/><circle id="circle5299-5" cx="24" cy="24" r="3.988" fill="none" fill-opacity=".95" stroke="#ff1300" stroke-dasharray=".025 .05" stroke-dashoffset="0" stroke-linecap="square" stroke-linejoin="miter" stroke-miterlimit="4" stroke-opacity="1" stroke-width=".025" display="inline" opacity="1" paint-order="normal"/><circle id="circle5277" cx="24" cy="24" r="23.925" fill="none" fill-opacity=".95" stroke="#ff00dc" stroke-dasharray=".15 .299" stroke-dashoffset="0" stroke-linecap="square" stroke-linejoin="miter" stroke-miterlimit="4" stroke-opacity="1" stroke-width=".15" display="inline" opacity="1" paint-order="normal"/></g></svg>