<svg xmlns="http://www.w3.org/2000/svg" xmlns:svg="http://www.w3.org/2000/svg" xmlns:xlink="http://www.w3.org/1999/xlink" id="svg2" width="48" height="48" version="1.1" viewBox="0 0 48 48"><metadata id="metadata24"/><defs id="defs22"><linearGradient id="linearGradient4261"><stop id="stop4263" offset="0" stop-color="#000" stop-opacity="1"/><stop id="stop4265" offset="1" stop-color="#000" stop-opacity="0"/></linearGradient><linearGradient id="linearGradient49897"><stop id="stop49899" offset="0" stop-color="#176875" stop-opacity="1"/><stop id="stop49901" offset="1" stop-color="#186a77" stop-opacity="1"/></linearGradient><linearGradient id="linearGradient4536"><stop id="stop4538" offset="0" stop-color="#b6b6b6" stop-opacity="1"/><stop id="stop4544" offset=".482" stop-color="#fff" stop-opacity="1"/><stop id="stop4540" offset="1" stop-color="#cfcfcf" stop-opacity="1"/></linearGradient><linearGradient id="linearGradient4492"><stop id="stop4494" offset="0" stop-color="#165dc2" stop-opacity="1"/><stop id="stop4496" offset="1" stop-color="#1680c2" stop-opacity="1"/></linearGradient><filter id="filter4672" color-interpolation-filters="sRGB"><feGaussianBlur id="feGaussianBlur4674" stdDeviation="19.54"/></filter><filter id="filter4680" color-interpolation-filters="sRGB"><feDiffuseLighting id="feDiffuseLighting4682"/></filter><linearGradient id="linearGradient4498-3" x1="32.948" x2="41.58" y1="16.16" y2="6.42" gradientTransform="translate(-29.321003,-3.241)" gradientUnits="userSpaceOnUse" xlink:href="#linearGradient4492"/><linearGradient id="linearGradient4542-0" x1="29.321" x2="44.279" y1="10.72" y2="10.72" gradientTransform="translate(-29.321003,-3.241)" gradientUnits="userSpaceOnUse" xlink:href="#linearGradient4536"/><linearGradient id="linearGradient3244"><stop id="stop3246" offset="0" stop-color="#d0611f" stop-opacity="1"/><stop id="stop3248" offset="1" stop-color="#f77a2c" stop-opacity="1"/></linearGradient><linearGradient id="linearGradient3242-3" x1="78.897" x2="78.897" y1="1042.14" y2="982.428" gradientTransform="matrix(0.49438202,0,0,0.49438202,-34.11236,-485.66219)" gradientUnits="userSpaceOnUse" xlink:href="#linearGradient3244"/><symbol id="icon-refresh" viewBox="0 0 24 28"><title id="title9852">refresh</title><path id="path9854" d="M23.609 16.5c0 0.031 0 0.078-0.016 0.109-1.328 5.531-5.891 9.391-11.656 9.391-3.047 0-6-1.203-8.219-3.313l-2.016 2.016c-0.187 0.187-0.438 0.297-0.703 0.297-0.547 0-1-0.453-1-1v-7c0-0.547 0.453-1 1-1h7c0.547 0 1 0.453 1 1 0 0.266-0.109 0.516-0.297 0.703l-2.141 2.141c1.469 1.375 3.422 2.156 5.437 2.156 2.781 0 5.359-1.437 6.813-3.813 0.375-0.609 0.562-1.203 0.828-1.828 0.078-0.219 0.234-0.359 0.469-0.359h3c0.281 0 0.5 0.234 0.5 0.5zM24 4v7c0 0.547-0.453 1-1 1h-7c-0.547 0-1-0.453-1-1 0-0.266 0.109-0.516 0.297-0.703l2.156-2.156c-1.484-1.375-3.437-2.141-5.453-2.141-2.781 0-5.359 1.437-6.813 3.813-0.375 0.609-0.562 1.203-0.828 1.828-0.078 0.219-0.234 0.359-0.469 0.359h-3.109c-0.281 0-0.5-0.234-0.5-0.5v-0.109c1.344-5.547 5.953-9.391 11.719-9.391 3.063 0 6.047 1.219 8.266 3.313l2.031-2.016c0.187-0.187 0.438-0.297 0.703-0.297 0.547 0 1 0.453 1 1z" class="path1"/></symbol><symbol id="symbol5687"><title id="title5689">Replay</title><path id="path5691" stroke="none" d="M24 10V2L14 12l10 10v-8c6.63 0 12 5.37 12 12s-5.37 12-12 12-12-5.37-12-12H8c0 8.84 7.16 16 16 16s16-7.16 16-16-7.16-16-16-16z"/></symbol><symbol id="symbol20353"><title id="title20355">Refresh</title><path id="path20357" stroke="none" d="M35.3 12.7C32.41 9.8 28.42 8 24 8 15.16 8 8.02 15.16 8.02 24S15.16 40 24 40c7.45 0 13.69-5.1 15.46-12H35.3c-1.65 4.66-6.07 8-11.3 8-6.63 0-12-5.37-12-12s5.37-12 12-12c3.31 0 6.28 1.38 8.45 3.55L26 22h14V8l-4.7 4.7z"/></symbol><linearGradient id="linearGradient49903-2" x1="24.334" x2="24.334" y1="44.352" y2="-.6" gradientUnits="userSpaceOnUse" xlink:href="#linearGradient49897"/><linearGradient id="linearGradient50365" x1="24.334" x2="24.334" y1="44.352" y2="-.6" gradientTransform="matrix(1.0514827,0,0,1.0514827,-1.2359443,-1.105721)" gradientUnits="userSpaceOnUse" xlink:href="#linearGradient49897"/><linearGradient id="linearGradient4267" x1="8.02" x2="40" y1="24" y2="24" gradientUnits="userSpaceOnUse" xlink:href="#linearGradient4261"/><filter id="filter5370" width="1.142" height="1.104" x="-.071" y="-.052" color-interpolation-filters="sRGB"><feGaussianBlur id="feGaussianBlur5372" stdDeviation="1.895"/></filter><linearGradient id="linearGradient5179" x1="255.442" x2="254.912" y1="1039.988" y2="1000.743" gradientUnits="userSpaceOnUse" xlink:href="#linearGradient5181"/><linearGradient id="linearGradient5181"><stop id="stop5183" offset="0" stop-color="#cfd1d5" stop-opacity="1"/><stop id="stop5185" offset="1" stop-color="#f5f7f7" stop-opacity="1"/></linearGradient><linearGradient id="linearGradient5177" x1="257.033" x2="258.448" y1="1035.392" y2="1004.809" gradientUnits="userSpaceOnUse" xlink:href="#linearGradient5171"/><linearGradient id="linearGradient5171"><stop id="stop5173" offset="0" stop-color="#ebe9ea" stop-opacity="1"/><stop id="stop5175" offset="1" stop-color="#ebe9ea" stop-opacity="1"/></linearGradient><linearGradient id="linearGradient5263" x1="324.688" x2="324.688" y1="970.175" y2="965.8" gradientTransform="matrix(-1,0,0,1,621.89645,0)" gradientUnits="userSpaceOnUse" xlink:href="#linearGradient5141"/><linearGradient id="linearGradient5141"><stop id="stop5143" offset="0" stop-color="#272c41" stop-opacity="1"/><stop id="stop5149" offset=".443" stop-color="#596379" stop-opacity="1"/><stop id="stop5147" offset=".6" stop-color="#586278" stop-opacity="1"/><stop id="stop5145" offset="1" stop-color="#4b647b" stop-opacity="1"/></linearGradient><linearGradient id="linearGradient5265" x1="313" x2="313.5" y1="1034.362" y2="964.362" gradientTransform="matrix(-1,0,0,1,621.89645,0)" gradientUnits="userSpaceOnUse" xlink:href="#linearGradient5229"/><linearGradient id="linearGradient5229"><stop id="stop5231" offset="0" stop-color="#d9e5ee" stop-opacity="1"/><stop id="stop5233" offset="1" stop-color="#f0f3f6" stop-opacity="1"/></linearGradient><linearGradient id="linearGradient5267" x1="314.181" x2="302.664" y1="24.923" y2="15.011" gradientTransform="matrix(-1,0,0,1,621.89645,956.36218)" gradientUnits="userSpaceOnUse" xlink:href="#linearGradient5249"/><linearGradient id="linearGradient5249"><stop id="stop5251" offset="0" stop-color="#a8bdca" stop-opacity="1"/><stop id="stop5253" offset="1" stop-color="#a8bdca" stop-opacity="0"/></linearGradient><linearGradient id="linearGradient5227" x1="352.316" x2="292.389" y1="1045.114" y2="1053.423" gradientUnits="userSpaceOnUse" xlink:href="#linearGradient5221"/><linearGradient id="linearGradient5221"><stop id="stop5223" offset="0" stop-color="#38404d" stop-opacity="1"/><stop id="stop5225" offset="1" stop-color="#374154" stop-opacity="1"/></linearGradient><linearGradient id="linearGradient5193" x1="249.785" x2="251.2" y1="1029.028" y2="1008.521" gradientUnits="userSpaceOnUse" xlink:href="#linearGradient5187"/><linearGradient id="linearGradient5187"><stop id="stop5189" offset="0" stop-color="#222424" stop-opacity="1"/><stop id="stop5191" offset="1" stop-color="#8f959d" stop-opacity="1"/></linearGradient><linearGradient id="linearGradient5201" x1="253.321" x2="253.321" y1="1028.144" y2="1011.704" gradientUnits="userSpaceOnUse" xlink:href="#linearGradient5195"/><linearGradient id="linearGradient5195"><stop id="stop5197" offset="0" stop-color="#747474" stop-opacity="1"/><stop id="stop5199" offset="1" stop-color="#fafafa" stop-opacity="1"/></linearGradient><linearGradient id="linearGradient5211" x1="256.625" x2="256.625" y1="1024.987" y2="1015.862" gradientUnits="userSpaceOnUse" xlink:href="#linearGradient5205"/><linearGradient id="linearGradient5205"><stop id="stop5207" offset="0" stop-color="#2e2e2e" stop-opacity="1"/><stop id="stop5209" offset="1" stop-color="#9d9d9d" stop-opacity="1"/></linearGradient><linearGradient id="linearGradient5139" x1="324.688" x2="324.688" y1="970.175" y2="965.8" gradientUnits="userSpaceOnUse" xlink:href="#linearGradient5141"/><linearGradient id="linearGradient5235" x1="313" x2="313.5" y1="1034.362" y2="964.362" gradientUnits="userSpaceOnUse" xlink:href="#linearGradient5229"/><linearGradient id="linearGradient5255" x1="314.181" x2="302.664" y1="24.923" y2="15.011" gradientUnits="userSpaceOnUse" xlink:href="#linearGradient5249"/><linearGradient id="linearGradient3070"><stop id="stop3072" offset="0" stop-color="#c9cacc" stop-opacity="1"/><stop id="stop4300" offset=".382" stop-color="#e7e7e9" stop-opacity="1"/><stop id="stop4302" offset=".665" stop-color="#e4e4e5" stop-opacity="1"/><stop id="stop3074" offset="1" stop-color="#c9cace" stop-opacity="1"/></linearGradient><linearGradient id="linearGradient5272" x1="22.321" x2="22.321" y1="1088.615" y2="1059.358" gradientUnits="userSpaceOnUse" xlink:href="#linearGradient5266"/><linearGradient id="linearGradient5266"><stop id="stop5268" offset="0" stop-color="#0079e6" stop-opacity="1"/><stop id="stop5270" offset="1" stop-color="#3699ed" stop-opacity="1"/></linearGradient><linearGradient id="linearGradient2441-5-2-8" x1="12.938" x2="15.25" y1="8.438" y2="19.813" gradientTransform="matrix(1.0309942,0,0,1.2571467,43.323108,20.738869)" gradientUnits="userSpaceOnUse" xlink:href="#linearGradient5274"/><linearGradient id="linearGradient5274"><stop id="stop5276" offset="0" stop-color="#fff" stop-opacity=".183"/><stop id="stop5278" offset="1" stop-color="#fff" stop-opacity="0"/></linearGradient><linearGradient id="linearGradient2448-0-8-4" x1="15.574" x2="23.578" y1="46.971" y2="46.971" gradientTransform="matrix(1.0690434,0,0,0.93122035,42.771165,17.961284)" gradientUnits="userSpaceOnUse" spreadMethod="reflect" xlink:href="#linearGradient5274"/><linearGradient id="linearGradient2451-6-6-1" x1="361.106" x2="361.106" y1="87.05" y2="94.396" gradientTransform="matrix(0.91573057,0,0,0.9314784,-260.00843,-25.623248)" gradientUnits="userSpaceOnUse" xlink:href="#linearGradient3912"/><linearGradient id="linearGradient3912"><stop id="stop3914" offset="0" stop-color="#787878" stop-opacity="1"/><stop id="stop3916" offset=".35" stop-color="#bebebe" stop-opacity="1"/><stop id="stop3918" offset=".494" stop-color="#c8c8c8" stop-opacity="1"/><stop id="stop3920" offset=".589" stop-color="#e6e6e6" stop-opacity="1"/><stop id="stop3922" offset="1" stop-color="#8c8c8c" stop-opacity="1"/></linearGradient><linearGradient id="linearGradient2453-6-0-3" x1="61.969" x2="61.969" y1="35.944" y2="43.378" gradientTransform="matrix(0.91903087,0,0,0.93134447,10.99724,21.8872)" gradientUnits="userSpaceOnUse" xlink:href="#linearGradient3924"/><linearGradient id="linearGradient3924"><stop id="stop3926" offset="0" stop-color="#464646" stop-opacity="1"/><stop id="stop3928" offset=".35" stop-color="#8c8c8c" stop-opacity="1"/><stop id="stop3930" offset=".51" stop-color="#969696" stop-opacity="1"/><stop id="stop3932" offset=".62" stop-color="#aaa" stop-opacity="1"/><stop id="stop3934" offset="1" stop-color="#646464" stop-opacity="1"/></linearGradient><radialGradient id="radialGradient2456-9-4-7" cx="6.703" cy="73.616" r="7.228" fx="6.703" fy="73.616" gradientTransform="matrix(1.8035884,0,0,0.17052706,56.469063,50.898176)" gradientUnits="userSpaceOnUse" xlink:href="#linearGradient4261"/></defs><g id="layer6" display="none" opacity="1"><rect marker-start="none" style="isolation:auto;mix-blend-mode:normal;solid-color:#000;solid-opacity:1;marker:none" id="rect49905" width="60" height="60" x="-6" y="-6" fill="#fff" fill-opacity="1" fill-rule="nonzero" stroke="none" stroke-dasharray="none" stroke-dashoffset="0" stroke-linecap="butt" stroke-linejoin="miter" stroke-miterlimit="4" stroke-opacity="1" stroke-width=".201" marker-end="none" marker-mid="none" clip-rule="nonzero" color="#000" color-interpolation="sRGB" color-interpolation-filters="linearRGB" color-rendering="auto" display="inline" enable-background="accumulate" image-rendering="auto" opacity="1" overflow="visible" paint-order="normal" rx="0" ry="0" shape-rendering="auto" text-rendering="auto" visibility="visible"/></g><g id="layer7" display="inline"><rect id="rect4356" width="0" height="0" x="0" y="0" fill="red" fill-opacity="1" fill-rule="nonzero" stroke="none" stroke-dasharray="none" stroke-dashoffset="0" stroke-linecap="round" stroke-linejoin="miter" stroke-miterlimit="4" stroke-opacity=".771" stroke-width=".618" marker-end="none" marker-mid="none" marker-start="none" clip-rule="nonzero" color="#000" color-interpolation="sRGB" color-interpolation-filters="linearRGB" color-rendering="auto" display="inline" enable-background="accumulate" image-rendering="auto" opacity="1" overflow="visible" paint-order="normal" shape-rendering="auto" text-rendering="auto" visibility="visible" style="isolation:auto;mix-blend-mode:normal;solid-color:#000;solid-opacity:1;marker:none"/><g id="g4777" transform="translate(-42.977154,-16.910076)"><rect marker-mid="none" style="isolation:auto;mix-blend-mode:normal;solid-color:#000;solid-opacity:1;marker:none" id="rect4969" width="20" height="3.937" x="43.977" y="17.136" fill="#fff" fill-opacity=".277" fill-rule="nonzero" stroke="none" stroke-dasharray="none" stroke-dashoffset="0" stroke-linecap="round" stroke-linejoin="miter" stroke-miterlimit="4" stroke-opacity="1" stroke-width=".618" marker-end="none" marker-start="none" clip-rule="nonzero" color="#000" color-interpolation="sRGB" color-interpolation-filters="linearRGB" color-rendering="auto" display="inline" enable-background="accumulate" image-rendering="auto" opacity="0" overflow="visible" paint-order="normal" ry=".637" shape-rendering="auto" text-rendering="auto" visibility="visible"/><path d="m 81.59508,63.451655 c 0,0.680811 -5.836902,1.232672 -13.037084,1.232672 -7.200182,0 -13.037086,-0.551861 -13.037086,-1.232672 0,-0.680745 5.836904,-1.232607 13.037086,-1.232607 7.200182,0 13.037084,0.551862 13.037084,1.232607 l 0,0 z" style="marker:none" id="path2589" fill="url(#radialGradient2456-9-4-7)" fill-opacity="1" fill-rule="nonzero" stroke="none" stroke-width=".8" display="inline" opacity=".3" overflow="visible" visibility="visible"/><path id="rect1789" fill="url(#linearGradient2451-6-6-1)" fill-opacity="1" fill-rule="nonzero" stroke="url(#linearGradient2453-6-0-3)" stroke-dasharray="none" stroke-dashoffset=".5" stroke-linecap="round" stroke-linejoin="round" stroke-miterlimit="4" stroke-opacity="1" stroke-width=".465" d="m 62.33381,54.716923 c 0,0 0.130296,3.965482 -0.519571,4.889646 -0.649861,0.924312 -1.942969,0.935223 -1.942969,0.935223 -0.82978,0.09746 -0.836644,1.858947 0,1.858947 l 16.211697,0 c 0.836652,0 0.82996,-1.763084 0,-1.858947 0,0 -1.293049,-0.01454 -1.942903,-0.935223 -0.649851,-0.924164 -0.519631,-4.889646 -0.519631,-4.889646 l -11.286623,0 0,0 z" display="inline" enable-background="new" opacity="1" overflow="visible" visibility="visible" style="marker:none"/><path id="path3340" fill="none" stroke="url(#linearGradient2448-0-8-4)" stroke-linecap="square" stroke-linejoin="miter" stroke-opacity="1" stroke-width=".698" d="m 59.954862,61.701615 16.044582,0" display="inline" opacity="1"/><rect id="rect2722" width="44" height="30.73" x="45.977" y="23.987" fill="#e7e7e7" fill-opacity="1" stroke="none" stroke-dasharray="none" stroke-dashoffset=".5" stroke-linecap="round" stroke-linejoin="round" stroke-miterlimit="4" stroke-opacity="1" stroke-width=".5" display="inline" opacity="1" rx=".978" ry=".931"/><rect id="rect2716" width="39.111" height="25.841" x="48.422" y="26.432" fill="#404a50" fill-opacity="1" fill-rule="evenodd" stroke="none" display="inline" enable-background="new" opacity="1"/><path id="rect6588" fill="url(#linearGradient2441-5-2-8)" fill-opacity="1" stroke="none" d="m 46.416089,24.510442 43.301765,0 0,10.057138 -43.478542,15.429126 z" display="inline" opacity=".666"/><g id="layer1-0" display="inline" opacity="1" transform="matrix(0.69841521,0,0,0.69841521,62.498521,-710.26752)"><path id="rect4157" fill="url(#linearGradient5272)" fill-opacity="1" stroke="none" stroke-opacity="1" d="m -20.154407,1054.8153 57.09604,0 10e-7,0 10e-7,0 0,37.0273 -2e-6,0 -56.961808,0 -0.121842,0 z" opacity="1"/></g></g><g id="g4791" transform="matrix(0.96739222,0,0,0.96739222,0.74834581,0.28498196)"><path id="circle5292" fill="#000" fill-opacity="1" stroke="none" stroke-dasharray="none" stroke-miterlimit="4" stroke-opacity="1" stroke-width="1" d="m 56.662109,960.2585 c -0.973648,-0.11868 -3.111404,0.75482 -3.142578,0.76758 0,0 -0.002,0 -0.002,0 -2.595449,5.2e-4 -5.82206,1.07766 -8.304687,2.84179 0.0041,-0.003 0.0076,-0.008 0.01172,-0.0117 -0.05261,0.0373 -0.106273,0.0715 -0.158203,0.10938 -0.156314,0.11408 -0.309774,0.2378 -0.458984,0.36914 -0.149564,0.13166 -0.293711,0.27155 -0.435547,0.41992 -1.98131,2.07154 -3.180693,5.73942 -2.798828,10.13086 5.8e-5,6.7e-4 -5.8e-5,10e-4 0,0.002 0.301658,3.46237 2.295038,7.87254 3.273437,9.86133 0.326176,0.66302 0.539063,1.05664 0.539063,1.05664 l 4.71875,7.70899 0.494141,-0.38672 1.152343,-0.89844 c 0,0 -3.942416,-5.02648 -6.886719,-11.28125 -2.256112,-4.79277 -2.72251,-10.30089 0.119141,-14.38086 0.551447,-0.79175 1.237719,-1.43001 1.976563,-1.95508 0.0025,-0.002 0.0053,-0.004 0.0078,-0.006 0.682958,-0.48428 1.41367,-0.86044 2.132813,-1.16211 0.259561,-0.10846 0.513776,-0.19871 0.767578,-0.2871 0.294525,-0.10302 0.576767,-0.1965 0.855469,-0.2754 0.241652,-0.0679 0.485367,-0.1394 0.708984,-0.1914 0.185759,-0.0435 0.353683,-0.0756 0.523437,-0.10938 0.177414,-0.0349 0.355616,-0.0702 0.511719,-0.0957 0.108678,-0.018 0.209821,-0.0329 0.306641,-0.0469 0.489227,-0.0676 0.878994,-0.10258 0.933593,-0.10352 L 55.75,963.10225 c 0,0 1.079769,0.45388 1.619141,-0.68164 0.539373,-1.13552 0.283784,-1.53199 -0.369141,-2.04297 -0.08162,-0.0639 -0.19778,-0.10206 -0.337891,-0.11914 z m -5.111328,31.9707 -1.96875,1.54688 c 7.001855,9.00702 9.687859,11.67602 10.587891,19.68942 0.797731,7.1025 0.365819,19.7458 -2.25586,24.8125 -6.062182,11.7157 -17.210343,7.3622 -21.882812,0.3223 -3.793963,-5.7163 -0.88125,-16.0415 0.945312,-21.6875 1.826563,-5.6459 5.84155,-11.9574 4.476563,-18.3809 -1.030428,-4.84901 -4.666846,-8.31902 -7.701172,-10.24996 A 9.1133089,9.1133089 0 0 0 34.226562,985.40498 9.1133089,9.1133089 0 0 0 25.113281,976.2917 9.1133089,9.1133089 0 0 0 16,985.40498 a 9.1133089,9.1133089 0 0 0 9.113281,9.11328 9.1133089,9.1133089 0 0 0 7.484375,-3.91796 c 1.771499,1.12253 3.294838,2.51722 5.34375,5.64453 3.221478,5.73577 -0.710574,10.14697 -4.757812,23.24417 -1.544355,4.9976 -4.243974,17.746 3.705078,24.3301 7.949056,6.5841 17.813252,4.7365 22.630859,-3.3731 4.817607,-8.1097 3.385037,-26.1596 3.271485,-29.6797 -0.113552,-3.5201 1.703125,-6.3593 1.703125,-6.3593 l 6.990234,-10.83795 -0.08008,-0.0625 4.710937,-7.70118 c 0,0 3.412988,-6.30307 3.814454,-10.91992 0.40914,-4.70512 -0.998226,-8.5806 -3.236329,-10.55078 -0.149209,-0.13134 -0.300716,-0.25506 -0.457031,-0.36914 -0.05193,-0.0379 -0.105593,-0.074 -0.158203,-0.11133 0.0062,0.005 0.01141,0.0124 0.01758,0.0176 -2.483381,-1.76655 -5.713107,-2.84518 -8.310547,-2.8457 0,0 -0.002,0 -0.002,0 -0.03553,-0.0145 -2.831679,-1.15815 -3.480469,-0.65039 -0.652924,0.51098 -0.908513,0.9094 -0.36914,2.04492 0.539372,1.13552 1.617187,0.68164 1.617187,0.68164 l 2.244141,-0.76758 c 0.05591,10e-4 0.4441,0.035 0.9375,0.10352 0.09266,0.0134 0.189474,0.0279 0.292969,0.0449 0.158431,0.0258 0.340969,0.0622 0.521484,0.0977 0.173421,0.0345 0.343123,0.0686 0.533203,0.11328 0.157225,0.0367 0.331554,0.0884 0.498047,0.13282 0.37305,0.10028 0.760639,0.22436 1.164063,0.36914 0.217934,0.0779 0.43438,0.15347 0.65625,0.24609 0.723241,0.30311 1.458016,0.68204 2.144531,1.16992 0.738748,0.52503 1.425177,1.16341 1.976562,1.95508 2.84165,4.07997 2.373301,9.58809 0.117188,14.38086 -2.941435,6.24868 -6.875152,11.26757 -6.882813,11.27735 l -0.05078,-0.0391 c 0,0 -5.208422,7.50715 -7.082031,10.23245 -1.87361,2.7252 -3.292969,0 -3.292969,0 l -7.597656,-10.3301 -0.179688,0.14062 z" filter="url(#filter5370)" opacity=".3" transform="matrix(0.50000001,0,0,0.50000001,0.03532602,-477.50086)"/><g id="g5274" transform="matrix(0.22710422,0,0,0.22710422,-45.841587,-218.45001)"><circle id="path5121" cx="257.298" cy="1020.277" r="20.064" fill="url(#linearGradient5179)" fill-opacity="1" stroke="none" stroke-dasharray="none" stroke-miterlimit="4" stroke-opacity="1" stroke-width="1" opacity="1"/><circle id="circle5169" cx="257.298" cy="1020.277" r="19.064" fill="url(#linearGradient5177)" fill-opacity="1" stroke="none" stroke-dasharray="none" stroke-miterlimit="4" stroke-opacity="1" stroke-width="1" opacity="1"/><g id="g5269" transform="translate(49.182474,-6.5047463e-4)"><path id="path5257" fill="url(#linearGradient5263)" fill-opacity="1" fill-rule="evenodd" stroke="none" stroke-linecap="butt" stroke-linejoin="miter" stroke-opacity="1" stroke-width="1" d="m 302.08395,966.61218 0,2.875 -4.9375,1.6875 c 0,0 -2.375,1 -3.5625,-1.5 -1.1875,-2.5 -0.625,-3.375 0.8125,-4.5 1.4375,-1.125 7.6875,1.4375 7.6875,1.4375 z"/><path id="path5259" fill="url(#linearGradient5265)" fill-opacity="1" fill-rule="evenodd" stroke="none" stroke-linecap="butt" stroke-linejoin="miter" stroke-opacity="1" stroke-width="1" d="m 302.05217,969.48153 c 0.47684,0.004 13.30658,0.80295 19.23995,9.32194 6.25627,8.9826 5.22786,21.1107 0.26073,31.66263 -6.48227,13.7707 -15.15861,24.8371 -15.15861,24.8371 l 3.62392,2.8284 10.38564,-16.9705 c 0,0 7.51301,-13.877 8.39689,-24.04164 0.96083,-11.04954 -2.62537,-20.02313 -8.13173,-24.04163 -5.50637,-4.0185 -12.78678,-6.47444 -18.61126,-6.47444 z"/><path id="path5261" fill="url(#linearGradient5267)" fill-opacity="1" fill-rule="evenodd" stroke="none" stroke-linecap="butt" stroke-linejoin="miter" stroke-opacity="1" stroke-width="1" d="m 302.05465,967.83093 c 2.62716,0.28298 9.63023,2.35712 14.88672,6.66797 -6.32301,-4.49355 -14.5094,-5.0144 -14.88867,-5.01758 z m 18.26563,5.00195 c 0.11583,0.0821 0.23528,0.16071 0.34961,0.24414 5.50636,4.0185 9.09169,12.99343 8.13086,24.04297 -0.88388,10.16461 -8.39649,24.04101 -8.39649,24.04101 l -10.38672,16.9707 -1.08984,-0.8496 10.38281,-16.9648 c 0,0 7.51261,-13.8765 8.39649,-24.04106 0.9165,-10.53973 -2.30876,-19.17997 -7.38672,-23.44336 z"/></g><path id="path5153" fill="url(#linearGradient5227)" fill-opacity="1" fill-rule="evenodd" stroke="none" stroke-dasharray="none" stroke-linecap="butt" stroke-linejoin="miter" stroke-miterlimit="4" stroke-opacity="1" stroke-width="2" d="m 311.17118,1038.7062 4.72877,-3.7123 16.72505,22.7433 c 0,0 3.125,6 7.25,0 4.125,-6 15.59375,-22.5312 15.59375,-22.5312 l 3.92187,3.0468 L 344,1062.1122 c 0,0 -4,6.25 -3.75,14 0.25,7.75 3.40389,47.491 -7.20271,65.3454 -10.6066,17.8545 -32.3224,21.9204 -49.8233,7.4247 -17.50089,-14.4957 -11.55955,-42.5604 -8.15945,-53.5634 8.91053,-28.8351 17.57043,-38.5462 10.47792,-51.1742 -6.71752,-10.2531 -10.83884,-12.0815 -18.07932,-16.0009 -10.82661,-5.8606 -3.71231,-7.2479 3.0052,-4.5962 6.71752,2.6516 19.79899,11.4905 22.8042,25.6326 3.0052,14.1421 -5.83519,28.0338 -9.85661,40.4641 -4.02142,12.4303 -10.43133,35.166 -2.07842,47.7512 10.28706,15.4993 34.82755,25.083 48.17425,-0.7108 5.77197,-11.1549 6.72278,-38.9888 4.96647,-54.6259 -1.98154,-17.6425 -7.89154,-23.5226 -23.30705,-43.3526 z"/><circle id="circle5123" cx="257.298" cy="1020.277" r="12.816" fill="url(#linearGradient5193)" fill-opacity="1" stroke="none" stroke-dasharray="none" stroke-miterlimit="4" stroke-opacity="1" stroke-width="1" opacity="1"/><circle id="circle5125" cx="257.298" cy="1020.277" r="9.634" fill="url(#linearGradient5201)" fill-opacity="1" stroke="none" stroke-dasharray="none" stroke-miterlimit="4" stroke-opacity="1" stroke-width="1" opacity="1"/><circle id="circle5203" cx="257.298" cy="1020.277" r="8.043" fill="#3a3a3a" fill-opacity="1" stroke="none" stroke-dasharray="none" stroke-miterlimit="4" stroke-opacity="1" stroke-width="1" opacity=".3"/><circle id="circle5127" cx="257.298" cy="1020.277" r="7.159" fill="url(#linearGradient5211)" fill-opacity="1" stroke="none" stroke-dasharray="none" stroke-miterlimit="4" stroke-opacity="1" stroke-width="1" opacity=".99"/><path id="path5129" fill="url(#linearGradient5139)" fill-opacity="1" fill-rule="evenodd" stroke="none" stroke-linecap="butt" stroke-linejoin="miter" stroke-opacity="1" stroke-width="1" d="m 319.8125,966.61218 0,2.875 4.9375,1.6875 c 0,0 2.375,1 3.5625,-1.5 1.1875,-2.5 0.625,-3.375 -0.8125,-4.5 -1.4375,-1.125 -7.6875,1.4375 -7.6875,1.4375 z"/><path id="path5151" fill="url(#linearGradient5235)" fill-opacity="1" fill-rule="evenodd" stroke="none" stroke-linecap="butt" stroke-linejoin="miter" stroke-opacity="1" stroke-width="1" d="m 319.84428,969.48153 c -0.47684,0.004 -13.30658,0.80295 -19.23995,9.32194 -6.25627,8.9826 -5.22786,21.1107 -0.26073,31.66263 6.48227,13.7707 15.15861,24.8371 15.15861,24.8371 l -3.62392,2.8284 -10.38564,-16.9705 c 0,0 -7.51301,-13.877 -8.39689,-24.04164 -0.96083,-11.04954 2.62537,-20.02313 8.13173,-24.04163 5.50637,-4.0185 12.78678,-6.47444 18.61126,-6.47444 z"/><path id="path5237" fill="url(#linearGradient5255)" fill-opacity="1" fill-rule="evenodd" stroke="none" stroke-linecap="butt" stroke-linejoin="miter" stroke-opacity="1" stroke-width="1" d="m 319.8418,11.46875 c -2.62716,0.282983 -9.63023,2.357118 -14.88672,6.667969 6.32301,-4.493549 14.5094,-5.014397 14.88867,-5.017578 z m -18.26563,5.001953 c -0.11583,0.08208 -0.23528,0.160704 -0.34961,0.244141 -5.50636,4.0185 -9.09169,12.993429 -8.13086,24.042968 0.88388,10.164641 8.39649,24.041016 8.39649,24.041016 l 10.38672,16.970703 1.08984,-0.849609 -10.38281,-16.964844 c 0,0 -7.51261,-13.876425 -8.39649,-24.041016 -0.9165,-10.539729 2.30876,-19.179968 7.38672,-23.443359 z" transform="translate(0,956.36218)"/></g></g></g><g id="layer1" display="none"><rect id="rect5279-6" width="39.9" height="39.9" x="4.05" y="4.05" fill="none" fill-opacity=".95" stroke="#ff1300" stroke-dasharray=".1 .2" stroke-dashoffset="0" stroke-linecap="square" stroke-linejoin="miter" stroke-miterlimit="4" stroke-opacity="1" stroke-width=".1" display="inline" opacity="1" paint-order="normal" rx="6.65" ry="6.65"/><circle id="path5297-7" cx="24" cy="24" r="15.95" fill="none" fill-opacity=".95" stroke="#ff1300" stroke-dasharray=".1 .199" stroke-dashoffset="0" stroke-linecap="square" stroke-linejoin="miter" stroke-miterlimit="4" stroke-opacity="1" stroke-width=".1" display="inline" opacity="1" paint-order="normal"/><circle id="circle5299-5" cx="24" cy="24" r="3.988" fill="none" fill-opacity=".95" stroke="#ff1300" stroke-dasharray=".025 .05" stroke-dashoffset="0" stroke-linecap="square" stroke-linejoin="miter" stroke-miterlimit="4" stroke-opacity="1" stroke-width=".025" display="inline" opacity="1" paint-order="normal"/><circle id="circle5277" cx="24" cy="24" r="23.925" fill="none" fill-opacity=".95" stroke="#ff00dc" stroke-dasharray=".15 .299" stroke-dashoffset="0" stroke-linecap="square" stroke-linejoin="miter" stroke-miterlimit="4" stroke-opacity="1" stroke-width=".15" display="inline" opacity="1" paint-order="normal"/></g></svg>