<svg xmlns="http://www.w3.org/2000/svg" xmlns:svg="http://www.w3.org/2000/svg" xmlns:xlink="http://www.w3.org/1999/xlink" id="svg4910" width="48" height="48" version="1.1"><defs id="defs4912"><linearGradient id="linearGradient4539-4-0" x1="526.917" x2="527.75" y1="812.362" y2="812.362" gradientTransform="matrix(1.1999999,0,0,1.2,-673.29999,-1013.3346)" gradientUnits="userSpaceOnUse" xlink:href="#linearGradient5761-4-6-3"/><linearGradient id="linearGradient5761-4-6-3"><stop id="stop5763-9-21-7" offset="0" stop-color="#fff" stop-opacity="1"/><stop id="stop5765-0-8-5" offset="1" stop-color="#fff" stop-opacity="0"/></linearGradient><linearGradient id="linearGradient4539-7-4" x1="526.917" x2="527.75" y1="812.362" y2="812.362" gradientTransform="matrix(1.1999999,0,0,1.2,-664.29999,-1013.3346)" gradientUnits="userSpaceOnUse" xlink:href="#linearGradient5761-4-2-8"/><linearGradient id="linearGradient5761-4-2-8"><stop id="stop5763-9-2-0" offset="0" stop-color="#fff" stop-opacity="1"/><stop id="stop5765-0-98-6" offset="1" stop-color="#fff" stop-opacity="0"/></linearGradient><linearGradient id="linearGradient4539-50" x1="526.917" x2="527.75" y1="812.362" y2="812.362" gradientTransform="matrix(1.1999999,0,0,1.2,-655.29999,-1013.3346)" gradientUnits="userSpaceOnUse" xlink:href="#linearGradient5761-4-1-3"/><linearGradient id="linearGradient5761-4-1-3"><stop id="stop5763-9-6-5" offset="0" stop-color="#fff" stop-opacity="1"/><stop id="stop5765-0-1-2" offset="1" stop-color="#fff" stop-opacity="0"/></linearGradient><linearGradient id="linearGradient3256-5-8" x1="526.917" x2="527.75" y1="812.362" y2="812.362" gradientTransform="matrix(1.1999999,0,0,1.2,-646.29999,-1013.3346)" gradientUnits="userSpaceOnUse" xlink:href="#linearGradient5761-4-3"/><linearGradient id="linearGradient5761-4-3"><stop id="stop5763-9-8" offset="0" stop-color="#fff" stop-opacity="1"/><stop id="stop5765-0-2" offset="1" stop-color="#fff" stop-opacity="0"/></linearGradient><linearGradient id="linearGradient3114-0-0-8" x1="24" x2="24" y1="6.033" y2="42.033" gradientTransform="matrix(-1,0,0,1,47.999998,0.9674489)" gradientUnits="userSpaceOnUse" xlink:href="#linearGradient4656-7"/><linearGradient id="linearGradient4656-7"><stop id="stop4658-9" offset="0" stop-color="#fff" stop-opacity="1"/><stop id="stop4660-7" offset=".013" stop-color="#fff" stop-opacity=".235"/><stop id="stop4662-1" offset=".989" stop-color="#fff" stop-opacity=".157"/><stop id="stop4664-8" offset="1" stop-color="#fff" stop-opacity=".392"/></linearGradient><linearGradient id="linearGradient4539-4" x1="526.917" x2="527.75" y1="812.362" y2="812.362" gradientTransform="matrix(1.1999999,0,0,1.2,-673.29999,-965.33457)" gradientUnits="userSpaceOnUse" xlink:href="#linearGradient5761-4-6"/><linearGradient id="linearGradient5761-4-6"><stop id="stop5763-9-21" offset="0" stop-color="#fff" stop-opacity="1"/><stop id="stop5765-0-8" offset="1" stop-color="#fff" stop-opacity="0"/></linearGradient><linearGradient id="linearGradient4539-7" x1="526.917" x2="527.75" y1="812.362" y2="812.362" gradientTransform="matrix(1.1999999,0,0,1.2,-664.29999,-965.33457)" gradientUnits="userSpaceOnUse" xlink:href="#linearGradient5761-4-2"/><linearGradient id="linearGradient5761-4-2"><stop id="stop5763-9-2" offset="0" stop-color="#fff" stop-opacity="1"/><stop id="stop5765-0-98" offset="1" stop-color="#fff" stop-opacity="0"/></linearGradient><linearGradient id="linearGradient4539" x1="526.917" x2="527.75" y1="812.362" y2="812.362" gradientTransform="matrix(1.1999999,0,0,1.2,-655.29999,-965.33457)" gradientUnits="userSpaceOnUse" xlink:href="#linearGradient5761-4-1"/><linearGradient id="linearGradient5761-4-1"><stop id="stop5763-9-6" offset="0" stop-color="#fff" stop-opacity="1"/><stop id="stop5765-0-1" offset="1" stop-color="#fff" stop-opacity="0"/></linearGradient><linearGradient id="linearGradient3114-0" x1="24" x2="24" y1="5.571" y2="42.429" gradientTransform="translate(2.4e-6,0.9674489)" gradientUnits="userSpaceOnUse" xlink:href="#linearGradient4339"/><linearGradient id="linearGradient4339"><stop id="stop4341" offset="0" stop-color="#fff" stop-opacity="1"/><stop id="stop4343" offset=".033" stop-color="#fff" stop-opacity=".235"/><stop id="stop4345" offset=".97" stop-color="#fff" stop-opacity=".157"/><stop id="stop4347" offset="1" stop-color="#fff" stop-opacity=".392"/></linearGradient><linearGradient id="linearGradient3256-5" x1="526.917" x2="527.75" y1="812.362" y2="812.362" gradientTransform="matrix(1.1999999,0,0,1.2,-646.29999,-965.33457)" gradientUnits="userSpaceOnUse" xlink:href="#linearGradient5761-4"/><linearGradient id="linearGradient5761-4"><stop id="stop5763-9" offset="0" stop-color="#fff" stop-opacity="1"/><stop id="stop5765-0" offset="1" stop-color="#fff" stop-opacity="0"/></linearGradient><linearGradient id="linearGradient3114-0-0" x1="24" x2="24" y1="6.033" y2="42.033" gradientTransform="translate(2.4e-6,0.9674489)" gradientUnits="userSpaceOnUse" xlink:href="#linearGradient4656"/><linearGradient id="linearGradient4656"><stop id="stop4658" offset="0" stop-color="#fff" stop-opacity="1"/><stop id="stop4660" offset=".013" stop-color="#fff" stop-opacity=".235"/><stop id="stop4662" offset=".989" stop-color="#fff" stop-opacity=".157"/><stop id="stop4664" offset="1" stop-color="#fff" stop-opacity=".392"/></linearGradient><linearGradient id="linearGradient4436" x1="612.705" x2="612.705" y1="477.737" y2="422.656" gradientUnits="userSpaceOnUse" xlink:href="#linearGradient2490-1"/><linearGradient id="linearGradient2490-1"><stop id="stop2492-7" offset="0" stop-color="#791235" stop-opacity="1"/><stop id="stop2494-2" offset="1" stop-color="#dd3b27" stop-opacity="1"/></linearGradient><linearGradient id="linearGradient4453" x1="612.705" x2="612.705" y1="479.705" y2="422.656" gradientUnits="userSpaceOnUse" xlink:href="#linearGradient2490-1-2"/><linearGradient id="linearGradient2490-1-2"><stop id="stop2492-7-3" offset="0" stop-color="#791235" stop-opacity="1"/><stop id="stop2494-2-4" offset="1" stop-color="#dd3b27" stop-opacity="1"/></linearGradient><linearGradient id="linearGradient4453-6" x1="612.705" x2="612.705" y1="481.672" y2="422.656" gradientUnits="userSpaceOnUse" xlink:href="#linearGradient2490-1-7"/><linearGradient id="linearGradient2490-1-7"><stop id="stop2492-7-5" offset="0" stop-color="#791235" stop-opacity="1"/><stop id="stop2494-2-7" offset="1" stop-color="#dd3b27" stop-opacity="1"/></linearGradient><radialGradient id="radialGradient2873-966-168" cx="4.993" cy="43.5" r="2.5" fx="4.993" fy="43.5" gradientTransform="matrix(2.003784,0,0,1.4,27.98813,-17.4)" gradientUnits="userSpaceOnUse" xlink:href="#linearGradient3688-166-749"/><linearGradient id="linearGradient3688-166-749"><stop id="stop2883" offset="0" stop-color="#181818" stop-opacity="1"/><stop id="stop2885" offset="1" stop-color="#181818" stop-opacity="0"/></linearGradient><radialGradient id="radialGradient2875-742-326" cx="4.993" cy="43.5" r="2.5" fx="4.993" fy="43.5" gradientTransform="matrix(2.003784,0,0,1.4,-20.01187,-104.4)" gradientUnits="userSpaceOnUse" xlink:href="#linearGradient3688-464-309"/><linearGradient id="linearGradient3688-464-309"><stop id="stop2889" offset="0" stop-color="#181818" stop-opacity="1"/><stop id="stop2891" offset="1" stop-color="#181818" stop-opacity="0"/></linearGradient><linearGradient id="linearGradient2877-634-617" x1="25.058" x2="25.058" y1="47.028" y2="39.999" gradientUnits="userSpaceOnUse" xlink:href="#linearGradient3702-501-757"/><linearGradient id="linearGradient3702-501-757"><stop id="stop2895" offset="0" stop-color="#181818" stop-opacity="0"/><stop id="stop2897" offset=".5" stop-color="#181818" stop-opacity="1"/><stop id="stop2899" offset="1" stop-color="#181818" stop-opacity="0"/></linearGradient><linearGradient id="linearGradient3242-4"><stop id="stop3244-1" offset="0" stop-color="#f89b7e" stop-opacity="1"/><stop id="stop3246-0" offset=".262" stop-color="#e35d4f" stop-opacity="1"/><stop id="stop3248-3" offset=".661" stop-color="#c6262e" stop-opacity="1"/><stop id="stop3250-7" offset="1" stop-color="#690b2c" stop-opacity="1"/></linearGradient><radialGradient id="radialGradient4906" cx="7.496" cy="8.45" r="20" fx="7.496" fy="8.45" gradientTransform="matrix(2.1486843e-8,2.3305413,-2.7341834,-4.2937466e-8,47.246549,-11.359558)" gradientUnits="userSpaceOnUse" xlink:href="#linearGradient3242-4"/><linearGradient id="linearGradient4908" x1="24" x2="24" y1="44" y2="3.899" gradientTransform="matrix(1.1059464,0,0,0.99724061,-2.3994981,1.0409283)" gradientUnits="userSpaceOnUse" xlink:href="#linearGradient2490-1"/></defs><metadata id="metadata4915"/><g id="layer1"><rect id="rect4349" width="19" height="39" x="14.5" y="5.5" fill="url(#radialGradient4906)" fill-opacity="1" fill-rule="nonzero" stroke="url(#linearGradient4908)" stroke-dasharray="none" stroke-dashoffset="0" stroke-linecap="round" stroke-linejoin="round" stroke-miterlimit="4" stroke-opacity="1" stroke-width="1" color="#000" display="inline" enable-background="accumulate" overflow="visible" visibility="visible" style="marker:none"/><g id="g2036" display="inline" transform="matrix(1.1,0,0,0.4444449,-2.4000022,25.11107)"><g id="g3712" opacity=".4" transform="matrix(1.052632,0,0,1.285713,-1.263158,-13.42854)"><rect id="rect2801" width="5" height="7" x="38" y="40" fill="url(#radialGradient2873-966-168)" fill-opacity="1" stroke="none"/><rect id="rect3696" width="5" height="7" x="-10" y="-47" fill="url(#radialGradient2875-742-326)" fill-opacity="1" stroke="none" transform="scale(-1,-1)"/><rect id="rect3700" width="28" height="7" x="10" y="40" fill="url(#linearGradient2877-634-617)" fill-opacity="1" stroke="none"/></g></g><path id="path4428-2" fill="url(#linearGradient4453-6)" fill-opacity="1" fill-rule="evenodd" stroke="none" d="m 599.78125,442.15625 a 7.0546228,7.0546228 0 0 0 -7.21875,7.0625 l 0,25.5625 a 7.0546228,7.0546228 0 0 0 10.59375,6.09375 l 22.125,-12.78125 a 7.0546228,7.0546228 0 0 0 0,-12.1875 l -22.125,-12.78125 a 7.0546228,7.0546228 0 0 0 -3.375,-0.96875 z" opacity=".05" transform="matrix(0.49667601,0,0,0.50834023,-279.31567,-209.85319)"/><path id="path4428-3" fill="url(#linearGradient4453)" fill-opacity="1" fill-rule="evenodd" stroke="none" d="m 599.21875,444.0625 a 5.162989,5.162989 0 0 0 -4.75,5.15625 l 0,25.5625 a 5.162989,5.162989 0 0 0 7.75,4.46875 l 22.125,-12.78125 a 5.162989,5.162989 0 0 0 0,-8.9375 L 602.21875,444.75 a 5.162989,5.162989 0 0 0 -3,-0.6875 z" opacity=".1" transform="matrix(0.49667601,0,0,0.50834023,-279.31567,-209.85319)"/><path id="path4428" fill="url(#linearGradient4436)" fill-opacity="1" fill-rule="evenodd" stroke="none" d="m 599.40625,446.21875 a 3.0022424,3.0022424 0 0 0 -2.78125,3 l 0,25.5625 a 3.0022424,3.0022424 0 0 0 4.5,2.59375 l 22.125,-12.78125 a 3.0022424,3.0022424 0 0 0 0,-5.1875 L 601.125,446.625 a 3.0022424,3.0022424 0 0 0 -1.71875,-0.40625 z" opacity=".2" transform="matrix(0.49667601,0,0,0.50834023,-279.31567,-209.85319)"/><path id="rect6104-7" fill="#000" fill-opacity=".784" fill-rule="nonzero" stroke="#000" stroke-dasharray="none" stroke-dashoffset="0" stroke-linecap="round" stroke-linejoin="miter" stroke-miterlimit="4" stroke-opacity="1" stroke-width="1" d="M 5.611111,5.5 C 4.9955554,5.5 4.5,5.9969711 4.5,6.6142855 l 0,36.7714295 C 4.5,44.003029 4.9955554,44.5 5.611111,44.5 l 8.888889,0 0,-39 z M 7.5,9.5 l 4,0 0,4 -4,0 z m 0,9 4,0 0,4 -4,0 z m 0,9 4,0 0,4 -4,0 z m 0,9 4,0 0,4 -4,0 z" color="#000" display="inline" enable-background="accumulate" overflow="visible" visibility="visible" style="marker:none"/><path id="rect6106-4" fill="none" stroke="url(#linearGradient3114-0-0)" stroke-dasharray="none" stroke-dashoffset="0" stroke-linecap="round" stroke-linejoin="miter" stroke-miterlimit="4" stroke-opacity="1" stroke-width="1" d="m 5.5,6.5000001 0,37.0000009 8,0 0,-37.0000009 z" color="#000" display="inline" enable-background="accumulate" opacity=".4" overflow="visible" visibility="visible" style="marker:none"/><rect id="rect6094-5" width="6" height="6" x="-14.5" y="6.5" fill="none" stroke="url(#linearGradient3256-5)" stroke-dasharray="none" stroke-dashoffset="0" stroke-linecap="butt" stroke-linejoin="round" stroke-miterlimit="4" stroke-opacity="1" stroke-width="1" opacity=".15" rx="1" ry="1" transform="matrix(0,-1,1,0,0,0)"/><rect id="rect6334-0" width="5" height="5" x="7" y="9" fill="#000" fill-opacity="1" stroke="none" opacity=".4"/><rect id="rect6741-8" width="17" height="37" x="15.5" y="6.5" fill="none" stroke="url(#linearGradient3114-0)" stroke-dasharray="none" stroke-dashoffset="0" stroke-linecap="round" stroke-linejoin="miter" stroke-miterlimit="4" stroke-opacity="1" stroke-width="1" color="#000" display="inline" enable-background="accumulate" opacity=".5" overflow="visible" visibility="visible" style="marker:none"/><path id="path6156" fill="#fafafa" fill-opacity="1" fill-rule="evenodd" stroke="#fff" stroke-dasharray="none" stroke-linejoin="round" stroke-miterlimit="4" stroke-opacity="1" stroke-width="1.99" d="m 599.61759,474.78671 0,-25.57342 L 621.76482,462 z" transform="matrix(0.49667601,0,0,0.50834023,-279.31567,-209.85319)"/><rect id="rect6094-5-5" width="6" height="6" x="-23.5" y="6.5" fill="none" stroke="url(#linearGradient4539)" stroke-dasharray="none" stroke-dashoffset="0" stroke-linecap="butt" stroke-linejoin="round" stroke-miterlimit="4" stroke-opacity="1" stroke-width="1" opacity=".15" rx="1" ry="1" transform="matrix(0,-1,1,0,0,0)"/><rect id="rect6334-0-5" width="5" height="5" x="7" y="18" fill="#000" fill-opacity="1" stroke="none" opacity=".4"/><rect id="rect6094-5-8" width="6" height="6" x="-32.5" y="6.5" fill="none" stroke="url(#linearGradient4539-7)" stroke-dasharray="none" stroke-dashoffset="0" stroke-linecap="butt" stroke-linejoin="round" stroke-miterlimit="4" stroke-opacity="1" stroke-width="1" opacity=".15" rx="1" ry="1" transform="matrix(0,-1,1,0,0,0)"/><rect id="rect6334-0-7" width="5" height="5" x="7" y="27" fill="#000" fill-opacity="1" stroke="none" opacity=".4"/><rect id="rect6094-5-9" width="6" height="6" x="-41.5" y="6.5" fill="none" stroke="url(#linearGradient4539-4)" stroke-dasharray="none" stroke-dashoffset="0" stroke-linecap="butt" stroke-linejoin="round" stroke-miterlimit="4" stroke-opacity="1" stroke-width="1" opacity=".15" rx="1" ry="1" transform="matrix(0,-1,1,0,0,0)"/><rect id="rect6334-0-2" width="5" height="5" x="7" y="36" fill="#000" fill-opacity="1" stroke="none" opacity=".4"/><path id="rect6104-7-0" fill="#000" fill-opacity=".784" fill-rule="nonzero" stroke="#000" stroke-dasharray="none" stroke-dashoffset="0" stroke-linecap="round" stroke-linejoin="miter" stroke-miterlimit="4" stroke-opacity="1" stroke-width="1" d="M 42.388889,5.5 C 43.004445,5.5 43.5,5.9969711 43.5,6.6142855 l 0,36.7714295 C 43.5,44.003029 43.004445,44.5 42.388889,44.5 l -8.888889,0 0,-39 z M 40.5,9.5 l -4,0 0,4 4,0 z m 0,9 -4,0 0,4 4,0 z m 0,9 -4,0 0,4 4,0 z m 0,9 -4,0 0,4 4,0 z" color="#000" display="inline" enable-background="accumulate" overflow="visible" visibility="visible" style="marker:none"/><path id="rect6106-4-7" fill="none" stroke="url(#linearGradient3114-0-0-8)" stroke-dasharray="none" stroke-dashoffset="0" stroke-linecap="round" stroke-linejoin="miter" stroke-miterlimit="4" stroke-opacity="1" stroke-width="1" d="m 42.5,6.5000001 0,37.0000009 -8,0 0,-37.0000009 z" color="#000" display="inline" enable-background="accumulate" opacity=".4" overflow="visible" visibility="visible" style="marker:none"/><rect id="rect6094-5-92" width="6" height="6" x="-14.5" y="-41.5" fill="none" stroke="url(#linearGradient3256-5-8)" stroke-dasharray="none" stroke-dashoffset="0" stroke-linecap="butt" stroke-linejoin="round" stroke-miterlimit="4" stroke-opacity="1" stroke-width="1" opacity=".15" rx="1" ry="1" transform="matrix(0,-1,-1,0,0,0)"/><rect id="rect6334-0-4" width="5" height="5" x="-41" y="9" fill="#000" fill-opacity="1" stroke="none" opacity=".4" transform="scale(-1,1)"/><rect id="rect6094-5-5-5" width="6" height="6" x="-23.5" y="-41.5" fill="none" stroke="url(#linearGradient4539-50)" stroke-dasharray="none" stroke-dashoffset="0" stroke-linecap="butt" stroke-linejoin="round" stroke-miterlimit="4" stroke-opacity="1" stroke-width="1" opacity=".15" rx="1" ry="1" transform="matrix(0,-1,-1,0,0,0)"/><rect id="rect6334-0-5-1" width="5" height="5" x="-41" y="18" fill="#000" fill-opacity="1" stroke="none" opacity=".4" transform="scale(-1,1)"/><rect id="rect6094-5-8-2" width="6" height="6" x="-32.5" y="-41.5" fill="none" stroke="url(#linearGradient4539-7-4)" stroke-dasharray="none" stroke-dashoffset="0" stroke-linecap="butt" stroke-linejoin="round" stroke-miterlimit="4" stroke-opacity="1" stroke-width="1" opacity=".15" rx="1" ry="1" transform="matrix(0,-1,-1,0,0,0)"/><rect id="rect6334-0-7-7" width="5" height="5" x="-41" y="27" fill="#000" fill-opacity="1" stroke="none" opacity=".4" transform="scale(-1,1)"/><rect id="rect6094-5-9-5" width="6" height="6" x="-41.5" y="-41.5" fill="none" stroke="url(#linearGradient4539-4-0)" stroke-dasharray="none" stroke-dashoffset="0" stroke-linecap="butt" stroke-linejoin="round" stroke-miterlimit="4" stroke-opacity="1" stroke-width="1" opacity=".15" rx="1" ry="1" transform="matrix(0,-1,-1,0,0,0)"/><rect id="rect6334-0-2-9" width="5" height="5" x="-41" y="36" fill="#000" fill-opacity="1" stroke="none" opacity=".4" transform="scale(-1,1)"/></g></svg>