<svg xmlns="http://www.w3.org/2000/svg" xmlns:svg="http://www.w3.org/2000/svg" xmlns:xlink="http://www.w3.org/1999/xlink" id="svg2" width="48" height="48" version="1.1" viewBox="0 0 45 45"><metadata id="metadata24"/><defs id="defs22"><linearGradient id="linearGradient4261"><stop id="stop4263" offset="0" stop-color="#000" stop-opacity="1"/><stop id="stop4265" offset="1" stop-color="#000" stop-opacity="0"/></linearGradient><linearGradient id="linearGradient49897"><stop id="stop49899" offset="0" stop-color="#176875" stop-opacity="1"/><stop id="stop49901" offset="1" stop-color="#186a77" stop-opacity="1"/></linearGradient><linearGradient id="linearGradient4536"><stop id="stop4538" offset="0" stop-color="#b6b6b6" stop-opacity="1"/><stop id="stop4544" offset=".482" stop-color="#fff" stop-opacity="1"/><stop id="stop4540" offset="1" stop-color="#cfcfcf" stop-opacity="1"/></linearGradient><linearGradient id="linearGradient4492"><stop id="stop4494" offset="0" stop-color="#165dc2" stop-opacity="1"/><stop id="stop4496" offset="1" stop-color="#1680c2" stop-opacity="1"/></linearGradient><filter id="filter4672" color-interpolation-filters="sRGB"><feGaussianBlur id="feGaussianBlur4674" stdDeviation="19.54"/></filter><filter id="filter4680" color-interpolation-filters="sRGB"><feDiffuseLighting id="feDiffuseLighting4682"/></filter><linearGradient id="linearGradient4498-3" x1="32.948" x2="41.58" y1="16.16" y2="6.42" gradientTransform="translate(-29.321003,-3.241)" gradientUnits="userSpaceOnUse" xlink:href="#linearGradient4492"/><linearGradient id="linearGradient4542-0" x1="29.321" x2="44.279" y1="10.72" y2="10.72" gradientTransform="translate(-29.321003,-3.241)" gradientUnits="userSpaceOnUse" xlink:href="#linearGradient4536"/><linearGradient id="linearGradient3244"><stop id="stop3246" offset="0" stop-color="#d0611f" stop-opacity="1"/><stop id="stop3248" offset="1" stop-color="#f77a2c" stop-opacity="1"/></linearGradient><linearGradient id="linearGradient3242-3" x1="78.897" x2="78.897" y1="1042.14" y2="982.428" gradientTransform="matrix(0.49438202,0,0,0.49438202,-34.11236,-485.66219)" gradientUnits="userSpaceOnUse" xlink:href="#linearGradient3244"/><symbol id="icon-refresh" viewBox="0 0 24 28"><title id="title9852">refresh</title><path id="path9854" d="m 23.609,16.5 c 0,0.031 0,0.078 -0.016,0.109 C 22.265,22.14 17.702,26 11.937,26 8.89,26 5.937,24.797 3.718,22.687 L 1.702,24.703 C 1.515,24.89 1.264,25 0.999,25 c -0.547,0 -1,-0.453 -1,-1 v -7 c 0,-0.547 0.453,-1 1,-1 h 7 c 0.547,0 1,0.453 1,1 0,0.266 -0.109,0.516 -0.297,0.703 L 6.561,19.844 C 8.03,21.219 9.983,22 11.998,22 c 2.781,0 5.359,-1.437 6.813,-3.813 0.375,-0.609 0.562,-1.203 0.828,-1.828 C 19.717,16.14 19.873,16 20.108,16 h 3 c 0.281,0 0.5,0.234 0.5,0.5 z M 24,4 v 7 c 0,0.547 -0.453,1 -1,1 h -7 c -0.547,0 -1,-0.453 -1,-1 0,-0.266 0.109,-0.516 0.297,-0.703 L 17.453,8.141 C 15.969,6.766 14.016,6 12,6 9.219,6 6.641,7.437 5.187,9.813 4.812,10.422 4.625,11.016 4.359,11.641 4.281,11.86 4.125,12 3.89,12 H 0.781 C 0.5,12 0.281,11.766 0.281,11.5 V 11.391 C 1.625,5.844 6.234,2 12,2 c 3.063,0 6.047,1.219 8.266,3.313 L 22.297,3.297 C 22.484,3.11 22.735,3 23,3 c 0.547,0 1,0.453 1,1 z" class="path1"/></symbol><symbol id="symbol5687"><title id="title5689">Replay</title><path id="path5691" stroke="none" d="M 24,10 V 2 L 14,12 24,22 v -8 c 6.63,0 12,5.37 12,12 0,6.63 -5.37,12 -12,12 C 17.37,38 12,32.63 12,26 H 8 c 0,8.84 7.16,16 16,16 8.84,0 16,-7.16 16,-16 0,-8.84 -7.16,-16 -16,-16 z"/></symbol><symbol id="symbol20353"><title id="title20355">Refresh</title><path id="path20357" stroke="none" d="M 35.3,12.7 C 32.41,9.8 28.42,8 24,8 15.16,8 8.02,15.16 8.02,24 c 0,8.84 7.14,16 15.98,16 7.45,0 13.69,-5.1 15.46,-12 H 35.3 c -1.65,4.66 -6.07,8 -11.3,8 -6.63,0 -12,-5.37 -12,-12 0,-6.63 5.37,-12 12,-12 3.31,0 6.28,1.38 8.45,3.55 L 26,22 H 40 V 8 Z"/></symbol><linearGradient id="linearGradient49903-2" x1="24.334" x2="24.334" y1="44.352" y2="-.6" gradientUnits="userSpaceOnUse" xlink:href="#linearGradient49897"/><linearGradient id="linearGradient50365" x1="24.334" x2="24.334" y1="44.352" y2="-.6" gradientTransform="matrix(1.0514827,0,0,1.0514827,-1.2359443,-1.105721)" gradientUnits="userSpaceOnUse" xlink:href="#linearGradient49897"/><linearGradient id="linearGradient4267" x1="8.02" x2="40" y1="24" y2="24" gradientUnits="userSpaceOnUse" xlink:href="#linearGradient4261"/><filter id="filter4570" width="1.027" height="1.022" x="-.013" y="-.011" color-interpolation-filters="sRGB"><feGaussianBlur id="feGaussianBlur4572" stdDeviation=".17"/></filter></defs><g id="layer6" display="none" opacity="1" transform="translate(0,-3.0000007)"><rect marker-start="none" style="isolation:auto;mix-blend-mode:normal;solid-color:#000;solid-opacity:1;marker:none" id="rect49905" width="60" height="60" x="-6" y="-6" fill="#fff" fill-opacity="1" fill-rule="nonzero" stroke="none" stroke-dasharray="none" stroke-dashoffset="0" stroke-linecap="butt" stroke-linejoin="miter" stroke-miterlimit="4" stroke-opacity="1" stroke-width=".201" marker-end="none" marker-mid="none" clip-rule="nonzero" color="#000" color-interpolation="sRGB" color-interpolation-filters="linearRGB" color-rendering="auto" display="inline" enable-background="accumulate" image-rendering="auto" opacity="1" overflow="visible" paint-order="normal" rx="0" ry="0" shape-rendering="auto" text-rendering="auto" visibility="visible"/></g><g id="layer7" display="inline" transform="translate(0,-3.0000007)"><rect id="rect4356" width="0" height="0" x="0" y="0" fill="red" fill-opacity="1" fill-rule="nonzero" stroke="none" stroke-dasharray="none" stroke-dashoffset="0" stroke-linecap="round" stroke-linejoin="miter" stroke-miterlimit="4" stroke-opacity=".771" stroke-width=".618" marker-end="none" marker-mid="none" marker-start="none" clip-rule="nonzero" color="#000" color-interpolation="sRGB" color-interpolation-filters="linearRGB" color-rendering="auto" display="inline" enable-background="accumulate" image-rendering="auto" opacity="1" overflow="visible" paint-order="normal" shape-rendering="auto" text-rendering="auto" visibility="visible" style="isolation:auto;mix-blend-mode:normal;solid-color:#000;solid-opacity:1;marker:none"/><path clip-rule="nonzero" style="isolation:auto;mix-blend-mode:normal;solid-color:#000;solid-opacity:1;marker:none" id="path4564" fill="none" fill-opacity="1" fill-rule="nonzero" stroke="#000" stroke-dasharray="none" stroke-dashoffset="0" stroke-linecap="butt" stroke-linejoin="miter" stroke-miterlimit="4" stroke-opacity=".147" stroke-width=".937" marker-end="none" marker-mid="none" marker-start="none" d="m 37.499999,21.575558 c 0,0 1.767767,22.674442 -2.828427,22.674442 -3.774328,0 -0.59891,-9.375 -4.671573,-9.375 -5.76972,0 -1.332569,9.375 -7.5,9.375 -4.888214,0 -2.189427,-9.375 -6.722182,-9.375 -4.312166,0 -1.844331,9.375 -5.237258,9.375 -4.6744834,0 -2.6916735,-15.474577 -2.6916735,-22.674442 0,-8.187929 6.6376275,-14.8255567 14.8255565,-14.825557 8.187929,0 14.825557,6.637628 14.825557,14.825557 z" color="#000" color-interpolation="sRGB" color-interpolation-filters="linearRGB" color-rendering="auto" display="block" enable-background="accumulate" filter="url(#filter4570)" image-rendering="auto" opacity="1" overflow="visible" paint-order="normal" shape-rendering="auto" text-rendering="auto" vector-effect="none" visibility="visible"/><path clip-rule="nonzero" style="isolation:auto;mix-blend-mode:normal;solid-color:#000;solid-opacity:1;marker:none" id="path4545" fill="#4cd798" fill-opacity=".963" fill-rule="nonzero" stroke="none" stroke-dasharray="none" stroke-dashoffset="0" stroke-linecap="butt" stroke-linejoin="miter" stroke-miterlimit="4" stroke-opacity=".52" stroke-width=".094" marker-end="none" marker-mid="none" marker-start="none" d="m 37.499999,21.575558 c 0,0 1.767767,22.674442 -2.828427,22.674442 -3.774328,0 -0.59891,-9.375 -4.671573,-9.375 -5.76972,0 -1.332569,9.375 -7.5,9.375 -4.888214,0 -2.189427,-9.375 -6.722182,-9.375 -4.312166,0 -1.844331,9.375 -5.237258,9.375 -4.6744834,0 -2.6916735,-15.474577 -2.6916735,-22.674442 0,-8.187929 6.6376275,-14.8255567 14.8255565,-14.825557 8.187929,0 14.825557,6.637628 14.825557,14.825557 z" color="#000" color-interpolation="sRGB" color-interpolation-filters="linearRGB" color-rendering="auto" display="block" enable-background="accumulate" image-rendering="auto" opacity="1" overflow="visible" paint-order="normal" shape-rendering="auto" text-rendering="auto" vector-effect="none" visibility="visible"/><circle marker-start="none" style="isolation:auto;mix-blend-mode:normal;solid-color:#000;solid-opacity:1;marker:none" id="path4550" cx="29.063" cy="21.75" r="3.75" fill="#e0f8ea" fill-opacity="1" fill-rule="nonzero" stroke="none" stroke-dasharray="none" stroke-dashoffset="0" stroke-linecap="butt" stroke-linejoin="miter" stroke-miterlimit="4" stroke-opacity=".52" stroke-width=".094" marker-end="none" marker-mid="none" clip-rule="nonzero" color="#000" color-interpolation="sRGB" color-interpolation-filters="linearRGB" color-rendering="auto" display="block" enable-background="accumulate" image-rendering="auto" opacity="1" overflow="visible" paint-order="normal" shape-rendering="auto" text-rendering="auto" vector-effect="none" visibility="visible"/><circle id="circle4552" cx="15.938" cy="21.75" r="3.75" fill="#e0f8ea" fill-opacity="1" fill-rule="nonzero" stroke="none" stroke-dasharray="none" stroke-dashoffset="0" stroke-linecap="butt" stroke-linejoin="miter" stroke-miterlimit="4" stroke-opacity=".52" stroke-width=".094" marker-end="none" marker-mid="none" marker-start="none" clip-rule="nonzero" color="#000" color-interpolation="sRGB" color-interpolation-filters="linearRGB" color-rendering="auto" display="block" enable-background="accumulate" image-rendering="auto" opacity="1" overflow="visible" paint-order="normal" shape-rendering="auto" text-rendering="auto" vector-effect="none" visibility="visible" style="isolation:auto;mix-blend-mode:normal;solid-color:#000;solid-opacity:1;marker:none"/><circle id="circle4560" cx="30.469" cy="21.281" r="1.406" fill="#020905" fill-opacity="1" fill-rule="nonzero" stroke="none" stroke-dasharray="none" stroke-dashoffset="0" stroke-linecap="butt" stroke-linejoin="miter" stroke-miterlimit="4" stroke-opacity=".52" stroke-width=".069" marker-end="none" marker-mid="none" marker-start="none" clip-rule="nonzero" color="#000" color-interpolation="sRGB" color-interpolation-filters="linearRGB" color-rendering="auto" display="block" enable-background="accumulate" image-rendering="auto" opacity="1" overflow="visible" paint-order="normal" shape-rendering="auto" text-rendering="auto" vector-effect="none" visibility="visible" style="isolation:auto;mix-blend-mode:normal;solid-color:#000;solid-opacity:1;marker:none"/><circle marker-start="none" style="isolation:auto;mix-blend-mode:normal;solid-color:#000;solid-opacity:1;marker:none" id="circle4562" cx="17.344" cy="21.281" r="1.406" fill="#020905" fill-opacity="1" fill-rule="nonzero" stroke="none" stroke-dasharray="none" stroke-dashoffset="0" stroke-linecap="butt" stroke-linejoin="miter" stroke-miterlimit="4" stroke-opacity=".52" stroke-width=".069" marker-end="none" marker-mid="none" clip-rule="nonzero" color="#000" color-interpolation="sRGB" color-interpolation-filters="linearRGB" color-rendering="auto" display="block" enable-background="accumulate" image-rendering="auto" opacity="1" overflow="visible" paint-order="normal" shape-rendering="auto" text-rendering="auto" vector-effect="none" visibility="visible"/></g><g id="layer1" display="none" transform="translate(0,-3.0000007)"><rect id="rect5279-6" width="37.406" height="37.406" x="3.797" y="6.797" fill="none" fill-opacity=".95" stroke="#ff1300" stroke-dasharray=".094 .187" stroke-dashoffset="0" stroke-linecap="square" stroke-linejoin="miter" stroke-miterlimit="4" stroke-opacity="1" stroke-width=".094" display="inline" opacity="1" paint-order="normal" rx="3.75" ry="3.75"/><circle id="path5297-7" cx="22.5" cy="25.5" r="14.953" fill="none" fill-opacity=".95" stroke="#ff1300" stroke-dasharray=".093 .187" stroke-dashoffset="0" stroke-linecap="square" stroke-linejoin="miter" stroke-miterlimit="4" stroke-opacity="1" stroke-width=".093" display="inline" opacity="1" paint-order="normal"/><circle id="circle5299-5" cx="22.5" cy="25.5" r="3.738" fill="none" fill-opacity=".95" stroke="#ff1300" stroke-dasharray=".023 .047" stroke-dashoffset="0" stroke-linecap="square" stroke-linejoin="miter" stroke-miterlimit="4" stroke-opacity="1" stroke-width=".023" display="inline" opacity="1" paint-order="normal"/><circle id="circle5277" cx="22.5" cy="25.5" r="21.516" fill="none" fill-opacity=".95" stroke="#ff00dc" stroke-dasharray=".094 .188" stroke-dashoffset="0" stroke-linecap="square" stroke-linejoin="miter" stroke-miterlimit="4" stroke-opacity="1" stroke-width=".094" display="inline" opacity="1" paint-order="normal"/></g></svg>