<svg xmlns="http://www.w3.org/2000/svg" xmlns:svg="http://www.w3.org/2000/svg" xmlns:xlink="http://www.w3.org/1999/xlink" id="svg2" width="96" height="96" version="1.1"><defs id="defs4"><linearGradient id="linearGradient3413"><stop id="stop3415" offset="0" stop-color="#fff" stop-opacity="1"/><stop id="stop3417" offset="1" stop-color="#b5b2b5" stop-opacity="1"/></linearGradient><linearGradient id="linearGradient3385"><stop id="stop3387" offset="0" stop-color="#313439" stop-opacity="1"/><stop id="stop3389" offset="1" stop-color="#525152" stop-opacity="1"/></linearGradient><linearGradient id="linearGradient3352"><stop id="stop3354" offset="0" stop-color="#313439" stop-opacity="1"/><stop id="stop3356" offset="1" stop-color="#bbb8c4" stop-opacity="1"/></linearGradient><linearGradient id="linearGradient3283"><stop id="stop3285" offset="0" stop-color="#ada6ad" stop-opacity="1"/><stop id="stop3287" offset="1" stop-color="#ded7de" stop-opacity="1"/></linearGradient><linearGradient id="linearGradient3273"><stop id="stop3275" offset="0" stop-color="#ada6ad" stop-opacity="1"/><stop id="stop3277" offset="1" stop-color="#ded7de" stop-opacity="1"/></linearGradient><linearGradient id="linearGradient3267"><stop id="stop3269" offset="0" stop-color="#a5a6ad" stop-opacity="1"/><stop id="stop3271" offset="1" stop-color="#ded7de" stop-opacity="1"/></linearGradient><linearGradient id="linearGradient3261"><stop id="stop3263" offset="0" stop-color="#a5a6ad" stop-opacity="1"/><stop id="stop3265" offset="1" stop-color="#ded7de" stop-opacity="1"/></linearGradient><linearGradient id="linearGradient3249"><stop id="stop3251" offset="0" stop-color="#a5a6ad" stop-opacity="1"/><stop id="stop3253" offset="1" stop-color="#ded7de" stop-opacity="1"/></linearGradient><linearGradient id="linearGradient3225"><stop id="stop3227" offset="0" stop-color="#d6f3f7" stop-opacity="1"/><stop id="stop3229" offset=".435" stop-color="#95d3df" stop-opacity="1"/><stop id="stop3231" offset="1" stop-color="#184d80" stop-opacity="1"/></linearGradient><linearGradient id="linearGradient3219"><stop id="stop3221" offset="0" stop-color="#080008" stop-opacity="1"/><stop id="stop3223" offset="1" stop-color="#221f26" stop-opacity="1"/></linearGradient><linearGradient id="linearGradient3209"><stop id="stop3211" offset="0" stop-color="#000008" stop-opacity="1"/><stop id="stop3213" offset="1" stop-color="#211d21" stop-opacity="1"/></linearGradient><linearGradient id="linearGradient3199"><stop id="stop3201" offset="0" stop-color="#122026" stop-opacity="1"/><stop id="stop3203" offset="1" stop-color="#6b6d73" stop-opacity="1"/></linearGradient><linearGradient id="linearGradient3222"><stop id="stop3224" offset="0" stop-color="#de005a" stop-opacity="1"/><stop id="stop3226" offset="1" stop-color="#a30444" stop-opacity="1"/></linearGradient><linearGradient id="linearGradient3076"><stop id="stop3078" offset="0" stop-color="#ffe7f7" stop-opacity="1"/><stop id="stop3080" offset="1" stop-color="#ffc3ef" stop-opacity="1"/></linearGradient><linearGradient id="linearGradient3048"><stop id="stop3050" offset="0" stop-color="#c16d16" stop-opacity="1"/><stop id="stop3052" offset="1" stop-color="#ff8e31" stop-opacity="1"/></linearGradient><linearGradient id="linearGradient3119"><stop id="stop3121" offset="0" stop-color="#92948f" stop-opacity="0"/><stop id="stop3123" offset=".428" stop-color="#9b9e98" stop-opacity="1"/><stop id="stop3125" offset="1" stop-color="#939690" stop-opacity="0"/></linearGradient><linearGradient id="linearGradient3073"><stop id="stop3075" offset="0" stop-color="#fff" stop-opacity="0"/><stop id="stop3085" offset=".459" stop-color="#fff" stop-opacity="1"/><stop id="stop3083" offset="1" stop-color="#fff" stop-opacity="0"/></linearGradient><linearGradient id="linearGradient3047"><stop id="stop3049" offset="0" stop-color="#000" stop-opacity="1"/><stop id="stop3055" offset=".061" stop-color="#1a1a1a" stop-opacity="1"/><stop id="stop3057" offset=".165" stop-color="#333" stop-opacity="1"/><stop id="stop3059" offset=".554" stop-color="#4d4d4d" stop-opacity="1"/><stop id="stop3051" offset="1" stop-color="#999" stop-opacity="1"/></linearGradient><linearGradient id="linearGradient3041"><stop id="stop3043" offset="0" stop-color="#1a1a1a" stop-opacity="1"/><stop id="stop3045" offset="1" stop-color="gray" stop-opacity="1"/></linearGradient><linearGradient id="linearGradient3029"><stop id="stop3031" offset="0" stop-color="#333" stop-opacity="1"/><stop id="stop3033" offset="1" stop-color="#e0e0dd" stop-opacity="0"/></linearGradient><linearGradient id="linearGradient3035" x1="35.355" x2="35.355" y1="1030.362" y2="975.333" gradientTransform="matrix(1.1638085,0,0,1.1638085,-7.862809,-164.23642)" gradientUnits="userSpaceOnUse" xlink:href="#linearGradient3029"/><linearGradient id="linearGradient3039" x1="35.355" x2="35.355" y1="1030.362" y2="975.333" gradientTransform="matrix(1.1218695,0,0,1.1218695,-5.8497348,-122.18782)" gradientUnits="userSpaceOnUse" xlink:href="#linearGradient3041"/><linearGradient id="linearGradient3053" x1="40" x2="39.286" y1="1043.434" y2="972.333" gradientUnits="userSpaceOnUse" xlink:href="#linearGradient3047"/><linearGradient id="linearGradient3113" x1="14.869" x2="24.527" y1="978.904" y2="969.247" gradientTransform="translate(0,-956.36218)" gradientUnits="userSpaceOnUse" xlink:href="#linearGradient3073"/><linearGradient id="linearGradient3115" x1="15.152" x2="26.264" y1="978.621" y2="967.509" gradientTransform="matrix(-1,0,0,1,96,-956.36218)" gradientUnits="userSpaceOnUse" xlink:href="#linearGradient3073"/><linearGradient id="linearGradient3117" x1="13.132" x2="25.55" y1="980.641" y2="967.866" gradientTransform="translate(0,-956.36218)" gradientUnits="userSpaceOnUse" xlink:href="#linearGradient3119"/><linearGradient id="linearGradient3129" x1="13.132" x2="25.55" y1="980.641" y2="967.866" gradientTransform="matrix(-1,0,0,1,96,0)" gradientUnits="userSpaceOnUse" xlink:href="#linearGradient3119"/><linearGradient id="linearGradient3054" x1="49.268" x2="49.268" y1="996.573" y2="1045.863" gradientUnits="userSpaceOnUse" xlink:href="#linearGradient3048"/><linearGradient id="linearGradient3058" x1="115.803" x2="115.803" y1="985.472" y2="1033.554" gradientUnits="userSpaceOnUse" xlink:href="#linearGradient3048"/><linearGradient id="linearGradient3055" x1="115.803" x2="115.803" y1="985.472" y2="1025.364" gradientTransform="matrix(1.4144782,0,0,1.4144782,-119.78686,-419.05496)" gradientUnits="userSpaceOnUse" xlink:href="#linearGradient3222"/><linearGradient id="linearGradient3086" x1="115.803" x2="115.803" y1="985.472" y2="1025.364" gradientTransform="matrix(1.4144782,0,0,1.4144782,-119.78686,-417.12598)" gradientUnits="userSpaceOnUse" xlink:href="#linearGradient3076"/><linearGradient id="linearGradient3091" x1="115.803" x2="115.803" y1="985.472" y2="1025.364" gradientTransform="matrix(1.4144782,0,0,1.4144782,-119.78686,-418.126)" gradientUnits="userSpaceOnUse" xlink:href="#linearGradient3076"/><linearGradient id="linearGradient3093" x1="115.803" x2="115.803" y1="985.472" y2="1025.364" gradientTransform="matrix(1.4144782,0,0,1.4144782,-119.78686,-1375.4171)" gradientUnits="userSpaceOnUse" xlink:href="#linearGradient3076"/><linearGradient id="linearGradient3052"><stop id="stop3054" offset="0" stop-color="#104d7b" stop-opacity="1"/><stop id="stop3058" offset=".612" stop-color="#5ab2d6" stop-opacity="1"/><stop id="stop3056" offset="1" stop-color="#d6ebf7" stop-opacity="1"/></linearGradient><linearGradient id="linearGradient3152" x1="83.325" x2="55.423" y1="996.961" y2="1043.389" gradientTransform="translate(0,-2.6171874e-6)" gradientUnits="userSpaceOnUse" xlink:href="#linearGradient3052"/><linearGradient id="linearGradient3155" x1="12.851" x2="69.694" y1="1044.125" y2="989.642" gradientUnits="userSpaceOnUse" xlink:href="#linearGradient3225"/><linearGradient id="linearGradient3215" x1="52.891" x2="52.891" y1="995.124" y2="980.244" gradientTransform="matrix(1,0,0,0.9375,0,60.210131)" gradientUnits="userSpaceOnUse" xlink:href="#linearGradient3209"/><linearGradient id="linearGradient3217" x1="49.087" x2="49.087" y1="22.098" y2="7.789" gradientTransform="translate(0,-1)" gradientUnits="userSpaceOnUse" xlink:href="#linearGradient3219"/><linearGradient id="linearGradient3255" x1="64.483" x2="64.483" y1="994.038" y2="980.267" gradientTransform="translate(0,-957.36218)" gradientUnits="userSpaceOnUse" xlink:href="#linearGradient3249"/><linearGradient id="linearGradient3257" x1="64.483" x2="64.483" y1="994.038" y2="980.267" gradientTransform="translate(0,-957.36218)" gradientUnits="userSpaceOnUse" xlink:href="#linearGradient3267"/><linearGradient id="linearGradient3259" x1="64.483" x2="64.483" y1="994.038" y2="980.267" gradientTransform="translate(0,-957.36218)" gradientUnits="userSpaceOnUse" xlink:href="#linearGradient3261"/><linearGradient id="linearGradient3279" x1="40.574" x2="40.574" y1="978.823" y2="962.158" gradientTransform="translate(0,-957.36218)" gradientUnits="userSpaceOnUse" xlink:href="#linearGradient3273"/><linearGradient id="linearGradient3324" x1="40.574" x2="40.574" y1="978.823" y2="962.158" gradientTransform="translate(0,-957.36218)" gradientUnits="userSpaceOnUse" xlink:href="#linearGradient3283"/><linearGradient id="linearGradient3346" x1="58.101" x2="58.101" y1="978.898" y2="962.472" gradientTransform="translate(0,-957.36218)" gradientUnits="userSpaceOnUse" xlink:href="#linearGradient3199"/><linearGradient id="linearGradient3391" x1="14.128" x2="14.128" y1="36.045" y2="11.586" gradientUnits="userSpaceOnUse" xlink:href="#linearGradient3385"/><linearGradient id="linearGradient3393" x1="11.955" x2="11.955" y1="29.718" y2="2.513" gradientUnits="userSpaceOnUse" xlink:href="#linearGradient3352"/><radialGradient id="radialGradient3419" cx="-3.76" cy="21.906" r="3.906" fx="-3.76" fy="21.906" gradientTransform="matrix(0.7213115,-0.68852455,0.69047571,0.72335558,-16.173286,3.4714376)" gradientUnits="userSpaceOnUse" xlink:href="#linearGradient3413"/></defs><metadata id="metadata7"/><g id="layer1" transform="translate(0,-956.36218)"><g id="g3033" transform="translate(0,-1.0000026)"><rect id="rect3826" width="89" height="89" x="3.5" y="961.862" fill="#000" fill-opacity="1" stroke="none" opacity=".05" rx="10.595" ry="10.595"/><rect id="rect3824" width="88" height="88" x="4" y="962.362" fill="#000" fill-opacity="1" stroke="none" opacity=".05" rx="10.476" ry="10.476"/><rect id="rect3822" width="87" height="87" x="4.5" y="962.862" fill="#000" fill-opacity="1" stroke="none" opacity=".05" rx="10.357" ry="10.357"/><rect id="rect3820" width="86" height="86" x="5" y="963.362" fill="#000" fill-opacity="1" stroke="none" opacity=".1" rx="10.238" ry="10.238"/><rect id="rect3818" width="85" height="85" x="5.5" y="963.862" fill="#000" fill-opacity="1" stroke="none" opacity=".1" rx="10.119" ry="10.119"/><rect id="rect3131" width="84" height="84" x="6" y="964.362" fill="#000" fill-opacity="1" stroke="none" opacity=".3" rx="10" ry="10"/></g><rect id="rect3036" width="84" height="84" x="6" y="962.362" fill="url(#linearGradient3155)" fill-opacity="1" stroke="none" rx="10" ry="10"/><rect id="rect3034" width="82" height="82" x="7" y="963.362" fill="url(#linearGradient3152)" fill-opacity="1" stroke="none" rx="9.762" ry="9.762"/><path id="rect3180" fill="url(#linearGradient3346)" fill-opacity="1" stroke="none" d="M 16 6 C 10.46 6 6 10.46 6 16 L 6 22 L 6 37 L 90 37 L 90 22 L 90 16 C 90 10.46 85.54 6 80 6 L 16 6 z" transform="translate(0,956.36218)"/><path id="rect3166" fill="url(#linearGradient3217)" fill-opacity="1" stroke="none" d="M 16.75 7 C 11.341905 7 7 11.341905 7 16.75 L 7 22 L 89 22 L 89 16.75 C 89 11.341905 84.658095 7 79.25 7 L 16.75 7 z" transform="translate(0,956.36218)"/><rect id="rect3205" width="82" height="15" x="7" y="978.362" fill="url(#linearGradient3215)" fill-opacity="1" stroke="none" rx="0" ry="0"/><path id="path3235" fill="url(#linearGradient3324)" fill-opacity="1" stroke="none" d="M 21.34375 6 L 37.3125 22 L 53.09375 22 L 37 6 L 21.34375 6 z" transform="translate(0,956.36218)"/><path id="path3239" fill="url(#linearGradient3279)" fill-opacity="1" stroke="none" d="M 52.0625 6 L 68.0625 22 L 83.84375 22 L 67.71875 6 L 52.0625 6 z" transform="translate(0,956.36218)"/><rect id="rect3395" width="84" height="1" x="6" y="977.362" fill="#000" fill-opacity="1" stroke="none" opacity=".1" rx="0" ry="0"/><path id="path3241" fill="url(#linearGradient3257)" fill-opacity="1" stroke="none" d="M 68.0625 22 L 53.03125 37 L 68.6875 37 L 83.84375 22 L 68.0625 22 z" transform="translate(0,956.36218)"/><path id="path3243" fill="url(#linearGradient3255)" fill-opacity="1" stroke="none" d="M 37.3125 22 L 22.3125 37 L 37.96875 37 L 53.09375 22 L 37.3125 22 z" transform="translate(0,956.36218)"/><rect id="rect3233" width="84" height="1" x="6" y="978.362" fill="#fff" fill-opacity="1" stroke="none" opacity=".1" rx="0" ry="0"/><path id="path3245" fill="url(#linearGradient3259)" fill-opacity="1" stroke="none" d="M 90 31.53125 L 84.53125 37 L 90 37 L 90 31.53125 z" transform="translate(0,956.36218)"/><g id="g3328" transform="translate(0,0.99999738)"><rect id="rect3304" width="84" height="3" x="6" y="992.362" fill="#000" fill-opacity="1" stroke="none" opacity=".1" rx="0" ry="0"/><rect id="rect3306" width="84" height="2" x="6" y="992.362" fill="#000" fill-opacity="1" stroke="none" opacity=".1" rx="0" ry="0"/><rect id="rect3308" width="84" height="1" x="6" y="992.362" fill="#000" fill-opacity="1" stroke="none" opacity=".1" rx="0" ry="0"/></g><path id="path3342" fill="url(#linearGradient3393)" fill-opacity="1" stroke="none" d="M 8.71875 9.1875 C 7.0487294 10.97315 6 13.350907 6 16 L 6 22 L 6 37 L 21.5 37 L 21.5 21.9375 L 8.71875 9.1875 z" transform="translate(0,956.36218)"/><path id="path3364" fill="url(#linearGradient3391)" fill-opacity="1" stroke="none" d="M 9 10.84375 C 7.7462407 12.481939 7 14.515184 7 16.75 L 7 22 L 7 37 L 20.5 37 L 20.5 22.34375 L 9 10.84375 z" transform="translate(0,956.36218)"/><rect id="rect3397" width="84" height="1" x="6" y="992.362" fill="#000" fill-opacity="1" stroke="none" opacity=".1" rx="0" ry="0"/><path id="path3401" fill="#000" fill-opacity="1" stroke="none" d="m 0.25615931,23.442837 c 0,2.157462 -1.74896891,3.906431 -3.90643141,3.906431 -2.1574625,0 -3.9064315,-1.748969 -3.9064315,-3.906431 0,-2.157463 1.748969,-3.906432 3.9064315,-3.906432 2.1574625,0 3.90643141,1.748969 3.90643141,3.906432 z" opacity=".2" transform="translate(17.400272,958.61834)"/><path id="path3403" fill="#000" fill-opacity="1" stroke="none" d="m 0.25615931,23.442837 c 0,2.157462 -1.74896891,3.906431 -3.90643141,3.906431 -2.1574625,0 -3.9064315,-1.748969 -3.9064315,-3.906431 0,-2.157463 1.748969,-3.906432 3.9064315,-3.906432 2.1574625,0 3.90643141,1.748969 3.90643141,3.906432 z" opacity=".2" transform="translate(17.400272,957.61791)"/><path id="path3399" fill="url(#radialGradient3419)" fill-opacity="1" stroke="none" d="m 0.25615931,23.442837 c 0,2.157462 -1.74896891,3.906431 -3.90643141,3.906431 -2.1574625,0 -3.9064315,-1.748969 -3.9064315,-3.906431 0,-2.157463 1.748969,-3.906432 3.9064315,-3.906432 2.1574625,0 3.90643141,1.748969 3.90643141,3.906432 z" transform="translate(17.400272,956.61834)"/></g></svg>