<svg xmlns="http://www.w3.org/2000/svg" xmlns:svg="http://www.w3.org/2000/svg" xmlns:xlink="http://www.w3.org/1999/xlink" id="svg2" width="48" height="48" version="1.1" viewBox="0 0 48 48"><metadata id="metadata24"/><defs id="defs22"><linearGradient id="linearGradient4281"><stop id="stop4283" offset="0" stop-color="#0271f1" stop-opacity=".941"/><stop id="stop4285" offset="1" stop-color="#0a84ff" stop-opacity=".788"/></linearGradient><linearGradient id="linearGradient4273"><stop id="stop4275" offset="0" stop-color="#c4d4e6" stop-opacity="1"/><stop id="stop4277" offset="1" stop-color="#ecf4fa" stop-opacity="1"/></linearGradient><linearGradient id="linearGradient4261"><stop id="stop4263" offset="0" stop-color="#000" stop-opacity="1"/><stop id="stop4265" offset="1" stop-color="#000" stop-opacity="0"/></linearGradient><linearGradient id="linearGradient49897"><stop id="stop49899" offset="0" stop-color="#176875" stop-opacity="1"/><stop id="stop49901" offset="1" stop-color="#186a77" stop-opacity="1"/></linearGradient><linearGradient id="linearGradient4536"><stop id="stop4538" offset="0" stop-color="#b6b6b6" stop-opacity="1"/><stop id="stop4544" offset=".482" stop-color="#fff" stop-opacity="1"/><stop id="stop4540" offset="1" stop-color="#cfcfcf" stop-opacity="1"/></linearGradient><linearGradient id="linearGradient4492"><stop id="stop4494" offset="0" stop-color="#165dc2" stop-opacity="1"/><stop id="stop4496" offset="1" stop-color="#1680c2" stop-opacity="1"/></linearGradient><filter id="filter4672" color-interpolation-filters="sRGB"><feGaussianBlur id="feGaussianBlur4674" stdDeviation="19.54"/></filter><filter id="filter4680" color-interpolation-filters="sRGB"><feDiffuseLighting id="feDiffuseLighting4682"/></filter><linearGradient id="linearGradient4498-3" x1="32.948" x2="41.58" y1="16.16" y2="6.42" gradientTransform="translate(-29.321003,-3.241)" gradientUnits="userSpaceOnUse" xlink:href="#linearGradient4492"/><linearGradient id="linearGradient4542-0" x1="29.321" x2="44.279" y1="10.72" y2="10.72" gradientTransform="translate(-29.321003,-3.241)" gradientUnits="userSpaceOnUse" xlink:href="#linearGradient4536"/><linearGradient id="linearGradient3244"><stop id="stop3246" offset="0" stop-color="#d0611f" stop-opacity="1"/><stop id="stop3248" offset="1" stop-color="#f77a2c" stop-opacity="1"/></linearGradient><linearGradient id="linearGradient3242-3" x1="78.897" x2="78.897" y1="1042.14" y2="982.428" gradientTransform="matrix(0.49438202,0,0,0.49438202,-34.11236,-485.66219)" gradientUnits="userSpaceOnUse" xlink:href="#linearGradient3244"/><symbol id="icon-refresh" viewBox="0 0 24 28"><title id="title9852">refresh</title><path id="path9854" d="M23.609 16.5c0 0.031 0 0.078-0.016 0.109-1.328 5.531-5.891 9.391-11.656 9.391-3.047 0-6-1.203-8.219-3.313l-2.016 2.016c-0.187 0.187-0.438 0.297-0.703 0.297-0.547 0-1-0.453-1-1v-7c0-0.547 0.453-1 1-1h7c0.547 0 1 0.453 1 1 0 0.266-0.109 0.516-0.297 0.703l-2.141 2.141c1.469 1.375 3.422 2.156 5.437 2.156 2.781 0 5.359-1.437 6.813-3.813 0.375-0.609 0.562-1.203 0.828-1.828 0.078-0.219 0.234-0.359 0.469-0.359h3c0.281 0 0.5 0.234 0.5 0.5zM24 4v7c0 0.547-0.453 1-1 1h-7c-0.547 0-1-0.453-1-1 0-0.266 0.109-0.516 0.297-0.703l2.156-2.156c-1.484-1.375-3.437-2.141-5.453-2.141-2.781 0-5.359 1.437-6.813 3.813-0.375 0.609-0.562 1.203-0.828 1.828-0.078 0.219-0.234 0.359-0.469 0.359h-3.109c-0.281 0-0.5-0.234-0.5-0.5v-0.109c1.344-5.547 5.953-9.391 11.719-9.391 3.063 0 6.047 1.219 8.266 3.313l2.031-2.016c0.187-0.187 0.438-0.297 0.703-0.297 0.547 0 1 0.453 1 1z" class="path1"/></symbol><symbol id="symbol5687"><title id="title5689">Replay</title><path id="path5691" stroke="none" d="M24 10V2L14 12l10 10v-8c6.63 0 12 5.37 12 12s-5.37 12-12 12-12-5.37-12-12H8c0 8.84 7.16 16 16 16s16-7.16 16-16-7.16-16-16-16z"/></symbol><symbol id="symbol20353"><title id="title20355">Refresh</title><path id="path20357" stroke="none" d="M35.3 12.7C32.41 9.8 28.42 8 24 8 15.16 8 8.02 15.16 8.02 24S15.16 40 24 40c7.45 0 13.69-5.1 15.46-12H35.3c-1.65 4.66-6.07 8-11.3 8-6.63 0-12-5.37-12-12s5.37-12 12-12c3.31 0 6.28 1.38 8.45 3.55L26 22h14V8l-4.7 4.7z"/></symbol><linearGradient id="linearGradient49903-2" x1="24.334" x2="24.334" y1="44.352" y2="-.6" gradientUnits="userSpaceOnUse" xlink:href="#linearGradient49897"/><linearGradient id="linearGradient50365" x1="24.334" x2="24.334" y1="44.352" y2="-.6" gradientTransform="matrix(1.0514827,0,0,1.0514827,-1.2359443,-1.105721)" gradientUnits="userSpaceOnUse" xlink:href="#linearGradient49897"/><linearGradient id="linearGradient4267" x1="8.02" x2="40" y1="24" y2="24" gradientUnits="userSpaceOnUse" xlink:href="#linearGradient4261"/><linearGradient id="linearGradient4279" x1="14.274" x2="14.274" y1="28.886" y2="8.371" gradientUnits="userSpaceOnUse" xlink:href="#linearGradient4273"/><linearGradient id="linearGradient4287" x1="33.639" x2="33.639" y1="34.952" y2="20.244" gradientUnits="userSpaceOnUse" xlink:href="#linearGradient4281"/><filter id="filter4299" width="1.045" height="1.051" x="-.023" y="-.026" color-interpolation-filters="sRGB"><feGaussianBlur id="feGaussianBlur4301" stdDeviation=".277"/></filter><filter id="filter4325" width="1.045" height="1.051" x="-.023" y="-.026" color-interpolation-filters="sRGB"><feGaussianBlur id="feGaussianBlur4327" stdDeviation=".219"/></filter></defs><g id="layer6" display="none" opacity="1"><rect marker-start="none" style="isolation:auto;mix-blend-mode:normal;solid-color:#000;solid-opacity:1;marker:none" id="rect49905" width="60" height="60" x="-6" y="-6" fill="#fff" fill-opacity="1" fill-rule="nonzero" stroke="none" stroke-dasharray="none" stroke-dashoffset="0" stroke-linecap="butt" stroke-linejoin="miter" stroke-miterlimit="4" stroke-opacity="1" stroke-width=".201" marker-end="none" marker-mid="none" clip-rule="nonzero" color="#000" color-interpolation="sRGB" color-interpolation-filters="linearRGB" color-rendering="auto" display="inline" enable-background="accumulate" image-rendering="auto" opacity="1" overflow="visible" paint-order="normal" rx="0" ry="0" shape-rendering="auto" text-rendering="auto" visibility="visible"/></g><g id="layer7" display="inline"><path id="path4289" fill="#000" fill-opacity=".095" fill-rule="nonzero" stroke="none" stroke-dasharray="none" stroke-dashoffset="0" stroke-linecap="butt" stroke-linejoin="miter" stroke-miterlimit="4" stroke-opacity="1" stroke-width=".5" marker-end="none" marker-mid="none" marker-start="none" d="m 4.6331057,10 25.1519373,0 c 1.07186,0 1.934764,0.862905 1.934764,1.934764 l 0,17.41288 c 0,1.07186 -0.862904,1.934765 -1.934764,1.934765 l -21.0635151,0 -6.5150947,4.650887 0.4919081,-6.585652 0,-17.41288 C 2.6983413,10.862905 3.5612462,10 4.6331057,10 Z" clip-rule="nonzero" color="#000" color-interpolation="sRGB" color-interpolation-filters="linearRGB" color-rendering="auto" display="inline" enable-background="accumulate" filter="url(#filter4299)" image-rendering="auto" opacity="1" overflow="visible" paint-order="normal" shape-rendering="auto" text-rendering="auto" visibility="visible" style="isolation:auto;mix-blend-mode:normal;solid-color:#000;solid-opacity:1;marker:none"/><rect id="rect4356" width="0" height="0" x="0" y="0" fill="red" fill-opacity="1" fill-rule="nonzero" stroke="none" stroke-dasharray="none" stroke-dashoffset="0" stroke-linecap="round" stroke-linejoin="miter" stroke-miterlimit="4" stroke-opacity=".771" stroke-width=".618" marker-end="none" marker-mid="none" marker-start="none" clip-rule="nonzero" color="#000" color-interpolation="sRGB" color-interpolation-filters="linearRGB" color-rendering="auto" display="inline" enable-background="accumulate" image-rendering="auto" opacity="1" overflow="visible" paint-order="normal" shape-rendering="auto" text-rendering="auto" visibility="visible" style="isolation:auto;mix-blend-mode:normal;solid-color:#000;solid-opacity:1;marker:none"/><path id="path4303" fill="#000" fill-opacity=".09" fill-rule="nonzero" stroke="none" stroke-dasharray="none" stroke-dashoffset="0" stroke-linecap="butt" stroke-linejoin="miter" stroke-miterlimit="4" stroke-opacity="1" stroke-width=".5" marker-end="none" marker-mid="none" marker-start="none" d="m 41.698421,20.207654 -19.844476,0 c -0.84568,0 -1.526499,0.680819 -1.526499,1.526498 l 0,13.738484 c 0,0.845679 0.680819,1.526498 1.526499,1.526498 l 16.618776,0 5.140306,3.669476 -0.388108,-5.195974 0,-13.738484 c 0,-0.845679 -0.680819,-1.526498 -1.526498,-1.526498 z" clip-rule="nonzero" color="#000" color-interpolation="sRGB" color-interpolation-filters="linearRGB" color-rendering="auto" display="inline" enable-background="accumulate" filter="url(#filter4325)" image-rendering="auto" opacity="1" overflow="visible" paint-order="normal" shape-rendering="auto" text-rendering="auto" visibility="visible" style="isolation:auto;mix-blend-mode:normal;solid-color:#000;solid-opacity:1;marker:none"/><path id="rect4264" fill="url(#linearGradient4279)" fill-opacity="1" fill-rule="nonzero" stroke="none" stroke-dasharray="none" stroke-dashoffset="0" stroke-linecap="butt" stroke-linejoin="miter" stroke-miterlimit="4" stroke-opacity="1" stroke-width=".5" marker-end="none" marker-mid="none" marker-start="none" d="M 4.6331057,8 29.785043,8 c 1.07186,0 1.934764,0.8629049 1.934764,1.9347644 l 0,17.4128796 c 0,1.07186 -0.862904,1.934765 -1.934764,1.934765 l -21.0635151,0 -6.5150947,4.650887 0.4919081,-6.585652 0,-17.4128796 C 2.6983413,8.8629049 3.5612462,8 4.6331057,8 Z" clip-rule="nonzero" color="#000" color-interpolation="sRGB" color-interpolation-filters="linearRGB" color-rendering="auto" display="inline" enable-background="accumulate" image-rendering="auto" opacity="1" overflow="visible" paint-order="normal" shape-rendering="auto" text-rendering="auto" visibility="visible" style="isolation:auto;mix-blend-mode:normal;solid-color:#000;solid-opacity:1;marker:none"/><path d="m 41.698421,18.433929 -19.844476,0 c -0.84568,0 -1.526499,0.680819 -1.526499,1.526498 l 0,13.738484 c 0,0.845679 0.680819,1.526498 1.526499,1.526498 l 16.618776,0 5.140306,3.669476 -0.388108,-5.195974 0,-13.738484 c 0,-0.845679 -0.680819,-1.526498 -1.526498,-1.526498 z" style="isolation:auto;mix-blend-mode:normal;solid-color:#000;solid-opacity:1;marker:none" id="path4271" fill="url(#linearGradient4287)" fill-opacity="1" fill-rule="nonzero" stroke="none" stroke-dasharray="none" stroke-dashoffset="0" stroke-linecap="butt" stroke-linejoin="miter" stroke-miterlimit="4" stroke-opacity="1" stroke-width=".5" marker-end="none" marker-mid="none" marker-start="none" clip-rule="nonzero" color="#000" color-interpolation="sRGB" color-interpolation-filters="linearRGB" color-rendering="auto" display="inline" enable-background="accumulate" image-rendering="auto" opacity="1" overflow="visible" paint-order="normal" shape-rendering="auto" text-rendering="auto" visibility="visible"/></g><g id="layer1" display="none"><rect id="rect5279-6" width="39.9" height="39.9" x="4.05" y="4.05" fill="none" fill-opacity=".95" stroke="#ff1300" stroke-dasharray=".1 .2" stroke-dashoffset="0" stroke-linecap="square" stroke-linejoin="miter" stroke-miterlimit="4" stroke-opacity="1" stroke-width=".1" display="inline" opacity="1" paint-order="normal" rx="6.65" ry="6.65"/><circle id="path5297-7" cx="24" cy="24" r="15.95" fill="none" fill-opacity=".95" stroke="#ff1300" stroke-dasharray=".1 .199" stroke-dashoffset="0" stroke-linecap="square" stroke-linejoin="miter" stroke-miterlimit="4" stroke-opacity="1" stroke-width=".1" display="inline" opacity="1" paint-order="normal"/><circle id="circle5299-5" cx="24" cy="24" r="3.988" fill="none" fill-opacity=".95" stroke="#ff1300" stroke-dasharray=".025 .05" stroke-dashoffset="0" stroke-linecap="square" stroke-linejoin="miter" stroke-miterlimit="4" stroke-opacity="1" stroke-width=".025" display="inline" opacity="1" paint-order="normal"/><circle id="circle5277" cx="24" cy="24" r="23.925" fill="none" fill-opacity=".95" stroke="#ff00dc" stroke-dasharray=".15 .299" stroke-dashoffset="0" stroke-linecap="square" stroke-linejoin="miter" stroke-miterlimit="4" stroke-opacity="1" stroke-width=".15" display="inline" opacity="1" paint-order="normal"/></g></svg>