<svg xmlns="http://www.w3.org/2000/svg" xmlns:svg="http://www.w3.org/2000/svg" xmlns:xlink="http://www.w3.org/1999/xlink" id="svg2" width="48" height="48" version="1.1" viewBox="0 0 48 48"><metadata id="metadata24"/><defs id="defs22"><linearGradient id="linearGradient4265"><stop id="stop4267" offset="0" stop-color="#ebeeed" stop-opacity="1"/><stop id="stop4269" offset="1" stop-color="#9facaa" stop-opacity="1"/></linearGradient><linearGradient id="linearGradient4402"><stop id="stop4404" offset="0" stop-color="#323a3c" stop-opacity="1"/><stop id="stop4406" offset="1" stop-color="#4b585b" stop-opacity="1"/></linearGradient><linearGradient id="linearGradient4388"><stop id="stop4390" offset="0" stop-color="#343d3f" stop-opacity="1"/><stop id="stop4392" offset="1" stop-color="#566568" stop-opacity="1"/></linearGradient><linearGradient id="linearGradient4359"><stop id="stop4361" offset="0" stop-color="#000" stop-opacity=".157"/><stop id="stop4363" offset="1" stop-color="#000" stop-opacity="0"/></linearGradient><linearGradient id="linearGradient4347"><stop id="stop4349" offset="0" stop-color="#1fa0ec" stop-opacity="1"/><stop id="stop4351" offset="1" stop-color="#34b4bf" stop-opacity="1"/></linearGradient><linearGradient id="linearGradient4337"><stop id="stop4339" offset="0" stop-color="#000" stop-opacity=".298"/><stop id="stop4341" offset="1" stop-color="#000" stop-opacity="0"/></linearGradient><linearGradient id="linearGradient4287"><stop id="stop4289" offset="0" stop-color="#8ba6a6" stop-opacity="1"/><stop id="stop4291" offset="1" stop-color="#ced9d9" stop-opacity="1"/></linearGradient><linearGradient id="linearGradient4277"><stop id="stop4279" offset="0" stop-color="#8ba6a6" stop-opacity="1"/><stop id="stop4281" offset="1" stop-color="#ced9d9" stop-opacity="1"/></linearGradient><linearGradient id="linearGradient4536"><stop id="stop4538" offset="0" stop-color="#b6b6b6" stop-opacity="1"/><stop id="stop4544" offset=".482" stop-color="#fff" stop-opacity="1"/><stop id="stop4540" offset="1" stop-color="#cfcfcf" stop-opacity="1"/></linearGradient><linearGradient id="linearGradient4492"><stop id="stop4494" offset="0" stop-color="#165dc2" stop-opacity="1"/><stop id="stop4496" offset="1" stop-color="#1680c2" stop-opacity="1"/></linearGradient><filter id="filter4672" color-interpolation-filters="sRGB"><feGaussianBlur id="feGaussianBlur4674" stdDeviation="19.54"/></filter><filter id="filter4680" color-interpolation-filters="sRGB"><feDiffuseLighting id="feDiffuseLighting4682"/></filter><linearGradient id="linearGradient4498-3" x1="32.948" x2="41.58" y1="16.16" y2="6.42" gradientTransform="translate(-29.321003,-3.241)" gradientUnits="userSpaceOnUse" xlink:href="#linearGradient4492"/><linearGradient id="linearGradient4542-0" x1="29.321" x2="44.279" y1="10.72" y2="10.72" gradientTransform="translate(-29.321003,-3.241)" gradientUnits="userSpaceOnUse" xlink:href="#linearGradient4536"/><linearGradient id="linearGradient4283" x1="21.996" x2="17.126" y1="13.405" y2="13.405" gradientUnits="userSpaceOnUse" xlink:href="#linearGradient4277"/><linearGradient id="linearGradient4285" x1="25.871" x2="28.284" y1="13.229" y2="13.229" gradientUnits="userSpaceOnUse" xlink:href="#linearGradient4287"/><filter id="filter4297" width="1.037" height="1.033" x="-.019" y="-.016" color-interpolation-filters="sRGB"><feGaussianBlur id="feGaussianBlur4299" stdDeviation=".093"/></filter><filter id="filter4301" width="1.037" height="1.033" x="-.019" y="-.016" color-interpolation-filters="sRGB"><feGaussianBlur id="feGaussianBlur4303" stdDeviation=".093"/></filter><filter id="filter4311" width="1.042" height="1.056" x="-.021" y="-.028" color-interpolation-filters="sRGB"><feGaussianBlur id="feGaussianBlur4313" stdDeviation=".411"/></filter><filter id="filter4319" width="1.034" height="1.019" x="-.017" y="-.009" color-interpolation-filters="sRGB"><feGaussianBlur id="feGaussianBlur4321" stdDeviation=".134"/></filter><filter id="filter4327" width="1.034" height="1.019" x="-.017" y="-.009" color-interpolation-filters="sRGB"><feGaussianBlur id="feGaussianBlur4329" stdDeviation=".135"/></filter><linearGradient id="linearGradient4343" x1="23.834" x2="25.522" y1="20.621" y2="20.621" gradientUnits="userSpaceOnUse" xlink:href="#linearGradient4337"/><linearGradient id="linearGradient4353" x1="23.834" x2="23.834" y1="43.248" y2="10.288" gradientUnits="userSpaceOnUse" xlink:href="#linearGradient4347"/><linearGradient id="linearGradient4357" x1="18.932" x2="20.379" y1="29.068" y2="28.615" gradientUnits="userSpaceOnUse" xlink:href="#linearGradient4359"/><linearGradient id="linearGradient4367" x1="18.932" x2="20.379" y1="29.068" y2="28.615" gradientTransform="matrix(-1,0,0,1,48.533334,0)" gradientUnits="userSpaceOnUse" xlink:href="#linearGradient4359"/><linearGradient id="linearGradient4394" x1="28.533" x2="34.027" y1="17.173" y2="4.693" gradientUnits="userSpaceOnUse" xlink:href="#linearGradient4388"/><linearGradient id="linearGradient4408" x1="19.787" x2="16.107" y1="17.547" y2="7.413" gradientUnits="userSpaceOnUse" xlink:href="#linearGradient4402"/><linearGradient id="linearGradient4271" x1="24.107" x2="24.107" y1="14.347" y2="12.16" gradientUnits="userSpaceOnUse" xlink:href="#linearGradient4265"/></defs><g id="layer6" display="none" opacity=".402"><rect id="rect5279" width="39.9" height="39.9" x="4.05" y="4.05" fill="none" fill-opacity=".95" stroke="#ff1300" stroke-dasharray=".1 .2" stroke-dashoffset="0" stroke-linecap="square" stroke-linejoin="miter" stroke-miterlimit="4" stroke-opacity="1" stroke-width=".1" display="inline" opacity="1" paint-order="normal" rx="6.65" ry="6.65"/><circle id="path5297" cx="24" cy="24" r="15.95" fill="none" fill-opacity=".95" stroke="#ff1300" stroke-dasharray=".1 .199" stroke-dashoffset="0" stroke-linecap="square" stroke-linejoin="miter" stroke-miterlimit="4" stroke-opacity="1" stroke-width=".1" opacity="1" paint-order="normal"/><circle id="circle5299" cx="24" cy="24" r="3.988" fill="none" fill-opacity=".95" stroke="#ff1300" stroke-dasharray=".025 .05" stroke-dashoffset="0" stroke-linecap="square" stroke-linejoin="miter" stroke-miterlimit="4" stroke-opacity="1" stroke-width=".025" opacity="1" paint-order="normal"/></g><g id="layer3" display="inline"><path id="path4305" fill="#000" fill-opacity=".361" fill-rule="evenodd" stroke="none" stroke-linecap="butt" stroke-linejoin="miter" stroke-opacity="1" stroke-width="1" d="m 24,45.105492 23.36,-28.213334 0.106667,-1.92 L 35.84,9.9588223 12.053333,9.745489 0.64,15.078825 0.74666667,17.105492 Z" filter="url(#filter4311)"/><path id="path4248" fill="#b1bbbb" fill-opacity="1" fill-rule="evenodd" stroke="none" stroke-linecap="butt" stroke-linejoin="miter" stroke-opacity="1" stroke-width="1" d="m 24,44.426667 23.36,-28.213334 0.106667,-1.92 L 35.84,9.28 12.053333,9.0666667 0.64,14.4 0.74666667,16.426667 Z"/><path id="path4369" fill="#000" fill-opacity=".157" fill-rule="evenodd" stroke="none" stroke-linecap="butt" stroke-linejoin="miter" stroke-opacity="1" stroke-width="1" d="m 47.36,16.213333 0.106667,-1.92 L 35.84,9.28 34.549099,11.124106 Z"/><path id="path4371" fill="#000" fill-opacity=".157" fill-rule="evenodd" stroke="none" stroke-linecap="butt" stroke-linejoin="miter" stroke-opacity="1" stroke-width="1" d="M 0.74666667,16.426667 0.64,14.4 12.95843,8.6518307 14.462665,10.806786 Z"/></g><g id="layer4" display="inline"><path id="path4315" fill="#000" fill-opacity=".314" fill-rule="evenodd" stroke="none" stroke-linecap="butt" stroke-linejoin="miter" stroke-opacity="1" stroke-width="1" d="M 23.667058,44 12.147058,11.52 12.040392,9.1733334 7.0270592,13.546667 4.7870592,16.96 10.120392,19.093333 7.4003926,20.64 Z" filter="url(#filter4319)"/><path id="path4317" fill="#000" fill-opacity=".314" fill-rule="evenodd" stroke="none" stroke-linecap="butt" stroke-linejoin="miter" stroke-opacity="1" stroke-width="1" d="m 24.675037,44 11.52,-32.48 L 36.301703,9.1733334 41.52837,13.44 43.661704,16.746667 38.221703,19.093333 40.941704,20.64 Z" filter="url(#filter4327)"/><path id="path4251" fill="#e5ebeb" fill-opacity="1" fill-rule="evenodd" stroke="none" stroke-linecap="butt" stroke-linejoin="miter" stroke-opacity="1" stroke-width="1" d="M 23.893333,44 12.373333,11.52 12.266667,9.1733334 7.2533333,13.546667 5.0133333,16.96 10.346667,19.093333 7.6266667,20.64 Z"/><path id="path4253" fill="#e5ebeb" fill-opacity="1" fill-rule="evenodd" stroke="none" stroke-linecap="butt" stroke-linejoin="miter" stroke-opacity="1" stroke-width="1" d="m 24.373337,44 11.52,-32.48 L 36.000003,9.1733334 41.22667,13.44 43.360004,16.746667 37.920003,19.093333 40.640004,20.64 Z"/></g><g id="layer5" display="inline"><path id="path4256" fill="url(#linearGradient4353)" fill-opacity="1" fill-rule="evenodd" stroke="none" stroke-linecap="butt" stroke-linejoin="miter" stroke-opacity="1" stroke-width="1" d="m 24.053333,44 -11.786666,-32.693333 0,-2.0800003 24,0 -0.32,2.4000003 z"/><path id="path4365" fill="url(#linearGradient4367)" fill-opacity="1" fill-rule="evenodd" stroke="none" stroke-linecap="butt" stroke-linejoin="miter" stroke-opacity="1" stroke-width="1" d="m 24.480001,44 11.786666,-32.693333 0,-2.0800003 -24,0 0.32,2.4000003 z"/><path id="path4355" fill="url(#linearGradient4357)" fill-opacity="1" fill-rule="evenodd" stroke="none" stroke-linecap="butt" stroke-linejoin="miter" stroke-opacity="1" stroke-width="1" d="m 24.053333,44 -11.786666,-32.693333 0,-2.0800003 24,0 -0.32,2.4000003 z"/></g><g id="layer8" display="inline"><path id="path4259" fill="#2f3739" fill-opacity="1" fill-rule="evenodd" stroke="none" stroke-linecap="butt" stroke-linejoin="miter" stroke-opacity="1" stroke-width="1" d="M 13.866667,4.5866667 34.4,4.48 l 1.653333,4.7466667 -12,16.2133333 -11.84,-16.4266667 z"/><path id="path4331" fill="url(#linearGradient4343)" fill-opacity="1" fill-rule="evenodd" stroke="none" stroke-linecap="butt" stroke-linejoin="miter" stroke-opacity="1" stroke-width="1" d="m 34.400391,4.4804688 -10.416016,0.052734 0,20.8105472 0.06836,0.0957 12,-16.2128908 -1.652343,-4.7460937 z"/></g><g id="layer9" display="inline"><path id="path4262" fill="#1b1f23" fill-opacity="1" fill-rule="evenodd" stroke="none" stroke-linecap="butt" stroke-linejoin="miter" stroke-opacity="1" stroke-width="1" d="M 13.84,4.56 24,11.733333 34.346667,4.48 Z"/><path id="path4504" fill="#2f353c" fill-opacity="1" fill-rule="evenodd" stroke="none" stroke-linecap="butt" stroke-linejoin="miter" stroke-opacity="1" stroke-width="1" d="M 13.84,4.56 24,11.733333 34.346667,4.48 Z"/><path id="path4263" fill="none" fill-opacity="1" fill-rule="evenodd" stroke="#fff" stroke-dasharray="none" stroke-linecap="butt" stroke-linejoin="miter" stroke-miterlimit="4" stroke-opacity=".372" stroke-width=".307" d="m 14.359212,4.7749682 9.751211,7.0590548 9.773641,-7.1133479 z"/></g><g id="layer10" display="inline"><path id="path4293" fill="#000" fill-opacity=".545" fill-rule="evenodd" stroke="none" stroke-linecap="butt" stroke-linejoin="miter" stroke-opacity="1" stroke-width="1" d="m 13.866667,5.265489 -1.6,4.4266666 7.573333,9.2800024 4.426667,-6.56 z" filter="url(#filter4297)"/><path id="path4295" fill="#000" fill-opacity=".545" fill-rule="evenodd" stroke="none" stroke-linecap="butt" stroke-linejoin="miter" stroke-opacity="1" stroke-width="1" d="m 34.346669,5.265489 1.6,4.4266666 -7.573333,9.2800024 -4.426667,-6.56 z" filter="url(#filter4301)"/><path id="path4265" fill="url(#linearGradient4408)" fill-opacity="1" fill-rule="evenodd" stroke="none" stroke-linecap="butt" stroke-linejoin="miter" stroke-opacity="1" stroke-width="1" d="m 13.866667,4.5866667 -1.6,4.4266666 7.573333,9.2799997 4.426667,-6.56 z"/><path id="path4267" fill="url(#linearGradient4394)" fill-opacity="1" fill-rule="evenodd" stroke="none" stroke-linecap="butt" stroke-linejoin="miter" stroke-opacity="1" stroke-width="1" d="m 34.346669,4.5866667 1.6,4.4266666 -7.573333,9.2799997 -4.426667,-6.56 z"/><path id="path4249" fill="#b5c0c3" fill-opacity=".225" fill-rule="evenodd" stroke="none" stroke-linecap="butt" stroke-linejoin="miter" stroke-opacity="1" stroke-width="1" d="m 35.80107,8.605833 -7.427734,9.101562 -4.15625,-6.160156 -0.269531,0.185547 4.425781,6.560547 7.574219,-9.279297 -0.146485,-0.408203 z"/><path id="path4260" fill="#b5c0c3" fill-opacity=".225" fill-rule="evenodd" stroke="none" stroke-linecap="butt" stroke-linejoin="miter" stroke-opacity="1" stroke-width="1" d="M 12.412266,8.605833 19.84,17.707395 23.99625,11.547239 24.265781,11.732786 19.84,18.293333 12.265781,9.014036 12.412266,8.605833 Z"/></g><g id="layer12" display="inline"><path id="path4273" fill="url(#linearGradient4285)" fill-opacity="1" fill-rule="evenodd" stroke="none" stroke-linecap="butt" stroke-linejoin="miter" stroke-opacity="1" stroke-width="1" d="m 25.013333,12.373333 5.92,-2.186666 0,5.813333 L 24.96,14.026667 Z"/><path id="path4275" fill="url(#linearGradient4283)" fill-opacity="1" fill-rule="evenodd" stroke="none" stroke-linecap="butt" stroke-linejoin="miter" stroke-opacity="1" stroke-width="1" d="M 22.88,12.373333 16.96,10.186667 16.96,16 22.933333,14.026667 Z"/><rect marker-start="none" style="isolation:auto;mix-blend-mode:normal;solid-color:#000;solid-opacity:1;marker:none" id="rect4270" width="3.467" height="2.667" x="22.453" y="11.84" fill="url(#linearGradient4271)" fill-opacity="1" fill-rule="nonzero" stroke="#000" stroke-dasharray="none" stroke-dashoffset="0" stroke-linecap="round" stroke-linejoin="miter" stroke-miterlimit="4" stroke-opacity=".304" stroke-width=".4" marker-end="none" marker-mid="none" clip-rule="nonzero" color="#000" color-interpolation="sRGB" color-interpolation-filters="linearRGB" color-rendering="auto" display="inline" enable-background="accumulate" image-rendering="auto" opacity="1" overflow="visible" paint-order="stroke fill markers" rx="0" ry="0" shape-rendering="auto" text-rendering="auto" visibility="visible"/><path id="rect4410" fill="#293f45" fill-opacity=".393" fill-rule="nonzero" stroke="none" stroke-dasharray="none" stroke-dashoffset="0" stroke-linecap="round" stroke-linejoin="miter" stroke-miterlimit="4" stroke-opacity=".304" stroke-width=".4" marker-end="none" marker-mid="none" marker-start="none" d="m 28.388672,12.150391 -0.970703,0.972656 -1.498047,0 0,0.474609 1.498047,0 0.865234,0.865235 0.21875,-0.220703 -0.794922,-0.794922 0,-0.175782 0.902344,-0.90039 -0.220703,-0.220703 z" clip-rule="nonzero" color="#000" color-interpolation="sRGB" color-interpolation-filters="linearRGB" color-rendering="auto" display="inline" enable-background="accumulate" image-rendering="auto" opacity="1" overflow="visible" paint-order="stroke fill markers" shape-rendering="auto" text-rendering="auto" visibility="visible" style="isolation:auto;mix-blend-mode:normal;solid-color:#000;solid-opacity:1;marker:none"/><path d="m 19.900625,12.150391 0.970703,0.972656 1.498047,0 0,0.474609 -1.498047,0 -0.865234,0.865235 -0.21875,-0.220703 0.794922,-0.794922 0,-0.175782 -0.902344,-0.90039 0.220703,-0.220703 z" style="isolation:auto;mix-blend-mode:normal;solid-color:#000;solid-opacity:1;marker:none" id="path4502" fill="#293f45" fill-opacity=".393" fill-rule="nonzero" stroke="none" stroke-dasharray="none" stroke-dashoffset="0" stroke-linecap="round" stroke-linejoin="miter" stroke-miterlimit="4" stroke-opacity=".304" stroke-width=".4" marker-end="none" marker-mid="none" marker-start="none" clip-rule="nonzero" color="#000" color-interpolation="sRGB" color-interpolation-filters="linearRGB" color-rendering="auto" display="inline" enable-background="accumulate" image-rendering="auto" opacity="1" overflow="visible" paint-order="stroke fill markers" shape-rendering="auto" text-rendering="auto" visibility="visible"/></g><g id="layer7" display="none"><rect id="rect4356" width="0" height="0" x="0" y="0" fill="red" fill-opacity="1" fill-rule="nonzero" stroke="none" stroke-dasharray="none" stroke-dashoffset="0" stroke-linecap="round" stroke-linejoin="miter" stroke-miterlimit="4" stroke-opacity=".771" stroke-width=".618" marker-end="none" marker-mid="none" marker-start="none" clip-rule="nonzero" color="#000" color-interpolation="sRGB" color-interpolation-filters="linearRGB" color-rendering="auto" display="inline" enable-background="accumulate" image-rendering="auto" opacity="1" overflow="visible" paint-order="normal" shape-rendering="auto" text-rendering="auto" visibility="visible" style="isolation:auto;mix-blend-mode:normal;solid-color:#000;solid-opacity:1;marker:none"/><polygon id="polygon7" fill="#d9c9a8" points="2551.472 4938.943 3591.668 4910.496 3707.987 3621.085 2408.44 3747.305" transform="matrix(0.00850948,0,0,0.00850948,-2.0851799,-4.2815966)"/><polygon id="polygon9" fill="#0d0f10" points="3711.296 3553.222 2380.96 3529.515 2429.806 3917.027 3091.407 4760.434 3619.164 4741.005" enable-background="new" opacity=".2" transform="matrix(0.00850948,0,0,0.00850948,-2.0851799,-4.2815966)"/><path id="path11" fill="#d9c9a8" d="m 12.561644,12.499324 2.139579,8.410087 1.234114,5.143073 c 1.003769,1.183933 1.853067,2.157154 2.578127,2.95713 3.289749,3.629695 4.021786,3.693201 5.019641,3.693201 l 0.969197,0 0,-31.86157477 -2.15238,0 c -0.450662,0 -9.788278,0.79815357 -9.788278,11.65808377 z"/><path id="path13" fill="#d9c9a8" d="m 12.360255,13.442705 c -1.159791,0.363618 -1.550146,2.569081 -0.903706,4.630963 0.64644,2.061873 2.084874,3.199371 3.244674,2.835752 1.159791,-0.363627 1.575948,-2.32988 0.929508,-4.391762 -0.64644,-2.061874 -2.110683,-3.438572 -3.270476,-3.074953 z"/><path id="path15" fill="#c7b99d" fill-opacity="1" d="m 25.388386,0.84124023 -2.152389,0 0,31.86156577 0.969197,0 c 1.217783,0 2.023725,-0.09456 7.581847,-6.650322 L 33.035,20.972593 35.363322,12.472657 C 35.363331,1.6127271 25.839057,0.84124023 25.388386,0.84124023 Z"/><path id="path17" fill="#c7b99d" fill-opacity="1" d="m 35.334688,13.493056 c -1.161791,-0.357203 -2.618403,1.02757 -3.253448,3.092984 -0.635038,2.065413 -0.208032,4.029343 0.95376,4.386553 1.161791,0.357212 2.59392,-0.788224 3.228957,-2.853638 0.635046,-2.065421 0.232513,-4.268697 -0.929269,-4.625899 z"/><path id="path19" fill="#393939" fill-opacity="1" d="M 30.335459,2.1257298 C 28.515264,0.84354631 24.502293,0.11076063 24.502293,0.11076063 10.323851,-1.417449 12.532301,13.373574 12.532301,13.373574 l 0.211716,-0.143692 0.947437,4.007218 0.820876,0 c 0.254705,0 0.182265,-5.713445 0.182265,-5.713445 9.593796,2.631924 11.420833,-5.0453413 15.665873,-4.3661229 4.245042,0.6792186 2.963046,3.9457539 2.963046,3.9457539 l -0.05379,6.133814 0.835027,0 0.885377,-3.936452 0.259965,0.05662 C 36.737195,4.8088636 32.155664,3.4079133 30.335459,2.1257298 Z"/><polygon id="polygon25" fill="#e3e4e5" points="3095.798 4560.69 3055.389 4575.757 3021.716 4563.893 2798.909 4993.839 2821.514 5015.74 3287.602 5015.74 3305.086 4998.8" transform="matrix(0.00850948,0,0,0.00850948,-2.0851799,-4.2815966)"/><path id="path27" fill="#37aebc" fill-opacity="1" d="m 43.778104,39.017915 c -1.37155,-1.56645 -3.290362,-1.869499 -3.290362,-1.869499 L 31.22271,33.329674 c 0,0 -6.568336,10.504074 -14.531297,0 l -9.2650239,3.818742 c 0,0 -1.8267309,0.288515 -3.1894821,1.757574 4.7569884,5.525676 11.785295,9.040119 19.635821,9.09401 0.339392,-0.0014 0.681516,-0.0056 1.026362,-0.01267 7.531055,-0.238623 14.258296,-3.662762 18.879014,-8.969413 z"/><path id="path29" fill="#307e8a" fill-opacity="1" d="m 17.680037,32.916556 -2.74419,1.136723 c 8.975718,10.197782 18.230505,0.07751 18.230505,0.07751 L 30.344071,32.97272 c -7.05717,6.767686 -12.664034,-0.05616 -12.664034,-0.05616 z"/><path id="path31" fill="#307e8a" fill-opacity="1" d="m 6.6639053,37.355078 c -1.0204998,0.238946 -1.8185107,0.794249 -2.4420091,1.533485 1.4852964,1.728361 3.1925711,3.260443 5.0776851,4.551901 C 9.1234016,42.692141 8.9216674,41.958555 8.710751,41.254047 7.9388983,38.675945 6.6639053,37.355078 6.6639053,37.355078 Z"/><polygon id="polygon35" fill="#121314" points="2310.532 4377.819 2840.038 5082.683 3060.071 4579.6 2323.588 4373.659" enable-background="new" opacity=".1" transform="matrix(0.00850948,0,0,0.00850948,-2.0851799,-4.2815966)"/><path id="path37" fill="#e3e4e5" d="m 18.782993,30.59887 -1.179874,2.36134 4.386043,5.405692 1.96033,-3.714322 c 0,0 -2.169944,-0.771648 -3.575906,-1.683124 C 20.035998,32.7496 18.852728,31.999591 18.782993,30.59887 Z"/><polygon id="polygon39" fill="#121314" points="3060.313 4579.6 3280.346 5082.683 3809.853 4377.819 3796.796 4373.659" enable-background="new" opacity=".1" transform="matrix(0.00850948,0,0,0.00850948,-2.0851799,-4.2815966)"/><path id="path41" fill="#e3e4e5" d="M 27.537371,32.968456 C 26.1314,33.879932 23.961465,34.65158 23.961465,34.65158 l 1.96033,3.714322 4.386042,-5.405692 -1.179873,-2.36134 c -0.06974,1.400721 -1.253013,2.15073 -1.590593,2.369586 z"/><path id="path33" fill="#307e8a" fill-opacity="1" d="m 43.7767,39.019523 c -0.638467,-0.80446 -1.469222,-1.411578 -2.549135,-1.664429 0,0 -1.274985,1.32086 -2.046829,3.89896 -0.227518,0.759932 -0.444366,1.553671 -0.62994,2.36328 1.940784,-1.295509 3.698392,-2.843835 5.225904,-4.597811 z" enable-background="new" opacity="1"/></g></svg>