<svg xmlns="http://www.w3.org/2000/svg" xmlns:svg="http://www.w3.org/2000/svg" id="svg2" width="48" height="48" enable-background="new" version="1.1" viewBox="0 0 48 48"><title id="title4675">Template icons dark</title><metadata id="metadata24"/><g id="layer1" display="inline"><g id="layer5" display="none"><rect id="frame_16" width="16" height="16" x="-72" y="-72" fill="#000" fill-opacity="1" fill-rule="nonzero" stroke="#ff24f7" stroke-dasharray="none" stroke-dashoffset="0" stroke-linecap="square" stroke-linejoin="miter" stroke-miterlimit="4" stroke-opacity=".995" stroke-width="0" marker-end="none" marker-mid="none" marker-start="none" clip-rule="nonzero" color="#000" color-interpolation="sRGB" color-interpolation-filters="linearRGB" color-rendering="auto" display="block" enable-background="accumulate" image-rendering="auto" opacity="1" overflow="visible" paint-order="normal" shape-rendering="auto" text-rendering="auto" vector-effect="none" visibility="visible" style="isolation:auto;mix-blend-mode:normal;solid-color:#000;solid-opacity:1;marker:none"/><text id="txt_16" x="-69.279" y="-61.088" fill="#fff" fill-opacity="1" stroke="none" stroke-linecap="butt" stroke-linejoin="miter" stroke-opacity="1" stroke-width=".072" display="inline" font-family="sans-serif" font-size="8" letter-spacing="0" opacity="1" word-spacing="0" xml:space="preserve" style="line-height:1000%"><tspan id="tspan4768-6" x="-69.279" y="-61.088" fill="#fff" fill-opacity="1" stroke="none" stroke-width=".072" font-size="8">16</tspan></text></g><g id="layer6" display="inline"><g id="dckndcdsx" transform="translate(-521.0308,-824.03856)"><g id="dsvcsvsfdv-2" transform="translate(449,752)"><rect id="rect4139-7-2-4" width="16" height="16" x="0" y="0" fill="none" fill-opacity="1" stroke="none" stroke-dasharray="none" stroke-dashoffset="0" stroke-linecap="butt" stroke-linejoin="miter" stroke-miterlimit="4" stroke-opacity="1" stroke-width="1" opacity="1"/></g></g><rect id="rect6209-8-2-9-8-4-5" width="14" height="14" x="-71.031" y="-71.039" fill="#fff" fill-opacity=".031" stroke="none" stroke-dasharray="none" stroke-dashoffset="0" stroke-linecap="butt" stroke-linejoin="miter" stroke-miterlimit="4" stroke-opacity=".267" stroke-width=".239" opacity="1" rx="1.32" ry="1.231"/><rect id="rect6209-0-1-0-3-9-5-2" width="15.001" height="14.999" x="-71.535" y="-71.534" fill="none" fill-opacity="1" stroke="#000" stroke-dasharray="none" stroke-dashoffset="0" stroke-linecap="butt" stroke-linejoin="miter" stroke-miterlimit="4" stroke-opacity=".947" stroke-width="1" opacity=".64" rx="2" ry="2"/><path id="rect8297-63-6-72-90-9-5" fill="#000" fill-opacity="1" stroke="none" stroke-dasharray="none" stroke-dashoffset="0" stroke-linecap="butt" stroke-linejoin="miter" stroke-miterlimit="4" stroke-opacity=".784" stroke-width=".183" d="m -70.03125,-70.035156 v 3 h 1 v -3 z m 2,0 v 3 h 1 v -3 z m -2,8.992187 v 3 h 1 v -3 z m 2,0 v 3 h 1 v -3 z" opacity=".64" vector-effect="none"/><path id="path8411-66-6-38-1-6-5" fill="#000" fill-opacity="1" stroke="none" stroke-dasharray="none" stroke-dashoffset="0" stroke-linecap="butt" stroke-linejoin="miter" stroke-miterlimit="4" stroke-opacity=".784" stroke-width=".183" d="m -58.53125,-69.035156 a 0.50000161,0.50000042 0 0 0 -0.5,0.5 0.50000161,0.50000042 0 0 0 0.5,0.5 0.50000161,0.50000042 0 0 0 0.5,-0.5 0.50000161,0.50000042 0 0 0 -0.5,-0.5 z m 0,8.992187 a 0.50000167,0.50000042 0 0 0 -0.5,0.5 0.50000167,0.50000042 0 0 0 0.5,0.5 0.50000167,0.50000042 0 0 0 0.5,-0.5 0.50000167,0.50000042 0 0 0 -0.5,-0.5 z" opacity=".64" vector-effect="none"/><path id="path8411-7-2-11-3-18-0-4" fill="#2bddd7" fill-opacity="1" stroke="none" stroke-dasharray="none" stroke-dashoffset="0" stroke-linecap="butt" stroke-linejoin="miter" stroke-miterlimit="4" stroke-opacity=".784" stroke-width=".183" d="m -60.53125,-69.035156 a 0.49999774,0.49999964 0 0 0 -0.5,0.5 0.49999774,0.49999964 0 0 0 0.5,0.5 0.49999774,0.49999964 0 0 0 0.5,-0.5 0.49999774,0.49999964 0 0 0 -0.5,-0.5 z m 0,8.992187 a 0.49999776,0.49999964 0 0 0 -0.5,0.5 0.49999776,0.49999964 0 0 0 0.5,0.5 0.49999776,0.49999964 0 0 0 0.5,-0.5 0.49999776,0.49999964 0 0 0 -0.5,-0.5 z" opacity="1"/><path id="rect8297-59-1-48-6-8-83-3-9" fill="#000" fill-opacity="1" stroke="none" stroke-dasharray="none" stroke-dashoffset="0" stroke-linecap="butt" stroke-linejoin="miter" stroke-miterlimit="4" stroke-opacity=".784" stroke-width=".183" d="m -66.03125,-69.035156 v 1 h 4 v -1 z m -5,2.996094 v 1 h 14 v -1 z m 0,3 v 1 h 14 v -1 z m 5,2.996093 v 1 h 4 v -1 z" opacity=".64"/></g></g><g id="layer2" display="inline"><g id="layer7" display="none"><rect id="frame_24" width="24" height="24" x="-56" y="-56" fill="#000" fill-opacity=".995" fill-rule="nonzero" stroke="#ff24f7" stroke-dasharray="none" stroke-dashoffset="0" stroke-linecap="square" stroke-linejoin="miter" stroke-miterlimit="4" stroke-opacity=".995" stroke-width="0" marker-end="none" marker-mid="none" marker-start="none" clip-rule="nonzero" color="#000" color-interpolation="sRGB" color-interpolation-filters="linearRGB" color-rendering="auto" display="block" enable-background="accumulate" image-rendering="auto" opacity="1" overflow="visible" paint-order="normal" shape-rendering="auto" text-rendering="auto" vector-effect="none" visibility="visible" style="isolation:auto;mix-blend-mode:normal;solid-color:#000;solid-opacity:1;marker:none"/><text id="txt_24" x="-50.88" y="-40.042" fill="#fff" fill-opacity="1" stroke="none" stroke-linecap="butt" stroke-linejoin="miter" stroke-opacity="1" stroke-width=".112" display="inline" font-family="sans-serif" font-size="10.667" letter-spacing="0" opacity="1" word-spacing="0" xml:space="preserve" style="line-height:1000%"><tspan id="tspan4835-2-5" x="-50.88" y="-40.042" fill="#fff" fill-opacity="1" stroke="none" stroke-width=".112" font-size="10.667">24</tspan></text></g><g id="layer8" display="inline"><rect id="rect4140-3-8-5-2" width="24" height="24" x="-56" y="-56" fill="none" fill-opacity="1" stroke="none" stroke-dasharray="none" stroke-dashoffset="0" stroke-linecap="butt" stroke-linejoin="miter" stroke-miterlimit="4" stroke-opacity="1" stroke-width="1" opacity="1"/><rect id="rect6209-8-2-9-8-4" width="18" height="20" x="-53" y="-54" fill="#636a78" fill-opacity="1" stroke="none" stroke-dasharray="none" stroke-dashoffset="0" stroke-linecap="butt" stroke-linejoin="miter" stroke-miterlimit="4" stroke-opacity=".267" stroke-width="1" opacity="1" rx="1.32" ry="1.231" vector-effect="none"/><rect id="rect6209-0-1-0-3-9-5" width="19.001" height="20.999" x="-53.5" y="-54.5" fill="none" fill-opacity="1" stroke="#272a2f" stroke-dasharray="none" stroke-dashoffset="0" stroke-linecap="butt" stroke-linejoin="miter" stroke-miterlimit="4" stroke-opacity=".784" stroke-width="1" opacity="1" rx="2" ry="2" vector-effect="none"/><path id="rect8193-28-97-2-9-3" fill="#000" fill-opacity=".157" stroke="#484e57" stroke-dasharray="none" stroke-dashoffset="0" stroke-linecap="butt" stroke-linejoin="miter" stroke-miterlimit="4" stroke-opacity="1" stroke-width="1" d="m -50.509766,-51.480469 c -0.554,0 -1,0.446 -1,1 v 3.96875 c 0,0.554 0.446,1 1,1 h 13.019532 c 0.554,0 1,-0.446 1,-1 v -3.96875 c 0,-0.554 -0.446,-1 -1,-1 z m -0.002,8.992188 c -0.554,0 -1,0.446 -1,1 v 3.96875 c 0,0.554 0.446,1 1,1 h 13.021485 c 0.554,0 1,-0.446 1,-1 v -3.96875 c 0,-0.554 -0.446,-1 -1,-1 z" opacity="1" vector-effect="none" style="font-variant-east_asian:normal"/><path id="rect8297-63-6-72-90-9" fill="#000" fill-opacity="1" stroke="none" stroke-dasharray="none" stroke-dashoffset="0" stroke-linecap="butt" stroke-linejoin="miter" stroke-miterlimit="4" stroke-opacity=".784" stroke-width=".183" d="m -50,-49.996094 v 3 h 1 v -3 z m 2,0 v 3 h 1 v -3 z m -2,8.992188 v 3 h 1 v -3 z m 2,0 v 3 h 1 v -3 z" opacity=".64" vector-effect="none"/><path id="path8411-66-6-38-1-6" fill="#000" fill-opacity="1" stroke="none" stroke-dasharray="none" stroke-dashoffset="0" stroke-linecap="butt" stroke-linejoin="miter" stroke-miterlimit="4" stroke-opacity=".784" stroke-width=".183" d="m -38.5,-48.996094 a 0.50000161,0.50000042 0 0 0 -0.5,0.5 0.50000161,0.50000042 0 0 0 0.5,0.5 0.50000161,0.50000042 0 0 0 0.5,-0.5 0.50000161,0.50000042 0 0 0 -0.5,-0.5 z m 0,8.992188 a 0.50000161,0.50000042 0 0 0 -0.5,0.5 0.50000161,0.50000042 0 0 0 0.5,0.5 0.50000161,0.50000042 0 0 0 0.5,-0.5 0.50000161,0.50000042 0 0 0 -0.5,-0.5 z" opacity=".64" vector-effect="none"/><path id="path8411-7-2-11-3-18-0" fill="#2bddd7" fill-opacity="1" stroke="none" stroke-dasharray="none" stroke-dashoffset="0" stroke-linecap="butt" stroke-linejoin="miter" stroke-miterlimit="4" stroke-opacity=".784" stroke-width=".183" d="m -40.5,-48.996094 a 0.49999774,0.49999964 0 0 0 -0.5,0.5 0.49999774,0.49999964 0 0 0 0.5,0.5 0.49999774,0.49999964 0 0 0 0.5,-0.5 0.49999774,0.49999964 0 0 0 -0.5,-0.5 z m 0,8.992188 a 0.49999774,0.49999964 0 0 0 -0.5,0.5 0.49999774,0.49999964 0 0 0 0.5,0.5 0.49999774,0.49999964 0 0 0 0.5,-0.5 0.49999774,0.49999964 0 0 0 -0.5,-0.5 z" opacity="1" vector-effect="none"/><path id="rect8297-59-1-48-6-8-83-3" fill="#000" fill-opacity="1" stroke="none" stroke-dasharray="none" stroke-dashoffset="0" stroke-linecap="butt" stroke-linejoin="miter" stroke-miterlimit="4" stroke-opacity=".784" stroke-width=".183" d="m -46,-48.996094 v 1 h 4 v -1 z m 0,8.992188 v 1 h 4 v -1 z" opacity=".64" vector-effect="none"/></g></g><g id="g7816" display="inline"><g id="g7802" display="none"><rect id="rect7792" width="32" height="32" x="-32" y="-32" fill="#000" fill-opacity="1" fill-rule="nonzero" stroke="#ff24f7" stroke-dasharray="none" stroke-dashoffset="0" stroke-linecap="square" stroke-linejoin="miter" stroke-miterlimit="4" stroke-opacity=".995" stroke-width="0" marker-end="none" marker-mid="none" marker-start="none" clip-rule="nonzero" color="#000" color-interpolation="sRGB" color-interpolation-filters="linearRGB" color-rendering="auto" display="block" enable-background="accumulate" image-rendering="auto" opacity="1" overflow="visible" paint-order="normal" shape-rendering="auto" text-rendering="auto" vector-effect="none" visibility="visible" style="isolation:auto;mix-blend-mode:normal;solid-color:#000;solid-opacity:1;marker:none"/><text id="text7796" x="-23.799" y="-11.47" fill="#fff" fill-opacity="1" stroke="none" stroke-linecap="butt" stroke-linejoin="miter" stroke-opacity="1" stroke-width=".074" display="inline" font-family="sans-serif" font-size="12.444" letter-spacing="0" opacity="1" word-spacing="0" xml:space="preserve" style="line-height:1000%"><tspan id="tspan7794" x="-23.799" y="-11.47" fill="#fff" fill-opacity="1" stroke="none" stroke-width=".074" font-size="12.444">32</tspan></text></g><g id="g7814" display="inline"><rect id="rect6209-8-2-9-8" width="24" height="27" x="-28" y="-29" fill="#636a78" fill-opacity="1" stroke="none" stroke-dasharray="none" stroke-dashoffset="0" stroke-linecap="butt" stroke-linejoin="miter" stroke-miterlimit="4" stroke-opacity=".267" stroke-width="1" display="inline" opacity="1" rx="1.32" ry="1.231"/><rect id="rect6209-0-1-0-3-9" width="25" height="28" x="-28.5" y="-29.5" fill="none" fill-opacity="1" stroke="#272a2f" stroke-dasharray="none" stroke-dashoffset="0" stroke-linecap="butt" stroke-linejoin="miter" stroke-miterlimit="4" stroke-opacity=".784" stroke-width="1" display="inline" opacity="1" rx="2" ry="2"/><path id="rect8193-28-97-2-9" fill="#000" fill-opacity=".157" stroke="#484e57" stroke-dasharray="none" stroke-dashoffset="0" stroke-linecap="butt" stroke-linejoin="miter" stroke-miterlimit="4" stroke-opacity="1" stroke-width="1" d="m -25.509766,-27.484375 c -0.554,0 -1,0.446 -1,1 v 3.970703 c 0,0.554 0.446,1 1,1 h 19.0214848 c 0.5539999,0 1,-0.446 1,-1 v -3.970703 c -10e-8,-0.554 -0.4460001,-1 -1,-1 z m -0.002,8.996094 c -0.554,0 -1,0.446 -1,1 v 3.970703 c 0,0.554 0.446,1 1,1 h 19.0214846 c 0.554,0 1,-0.446 1,-1 v -3.970703 c 0,-0.554 -0.446,-1 -1,-1 z m 0,8.9999998 c -0.554,0 -1,0.4459999 -1,1 v 3.9707031 c 0,0.554 0.446,1 1,1 h 19.0214846 c 0.554,0 1,-0.446 1,-1 v -3.9707031 c 0,-0.5540001 -0.446,-1 -1,-1 z" opacity="1"/><path id="rect8297-63-6-72-90" fill="#000" fill-opacity=".292" stroke="none" stroke-dasharray="none" stroke-dashoffset="0" stroke-linecap="butt" stroke-linejoin="miter" stroke-miterlimit="4" stroke-opacity=".784" stroke-width="1" d="m -25,-26 v 3 h 1 v -3 z m 2,0 v 3 h 1 v -3 z m 2,0 v 3 h 1 v -3 z m -4,8.994141 v 3 h 1 v -3 z m 2,0 v 3 h 1 v -3 z m 2,0 v 3 h 1 v -3 z m -4,8.9999996 v 3 h 1 v -3 z m 2,0 v 3 h 1 v -3 z m 2,0 v 3 h 1 v -3 z" opacity="1"/><path id="path8411-66-6-38-1" fill="#000" fill-opacity=".296" stroke="none" stroke-dasharray="none" stroke-dashoffset="0" stroke-linecap="butt" stroke-linejoin="miter" stroke-miterlimit="4" stroke-opacity=".784" stroke-width="1" d="m -7.5,-25 a 0.50000256,0.50000298 0 0 0 -0.5,0.5 0.50000256,0.50000298 0 0 0 0.5,0.5 0.50000256,0.50000298 0 0 0 0.5,-0.5 0.50000256,0.50000298 0 0 0 -0.5,-0.5 z m 0,8.994141 a 0.50000256,0.50000298 0 0 0 -0.5,0.5 0.50000256,0.50000298 0 0 0 0.5,0.5 0.50000256,0.50000298 0 0 0 0.5,-0.5 0.50000256,0.50000298 0 0 0 -0.5,-0.5 z m 0,8.9999996 a 0.50000256,0.50000298 0 0 0 -0.5,0.5 0.50000256,0.50000298 0 0 0 0.5,0.5 0.50000256,0.50000298 0 0 0 0.5,-0.5 0.50000256,0.50000298 0 0 0 -0.5,-0.5 z" opacity="1"/><path id="path8411-7-2-11-3-18" fill="#6be3e7" fill-opacity="1" stroke="none" stroke-dasharray="none" stroke-dashoffset="0" stroke-linecap="butt" stroke-linejoin="miter" stroke-miterlimit="4" stroke-opacity=".784" stroke-width="1" d="m -11.5,-25 a 0.4999972,0.50000131 0 0 0 -0.5,0.5 0.4999972,0.50000131 0 0 0 0.5,0.5 0.4999972,0.50000131 0 0 0 0.5,-0.5 0.4999972,0.50000131 0 0 0 -0.5,-0.5 z m 2,0 a 0.4999972,0.50000131 0 0 0 -0.5,0.5 0.4999972,0.50000131 0 0 0 0.5,0.5 0.4999972,0.50000131 0 0 0 0.5,-0.5 0.4999972,0.50000131 0 0 0 -0.5,-0.5 z m -2,8.994141 a 0.4999972,0.50000131 0 0 0 -0.5,0.5 0.4999972,0.50000131 0 0 0 0.5,0.5 0.4999972,0.50000131 0 0 0 0.5,-0.5 0.4999972,0.50000131 0 0 0 -0.5,-0.5 z m 2,0 a 0.4999972,0.50000131 0 0 0 -0.5,0.5 0.4999972,0.50000131 0 0 0 0.5,0.5 0.4999972,0.50000131 0 0 0 0.5,-0.5 0.4999972,0.50000131 0 0 0 -0.5,-0.5 z m -2,8.9999996 a 0.4999972,0.50000131 0 0 0 -0.5,0.5 0.4999972,0.50000131 0 0 0 0.5,0.5 0.4999972,0.50000131 0 0 0 0.5,-0.5 0.4999972,0.50000131 0 0 0 -0.5,-0.5 z m 2,0 a 0.4999972,0.50000131 0 0 0 -0.5,0.5 0.4999972,0.50000131 0 0 0 0.5,0.5 0.4999972,0.50000131 0 0 0 0.5,-0.5 0.4999972,0.50000131 0 0 0 -0.5,-0.5 z" opacity="1"/><path id="rect8297-59-1-48-6-8-83" fill="#000" fill-opacity=".176" stroke="none" stroke-dasharray="none" stroke-dashoffset="0" stroke-linecap="butt" stroke-linejoin="miter" stroke-miterlimit="4" stroke-opacity=".784" stroke-width="1" d="m -19,-25 v 1 h 6 v -1 z m 0,8.994141 v 1 h 6 v -1 z m 0,8.9999996 v 1 h 6 v -1 z" opacity="1"/><path id="rect7811" fill="#fff" fill-opacity=".115" stroke="none" stroke-dasharray="none" stroke-dashoffset="0" stroke-linecap="butt" stroke-linejoin="miter" stroke-miterlimit="4" stroke-opacity=".784" stroke-width="1" d="m -19,-24 v 1 h 6 v -1 z m 0,8.994141 v 1 h 6 v -1 z m 0,8.9999996 v 1 h 6 v -1 z" opacity="1"/></g></g><g id="layer3" display="inline"><g id="layer9" display="none"><rect id="frame_48" width="48" height="48" x="0" y="0" fill="#000" fill-opacity="1" fill-rule="nonzero" stroke="#ff24f7" stroke-dasharray="none" stroke-dashoffset="0" stroke-linecap="square" stroke-linejoin="miter" stroke-miterlimit="4" stroke-opacity=".995" stroke-width="0" marker-end="none" marker-mid="none" marker-start="none" clip-rule="nonzero" color="#000" color-interpolation="sRGB" color-interpolation-filters="linearRGB" color-rendering="auto" display="block" enable-background="accumulate" image-rendering="auto" opacity="1" overflow="visible" paint-order="normal" shape-rendering="auto" text-rendering="auto" vector-effect="none" visibility="visible" style="isolation:auto;mix-blend-mode:normal;solid-color:#000;solid-opacity:1;marker:none"/><text id="txt_48" x="12.301" y="30.795" fill="#fff" fill-opacity="1" stroke="none" stroke-linecap="butt" stroke-linejoin="miter" stroke-opacity="1" stroke-width=".112" display="inline" font-family="sans-serif" font-size="18.667" letter-spacing="0" opacity="1" word-spacing="0" xml:space="preserve" style="line-height:1000%"><tspan id="tspan5049-1" x="12.301" y="30.795" fill="#fff" fill-opacity="1" stroke="none" stroke-width=".112" font-size="18.667">48</tspan></text><text id="txt_scalable_32-64" x="25.824" y="45.962" fill="#fff" fill-opacity=".448" stroke="none" stroke-linecap="butt" stroke-linejoin="miter" stroke-opacity="1" stroke-width=".059" display="inline" font-family="sans-serif" font-size="2.667" letter-spacing="0" opacity="1" word-spacing="0" xml:space="preserve" style="line-height:1000%"><tspan id="tspan5049-1-6" x="25.824" y="45.962" fill="#fff" fill-opacity=".448" stroke="none" stroke-width=".059" font-size="2.667">Scalable:32-64</tspan></text></g><g id="layer10" display="inline"><rect id="rect4140-7-5-7-6-0-5" width="48" height="48" x="0" y="0" fill="none" fill-opacity="1" stroke="none" stroke-dasharray="none" stroke-dashoffset="0" stroke-linecap="butt" stroke-linejoin="miter" stroke-miterlimit="4" stroke-opacity="1" stroke-width=".375" opacity="1"/><rect id="rect6209-8-2-9" width="36" height="41" x="6" y="4" fill="#636a78" fill-opacity="1" stroke="none" stroke-dasharray="none" stroke-dashoffset="0" stroke-linecap="butt" stroke-linejoin="miter" stroke-miterlimit="4" stroke-opacity=".267" stroke-width=".478" opacity="1" rx="1.32" ry="1.231"/><rect id="rect6209-0-1-0-3" width="37" height="42" x="5.5" y="3.5" fill="none" fill-opacity="1" stroke="#272a2f" stroke-dasharray="none" stroke-dashoffset="0" stroke-linecap="butt" stroke-linejoin="miter" stroke-miterlimit="4" stroke-opacity=".784" stroke-width="1" opacity="1" rx="2" ry="2"/><path id="rect8193-28-97-2" fill="#000" fill-opacity=".157" stroke="#484e57" stroke-dasharray="none" stroke-dashoffset="0" stroke-linecap="butt" stroke-linejoin="miter" stroke-miterlimit="4" stroke-opacity="1" stroke-width="1" d="m 8.4941406,5.5058594 c -0.5539999,0 -1,0.446 -1,1 v 3.9999996 c 0,0.554 0.4460001,1 1,1 H 39.505859 c 0.554,0 1,-0.446 1,-1 V 6.5058594 c 0,-0.554 -0.446,-1 -1,-1 z m 0,8.0058596 c -0.5539999,0 -1,0.446 -1,1 v 4 c 0,0.554 0.4460001,1 1,1 H 39.505859 c 0.554,0 1,-0.446 1,-1 v -4 c 0,-0.554 -0.446,-1 -1,-1 z m 0,8 c -0.5539999,0 -1,0.446 -1,1 v 4 c 0,0.554 0.4460001,1 1,1 H 39.505859 c 0.554,0 1,-0.446 1,-1 v -4 c 0,-0.554 -0.446,-1 -1,-1 z m -0.00586,8 c -0.5539999,0 -1,0.446 -1,1 v 4 c 10e-8,0.554 0.4460001,1 1,1 H 39.5 c 0.554,0 1,-0.446 1,-1 v -4 c 0,-0.554 -0.446,-1 -1,-1 z m 0.00586,8 c -0.5539999,0 -1,0.446 -1,1 v 4 c 0,0.554 0.4460001,1 1,1 H 39.505859 c 0.554,0 1,-0.446 1,-1 v -4 c 0,-0.554 -0.446,-1 -1,-1 z" opacity="1"/><path id="rect8297-63-6-72" fill="#000" fill-opacity=".296" stroke="none" stroke-dasharray="none" stroke-dashoffset="0" stroke-linecap="butt" stroke-linejoin="miter" stroke-miterlimit="4" stroke-opacity=".784" stroke-width=".367" d="m 9,7 v 3 h 1 V 7 Z m 2,0 v 3 h 1 V 7 Z m 2,0 v 3 h 1 V 7 Z m 2,0 v 3 h 1 V 7 Z m -6,8.005859 v 3 h 1 v -3 z m 2,0 v 3 h 1 v -3 z m 2,0 v 3 h 1 v -3 z m 2,0 v 3 h 1 v -3 z m -6,8 v 3 h 1 v -3 z m 2,0 v 3 h 1 v -3 z m 2,0 v 3 h 1 v -3 z m 2,0 v 3 h 1 v -3 z m -6.0058594,8 v 3 h 1 v -3 z m 2.0000004,0 v 3 h 1 v -3 z m 2,0 v 3 h 1 v -3 z m 2,0 v 3 h 1 v -3 z m -5.994141,8 v 3 h 1 v -3 z m 2,0 v 3 h 1 v -3 z m 2,0 v 3 h 1 v -3 z m 2,0 v 3 h 1 v -3 z" opacity="1"/><path id="path8411-66-6-38" fill="#000" fill-opacity=".296" stroke="none" stroke-dasharray="none" stroke-dashoffset="0" stroke-linecap="butt" stroke-linejoin="miter" stroke-miterlimit="4" stroke-opacity=".784" stroke-width=".367" d="M 37.464844,8 A 0.49999464,0.50000077 0 0 0 37,8.5 0.49999464,0.50000077 0 0 0 37.5,9 0.49999464,0.50000077 0 0 0 38,8.5 0.49999464,0.50000077 0 0 0 37.5,8 0.49999464,0.50000077 0 0 0 37.464844,8 Z m 0,8.005859 a 0.49999464,0.50000077 0 0 0 -0.464844,0.5 0.49999464,0.50000077 0 0 0 0.5,0.5 0.49999464,0.50000077 0 0 0 0.5,-0.5 0.49999464,0.50000077 0 0 0 -0.5,-0.5 0.49999464,0.50000077 0 0 0 -0.03516,0 z m 0,8 a 0.49999464,0.50000077 0 0 0 -0.464844,0.5 0.49999464,0.50000077 0 0 0 0.5,0.5 0.49999464,0.50000077 0 0 0 0.5,-0.5 0.49999464,0.50000077 0 0 0 -0.5,-0.5 0.49999464,0.50000077 0 0 0 -0.03516,0 z m -0.0059,8 a 0.49999464,0.50000077 0 0 0 -0.464843,0.5 0.49999464,0.50000077 0 0 0 0.5,0.5 0.49999464,0.50000077 0 0 0 0.5,-0.5 0.49999464,0.50000077 0 0 0 -0.5,-0.5 0.49999464,0.50000077 0 0 0 -0.03516,0 z m 0.0059,8 a 0.49999464,0.50000077 0 0 0 -0.464844,0.5 0.49999464,0.50000077 0 0 0 0.5,0.5 0.49999464,0.50000077 0 0 0 0.5,-0.5 0.49999464,0.50000077 0 0 0 -0.5,-0.5 0.49999464,0.50000077 0 0 0 -0.03516,0 z" opacity="1"/><path id="path8411-7-2-11-3" fill="#6be3e7" fill-opacity="1" stroke="none" stroke-dasharray="none" stroke-dashoffset="0" stroke-linecap="butt" stroke-linejoin="miter" stroke-miterlimit="4" stroke-opacity=".784" stroke-width=".367" d="M 31.464844,8 A 0.50000417,0.49999577 0 0 0 31,8.5 0.50000417,0.49999577 0 0 0 31.5,9 0.50000417,0.49999577 0 0 0 32,8.5 0.50000417,0.49999577 0 0 0 31.5,8 0.50000417,0.49999577 0 0 0 31.464844,8 Z m 2,0 A 0.50000417,0.49999577 0 0 0 33,8.5 0.50000417,0.49999577 0 0 0 33.5,9 0.50000417,0.49999577 0 0 0 34,8.5 0.50000417,0.49999577 0 0 0 33.5,8 0.50000417,0.49999577 0 0 0 33.464844,8 Z m 2,0 A 0.50000417,0.49999577 0 0 0 35,8.5 0.50000417,0.49999577 0 0 0 35.5,9 0.50000417,0.49999577 0 0 0 36,8.5 0.50000417,0.49999577 0 0 0 35.5,8 0.50000417,0.49999577 0 0 0 35.464844,8 Z m -4,8.005859 a 0.50000417,0.49999577 0 0 0 -0.464844,0.5 0.50000417,0.49999577 0 0 0 0.5,0.5 0.50000417,0.49999577 0 0 0 0.5,-0.5 0.50000417,0.49999577 0 0 0 -0.5,-0.5 0.50000417,0.49999577 0 0 0 -0.03516,0 z m 2,0 a 0.50000417,0.49999577 0 0 0 -0.464844,0.5 0.50000417,0.49999577 0 0 0 0.5,0.5 0.50000417,0.49999577 0 0 0 0.5,-0.5 0.50000417,0.49999577 0 0 0 -0.5,-0.5 0.50000417,0.49999577 0 0 0 -0.03516,0 z m 2,0 a 0.50000417,0.49999577 0 0 0 -0.464844,0.5 0.50000417,0.49999577 0 0 0 0.5,0.5 0.50000417,0.49999577 0 0 0 0.5,-0.5 0.50000417,0.49999577 0 0 0 -0.5,-0.5 0.50000417,0.49999577 0 0 0 -0.03516,0 z m -4,8 a 0.50000417,0.49999577 0 0 0 -0.464844,0.5 0.50000417,0.49999577 0 0 0 0.5,0.5 0.50000417,0.49999577 0 0 0 0.5,-0.5 0.50000417,0.49999577 0 0 0 -0.5,-0.5 0.50000417,0.49999577 0 0 0 -0.03516,0 z m 2,0 a 0.50000417,0.49999577 0 0 0 -0.464844,0.5 0.50000417,0.49999577 0 0 0 0.5,0.5 0.50000417,0.49999577 0 0 0 0.5,-0.5 0.50000417,0.49999577 0 0 0 -0.5,-0.5 0.50000417,0.49999577 0 0 0 -0.03516,0 z m 2,0 a 0.50000417,0.49999577 0 0 0 -0.464844,0.5 0.50000417,0.49999577 0 0 0 0.5,0.5 0.50000417,0.49999577 0 0 0 0.5,-0.5 0.50000417,0.49999577 0 0 0 -0.5,-0.5 0.50000417,0.49999577 0 0 0 -0.03516,0 z m -4.00586,8 a 0.50000417,0.49999577 0 0 0 -0.464843,0.5 0.50000417,0.49999577 0 0 0 0.5,0.5 0.50000417,0.49999577 0 0 0 0.5,-0.5 0.50000417,0.49999577 0 0 0 -0.5,-0.5 0.50000417,0.49999577 0 0 0 -0.03516,0 z m 2,0 a 0.50000417,0.49999577 0 0 0 -0.464843,0.5 0.50000417,0.49999577 0 0 0 0.5,0.5 0.50000417,0.49999577 0 0 0 0.5,-0.5 0.50000417,0.49999577 0 0 0 -0.5,-0.5 0.50000417,0.49999577 0 0 0 -0.03516,0 z m 2,0 a 0.50000417,0.49999577 0 0 0 -0.464843,0.5 0.50000417,0.49999577 0 0 0 0.5,0.5 0.50000417,0.49999577 0 0 0 0.5,-0.5 0.50000417,0.49999577 0 0 0 -0.5,-0.5 0.50000417,0.49999577 0 0 0 -0.03516,0 z m -3.99414,8 a 0.50000417,0.49999577 0 0 0 -0.464844,0.5 0.50000417,0.49999577 0 0 0 0.5,0.5 0.50000417,0.49999577 0 0 0 0.5,-0.5 0.50000417,0.49999577 0 0 0 -0.5,-0.5 0.50000417,0.49999577 0 0 0 -0.03516,0 z m 2,0 a 0.50000417,0.49999577 0 0 0 -0.464844,0.5 0.50000417,0.49999577 0 0 0 0.5,0.5 0.50000417,0.49999577 0 0 0 0.5,-0.5 0.50000417,0.49999577 0 0 0 -0.5,-0.5 0.50000417,0.49999577 0 0 0 -0.03516,0 z m 2,0 a 0.50000417,0.49999577 0 0 0 -0.464844,0.5 0.50000417,0.49999577 0 0 0 0.5,0.5 0.50000417,0.49999577 0 0 0 0.5,-0.5 0.50000417,0.49999577 0 0 0 -0.5,-0.5 0.50000417,0.49999577 0 0 0 -0.03516,0 z" opacity="1"/><path id="rect8297-59-1-48-6-8" fill="#000" fill-opacity=".176" stroke="none" stroke-dasharray="none" stroke-dashoffset="0" stroke-linecap="butt" stroke-linejoin="miter" stroke-miterlimit="4" stroke-opacity=".784" stroke-width=".367" d="m 18,7 v 3 H 30 V 7 Z m 0,8.005859 v 3 h 12 v -3 z m 0,8 v 3 h 12 v -3 z m -0.0059,8 v 3 h 12 v -3 z m 0.0059,8 v 3 h 12 v -3 z" opacity="1"/></g></g><g id="g7907" display="inline"><g id="g7843" display="none"><rect id="rect7837" width="64" height="64" x="48" y="48" fill="#000" fill-opacity="1" fill-rule="nonzero" stroke="#ff24f7" stroke-dasharray="none" stroke-dashoffset="0" stroke-linecap="square" stroke-linejoin="miter" stroke-miterlimit="4" stroke-opacity=".995" stroke-width="0" marker-end="none" marker-mid="none" marker-start="none" clip-rule="nonzero" color="#000" color-interpolation="sRGB" color-interpolation-filters="linearRGB" color-rendering="auto" display="inline" enable-background="accumulate" image-rendering="auto" opacity="1" overflow="visible" paint-order="normal" shape-rendering="auto" text-rendering="auto" vector-effect="none" visibility="visible" style="isolation:auto;mix-blend-mode:normal;solid-color:#000;solid-opacity:1;marker:none"/><text id="text7841" x="69.816" y="85.824" fill="#fff" fill-opacity="1" stroke="none" stroke-linecap="butt" stroke-linejoin="miter" stroke-opacity="1" stroke-width=".033" display="inline" font-family="sans-serif" font-size="16" letter-spacing="0" opacity="1" word-spacing="0" xml:space="preserve" style="line-height:0%"><tspan id="tspan7839" x="69.816" y="85.824" fill="#fff" fill-opacity="1" stroke="none" stroke-width=".033" font-size="16" style="line-height:0%">64</tspan></text></g><g id="g7905" display="inline"><rect id="rect4140-7-5-7-6-0" width="64" height="64" x="48" y="48" fill="none" fill-opacity="1" stroke="none" stroke-dasharray="none" stroke-dashoffset="0" stroke-linecap="butt" stroke-linejoin="miter" stroke-miterlimit="4" stroke-opacity="1" stroke-width=".5" opacity="1"/><rect id="rect6209-8-2" width="50" height="53" x="55" y="54" fill="#636a78" fill-opacity="1" stroke="none" stroke-dasharray="none" stroke-dashoffset="0" stroke-linecap="butt" stroke-linejoin="miter" stroke-miterlimit="4" stroke-opacity=".267" stroke-width=".637" opacity="1" rx="1.32" ry="1.231"/><rect id="rect6209-0-1-0" width="51" height="54" x="54.5" y="53.5" fill="none" fill-opacity="1" stroke="#272a2f" stroke-dasharray="none" stroke-dashoffset="0" stroke-linecap="butt" stroke-linejoin="miter" stroke-miterlimit="4" stroke-opacity=".784" stroke-width="1" opacity="1" rx="2" ry="2"/><path id="rect8193-28-97" fill="#000" fill-opacity=".157" stroke="#484e57" stroke-dasharray="none" stroke-dashoffset="0" stroke-linecap="butt" stroke-linejoin="miter" stroke-miterlimit="4" stroke-opacity="1" stroke-width="1" d="m 58.494141,56.494141 c -0.554,0 -1,0.446 -1,1 v 6 c 0,0.554 0.446,1 1,1 h 42.999999 c 0.554,0 1,-0.446 1,-1 v -6 c 0,-0.554 -0.446,-1 -1,-1 z m 0,10 c -0.554,0 -1,0.446 -1,1 v 6 c 0,0.554 0.446,1 1,1 h 43.011719 c 0.554,0 1,-0.446 1,-1 v -6 c 0,-0.554 -0.446,-1 -1,-1 z m 0,10.011718 c -0.554,0 -1,0.446 -1,1 v 5.988282 c 0,0.554 0.446,1 1,1 h 43.011719 c 0.554,0 1,-0.446 1,-1 v -5.988282 c 0,-0.554 -0.446,-1 -1,-1 z m 0,10 c -0.554,0 -1,0.446 -1,1 v 5.988282 c 0,0.554 0.446,1 1,1 h 43.011719 c 0.554,0 1,-0.446 1,-1 v -5.988282 c 0,-0.554 -0.446,-1 -1,-1 z m 0,10 c -0.554,0 -1,0.446 -1,1 v 5.988281 c 0,0.554 0.446,1 1,1 h 43.011719 c 0.554,0 1,-0.446 1,-1 v -5.988281 c 0,-0.554 -0.446,-1 -1,-1 z" opacity="1"/><path id="rect8297-63-6" fill="#000" fill-opacity=".296" stroke="none" stroke-dasharray="none" stroke-dashoffset="0" stroke-linecap="butt" stroke-linejoin="miter" stroke-miterlimit="4" stroke-opacity=".784" stroke-width=".495" d="m 58.994141,57.994141 v 5 h 1 v -5 z m 2,0 v 5 h 1 v -5 z m 2,0 v 5 h 1 v -5 z m 2,0 v 5 h 1 v -5 z m 2,0 v 5 h 1 v -5 z m -8,10 v 5 h 1.001953 v -5 z m 2.001953,0 v 5 h 1 v -5 z m 2,0 v 5 h 1 v -5 z m 2,0 v 5 h 1 v -5 z m 2,0 v 5 h 1 v -5 z m -8.001953,10.009765 v 4.992188 h 1.001953 v -4.992188 z m 2.001953,0 v 4.992188 h 1 v -4.992188 z m 2,0 v 4.992188 h 1 v -4.992188 z m 2,0 v 4.992188 h 1 v -4.992188 z m 2,0 v 4.992188 h 1.001953 v -4.992188 z m -8.001953,10 v 4.992188 h 1.001953 v -4.992188 z m 2.001953,0 v 4.992188 h 1 v -4.992188 z m 2,0 v 4.992188 h 1 v -4.992188 z m 2,0 v 4.992188 h 1 v -4.992188 z m 2,0 v 4.992188 h 1 v -4.992188 z m -8.001953,10 v 4.992184 h 1.001953 v -4.992184 z m 2.001953,0 v 4.992184 h 1 v -4.992184 z m 2,0 v 4.992184 h 1 v -4.992184 z m 2,0 v 4.992184 h 1 v -4.992184 z m 2,0 v 4.992184 h 1.001953 v -4.992184 z" opacity="1"/><path id="path8411-66-6" fill="#000" fill-opacity=".296" stroke="none" stroke-dasharray="none" stroke-dashoffset="0" stroke-linecap="butt" stroke-linejoin="miter" stroke-miterlimit="4" stroke-opacity=".784" stroke-width=".495" d="m 99.494141,59.994141 a 0.49999589,0.50000018 0 0 0 -0.5,0.5 0.49999589,0.50000018 0 0 0 0.5,0.5 0.49999589,0.50000018 0 0 0 0.5,-0.5 0.49999589,0.50000018 0 0 0 -0.5,-0.5 z m 0.0098,10 a 0.50011736,0.50000018 0 0 0 -0.5,0.5 0.50011736,0.50000018 0 0 0 0.5,0.5 0.50011736,0.50000018 0 0 0 0.500009,-0.5 0.50011736,0.50000018 0 0 0 -0.500009,-0.5 z M 99.46875,80.001953 A 0.50011665,0.49931496 0 0 0 99.003906,80.5 a 0.50011665,0.49931496 0 0 0 0.5,0.5 0.50011665,0.49931496 0 0 0 0.500004,-0.5 0.50011665,0.49931496 0 0 0 -0.500004,-0.498047 0.50011665,0.49931496 0 0 0 -0.03516,0 z m 0,10 A 0.50011736,0.49931115 0 0 0 99.003906,90.5 a 0.50011736,0.49931115 0 0 0 0.5,0.5 0.50011736,0.49931115 0 0 0 0.500004,-0.5 0.50011736,0.49931115 0 0 0 -0.500004,-0.498047 0.50011736,0.49931115 0 0 0 -0.03516,0 z m 0,9.999997 a 0.500117,0.49931347 0 0 0 -0.464844,0.49805 0.500117,0.49931347 0 0 0 0.5,0.5 0.500117,0.49931347 0 0 0 0.500004,-0.5 0.500117,0.49931347 0 0 0 -0.500004,-0.49805 0.500117,0.49931347 0 0 0 -0.03516,0 z" opacity="1"/><path id="path8411-4-8-5" fill="#66d7ec" fill-opacity="1" stroke="none" stroke-dasharray="none" stroke-dashoffset="0" stroke-linecap="butt" stroke-linejoin="miter" stroke-miterlimit="4" stroke-opacity=".784" stroke-width=".495" d="m 90.494141,59.994141 a 0.49999812,0.49999958 0 0 0 -0.5,0.5 0.49999812,0.49999958 0 0 0 0.5,0.5 0.49999812,0.49999958 0 0 0 0.5,-0.5 0.49999812,0.49999958 0 0 0 -0.5,-0.5 z m 3,0 a 0.50000244,0.49999958 0 0 0 -0.5,0.5 0.50000244,0.49999958 0 0 0 0.5,0.5 0.50000244,0.49999958 0 0 0 0.5,-0.5 0.50000244,0.49999958 0 0 0 -0.5,-0.5 z m 3,0 a 0.49999699,0.49999979 0 0 0 -0.5,0.5 0.49999699,0.49999979 0 0 0 0.5,0.5 0.49999699,0.49999979 0 0 0 0.5,-0.5 0.49999699,0.49999979 0 0 0 -0.5,-0.5 z m -5.992188,10 a 0.50011957,0.49999958 0 0 0 -0.5,0.5 0.50011957,0.49999958 0 0 0 0.5,0.5 0.50011957,0.49999958 0 0 0 0.5,-0.5 0.50011957,0.49999958 0 0 0 -0.5,-0.5 z m 3.001953,0 a 0.50012386,0.49999958 0 0 0 -0.5,0.5 0.50012386,0.49999958 0 0 0 0.5,0.5 0.50012386,0.49999958 0 0 0 0.5,-0.5 0.50012386,0.49999958 0 0 0 -0.5,-0.5 z m 3,0 a 0.50011843,0.49999979 0 0 0 -0.5,0.5 0.50011843,0.49999979 0 0 0 0.5,0.5 0.50011843,0.49999979 0 0 0 0.5,-0.5 0.50011843,0.49999979 0 0 0 -0.5,-0.5 z M 90.466797,80.001953 A 0.50011891,0.49931437 0 0 0 90.001953,80.5 a 0.50011891,0.49931437 0 0 0 0.5,0.5 0.50011891,0.49931437 0 0 0 0.5,-0.5 0.50011891,0.49931437 0 0 0 -0.5,-0.498047 0.50011891,0.49931437 0 0 0 -0.03516,0 z m 3.001953,0 A 0.5001232,0.49931437 0 0 0 93.003906,80.5 a 0.5001232,0.49931437 0 0 0 0.5,0.5 0.5001232,0.49931437 0 0 0 0.5,-0.5 0.5001232,0.49931437 0 0 0 -0.5,-0.498047 0.5001232,0.49931437 0 0 0 -0.03516,0 z m 3,0 A 0.50011778,0.49931458 0 0 0 96.003906,80.5 a 0.50011778,0.49931458 0 0 0 0.5,0.5 0.50011778,0.49931458 0 0 0 0.5,-0.5 0.50011778,0.49931458 0 0 0 -0.5,-0.498047 0.50011778,0.49931458 0 0 0 -0.03516,0 z m -6.001953,10 A 0.50011957,0.49931055 0 0 0 90.001953,90.5 a 0.50011957,0.49931055 0 0 0 0.5,0.5 0.50011957,0.49931055 0 0 0 0.5,-0.5 0.50011957,0.49931055 0 0 0 -0.5,-0.498047 0.50011957,0.49931055 0 0 0 -0.03516,0 z m 3.001953,0 A 0.50012386,0.49931055 0 0 0 93.003906,90.5 a 0.50012386,0.49931055 0 0 0 0.5,0.5 0.50012386,0.49931055 0 0 0 0.5,-0.5 0.50012386,0.49931055 0 0 0 -0.5,-0.498047 0.50012386,0.49931055 0 0 0 -0.03516,0 z m 3,0 A 0.50011843,0.49931076 0 0 0 96.003906,90.5 a 0.50011843,0.49931076 0 0 0 0.5,0.5 0.50011843,0.49931076 0 0 0 0.5,-0.5 0.50011843,0.49931076 0 0 0 -0.5,-0.498047 0.50011843,0.49931076 0 0 0 -0.03516,0 z m -6.001953,9.999997 a 0.50011921,0.49931291 0 0 0 -0.464844,0.49805 0.50011921,0.49931291 0 0 0 0.5,0.5 0.50011921,0.49931291 0 0 0 0.5,-0.5 0.50011921,0.49931291 0 0 0 -0.5,-0.49805 0.50011921,0.49931291 0 0 0 -0.03516,0 z m 3.001953,0 a 0.50012356,0.49931291 0 0 0 -0.464844,0.49805 0.50012356,0.49931291 0 0 0 0.5,0.5 0.50012356,0.49931291 0 0 0 0.5,-0.5 0.50012356,0.49931291 0 0 0 -0.5,-0.49805 0.50012356,0.49931291 0 0 0 -0.03516,0 z m 3,0 a 0.50011814,0.49931312 0 0 0 -0.464844,0.49805 0.50011814,0.49931312 0 0 0 0.5,0.5 0.50011814,0.49931312 0 0 0 0.5,-0.5 0.50011814,0.49931312 0 0 0 -0.5,-0.49805 0.50011814,0.49931312 0 0 0 -0.03516,0 z" opacity="1"/><path id="rect8297-59-1-48-6" fill="#000" fill-opacity=".176" stroke="none" stroke-dasharray="none" stroke-dashoffset="0" stroke-linecap="butt" stroke-linejoin="miter" stroke-miterlimit="4" stroke-opacity=".784" stroke-width=".495" d="m 70.994141,58.994141 v 3 h 17 v -3 z m 0.0039,10 v 3 h 17.003906 v -3 z m 0,10.007812 v 2.996094 h 17.003906 v -2.996094 z m 0,10 v 2.996094 h 17.003906 v -2.996094 z m 0,10 v 2.996097 h 17.003906 v -2.996097 z" opacity="1"/></g></g><g id="g8840" display="inline"><g id="g8776" display="none"><rect id="rect_96" width="96" height="96" x="112" y="112" fill="#000" fill-opacity="1" fill-rule="nonzero" stroke="#ff24f7" stroke-dasharray="none" stroke-dashoffset="0" stroke-linecap="square" stroke-linejoin="miter" stroke-miterlimit="4" stroke-opacity=".995" stroke-width="0" marker-end="none" marker-mid="none" marker-start="none" clip-rule="nonzero" color="#000" color-interpolation="sRGB" color-interpolation-filters="linearRGB" color-rendering="auto" display="inline" enable-background="accumulate" image-rendering="auto" opacity="1" overflow="visible" paint-order="normal" shape-rendering="auto" text-rendering="auto" vector-effect="none" visibility="visible" style="isolation:auto;mix-blend-mode:normal;solid-color:#000;solid-opacity:1;marker:none"/><text id="text_96" x="144.725" y="168.736" fill="#fff" fill-opacity="1" stroke="none" stroke-linecap="butt" stroke-linejoin="miter" stroke-opacity="1" stroke-width=".049" display="inline" font-family="sans-serif" font-size="24" letter-spacing="0" opacity="1" word-spacing="0" xml:space="preserve" style="line-height:0%"><tspan style="line-height:0%" id="tspan8768" x="144.725" y="168.736" fill="#fff" fill-opacity="1" stroke="none" stroke-width=".049" font-size="24">96</tspan></text></g><g id="g8838" display="inline"><rect id="rect6209-8" width="74" height="83" x="123" y="119" fill="#636a78" fill-opacity="1" stroke="none" stroke-dasharray="none" stroke-dashoffset="0" stroke-linecap="butt" stroke-linejoin="miter" stroke-miterlimit="4" stroke-opacity=".267" stroke-width=".956" opacity="1" rx="1.32" ry="1.231"/><rect id="rect6209-0-1" width="75" height="84" x="122.5" y="118.5" fill="none" fill-opacity="1" stroke="#272a2f" stroke-dasharray="none" stroke-dashoffset="0" stroke-linecap="butt" stroke-linejoin="miter" stroke-miterlimit="4" stroke-opacity=".784" stroke-width="1" opacity="1" rx="2" ry="2"/><path id="rect8193-28" fill="#000" fill-opacity=".157" stroke="#484e57" stroke-dasharray="none" stroke-dashoffset="0" stroke-linecap="butt" stroke-linejoin="miter" stroke-miterlimit="4" stroke-opacity="1" stroke-width="1" d="m 126.5,122.5 c -0.554,0 -1,0.446 -1,1 v 10 c 0,0.554 0.446,1 1,1 h 67 c 0.554,0 1,-0.446 1,-1 v -10 c 0,-0.554 -0.446,-1 -1,-1 z m 0,16 c -0.554,0 -1,0.446 -1,1 v 10 c 0,0.554 0.446,1 1,1 h 67 c 0.554,0 1,-0.446 1,-1 v -10 c 0,-0.554 -0.446,-1 -1,-1 z m 0,16 c -0.554,0 -1,0.446 -1,1 v 10 c 0,0.554 0.446,1 1,1 h 67 c 0.554,0 1,-0.446 1,-1 v -10 c 0,-0.554 -0.446,-1 -1,-1 z m 0,16 c -0.554,0 -1,0.446 -1,1 v 10 c 0,0.554 0.446,1 1,1 h 67 c 0.554,0 1,-0.446 1,-1 v -10 c 0,-0.554 -0.446,-1 -1,-1 z m 0,16 c -0.554,0 -1,0.446 -1,1 v 10 c 0,0.554 0.446,1 1,1 h 67 c 0.554,0 1,-0.446 1,-1 v -10 c 0,-0.554 -0.446,-1 -1,-1 z" opacity="1"/><path id="rect8297-63" fill="#000" fill-opacity=".296" stroke="none" stroke-dasharray="none" stroke-dashoffset="0" stroke-linecap="butt" stroke-linejoin="miter" stroke-miterlimit="4" stroke-opacity=".784" stroke-width=".75" d="m 128,125 v 7 h 1 v -7 z m 3,0 v 7 h 1 v -7 z m 3,0 v 7 h 1 v -7 z m 3,0 v 7 h 1 v -7 z m 3,0 v 7 h 1 v -7 z m -12,16 v 7 h 1 v -7 z m 3,0 v 7 h 1 v -7 z m 3,0 v 7 h 1 v -7 z m 3,0 v 7 h 1 v -7 z m 3,0 v 7 h 1 v -7 z m -12,16 v 7 h 1 v -7 z m 3,0 v 7 h 1 v -7 z m 3,0 v 7 h 1 v -7 z m 3,0 v 7 h 1 v -7 z m 3,0 v 7 h 1 v -7 z m -12,16 v 7 h 1 v -7 z m 3,0 v 7 h 1 v -7 z m 3,0 v 7 h 1 v -7 z m 3,0 v 7 h 1 v -7 z m 3,0 v 7 h 1 v -7 z m -12,16 v 7 h 1 v -7 z m 3,0 v 7 h 1 v -7 z m 3,0 v 7 h 1 v -7 z m 3,0 v 7 h 1 v -7 z m 3,0 v 7 h 1 v -7 z" opacity="1"/><path id="path8411-66" fill="#000" fill-opacity=".296" stroke="none" stroke-dasharray="none" stroke-dashoffset="0" stroke-linecap="butt" stroke-linejoin="miter" stroke-miterlimit="4" stroke-opacity=".784" stroke-width=".75" d="m 189.5,128 a 0.50000691,0.49998915 0 0 0 -0.5,0.5 0.50000691,0.49998915 0 0 0 0.5,0.5 0.50000691,0.49998915 0 0 0 0.5,-0.5 0.50000691,0.49998915 0 0 0 -0.5,-0.5 z m 0,16 a 0.50000691,0.49998915 0 0 0 -0.5,0.5 0.50000691,0.49998915 0 0 0 0.5,0.5 0.50000691,0.49998915 0 0 0 0.5,-0.5 0.50000691,0.49998915 0 0 0 -0.5,-0.5 z m 0,16 a 0.50000691,0.49998915 0 0 0 -0.5,0.5 0.50000691,0.49998915 0 0 0 0.5,0.5 0.50000691,0.49998915 0 0 0 0.5,-0.5 0.50000691,0.49998915 0 0 0 -0.5,-0.5 z m 0,16 a 0.50000691,0.49998915 0 0 0 -0.5,0.5 0.50000691,0.49998915 0 0 0 0.5,0.5 0.50000691,0.49998915 0 0 0 0.5,-0.5 0.50000691,0.49998915 0 0 0 -0.5,-0.5 z m 0,16 a 0.50000691,0.49998915 0 0 0 -0.5,0.5 0.50000691,0.49998915 0 0 0 0.5,0.5 0.50000691,0.49998915 0 0 0 0.5,-0.5 0.50000691,0.49998915 0 0 0 -0.5,-0.5 z" opacity="1"/><path id="path8411-7-2" fill="#6be7e7" fill-opacity="1" stroke="none" stroke-dasharray="none" stroke-dashoffset="0" stroke-linecap="butt" stroke-linejoin="miter" stroke-miterlimit="4" stroke-opacity=".784" stroke-width=".75" d="m 176.5,128 a 0.5000062,0.49999416 0 0 0 -0.5,0.5 0.5000062,0.49999416 0 0 0 0.5,0.5 0.5000062,0.49999416 0 0 0 0.5,-0.5 0.5000062,0.49999416 0 0 0 -0.5,-0.5 z m 4,0 a 0.5000062,0.49999416 0 0 0 -0.5,0.5 0.5000062,0.49999416 0 0 0 0.5,0.5 0.5000062,0.49999416 0 0 0 0.5,-0.5 0.5000062,0.49999416 0 0 0 -0.5,-0.5 z m 5,0 a 0.5000062,0.49999416 0 0 0 -0.5,0.5 0.5000062,0.49999416 0 0 0 0.5,0.5 0.5000062,0.49999416 0 0 0 0.5,-0.5 0.5000062,0.49999416 0 0 0 -0.5,-0.5 z m -9,16 a 0.5000062,0.49999416 0 0 0 -0.5,0.5 0.5000062,0.49999416 0 0 0 0.5,0.5 0.5000062,0.49999416 0 0 0 0.5,-0.5 0.5000062,0.49999416 0 0 0 -0.5,-0.5 z m 4,0 a 0.5000062,0.49999416 0 0 0 -0.5,0.5 0.5000062,0.49999416 0 0 0 0.5,0.5 0.5000062,0.49999416 0 0 0 0.5,-0.5 0.5000062,0.49999416 0 0 0 -0.5,-0.5 z m 5,0 a 0.5000062,0.49999416 0 0 0 -0.5,0.5 0.5000062,0.49999416 0 0 0 0.5,0.5 0.5000062,0.49999416 0 0 0 0.5,-0.5 0.5000062,0.49999416 0 0 0 -0.5,-0.5 z m -9,16 a 0.5000062,0.49999416 0 0 0 -0.5,0.5 0.5000062,0.49999416 0 0 0 0.5,0.5 0.5000062,0.49999416 0 0 0 0.5,-0.5 0.5000062,0.49999416 0 0 0 -0.5,-0.5 z m 4,0 a 0.5000062,0.49999416 0 0 0 -0.5,0.5 0.5000062,0.49999416 0 0 0 0.5,0.5 0.5000062,0.49999416 0 0 0 0.5,-0.5 0.5000062,0.49999416 0 0 0 -0.5,-0.5 z m 5,0 a 0.5000062,0.49999416 0 0 0 -0.5,0.5 0.5000062,0.49999416 0 0 0 0.5,0.5 0.5000062,0.49999416 0 0 0 0.5,-0.5 0.5000062,0.49999416 0 0 0 -0.5,-0.5 z m -9,16 a 0.5000062,0.49999416 0 0 0 -0.5,0.5 0.5000062,0.49999416 0 0 0 0.5,0.5 0.5000062,0.49999416 0 0 0 0.5,-0.5 0.5000062,0.49999416 0 0 0 -0.5,-0.5 z m 4,0 a 0.5000062,0.49999416 0 0 0 -0.5,0.5 0.5000062,0.49999416 0 0 0 0.5,0.5 0.5000062,0.49999416 0 0 0 0.5,-0.5 0.5000062,0.49999416 0 0 0 -0.5,-0.5 z m 5,0 a 0.5000062,0.49999416 0 0 0 -0.5,0.5 0.5000062,0.49999416 0 0 0 0.5,0.5 0.5000062,0.49999416 0 0 0 0.5,-0.5 0.5000062,0.49999416 0 0 0 -0.5,-0.5 z m -9,16 a 0.5000062,0.49999416 0 0 0 -0.5,0.5 0.5000062,0.49999416 0 0 0 0.5,0.5 0.5000062,0.49999416 0 0 0 0.5,-0.5 0.5000062,0.49999416 0 0 0 -0.5,-0.5 z m 4,0 a 0.5000062,0.49999416 0 0 0 -0.5,0.5 0.5000062,0.49999416 0 0 0 0.5,0.5 0.5000062,0.49999416 0 0 0 0.5,-0.5 0.5000062,0.49999416 0 0 0 -0.5,-0.5 z m 5,0 a 0.5000062,0.49999416 0 0 0 -0.5,0.5 0.5000062,0.49999416 0 0 0 0.5,0.5 0.5000062,0.49999416 0 0 0 0.5,-0.5 0.5000062,0.49999416 0 0 0 -0.5,-0.5 z" opacity="1"/><path id="rect8297-59-1-48" fill="#000" fill-opacity=".176" stroke="none" stroke-dasharray="none" stroke-dashoffset="0" stroke-linecap="butt" stroke-linejoin="miter" stroke-miterlimit="4" stroke-opacity=".784" stroke-width=".75" d="m 146,126 v 5 h 26 v -5 z m 0,16 v 5 h 26 v -5 z m 0,16 v 5 h 26 v -5 z m 0,16 v 5 h 26 v -5 z m 0,16 v 5 h 26 v -5 z" opacity="1"/><circle id="path8411-66-1" cx="190.375" cy="144.375" r="0" fill="#000" fill-opacity=".296" stroke="none" stroke-dasharray="none" stroke-dashoffset="0" stroke-linecap="butt" stroke-linejoin="miter" stroke-miterlimit="4" stroke-opacity=".784" stroke-width=".75" opacity="1"/><circle id="path8411-4-8-7" cx="185.875" cy="144.375" r="0" fill="#6ba4e7" fill-opacity="1" stroke="none" stroke-dasharray="none" stroke-dashoffset="0" stroke-linecap="butt" stroke-linejoin="miter" stroke-miterlimit="4" stroke-opacity=".784" stroke-width=".75" opacity="1"/><circle id="path8411-66-0" cx="190.375" cy="160.375" r="0" fill="#000" fill-opacity=".296" stroke="none" stroke-dasharray="none" stroke-dashoffset="0" stroke-linecap="butt" stroke-linejoin="miter" stroke-miterlimit="4" stroke-opacity=".784" stroke-width=".75" opacity="1"/><circle id="path8411-4-8-1" cx="185.875" cy="160.375" r="0" fill="#6ba4e7" fill-opacity="1" stroke="none" stroke-dasharray="none" stroke-dashoffset="0" stroke-linecap="butt" stroke-linejoin="miter" stroke-miterlimit="4" stroke-opacity=".784" stroke-width=".75" opacity="1"/><circle id="path8411-66-8" cx="190.375" cy="176.375" r="0" fill="#000" fill-opacity=".296" stroke="none" stroke-dasharray="none" stroke-dashoffset="0" stroke-linecap="butt" stroke-linejoin="miter" stroke-miterlimit="4" stroke-opacity=".784" stroke-width=".75" opacity="1"/><circle id="path8411-4-8-15" cx="185.875" cy="176.375" r="0" fill="#6ba4e7" fill-opacity="1" stroke="none" stroke-dasharray="none" stroke-dashoffset="0" stroke-linecap="butt" stroke-linejoin="miter" stroke-miterlimit="4" stroke-opacity=".784" stroke-width=".75" opacity="1"/><circle id="path8411-66-4" cx="190.375" cy="192.375" r="0" fill="#000" fill-opacity=".296" stroke="none" stroke-dasharray="none" stroke-dashoffset="0" stroke-linecap="butt" stroke-linejoin="miter" stroke-miterlimit="4" stroke-opacity=".784" stroke-width=".75" opacity="1"/><circle id="path8411-4-8-8" cx="185.875" cy="192.375" r="0" fill="#6ba4e7" fill-opacity="1" stroke="none" stroke-dasharray="none" stroke-dashoffset="0" stroke-linecap="butt" stroke-linejoin="miter" stroke-miterlimit="4" stroke-opacity=".784" stroke-width=".75" opacity="1"/></g></g><g id="layer4" display="inline"><g id="layer11" display="none"><rect id="frame_128" width="128" height="128" x="208" y="208" fill="#000" fill-opacity="1" fill-rule="nonzero" stroke="#ff24f7" stroke-dasharray="none" stroke-dashoffset="0" stroke-linecap="square" stroke-linejoin="miter" stroke-miterlimit="4" stroke-opacity=".995" stroke-width="0" marker-end="none" marker-mid="none" marker-start="none" clip-rule="nonzero" color="#000" color-interpolation="sRGB" color-interpolation-filters="linearRGB" color-rendering="auto" display="inline" enable-background="accumulate" image-rendering="auto" opacity="1" overflow="visible" paint-order="normal" shape-rendering="auto" text-rendering="auto" vector-effect="none" visibility="visible" style="isolation:auto;mix-blend-mode:normal;solid-color:#000;solid-opacity:1;marker:none"/><text id="txt_128" x="236.175" y="283.345" fill="#fff" fill-opacity="1" stroke="none" stroke-linecap="butt" stroke-linejoin="miter" stroke-opacity="1" stroke-width=".079" display="inline" font-family="sans-serif" font-size="38.465" letter-spacing="0" opacity="1" word-spacing="0" xml:space="preserve" style="line-height:0%"><tspan id="tspan5069-6" x="236.175" y="283.345" fill="#fff" fill-opacity="1" stroke="none" stroke-width=".079" font-size="38.465" style="line-height:0%">128</tspan></text><text id="txt_scalable_64_512" x="265.978" y="330.133" fill="#fff" fill-opacity=".422" stroke="none" stroke-linecap="butt" stroke-linejoin="miter" stroke-opacity="1" stroke-width=".164" display="inline" font-family="sans-serif" font-size="7.432" letter-spacing="0" opacity="1" word-spacing="0" xml:space="preserve" style="line-height:1000%"><tspan id="tspan5049-1-6-6" x="265.978" y="330.133" fill="#fff" fill-opacity=".422" stroke="none" stroke-width=".164" font-size="8.09">Scalable:96-512</tspan></text></g><g id="layer12" display="inline"><rect id="rect4140-7-5-7" width="128" height="128" x="208" y="208" fill="none" fill-opacity="1" stroke="none" stroke-dasharray="none" stroke-dashoffset="0" stroke-linecap="butt" stroke-linejoin="miter" stroke-miterlimit="4" stroke-opacity="1" stroke-width="1" opacity="1"/><rect id="rect6209" width="98.001" height="112.999" x="222.999" y="216.001" fill="#636a78" fill-opacity="1" stroke="none" stroke-dasharray="none" stroke-dashoffset="0" stroke-linecap="butt" stroke-linejoin="miter" stroke-miterlimit="4" stroke-opacity=".267" stroke-width="1.275" opacity="1" rx="1.32" ry="1.231"/><rect id="rect6209-0" width="99" height="114" x="222.5" y="215.5" fill="none" fill-opacity="1" stroke="#272a2f" stroke-dasharray="none" stroke-dashoffset="0" stroke-linecap="butt" stroke-linejoin="miter" stroke-miterlimit="4" stroke-opacity=".784" stroke-width="1" opacity="1" rx="2" ry="2"/><path id="rect8193" fill="#000" fill-opacity=".157" stroke="#484e57" stroke-dasharray="none" stroke-dashoffset="0" stroke-linecap="butt" stroke-linejoin="miter" stroke-miterlimit="4" stroke-opacity="1" stroke-width="1" d="m 227.5,220.5 c -0.554,0 -1,0.446 -1,1 v 14 c 0,0.554 0.446,1 1,1 h 89 c 0.554,0 1,-0.446 1,-1 v -14 c 0,-0.554 -0.446,-1 -1,-1 z m 0,22 c -0.554,0 -1,0.446 -1,1 v 14 c 0,0.554 0.446,1 1,1 h 89 c 0.554,0 1,-0.446 1,-1 v -14 c 0,-0.554 -0.446,-1 -1,-1 z m 0,22 c -0.554,0 -1,0.446 -1,1 v 14 c 0,0.554 0.446,1 1,1 h 89 c 0.554,0 1,-0.446 1,-1 v -14 c 0,-0.554 -0.446,-1 -1,-1 z m 0,22 c -0.554,0 -1,0.446 -1,1 v 14 c 0,0.554 0.446,1 1,1 h 89 c 0.554,0 1,-0.446 1,-1 v -14 c 0,-0.554 -0.446,-1 -1,-1 z m 0,22 c -0.554,0 -1,0.446 -1,1 v 14 c 0,0.554 0.446,1 1,1 h 89 c 0.554,0 1,-0.446 1,-1 v -14 c 0,-0.554 -0.446,-1 -1,-1 z" opacity="1"/><path id="rect8297" fill="#000" fill-opacity=".296" stroke="none" stroke-dasharray="none" stroke-dashoffset="0" stroke-linecap="butt" stroke-linejoin="miter" stroke-miterlimit="4" stroke-opacity=".784" stroke-width="1" d="m 230,224 v 9 h 1 v -9 z m 3,0 v 9 h 1 v -9 z m 3,0 v 9 h 1 v -9 z m 3,0 v 9 h 1 v -9 z m 3,0 v 9 h 1 v -9 z m 3,0 v 9 h 1 v -9 z m -15,22 v 9 h 1 v -9 z m 3,0 v 9 h 1 v -9 z m 3,0 v 9 h 1 v -9 z m 3,0 v 9 h 1 v -9 z m 3,0 v 9 h 1 v -9 z m 3,0 v 9 h 1 v -9 z m -15,22 v 9 h 1 v -9 z m 3,0 v 9 h 1 v -9 z m 3,0 v 9 h 1 v -9 z m 3,0 v 9 h 1 v -9 z m 3,0 v 9 h 1 v -9 z m 3,0 v 9 h 1 v -9 z m -15,22 v 9 h 1 v -9 z m 3,0 v 9 h 1 v -9 z m 3,0 v 9 h 1 v -9 z m 3,0 v 9 h 1 v -9 z m 3,0 v 9 h 1 v -9 z m 3,0 v 9 h 1 v -9 z m -15,22 v 9 h 1 v -9 z m 3,0 v 9 h 1 v -9 z m 3,0 v 9 h 1 v -9 z m 3,0 v 9 h 1 v -9 z m 3,0 v 9 h 1 v -9 z m 3,0 v 9 h 1 v -9 z" opacity="1"/><path id="rect8297-59-1" fill="#000" fill-opacity=".176" stroke="none" stroke-dasharray="none" stroke-dashoffset="0" stroke-linecap="butt" stroke-linejoin="miter" stroke-miterlimit="4" stroke-opacity=".784" stroke-width="1" d="m 254,226 v 5 h 33 v -5 z m 0,22 v 5 h 33 v -5 z m 0,22 v 5 h 33 v -5 z m 0,22 v 5 h 33 v -5 z m 0,22 v 5 h 33 v -5 z" opacity="1"/><path id="path8411-66-13" fill="#000" fill-opacity=".296" stroke="none" stroke-dasharray="none" stroke-dashoffset="0" stroke-linecap="butt" stroke-linejoin="miter" stroke-miterlimit="4" stroke-opacity=".784" stroke-width="1" d="m 307.5,228 a 0.50000691,0.49998915 0 0 0 -0.5,0.5 0.50000691,0.49998915 0 0 0 0.5,0.5 0.50000691,0.49998915 0 0 0 0.5,-0.5 0.50000691,0.49998915 0 0 0 -0.5,-0.5 z m 0,22 a 0.50000691,0.49998915 0 0 0 -0.5,0.5 0.50000691,0.49998915 0 0 0 0.5,0.5 0.50000691,0.49998915 0 0 0 0.5,-0.5 0.50000691,0.49998915 0 0 0 -0.5,-0.5 z m 0,22 a 0.50000691,0.49998915 0 0 0 -0.5,0.5 0.50000691,0.49998915 0 0 0 0.5,0.5 0.50000691,0.49998915 0 0 0 0.5,-0.5 0.50000691,0.49998915 0 0 0 -0.5,-0.5 z m 0,22 a 0.50000691,0.49998915 0 0 0 -0.5,0.5 0.50000691,0.49998915 0 0 0 0.5,0.5 0.50000691,0.49998915 0 0 0 0.5,-0.5 0.50000691,0.49998915 0 0 0 -0.5,-0.5 z m 0,23 a 0.50000691,0.49998915 0 0 0 -0.5,0.5 0.50000691,0.49998915 0 0 0 0.5,0.5 0.50000691,0.49998915 0 0 0 0.5,-0.5 0.50000691,0.49998915 0 0 0 -0.5,-0.5 z" opacity="1"/><path id="path8411-7-2-1" fill="#6bdfe7" fill-opacity="1" stroke="none" stroke-dasharray="none" stroke-dashoffset="0" stroke-linecap="butt" stroke-linejoin="miter" stroke-miterlimit="4" stroke-opacity=".784" stroke-width="1" d="m 294.5,228 a 0.5000062,0.49999416 0 0 0 -0.5,0.5 0.5000062,0.49999416 0 0 0 0.5,0.5 0.5000062,0.49999416 0 0 0 0.5,-0.5 0.5000062,0.49999416 0 0 0 -0.5,-0.5 z m 4,0 a 0.5000062,0.49999416 0 0 0 -0.5,0.5 0.5000062,0.49999416 0 0 0 0.5,0.5 0.5000062,0.49999416 0 0 0 0.5,-0.5 0.5000062,0.49999416 0 0 0 -0.5,-0.5 z m 5,0 a 0.5000062,0.49999416 0 0 0 -0.5,0.5 0.5000062,0.49999416 0 0 0 0.5,0.5 0.5000062,0.49999416 0 0 0 0.5,-0.5 0.5000062,0.49999416 0 0 0 -0.5,-0.5 z m -9,22 a 0.5000062,0.49999416 0 0 0 -0.5,0.5 0.5000062,0.49999416 0 0 0 0.5,0.5 0.5000062,0.49999416 0 0 0 0.5,-0.5 0.5000062,0.49999416 0 0 0 -0.5,-0.5 z m 4,0 a 0.5000062,0.49999416 0 0 0 -0.5,0.5 0.5000062,0.49999416 0 0 0 0.5,0.5 0.5000062,0.49999416 0 0 0 0.5,-0.5 0.5000062,0.49999416 0 0 0 -0.5,-0.5 z m 5,0 a 0.5000062,0.49999416 0 0 0 -0.5,0.5 0.5000062,0.49999416 0 0 0 0.5,0.5 0.5000062,0.49999416 0 0 0 0.5,-0.5 0.5000062,0.49999416 0 0 0 -0.5,-0.5 z m -9,22 a 0.5000062,0.49999416 0 0 0 -0.5,0.5 0.5000062,0.49999416 0 0 0 0.5,0.5 0.5000062,0.49999416 0 0 0 0.5,-0.5 0.5000062,0.49999416 0 0 0 -0.5,-0.5 z m 4,0 a 0.5000062,0.49999416 0 0 0 -0.5,0.5 0.5000062,0.49999416 0 0 0 0.5,0.5 0.5000062,0.49999416 0 0 0 0.5,-0.5 0.5000062,0.49999416 0 0 0 -0.5,-0.5 z m 5,0 a 0.5000062,0.49999416 0 0 0 -0.5,0.5 0.5000062,0.49999416 0 0 0 0.5,0.5 0.5000062,0.49999416 0 0 0 0.5,-0.5 0.5000062,0.49999416 0 0 0 -0.5,-0.5 z m -9,22 a 0.5000062,0.49999416 0 0 0 -0.5,0.5 0.5000062,0.49999416 0 0 0 0.5,0.5 0.5000062,0.49999416 0 0 0 0.5,-0.5 0.5000062,0.49999416 0 0 0 -0.5,-0.5 z m 4,0 a 0.5000062,0.49999416 0 0 0 -0.5,0.5 0.5000062,0.49999416 0 0 0 0.5,0.5 0.5000062,0.49999416 0 0 0 0.5,-0.5 0.5000062,0.49999416 0 0 0 -0.5,-0.5 z m 5,0 a 0.5000062,0.49999416 0 0 0 -0.5,0.5 0.5000062,0.49999416 0 0 0 0.5,0.5 0.5000062,0.49999416 0 0 0 0.5,-0.5 0.5000062,0.49999416 0 0 0 -0.5,-0.5 z m -9,23 a 0.5000062,0.49999416 0 0 0 -0.5,0.5 0.5000062,0.49999416 0 0 0 0.5,0.5 0.5000062,0.49999416 0 0 0 0.5,-0.5 0.5000062,0.49999416 0 0 0 -0.5,-0.5 z m 4,0 a 0.5000062,0.49999416 0 0 0 -0.5,0.5 0.5000062,0.49999416 0 0 0 0.5,0.5 0.5000062,0.49999416 0 0 0 0.5,-0.5 0.5000062,0.49999416 0 0 0 -0.5,-0.5 z m 5,0 a 0.5000062,0.49999416 0 0 0 -0.5,0.5 0.5000062,0.49999416 0 0 0 0.5,0.5 0.5000062,0.49999416 0 0 0 0.5,-0.5 0.5000062,0.49999416 0 0 0 -0.5,-0.5 z" opacity="1"/></g></g></svg>