<svg xmlns="http://www.w3.org/2000/svg" xmlns:svg="http://www.w3.org/2000/svg" xmlns:xlink="http://www.w3.org/1999/xlink" id="svg6" version="1.1" viewBox="0 0 16 16"><metadata id="metadata10"/><defs id="defs3051"><style id="current-color-scheme" type="text/css">.ColorScheme-Text{color:#f2f2f2}</style><symbol id="symbol17195"><title id="title17191">Settings</title><path id="path17193" d="M38.86 25.95c.08-.64.14-1.29.14-1.95s-.06-1.31-.14-1.95l4.23-3.31c.38-.3.49-.84.24-1.28l-4-6.93c-.25-.43-.77-.61-1.22-.43l-4.98 2.01c-1.03-.79-2.16-1.46-3.38-1.97l-.75-5.3c-.09-.47-.5-.84-1-.84h-8c-.5 0-.91.37-.99.84l-.75 5.3c-1.22.51-2.35 1.17-3.38 1.97l-4.98-2.01c-.45-.17-.97 0-1.22.43l-4 6.93c-.25.43-.14.97.24 1.28l4.22 3.31c-.08.64-.14 1.29-.14 1.95s.06 1.31.14 1.95l-4.22 3.31c-.38.3-.49.84-.24 1.28l4 6.93c.25.43.77.61 1.22.43l4.98-2.01c1.03.79 2.16 1.46 3.38 1.97l.75 5.3c.08.47.49.84.99.84h8c.5 0 .91-.37.99-.84l.75-5.3c1.22-.51 2.35-1.17 3.38-1.97l4.98 2.01c.45.17.97 0 1.22-.43l4-6.93c.25-.43.14-.97-.24-1.28l-4.22-3.31zm-14.86 5.05c-3.87 0-7-3.13-7-7s3.13-7 7-7 7 3.13 7 7-3.13 7-7 7z"/></symbol></defs><path id="path4" fill="currentColor" fill-opacity="1" stroke="none" d="m 28.099346,-10.033797 c -0.931981,0 -1.715538,0.6373008 -1.9375,1.5000001 h -6.0625 v 1 h 6.0625 c 0.221962,0.8626993 1.005519,1.5 1.9375,1.5 0.931981,0 1.715537,-0.6373007 1.9375,-1.5 h 2.0625 v -1 h -2.0625 c -0.221963,-0.8626993 -1.005519,-1.5000001 -1.9375,-1.5000001 z m -5,7.0000001 c -0.931981,0 -1.715538,0.637301 -1.9375,1.5 h -1.0625 v 1.00000003 h 1.0625 c 0.221962,0.862699 1.005519,1.5 1.9375,1.5 0.931981,0 1.715537,-0.637301 1.9375,-1.5 h 0.0625 2 5 V -1.5337969 h -5 -2 -0.0625 c -0.221963,-0.862699 -1.005519,-1.5 -1.9375,-1.5 z m 0,1 c 0.55228,0 1,0.44772 1,1 0,0.55228003 -0.44772,1.00000003 -1,1.00000003 -0.55228,0 -1,-0.44772 -1,-1.00000003 0,-0.55228 0.44772,-1 1,-1 z" class="ColorScheme-Text" color="#f2f2f2"/><use id="use32985" width="100%" height="100%" x="0" y="0" fill="#ebebeb" fill-opacity="1" stroke="none" transform="matrix(0.35972619,0,0,0.35972619,-0.63522715,-0.82795236)" xlink:href="#symbol17195"/></svg>