<svg xmlns="http://www.w3.org/2000/svg" xmlns:svg="http://www.w3.org/2000/svg" id="svg6" version="1.1" viewBox="0 0 16 16"><metadata id="metadata10"/><defs id="defs3051"><style id="current-color-scheme" type="text/css">.ColorScheme-Text{color:#f2f2f2}</style></defs><path id="path4" fill="#fff" fill-opacity=".627" stroke="none" d="M 6.8342631,3.2555969 10.712891,7.1113281 14,10.398438 V 14 H 10.398438 L 3,6.5025462 C 2.7076546,6.1946146 2.5979523,5.3851702 3.0686875,4.6969246 L 4.7209782,3.0801354 C 5.3728464,2.3985969 6.2114201,2.632754 6.8342631,3.2555969 Z M 7.6503906,5.4902344 5.490234,7.6503906 8.6640625,10.826172 10.712891,8.5507812 9.2714844,7.1113281 Z M 11.33965,9.1092611 9.1997832,11.359939 10.757813,12.919922 h 1.441406 l 0.720703,-0.720703 v -1.441407 z" class="ColorScheme-Text" color="#f2f2f2"/><path id="path7654" fill="#fff" fill-opacity=".549" stroke="none" d="m 22.329869,1.7951636 5.111329,5.1113281 3.287109,3.2871103 v 3.601562 H 27.126745 L 18.728307,5.3967261 Z M 24.378698,5.285398 22.218541,7.4455542 25.39237,10.621336 V 9.945555 l 1.013671,0.02148 h 1.035157 V 8.9318824 8.3459448 L 25.999791,6.9064917 Z m 4.076172,4.0742187 v 1.6210943 h -1.035157 -0.992187 l -0.02148,0.652344 1.080078,1.082031 h 1.441406 l 0.720703,-0.720703 v -1.441407 z" class="ColorScheme-Text" color="#f2f2f2"/><rect id="rect7658" width="1" height="1" x="2" y="13" fill="#fff" fill-opacity=".549" fill-rule="nonzero" stroke="none" stroke-dasharray="none" stroke-dashoffset="0" stroke-linecap="butt" stroke-linejoin="miter" stroke-miterlimit="4" stroke-opacity=".708" stroke-width="1.757" marker-end="none" marker-mid="none" marker-start="none" clip-rule="nonzero" color="#000" color-interpolation="sRGB" color-interpolation-filters="linearRGB" color-rendering="auto" display="block" enable-background="accumulate" image-rendering="auto" opacity="1" overflow="visible" paint-order="fill markers stroke" shape-rendering="auto" text-rendering="auto" vector-effect="none" visibility="visible" style="isolation:auto;mix-blend-mode:normal;solid-color:#000;solid-opacity:1;marker:none"/><rect id="rect7660" width="1" height="1" x="4" y="13" fill="#fff" fill-opacity=".549" fill-rule="nonzero" stroke="none" stroke-dasharray="none" stroke-dashoffset="0" stroke-linecap="butt" stroke-linejoin="miter" stroke-miterlimit="4" stroke-opacity=".708" stroke-width="1.757" marker-end="none" marker-mid="none" marker-start="none" clip-rule="nonzero" color="#000" color-interpolation="sRGB" color-interpolation-filters="linearRGB" color-rendering="auto" display="block" enable-background="accumulate" image-rendering="auto" opacity="1" overflow="visible" paint-order="fill markers stroke" shape-rendering="auto" text-rendering="auto" vector-effect="none" visibility="visible" style="isolation:auto;mix-blend-mode:normal;solid-color:#000;solid-opacity:1;marker:none"/><rect id="rect7662" width="1" height="1" x="6" y="13" fill="#fff" fill-opacity=".549" fill-rule="nonzero" stroke="none" stroke-dasharray="none" stroke-dashoffset="0" stroke-linecap="butt" stroke-linejoin="miter" stroke-miterlimit="4" stroke-opacity=".708" stroke-width="1.757" marker-end="none" marker-mid="none" marker-start="none" clip-rule="nonzero" color="#000" color-interpolation="sRGB" color-interpolation-filters="linearRGB" color-rendering="auto" display="block" enable-background="accumulate" image-rendering="auto" opacity="1" overflow="visible" paint-order="fill markers stroke" shape-rendering="auto" text-rendering="auto" vector-effect="none" visibility="visible" style="isolation:auto;mix-blend-mode:normal;solid-color:#000;solid-opacity:1;marker:none"/><path id="path7666" fill="#fff" fill-opacity=".755" fill-rule="evenodd" stroke="none" stroke-linecap="butt" stroke-linejoin="miter" stroke-opacity="1" stroke-width="1" d="M 3.08235,6.6303162 4.7339972,8.3527738 8.3527738,4.7567568 6.5475397,2.9930068 C 6.0572396,2.5624235 5.1749115,2.5037083 4.6976737,3.0985029 L 3.0189807,4.7199567 C 2.6181875,5.2425333 2.6150939,6.2060625 3.08235,6.6303162 Z" display="inline"/></svg>