<svg xmlns="http://www.w3.org/2000/svg" xmlns:svg="http://www.w3.org/2000/svg" id="svg22" width="24" height="24" version="1.1" viewBox="0 0 24 24"><metadata id="metadata26"/><defs id="defs16"><clipPath id="clip1"><rect id="rect2" width="24" height="24"/></clipPath><filter id="alpha" width="100%" height="100%" x="0" y="0" filterUnits="objectBoundingBox"><feColorMatrix id="feColorMatrix5" in="SourceGraphic" type="matrix" values="0 0 0 0 1 0 0 0 0 1 0 0 0 0 1 0 0 0 1 0"/></filter><g id="surface6" clip-path="url(#clip1)"><path id="path8" fill="#000" fill-rule="evenodd" d="M 10.859375 3.273438 L 10.859375 11.101562 L 5.601562 7.828125 L 3.820312 8.988281 L 10.363281 13.089844 L 3.71875 17.195312 L 5.800781 18.476562 L 10.859375 15.144531 L 10.859375 22.910156 L 20.28125 17.195312 L 14.039062 13.15625 L 20.082031 9.171875 Z M 13.4375 7.0625 L 16.515625 9.238281 L 13.4375 11.164062 Z M 13.339844 15.210938 L 16.617188 17.128906 L 13.539062 18.863281 Z"/></g><mask id="mask0"><g id="g13" filter="url(#alpha)"><rect id="rect11" width="24" height="24" x="0" y="0" fill="#000" fill-opacity=".302"/></g></mask></defs><path id="path4173" fill="#aaa" fill-opacity="1" fill-rule="evenodd" stroke="#aaa" stroke-dasharray="none" stroke-dashoffset="0" stroke-linecap="square" stroke-linejoin="miter" stroke-miterlimit="4" stroke-opacity="1" stroke-width=".696" d="m 12.271316,2.840603 v 7.958611 L 7.6488713,6.1767688 7.2971847,5.8250824 6.5938121,6.5284554 6.9454982,6.8801419 12.065356,12 6.9454982,17.119859 6.5938121,17.471545 7.2971847,18.174918 7.6488713,17.823232 12.271316,13.200786 v 7.958611 l 4.476719,-4.476718 0.351686,-0.351687 0.351687,-0.351687 L 17.099721,15.627619 13.472102,12 17.099721,8.3723812 17.451408,8.0206947 17.099721,7.6690081 Z m 0.994827,2.4015723 2.778519,2.7785194 -2.778519,2.7785193 z m 0,7.9586107 2.778519,2.778519 -2.778519,2.778519 z" baseline-shift="baseline" clip-rule="nonzero" color="#000" color-interpolation="sRGB" color-interpolation-filters="linearRGB" color-rendering="auto" direction="ltr" display="inline" enable-background="accumulate" font-family="sans-serif" font-size="medium" font-stretch="normal" font-style="normal" font-variant="normal" font-weight="normal" image-rendering="auto" letter-spacing="normal" opacity="1" overflow="visible" shape-rendering="auto" text-anchor="start" text-decoration="none" text-rendering="auto" visibility="visible" word-spacing="normal" writing-mode="lr-tb" style="line-height:normal;text-indent:0;text-align:start;text-decoration-line:none;text-decoration-style:solid;text-decoration-color:#000;text-transform:none;white-space:normal;isolation:auto;mix-blend-mode:normal;solid-color:#000;solid-opacity:1"/><path id="path4154" fill="#000" fill-opacity="1" fill-rule="evenodd" stroke="#000" stroke-dasharray="none" stroke-dashoffset="0" stroke-linecap="square" stroke-linejoin="miter" stroke-miterlimit="4" stroke-opacity="1" stroke-width=".696" d="m 12.226097,3.123223 v 7.958611 L 7.6036519,6.4593886 7.2519654,6.1077021 6.5485923,6.8110747 6.9002788,7.1627612 12.020137,12.28262 l 4.682678,4.682678 0.351687,-0.351686 0.351686,-0.351687 -0.351686,-0.351686 -3.627619,-3.627619 3.627619,-3.627619 0.351686,-0.3516865 -0.351686,-0.3516866 z m 0.994826,2.4015721 2.778519,2.7785194 -2.778519,2.7785195 z" baseline-shift="baseline" clip-rule="nonzero" color="#000" color-interpolation="sRGB" color-interpolation-filters="linearRGB" color-rendering="auto" direction="ltr" display="inline" enable-background="accumulate" font-family="sans-serif" font-size="medium" font-stretch="normal" font-style="normal" font-variant="normal" font-weight="normal" image-rendering="auto" letter-spacing="normal" opacity=".385" overflow="visible" shape-rendering="auto" text-anchor="start" text-decoration="none" text-rendering="auto" visibility="visible" word-spacing="normal" writing-mode="lr-tb" style="line-height:normal;text-indent:0;text-align:start;text-decoration-line:none;text-decoration-style:solid;text-decoration-color:#000;text-transform:none;white-space:normal;isolation:auto;mix-blend-mode:normal;solid-color:#000;solid-opacity:1"/><path display="inline" style="line-height:normal;text-indent:0;text-align:start;text-decoration-line:none;text-decoration-style:solid;text-decoration-color:#000;text-transform:none;white-space:normal;isolation:auto;mix-blend-mode:normal;solid-color:#000;solid-opacity:1" id="path4152" fill="#aaa" fill-opacity="1" fill-rule="evenodd" stroke="#aaa" stroke-dasharray="none" stroke-dashoffset="0" stroke-linecap="square" stroke-linejoin="miter" stroke-miterlimit="4" stroke-opacity="1" stroke-width=".696" d="M 12.271316,2.8858228 V 10.844433 L 7.6488713,6.2219881 7.2971847,5.8703016 6.5938121,6.5736747 6.9454982,6.9253612 12.065356,12.04522 16.748035,16.727898 17.099721,16.376211 17.451408,16.024525 17.099721,15.672838 13.472102,12.04522 17.099721,8.4176005 17.451408,8.065914 17.099721,7.7142274 Z m 0.994827,2.4015718 2.778519,2.7785194 -2.778519,2.778519 z" baseline-shift="baseline" clip-rule="nonzero" color="#000" color-interpolation="sRGB" color-interpolation-filters="linearRGB" color-rendering="auto" direction="ltr" enable-background="accumulate" font-family="sans-serif" font-size="medium" font-stretch="normal" font-style="normal" font-variant="normal" font-weight="normal" image-rendering="auto" letter-spacing="normal" opacity="1" overflow="visible" shape-rendering="auto" text-anchor="start" text-decoration="none" text-rendering="auto" visibility="visible" word-spacing="normal" writing-mode="lr-tb"/></svg>