<svg xmlns="http://www.w3.org/2000/svg" xmlns:osb="http://www.openswatchbook.org/uri/2009/osb" xmlns:svg="http://www.w3.org/2000/svg" xmlns:xlink="http://www.w3.org/1999/xlink" id="svg6" version="1.1" viewBox="0 0 16 16"><metadata id="metadata10"/><defs id="defs3051"><style id="current-color-scheme" type="text/css">.ColorScheme-Text{color:#f2f2f2}</style><linearGradient id="linearGradient846" x1="3" x2="15" y1="-436.5" y2="-436.5" gradientTransform="translate(67,515.00001)" gradientUnits="userSpaceOnUse" xlink:href="#default_color"/><linearGradient id="default_color" osb:paint="solid"><stop id="stop823" offset="0" stop-color="#000" stop-opacity="1"/></linearGradient></defs><path id="path4" fill="url(#linearGradient846)" fill-opacity="1" stroke="none" stroke-dasharray="none" stroke-dashoffset="0" stroke-linecap="round" stroke-linejoin="round" stroke-miterlimit="4" stroke-opacity=".964" stroke-width=".13" marker-end="none" marker-mid="none" marker-start="none" d="M 6.5 2 L 3.21875 5.28125 L 3 5.5 L 3.21875 5.71875 L 6.5 9 L 7.21875 8.28125 L 4.90625 6 L 6 6 L 7.1875 6 L 8 6 L 8.5 6 C 10.432998 6 12 7.5669984 12 9.5 C 12 11.433002 10.432998 13 8.5 13 L 8 13 L 7 13 L 7 14 L 8 14 L 8.5 14 C 10.985283 14 13 11.985252 13 9.5 C 13 7.0147479 10.985283 5 8.5 5 L 8 5 L 7.1875 5 L 6 5 L 4.90625 5 L 7.21875 2.71875 L 6.5 2 z" class="ColorScheme-Text" opacity=".64" paint-order="normal" vector-effect="none" style="font-variant-east_asian:normal;marker:none"/></svg>