<svg xmlns="http://www.w3.org/2000/svg" xmlns:osb="http://www.openswatchbook.org/uri/2009/osb" xmlns:svg="http://www.w3.org/2000/svg" xmlns:xlink="http://www.w3.org/1999/xlink" id="svg6" version="1.1" viewBox="0 0 16 16"><metadata id="metadata10"/><defs id="defs3051"><style id="current-color-scheme" type="text/css">.ColorScheme-Text{color:#f2f2f2}</style><linearGradient id="linearGradient846" x1="3" x2="15" y1="-436.5" y2="-436.5" gradientTransform="translate(67,515.00001)" gradientUnits="userSpaceOnUse" xlink:href="#default_color"/><linearGradient id="default_color" osb:paint="solid"><stop id="stop823" offset="0" stop-color="#000" stop-opacity="1"/></linearGradient></defs><path id="path4" fill="url(#linearGradient846)" fill-opacity="1" stroke="none" stroke-dasharray="none" stroke-dashoffset="0" stroke-linecap="round" stroke-linejoin="round" stroke-miterlimit="4" stroke-opacity=".964" stroke-width=".13" marker-end="none" marker-mid="none" marker-start="none" d="M 6.5 2 C 4.007 2 2 4.01 2 6.5 C 2 8.993 4.01 11 6.5 11 C 7.5636432 11 8.5263409 10.618801 9.2949219 10.005859 L 13.292969 14.003906 L 14 13.296875 L 10.001953 9.2988281 C 10.617604 8.529048 11 7.565338 11 6.5 C 11 4.007 8.99 2 6.5 2 z M 6.5 3 C 8.439 3 10 4.561 10 6.5 C 10 8.439 8.439 10 6.5 10 C 4.561 10 3 8.439 3 6.5 C 3 4.561 4.561 3 6.5 3 z" class="ColorScheme-Text" opacity=".64" paint-order="normal" vector-effect="none" style="font-variant-east_asian:normal;marker:none"/></svg>