<svg xmlns="http://www.w3.org/2000/svg" xmlns:osb="http://www.openswatchbook.org/uri/2009/osb" xmlns:svg="http://www.w3.org/2000/svg" xmlns:xlink="http://www.w3.org/1999/xlink" id="svg6" version="1.1" viewBox="0 0 16 16"><metadata id="metadata10"/><defs id="defs3051"><style id="current-color-scheme" type="text/css">.ColorScheme-Text{color:#f2f2f2}</style><linearGradient id="linearGradient846" x1="3" x2="15" y1="-436.5" y2="-436.5" gradientTransform="translate(67,515.00001)" gradientUnits="userSpaceOnUse" xlink:href="#default_color"/><linearGradient id="default_color" osb:paint="solid"><stop id="stop823" offset="0" stop-color="#000" stop-opacity="1"/></linearGradient></defs><path id="path4" fill="url(#linearGradient846)" fill-opacity="1" stroke="none" stroke-dasharray="none" stroke-dashoffset="0" stroke-linecap="round" stroke-linejoin="round" stroke-miterlimit="4" stroke-opacity=".964" stroke-width=".13" marker-end="none" marker-mid="none" marker-start="none" d="M 2 2 L 2 5 L 3 5 L 3 3 L 5 3 L 5 2 L 3 2 L 2 2 z M 11 2 L 11 3 L 13 3 L 13 4 L 13 5 L 14 5 L 14 3 L 14 2 L 11 2 z M 4 4 L 4 7 L 7 7 L 7 4 L 4 4 z M 9 4 L 9 7 L 12 7 L 12 4 L 9 4 z M 4 9 L 4 12 L 7 12 L 7 9 L 4 9 z M 9 9 L 9 12 L 12 12 L 12 9 L 9 9 z M 2 11 L 2 12 L 2 13 L 2 14 L 5 14 L 5 13 L 3 13 L 3 12 L 3 11 L 2 11 z M 13 11 L 13 12 L 13 13 L 12 13 L 11 13 L 11 14 L 12 14 L 13 14 L 14 14 L 14 12 L 14 11 L 13 11 z" class="ColorScheme-Text" opacity=".64" paint-order="normal" vector-effect="none" style="font-variant-east_asian:normal;marker:none"/></svg>