<svg xmlns="http://www.w3.org/2000/svg" xmlns:osb="http://www.openswatchbook.org/uri/2009/osb" xmlns:svg="http://www.w3.org/2000/svg" xmlns:xlink="http://www.w3.org/1999/xlink" id="svg6" version="1.1" viewBox="0 0 16 16"><metadata id="metadata10"/><defs id="defs3051"><style id="current-color-scheme" type="text/css">.ColorScheme-Text{color:#f2f2f2}</style><linearGradient id="linearGradient846" x1="3" x2="15" y1="-436.5" y2="-436.5" gradientTransform="translate(67,515.00001)" gradientUnits="userSpaceOnUse" xlink:href="#default_color"/><linearGradient id="default_color" osb:paint="solid"><stop id="stop823" offset="0" stop-color="#000" stop-opacity="1"/></linearGradient></defs><path id="path4" fill="url(#linearGradient846)" fill-opacity="1" stroke="none" stroke-dasharray="none" stroke-dashoffset="0" stroke-linecap="round" stroke-linejoin="round" stroke-miterlimit="4" stroke-opacity=".964" stroke-width=".13" marker-end="none" marker-mid="none" marker-start="none" d="M 2 2 L 2 3 L 14 3 L 14 2 L 2 2 z M 2 4 L 2 5 L 11 5 L 11 4 L 2 4 z M 2 7 L 2 12 L 5 9.5 L 2 7 z M 7 8 L 7 9 L 14 9 L 14 8 L 7 8 z M 7 10 L 7 11 L 9 11 L 9 10 L 7 10 z M 2 13 L 2 14 L 7 14 L 8 14 L 12 14 L 14 14 L 14 13 L 12 13 L 8 13 L 7 13 L 2 13 z" class="ColorScheme-Text" opacity=".64" paint-order="normal" vector-effect="none" style="font-variant-east_asian:normal;marker:none"/></svg>