<svg xmlns="http://www.w3.org/2000/svg" xmlns:osb="http://www.openswatchbook.org/uri/2009/osb" xmlns:svg="http://www.w3.org/2000/svg" xmlns:xlink="http://www.w3.org/1999/xlink" id="svg6" version="1.1" viewBox="0 0 16 16"><metadata id="metadata10"/><defs id="defs3051"><style id="current-color-scheme" type="text/css">.ColorScheme-Text{color:#f2f2f2}</style><linearGradient id="linearGradient846" x1="3" x2="15" y1="-436.5" y2="-436.5" gradientTransform="translate(67,515.00001)" gradientUnits="userSpaceOnUse" xlink:href="#default_color"/><linearGradient id="default_color" osb:paint="solid"><stop id="stop823" offset="0" stop-color="#000" stop-opacity="1"/></linearGradient></defs><path id="path4" fill="url(#linearGradient846)" fill-opacity="1" stroke="none" stroke-dasharray="none" stroke-dashoffset="0" stroke-linecap="round" stroke-linejoin="round" stroke-miterlimit="4" stroke-opacity=".964" stroke-width=".13" marker-end="none" marker-mid="none" marker-start="none" d="M 4 2 L 4 3 L 5 3 L 5 2 L 4 2 z M 11 2 L 11 3 L 12 3 L 12 2 L 11 2 z M 2 4 L 2 12 L 7 12 L 7 10 L 9 10 L 9 12 L 14 12 L 14 4 L 9 4 L 9 6 L 7 6 L 7 4 L 2 4 z M 3 5 L 6 5 L 6 11 L 3 11 L 3 5 z M 10 5 L 13 5 L 13 11 L 10 11 L 10 5 z M 11 6 L 11 10 L 12 10 L 12 6 L 11 6 z M 7 7 L 9 7 L 9 9 L 7 9 L 7 7 z M 4 13 L 4 14 L 5 14 L 5 13 L 4 13 z M 11 13 L 11 14 L 12 14 L 12 13 L 11 13 z" class="ColorScheme-Text" opacity=".64" paint-order="normal" vector-effect="none" style="font-variant-east_asian:normal;marker:none"/></svg>