<svg xmlns="http://www.w3.org/2000/svg" xmlns:osb="http://www.openswatchbook.org/uri/2009/osb" xmlns:svg="http://www.w3.org/2000/svg" xmlns:xlink="http://www.w3.org/1999/xlink" id="svg6" version="1.1" viewBox="0 0 16 16"><metadata id="metadata10"/><defs id="defs3051"><style id="current-color-scheme" type="text/css">.ColorScheme-Text{color:#f2f2f2}</style><linearGradient id="linearGradient846" x1="3" x2="15" y1="-436.5" y2="-436.5" gradientTransform="translate(67,515.00001)" gradientUnits="userSpaceOnUse" xlink:href="#default_color"/><linearGradient id="default_color" osb:paint="solid"><stop id="stop823" offset="0" stop-color="#000" stop-opacity="1"/></linearGradient></defs><path id="path4" fill="url(#linearGradient846)" fill-opacity="1" stroke="none" stroke-dasharray="none" stroke-dashoffset="0" stroke-linecap="round" stroke-linejoin="round" stroke-miterlimit="4" stroke-opacity=".964" stroke-width=".13" marker-end="none" marker-mid="none" marker-start="none" d="M 10 2.5 C 9.0680195 2.5 8.2844627 3.1373007 8.0625 4 L 2 4 L 2 5 L 8.0625 5 C 8.2844627 5.8626993 9.0680195 6.5 10 6.5 C 10.931981 6.5 11.715537 5.8626993 11.9375 5 L 14 5 L 14 4 L 11.9375 4 C 11.715537 3.1373007 10.931981 2.5 10 2.5 z M 5 9.5 C 4.0680191 9.5 3.2844626 10.137301 3.0625 11 L 2 11 L 2 12 L 3.0625 12 C 3.2844626 12.862699 4.0680191 13.5 5 13.5 C 5.9319809 13.5 6.7155374 12.862699 6.9375 12 L 7 12 L 9 12 L 14 12 L 14 11 L 9 11 L 7 11 L 6.9375 11 C 6.7155374 10.137301 5.9319809 9.5 5 9.5 z M 5 10.5 C 5.55228 10.5 6 10.94772 6 11.5 C 6 12.05228 5.55228 12.5 5 12.5 C 4.44772 12.5 4 12.05228 4 11.5 C 4 10.94772 4.44772 10.5 5 10.5 z" class="ColorScheme-Text" opacity=".64" paint-order="normal" vector-effect="none" style="font-variant-east_asian:normal;marker:none"/></svg>