<svg xmlns="http://www.w3.org/2000/svg" xmlns:svg="http://www.w3.org/2000/svg" id="svg6" version="1.1" viewBox="0 0 24 24"><metadata id="metadata10"/><defs id="defs3051"><style id="current-color-scheme" type="text/css"/></defs><path id="path844" fill="#030505" fill-opacity=".126" fill-rule="evenodd" stroke="none" stroke-linecap="butt" stroke-linejoin="miter" stroke-opacity="1" stroke-width="1" d="M 12,1 C 11.74032,1 11.481478,1.1008176 11.287109,1.3007812 L 0.29492188,12.580078 C -0.09381584,12.980005 -1.28e-5,13.98217 0.734375,14 H 3 v 7 c 0,0.554 0.446,1 1,1 0,0 4.9250608,0 16,0 0.554,0 1,-0.446 1,-1 v -7 h 2 c 1.125848,0 1.093816,-1.019995 0.705078,-1.419922 L 20,8.7773438 V 4 H 16 V 4.6738281 L 12.712891,1.3007812 C 12.518522,1.1008176 12.25968,1 12,1 Z"/><rect marker-start="none" style="isolation:auto;mix-blend-mode:normal;solid-color:#000;solid-opacity:1;marker:none" id="rect830" width="6" height="7" x="9" y="14" fill="#fdfefe" fill-opacity="1" fill-rule="nonzero" stroke="none" stroke-dasharray="none" stroke-dashoffset="0" stroke-linecap="butt" stroke-linejoin="miter" stroke-miterlimit="4" stroke-opacity="1" stroke-width="1.44" marker-end="none" marker-mid="none" clip-rule="nonzero" color="#000" color-interpolation="sRGB" color-interpolation-filters="linearRGB" color-rendering="auto" display="block" enable-background="accumulate" image-rendering="auto" opacity="1" overflow="visible" paint-order="normal" ry="0" shape-rendering="auto" text-rendering="auto" vector-effect="none" visibility="visible"/><path clip-rule="nonzero" style="isolation:auto;mix-blend-mode:normal;solid-color:#000;solid-opacity:1;marker:none" id="rect820" fill="#fff" fill-opacity="1" fill-rule="nonzero" stroke="none" stroke-dasharray="none" stroke-dashoffset="0" stroke-linecap="butt" stroke-linejoin="miter" stroke-miterlimit="4" stroke-opacity="1" stroke-width="1.44" marker-end="none" marker-mid="none" marker-start="none" d="m 20,13 v 7 c 0,0.554 -0.446,1 -1,1 H 5 C 4.446,21 4,20.554 4,20 v -7 z" color="#000" color-interpolation="sRGB" color-interpolation-filters="linearRGB" color-rendering="auto" display="block" enable-background="accumulate" image-rendering="auto" opacity="1" overflow="visible" paint-order="normal" shape-rendering="auto" text-rendering="auto" vector-effect="none" visibility="visible"/><path clip-rule="nonzero" style="isolation:auto;mix-blend-mode:normal;solid-color:#000;solid-opacity:1;marker:none" id="rect824" fill="#fdfefe" fill-opacity="1" fill-rule="nonzero" stroke="none" stroke-dasharray="none" stroke-dashoffset="0" stroke-linecap="butt" stroke-linejoin="miter" stroke-miterlimit="4" stroke-opacity="1" stroke-width="1.45" marker-end="none" marker-mid="none" marker-start="none" d="M 12.713728,2.2999454 22.705939,12.579773 C 23.094677,12.9797 23.125848,14 22,14 L 1.734488,14 C 1.0001002,13.98217 0.9053215,12.9797 1.2940592,12.579773 L 11.286269,2.2999454 c 0.388738,-0.3999272 1.038721,-0.3999272 1.427459,0 z" color="#000" color-interpolation="sRGB" color-interpolation-filters="linearRGB" color-rendering="auto" display="block" enable-background="accumulate" image-rendering="auto" opacity="1" overflow="visible" paint-order="normal" shape-rendering="auto" text-rendering="auto" vector-effect="none" visibility="visible"/><path id="path828" fill="#fdfefe" fill-opacity="1" fill-rule="evenodd" stroke="none" stroke-linecap="butt" stroke-linejoin="miter" stroke-opacity="1" stroke-width="1" d="m 17,5 h 2 V 8 L 17,6 Z"/></svg>